G04 start of page 11 for group -4079 idx -4079 *
G04 Title: (unknown), topsilk *
G04 Creator: pcb 20140316 *
G04 CreationDate: Tue 21 Mar 2017 17:58:47 GMT UTC *
G04 For: kier *
G04 Format: Gerber/RS-274X *
G04 PCB-Dimensions (mil): 2755.91 3543.31 *
G04 PCB-Coordinate-Origin: lower left *
%MOIN*%
%FSLAX25Y25*%
%LNTOPSILK*%
%ADD174C,0.0492*%
%ADD173C,0.0197*%
%ADD172C,0.0098*%
%ADD171C,0.0138*%
%ADD170C,0.0118*%
%ADD169C,0.0079*%
%ADD168C,0.0059*%
G54D168*X170415Y278914D02*X173055D01*
X171735Y280234D02*Y277594D01*
X179391Y280498D02*X180447Y281554D01*
Y276274D01*
X179391D02*X181371D01*
X101963Y277030D02*X102623Y276370D01*
X101963Y280990D02*Y277030D01*
Y280990D02*X102623Y281650D01*
X103943D01*
X104603Y280990D01*
Y277030D01*
X103943Y276370D02*X104603Y277030D01*
X102623Y276370D02*X103943D01*
X101963Y277690D02*X104603Y280330D01*
X110939Y279010D02*X113579D01*
G54D169*X88780Y140945D02*X131693D01*
Y181890D01*
X123819Y189764D01*
X96654D02*X123819D01*
X88780Y140945D02*Y181890D01*
X96654Y189764D01*
X135236Y145669D02*X148228D01*
X135236Y159449D02*X148228D01*
Y145669D01*
X135236Y159449D02*Y145669D01*
G54D168*X141929Y160433D02*X149409D01*
X141929Y164370D02*X149409D01*
Y160433D01*
X141929Y164370D02*Y160433D01*
G54D169*X135236Y165354D02*X148228D01*
X135236Y179134D02*X148228D01*
Y165354D01*
X135236Y179134D02*Y165354D01*
G54D168*X134055Y160433D02*X141535D01*
X134055Y164370D02*X141535D01*
Y160433D01*
X134055Y164370D02*Y160433D01*
G54D169*X115354Y139961D02*Y126969D01*
X129134Y139961D02*Y126969D01*
X115354D02*X129134D01*
X115354Y139961D02*X129134D01*
G54D168*X107677Y139370D02*X115157D01*
X107677Y135433D02*X115157D01*
X107677Y139370D02*Y135433D01*
X115157Y139370D02*Y135433D01*
X111220Y135236D02*Y127756D01*
X115157Y135236D02*Y127756D01*
X111220D02*X115157D01*
X111220Y135236D02*X115157D01*
G54D169*X105512Y138189D02*Y125984D01*
X99606Y138189D02*Y125984D01*
Y138189D02*X105512D01*
X99606Y125984D02*X105512D01*
G54D168*X91929Y137008D02*X99409D01*
X91929Y140945D02*X99409D01*
Y137008D01*
X91929Y140945D02*Y137008D01*
X107283Y135236D02*Y127756D01*
X111220Y135236D02*Y127756D01*
X107283D02*X111220D01*
X107283Y135236D02*X111220D01*
X84449Y140945D02*X91929D01*
X84449Y137008D02*X91929D01*
X84449Y140945D02*Y137008D01*
X91929Y140945D02*Y137008D01*
G54D169*X41535Y140945D02*X84449D01*
Y181890D01*
X76575Y189764D01*
X49409D02*X76575D01*
X41535Y140945D02*Y181890D01*
X49409Y189764D01*
G54D168*X52362Y137008D02*X59843D01*
X52362Y140945D02*X59843D01*
Y137008D01*
X52362Y140945D02*Y137008D01*
X76772D02*X84252D01*
X76772Y140945D02*X84252D01*
Y137008D01*
X76772Y140945D02*Y137008D01*
X59843Y140945D02*X67323D01*
X59843Y137008D02*X67323D01*
X59843Y140945D02*Y137008D01*
X67323Y140945D02*Y137008D01*
X44094Y139961D02*Y132480D01*
X40157Y139961D02*Y132480D01*
Y139961D02*X44094D01*
X40157Y132480D02*X44094D01*
Y118504D02*Y111024D01*
X40157Y118504D02*Y111024D01*
Y118504D02*X44094D01*
X40157Y111024D02*X44094D01*
X136220Y135236D02*Y127756D01*
X140157Y135236D02*Y127756D01*
X136220D02*X140157D01*
X136220Y135236D02*X140157D01*
X132677Y126378D02*X140157D01*
X132677Y122441D02*X140157D01*
X132677Y126378D02*Y122441D01*
X140157Y126378D02*Y122441D01*
X136220Y122244D02*Y114764D01*
X140157Y122244D02*Y114764D01*
X136220D02*X140157D01*
X136220Y122244D02*X140157D01*
X132283D02*Y114764D01*
X136220Y122244D02*Y114764D01*
X132283D02*X136220D01*
X132283Y122244D02*X136220D01*
X132283Y135236D02*Y127756D01*
X136220Y135236D02*Y127756D01*
X132283D02*X136220D01*
X132283Y135236D02*X136220D01*
X132677Y139370D02*X140157D01*
X132677Y135433D02*X140157D01*
X132677Y139370D02*Y135433D01*
X140157Y139370D02*Y135433D01*
G54D169*X115354Y126969D02*Y113976D01*
X129134Y126969D02*Y113976D01*
X115354D02*X129134D01*
X115354Y126969D02*X129134D01*
G54D168*X107283Y122244D02*Y114764D01*
X111220Y122244D02*Y114764D01*
X107283D02*X111220D01*
X107283Y122244D02*X111220D01*
X107677Y126378D02*X115157D01*
X107677Y122441D02*X115157D01*
X107677Y126378D02*Y122441D01*
X115157Y126378D02*Y122441D01*
X111220Y122244D02*Y114764D01*
X115157Y122244D02*Y114764D01*
X111220D02*X115157D01*
X111220Y122244D02*X115157D01*
G54D169*X40748Y284646D02*X59252D01*
X40748Y275591D02*X59252D01*
X40748Y284646D02*Y275591D01*
X59252Y284646D02*Y275591D01*
X88386Y276181D02*X100591D01*
X88386Y282087D02*X100591D01*
Y276181D01*
X88386Y282087D02*Y276181D01*
X72638D02*X84843D01*
X72638Y282087D02*X84843D01*
Y276181D01*
X72638Y282087D02*Y276181D01*
X155118Y282283D02*Y269291D01*
X168898Y282283D02*Y269291D01*
X155118D02*X168898D01*
X155118Y282283D02*X168898D01*
X224016Y289370D02*Y275591D01*
X216142Y289370D02*Y275591D01*
Y289370D02*X224016D01*
X216142Y275591D02*X224016D01*
G54D170*X220079Y290354D02*Y289764D01*
G54D169*X216142Y282480D02*X224016D01*
X220079Y283661D02*Y282480D01*
X198622Y276181D02*X210827D01*
X198622Y282087D02*X210827D01*
Y276181D01*
X198622Y282087D02*Y276181D01*
X182874D02*X195079D01*
X182874Y282087D02*X195079D01*
Y276181D01*
X182874Y282087D02*Y276181D01*
X129921Y282283D02*X153543D01*
X129921Y268504D02*X153543D01*
X129921Y282283D02*Y268504D01*
X153543Y282283D02*Y268504D01*
X153937Y282677D02*Y268110D01*
X144882Y282677D02*X153937D01*
G54D171*X146457Y281496D02*X153150D01*
G54D169*X144882Y268110D02*X153937D01*
G54D171*X146457Y269291D02*X153150D01*
G54D169*X128740Y282283D02*Y269291D01*
X114961Y282283D02*Y269291D01*
Y282283D02*X128740D01*
X114961Y269291D02*X128740D01*
X67323Y289370D02*Y275591D01*
X59449Y289370D02*Y275591D01*
Y289370D02*X67323D01*
X59449Y275591D02*X67323D01*
G54D170*X63386Y290354D02*Y289764D01*
G54D169*X59449Y282480D02*X67323D01*
X63386Y283661D02*Y282480D01*
X224213Y275591D02*X242717D01*
X224213Y284646D02*X242717D01*
Y275591D01*
X224213Y284646D02*Y275591D01*
G54D172*X218012Y301181D02*G75*G03X218012Y301181I12303J0D01*G01*
X68110Y330709D02*Y283465D01*
X112205Y330709D02*Y283465D01*
X68110D02*X112205D01*
X68110Y330709D02*X112205D01*
X103386Y314961D02*X112205D01*
X85748D02*X94567D01*
X68110D02*X76929D01*
X40846Y301181D02*G75*G03X40846Y301181I12303J0D01*G01*
X171260Y330709D02*Y283465D01*
X215354Y330709D02*Y283465D01*
X171260D02*X215354D01*
X171260Y330709D02*X215354D01*
X206535Y314961D02*X215354D01*
X188898D02*X197717D01*
X171260D02*X180079D01*
X112205Y330709D02*Y283465D01*
X171260Y330709D02*Y283465D01*
X112205D02*X171260D01*
X112205Y330709D02*X171260D01*
X159449Y314961D02*X171260D01*
X135827D02*X147638D01*
X112205D02*X124016D01*
G54D169*X135630Y267323D02*X147835D01*
X135630Y261417D02*X147835D01*
X135630Y267323D02*Y261417D01*
X147835Y267323D02*Y261417D01*
G54D172*X159449Y260236D02*Y220866D01*
X124016Y260236D02*Y220866D01*
X159449D01*
X124016Y260236D02*X159449D01*
G54D169*X168504D02*Y246457D01*
X160630Y260236D02*Y246457D01*
Y260236D02*X168504D01*
X160630Y246457D02*X168504D01*
G54D170*X164567Y261220D02*Y260630D01*
G54D169*X160630Y252854D02*X168504D01*
X164567Y254035D02*Y252854D01*
X168504Y239173D02*Y225394D01*
X160630Y239173D02*Y225394D01*
Y239173D02*X168504D01*
X160630Y225394D02*X168504D01*
G54D170*X164567Y240157D02*Y239567D01*
G54D169*X160630Y231791D02*X168504D01*
X164567Y232972D02*Y231791D01*
X122835Y260236D02*Y246457D01*
X114961Y260236D02*Y246457D01*
Y260236D02*X122835D01*
X114961Y246457D02*X122835D01*
G54D170*X118898Y261220D02*Y260630D01*
G54D169*X114961Y252854D02*X122835D01*
X118898Y254035D02*Y252854D01*
X122835Y239173D02*Y225394D01*
X114961Y239173D02*Y225394D01*
Y239173D02*X122835D01*
X114961Y225394D02*X122835D01*
G54D170*X118898Y240157D02*Y239567D01*
G54D169*X114961Y231791D02*X122835D01*
X118898Y232972D02*Y231791D01*
X135039Y211024D02*X148819D01*
X135039Y218898D02*X148819D01*
Y211024D01*
X135039Y218898D02*Y211024D01*
G54D170*X149213Y214961D02*X149803D01*
G54D169*X141437Y218898D02*Y211024D01*
Y214961D02*X142618D01*
X114764Y219685D02*X133268D01*
X114764Y210630D02*X133268D01*
X114764Y219685D02*Y210630D01*
X133268Y219685D02*Y210630D01*
X122835D02*Y192126D01*
X113780Y210630D02*Y192126D01*
Y210630D02*X122835D01*
X113780Y192126D02*X122835D01*
X127933Y209291D02*X155492D01*
X127933Y187244D02*X155492D01*
X127933Y209291D02*Y187244D01*
X155492Y209291D02*Y187244D01*
G54D170*X127539Y209685D02*Y205748D01*
Y209685D02*X131476D01*
G54D169*X139567Y179921D02*X151772D01*
X139567Y185827D02*X151772D01*
Y179921D01*
X139567Y185827D02*Y179921D01*
G54D168*X132087Y181890D02*X139567D01*
X132087Y185827D02*X139567D01*
Y181890D01*
X132087Y185827D02*Y181890D01*
X82480Y195472D02*Y187992D01*
X86417Y195472D02*Y187992D01*
X82480D02*X86417D01*
X82480Y195472D02*X86417D01*
X90354D02*Y187992D01*
X86417Y195472D02*Y187992D01*
Y195472D02*X90354D01*
X86417Y187992D02*X90354D01*
X82480Y195472D02*Y187992D01*
X78543Y195472D02*Y187992D01*
Y195472D02*X82480D01*
X78543Y187992D02*X82480D01*
X200787Y195472D02*Y187992D01*
X204724Y195472D02*Y187992D01*
X200787D02*X204724D01*
X200787Y195472D02*X204724D01*
X192913D02*Y187992D01*
X196850Y195472D02*Y187992D01*
X192913D02*X196850D01*
X192913Y195472D02*X196850D01*
X200787D02*Y187992D01*
X196850Y195472D02*Y187992D01*
Y195472D02*X200787D01*
X196850Y187992D02*X200787D01*
G54D169*X43701Y274803D02*X113780D01*
X43701Y195669D02*X113780D01*
X43701Y274803D02*Y195669D01*
X113780Y274803D02*Y195669D01*
G54D170*X43307Y195276D02*Y203150D01*
Y195276D02*X51181D01*
G54D169*X95472Y189764D02*X107677D01*
X95472Y195669D02*X107677D01*
Y189764D01*
X95472Y195669D02*Y189764D01*
G54D168*X68898Y190748D02*X76378D01*
X68898Y194685D02*X76378D01*
Y190748D01*
X68898Y194685D02*Y190748D01*
X61024Y194685D02*X68504D01*
X61024Y190748D02*X68504D01*
X61024Y194685D02*Y190748D01*
X68504Y194685D02*Y190748D01*
G54D172*X135098Y59843D02*Y23622D01*
X69626Y59843D02*Y23622D01*
Y59843D02*X135098D01*
X69626Y23622D02*X135098D01*
X69626Y39370D02*X82720D01*
X95815D02*X108909D01*
X122004D02*X135098D01*
G54D169*X88189Y82677D02*Y68898D01*
X96063Y82677D02*Y68898D01*
X88189D02*X96063D01*
X88189Y82677D02*X96063D01*
X77756Y59843D02*X96260D01*
X77756Y68898D02*X96260D01*
Y59843D01*
X77756Y68898D02*Y59843D01*
G54D168*X114173Y68701D02*Y61220D01*
X110236Y68701D02*Y61220D01*
Y68701D02*X114173D01*
X110236Y61220D02*X114173D01*
G54D172*X40846Y53150D02*G75*G03X40846Y53150I12303J0D01*G01*
G54D168*X73622Y68110D02*Y60630D01*
X77559Y68110D02*Y60630D01*
X73622D02*X77559D01*
X73622Y68110D02*X77559D01*
X73622D02*Y60630D01*
X69685Y68110D02*Y60630D01*
Y68110D02*X73622D01*
X69685Y60630D02*X73622D01*
X84252Y82874D02*Y75394D01*
X88189Y82874D02*Y75394D01*
X84252D02*X88189D01*
X84252Y82874D02*X88189D01*
G54D169*X48557Y83383D02*X74029D01*
X48557Y69800D02*X74029D01*
X48557Y83383D02*Y69800D01*
X74029Y83383D02*Y69800D01*
G54D170*X48360Y69406D02*X53832D01*
X48360Y76650D02*Y69406D01*
G54D168*X96654Y123031D02*Y115551D01*
X100591Y123031D02*Y115551D01*
X96654D02*X100591D01*
X96654Y123031D02*X100591D01*
Y125787D02*Y118307D01*
X104528Y125787D02*Y118307D01*
X100591D02*X104528D01*
X100591Y125787D02*X104528D01*
X100591Y118307D02*Y110827D01*
X104528Y118307D02*Y110827D01*
X100591D02*X104528D01*
X100591Y118307D02*X104528D01*
X127362Y108661D02*Y101181D01*
X131299Y108661D02*Y101181D01*
X127362D02*X131299D01*
X127362Y108661D02*X131299D01*
G54D169*X131496Y94094D02*X143701D01*
X131496Y100000D02*X143701D01*
Y94094D01*
X131496Y100000D02*Y94094D01*
G54D168*X131299Y101181D02*Y93701D01*
X127362Y101181D02*Y93701D01*
Y101181D02*X131299D01*
X127362Y93701D02*X131299D01*
X136220Y109252D02*Y101772D01*
X140157Y109252D02*Y101772D01*
X136220D02*X140157D01*
X136220Y109252D02*X140157D01*
X132283D02*Y101772D01*
X136220Y109252D02*Y101772D01*
X132283D02*X136220D01*
X132283Y109252D02*X136220D01*
G54D169*X100787Y93898D02*X127165D01*
X100787Y110827D02*X127165D01*
Y93898D01*
X100787Y110827D02*Y93898D01*
G54D168*X100591Y115551D02*Y108071D01*
X96654Y115551D02*Y108071D01*
Y115551D02*X100591D01*
X96654Y108071D02*X100591D01*
X96654D02*Y100591D01*
X100591Y108071D02*Y100591D01*
X96654D02*X100591D01*
X96654Y108071D02*X100591D01*
X40157Y111024D02*Y103543D01*
X44094Y111024D02*Y103543D01*
X40157D02*X44094D01*
X40157Y111024D02*X44094D01*
Y96850D02*Y89370D01*
X40157Y96850D02*Y89370D01*
Y96850D02*X44094D01*
X40157Y89370D02*X44094D01*
G54D169*X44291Y84449D02*X96654D01*
X44291Y136811D02*X96654D01*
Y84449D01*
X44291Y136811D02*Y84449D01*
G54D170*X97047Y91929D02*Y84055D01*
X89173D02*X97047D01*
G54D168*X40157Y132480D02*Y125000D01*
X44094Y132480D02*Y125000D01*
X40157D02*X44094D01*
X40157Y132480D02*X44094D01*
G54D169*X96260Y72835D02*Y59843D01*
X110039Y72835D02*Y59843D01*
X96260D02*X110039D01*
X96260Y72835D02*X110039D01*
G54D172*X96496Y72992D02*X136496D01*
X96496Y92992D02*X136496D01*
Y72992D01*
X96496Y92992D02*Y72992D01*
G54D173*X126496Y92992D02*X136496D01*
Y82992D01*
G54D168*X136811Y76969D02*X144291D01*
X136811Y80906D02*X144291D01*
Y76969D01*
X136811Y80906D02*Y76969D01*
X96654Y100591D02*Y93110D01*
X100591Y100591D02*Y93110D01*
X96654D02*X100591D01*
X96654Y100591D02*X100591D01*
X137205Y89961D02*X144685D01*
X137205Y93898D02*X144685D01*
Y89961D01*
X137205Y93898D02*Y89961D01*
X144291Y76969D02*X151772D01*
X144291Y80906D02*X151772D01*
Y76969D01*
X144291Y80906D02*Y76969D01*
X136811Y40748D02*X144291D01*
X136811Y44685D02*X144291D01*
Y40748D01*
X136811Y44685D02*Y40748D01*
X122047Y68701D02*Y61220D01*
X125984Y68701D02*Y61220D01*
X122047D02*X125984D01*
X122047Y68701D02*X125984D01*
X129921D02*Y61220D01*
X125984Y68701D02*Y61220D01*
Y68701D02*X129921D01*
X125984Y61220D02*X129921D01*
X114173Y68701D02*Y61220D01*
X118110Y68701D02*Y61220D01*
X114173D02*X118110D01*
X114173Y68701D02*X118110D01*
X133858D02*Y61220D01*
X129921Y68701D02*Y61220D01*
Y68701D02*X133858D01*
X129921Y61220D02*X133858D01*
X118110Y68701D02*Y61220D01*
X122047Y68701D02*Y61220D01*
X118110D02*X122047D01*
X118110Y68701D02*X122047D01*
G54D169*X169685Y274803D02*X239764D01*
X169685Y195669D02*X239764D01*
X169685Y274803D02*Y195669D01*
X239764Y274803D02*Y195669D01*
G54D170*X169291Y195276D02*Y203150D01*
Y195276D02*X177165D01*
G54D169*X221457Y189764D02*X233661D01*
X221457Y195669D02*X233661D01*
Y189764D01*
X221457Y195669D02*Y189764D01*
G54D168*X207087Y190748D02*X214567D01*
X207087Y194685D02*X214567D01*
Y190748D01*
X207087Y194685D02*Y190748D01*
G54D169*X228740Y74606D02*X242520D01*
X228740Y66732D02*X242520D01*
X228740Y74606D02*Y66732D01*
X242520Y74606D02*Y66732D01*
G54D168*X212992Y68504D02*Y61024D01*
X216929Y68504D02*Y61024D01*
X212992D02*X216929D01*
X212992Y68504D02*X216929D01*
G54D169*X227559Y92323D02*Y69094D01*
X204331Y92323D02*Y69094D01*
Y92323D02*X227559D01*
X204331Y69094D02*X227559D01*
G54D170*X224016Y92717D02*X227953D01*
Y88780D01*
G54D168*X228937Y88386D02*X236417D01*
X228937Y92323D02*X236417D01*
Y88386D01*
X228937Y92323D02*Y88386D01*
G54D169*X242520Y87598D02*Y74606D01*
X228740Y87598D02*Y74606D01*
Y87598D02*X242520D01*
X228740Y74606D02*X242520D01*
G54D172*X218012Y53150D02*G75*G03X218012Y53150I12303J0D01*G01*
G54D169*X208465Y59449D02*Y40551D01*
X217126Y59449D02*Y40551D01*
X208465D02*X217126D01*
X208465Y59449D02*X217126D01*
X208071Y59843D02*X217520D01*
X208071D02*Y53150D01*
G54D171*X209055Y59055D02*Y54724D01*
G54D169*X217520Y59843D02*Y53150D01*
G54D171*X216535Y59055D02*Y54724D01*
G54D169*X137008Y80906D02*X155512D01*
X137008Y89961D02*X155512D01*
Y80906D01*
X137008Y89961D02*Y80906D01*
G54D168*X185236Y89370D02*X192717D01*
X185236Y93307D02*X192717D01*
Y89370D01*
X185236Y93307D02*Y89370D01*
G54D169*X192520Y77559D02*Y62205D01*
X178740Y77559D02*Y62205D01*
Y77559D02*X192520D01*
X178740Y62205D02*X192520D01*
G54D170*X188976Y77953D02*X192913D01*
Y74016D01*
G54D168*X170472Y80512D02*X177953D01*
X170472Y76575D02*X177953D01*
X170472Y80512D02*Y76575D01*
X177953Y80512D02*Y76575D01*
G54D169*X170276D02*Y62795D01*
X178150Y76575D02*Y62795D01*
X170276D02*X178150D01*
X170276Y76575D02*X178150D01*
G54D170*X174213Y62402D02*Y61811D01*
G54D169*X170276Y70177D02*X178150D01*
X174213D02*Y68996D01*
G54D168*X162598Y80512D02*X170079D01*
X162598Y76575D02*X170079D01*
X162598Y80512D02*Y76575D01*
X170079Y80512D02*Y76575D01*
G54D169*X162402D02*Y62795D01*
X170276Y76575D02*Y62795D01*
X162402D02*X170276D01*
X162402Y76575D02*X170276D01*
G54D170*X166339Y62402D02*Y61811D01*
G54D169*X162402Y70177D02*X170276D01*
X166339D02*Y68996D01*
X137008Y76969D02*Y45472D01*
X159055Y76969D02*Y45472D01*
X137008D02*X159055D01*
X137008Y76969D02*X159055D01*
G54D170*X136614Y45079D02*X140551D01*
X136614Y49016D02*Y45079D01*
G54D168*X156890Y89764D02*X164370D01*
X156890Y93701D02*X164370D01*
Y89764D01*
X156890Y93701D02*Y89764D01*
G54D169*X201575Y60630D02*Y33346D01*
X160630Y60630D02*Y33346D01*
Y60630D02*X201575D01*
X160630Y33346D02*X201575D01*
X160630Y39370D02*X168819D01*
X177008D02*X185197D01*
X193386D02*X201575D01*
X202362Y52756D02*Y40551D01*
X208268Y52756D02*Y40551D01*
X202362D02*X208268D01*
X202362Y52756D02*X208268D01*
G54D168*X207283Y60236D02*Y52756D01*
X203346Y60236D02*Y52756D01*
Y60236D02*X207283D01*
X203346Y52756D02*X207283D01*
X209055Y68504D02*Y61024D01*
X212992Y68504D02*Y61024D01*
X209055D02*X212992D01*
X209055Y68504D02*X212992D01*
X205118D02*Y61024D01*
X209055Y68504D02*Y61024D01*
X205118D02*X209055D01*
X205118Y68504D02*X209055D01*
X205118D02*Y61024D01*
X201181Y68504D02*Y61024D01*
Y68504D02*X205118D01*
X201181Y61024D02*X205118D01*
X201181Y68504D02*Y61024D01*
X197244Y68504D02*Y61024D01*
Y68504D02*X201181D01*
X197244Y61024D02*X201181D01*
X193307Y68504D02*Y61024D01*
X197244Y68504D02*Y61024D01*
X193307D02*X197244D01*
X193307Y68504D02*X197244D01*
X200197Y75984D02*Y68504D01*
X204134Y75984D02*Y68504D01*
X200197D02*X204134D01*
X200197Y75984D02*X204134D01*
X192717Y68504D02*X200197D01*
X192717Y72441D02*X200197D01*
Y68504D01*
X192717Y72441D02*Y68504D01*
G54D169*X151772Y140945D02*X194685D01*
Y181890D01*
X186811Y189764D01*
X159646D02*X186811D01*
X151772Y140945D02*Y181890D01*
X159646Y189764D01*
X199016Y140945D02*X241929D01*
Y181890D01*
X234055Y189764D01*
X206890D02*X234055D01*
X199016Y140945D02*Y181890D01*
X206890Y189764D01*
G54D168*X211220Y140748D02*Y133268D01*
X207283Y140748D02*Y133268D01*
Y140748D02*X211220D01*
X207283Y133268D02*X211220D01*
X215157Y140748D02*Y133268D01*
X211220Y140748D02*Y133268D01*
Y140748D02*X215157D01*
X211220Y133268D02*X215157D01*
X156890Y134252D02*X164370D01*
X156890Y138189D02*X164370D01*
Y134252D01*
X156890Y138189D02*Y134252D01*
G54D169*X169094Y210630D02*Y192126D01*
X160039Y210630D02*Y192126D01*
Y210630D02*X169094D01*
X160039Y192126D02*X169094D01*
G54D168*X215157Y140748D02*Y133268D01*
X219094Y140748D02*Y133268D01*
X215157D02*X219094D01*
X215157Y140748D02*X219094D01*
X192913Y195472D02*Y187992D01*
X188976Y195472D02*Y187992D01*
Y195472D02*X192913D01*
X188976Y187992D02*X192913D01*
G54D172*X213189Y97638D02*X213583D01*
X224606D02*X239173D01*
X213189Y125984D02*X213583D01*
X224606D02*X239173D01*
X213189D02*Y97638D01*
X239173Y125984D02*Y97638D01*
G54D174*X241634Y118701D02*Y104921D01*
G54D172*X239173Y102953D02*X241634D01*
X239173Y120669D02*X241634D01*
G54D169*X242913Y140551D02*Y127559D01*
X229134Y140551D02*Y127559D01*
Y140551D02*X242913D01*
X229134Y127559D02*X242913D01*
X229134Y140551D02*Y128346D01*
X223228Y140551D02*Y128346D01*
Y140551D02*X229134D01*
X223228Y128346D02*X229134D01*
G54D168*X219094Y140748D02*Y133268D01*
X223031Y140748D02*Y133268D01*
X219094D02*X223031D01*
X219094Y140748D02*X223031D01*
X171260Y96811D02*X183858D01*
X171260Y90197D02*X183858D01*
X171260Y96811D02*Y90197D01*
X183858Y96811D02*Y90197D01*
X184252Y97205D02*Y89803D01*
X179528Y97205D02*X184252D01*
G54D170*X181102Y96024D02*X183858D01*
G54D168*X179528Y89803D02*X184252D01*
G54D170*X181102Y90984D02*X183858D01*
G54D169*X177362Y112008D02*Y98228D01*
X169488Y112008D02*Y98228D01*
Y112008D02*X177362D01*
X169488Y98228D02*X177362D01*
X185236Y125000D02*Y112008D01*
X171457Y125000D02*Y112008D01*
Y125000D02*X185236D01*
X171457Y112008D02*X185236D01*
Y98228D01*
X177362Y112008D02*Y98228D01*
Y112008D02*X185236D01*
X177362Y98228D02*X185236D01*
G54D168*X202756Y121260D02*X210236D01*
X202756Y125197D02*X210236D01*
Y121260D01*
X202756Y125197D02*Y121260D01*
G54D169*X185236Y120866D02*Y93307D01*
X211614Y120866D02*Y93307D01*
X185236D02*X211614D01*
X185236Y120866D02*X211614D01*
G54D168*X202756Y129134D02*X210236D01*
X202756Y125197D02*X210236D01*
X202756Y129134D02*Y125197D01*
X210236Y129134D02*Y125197D01*
X202756Y129134D02*X210236D01*
X202756Y133071D02*X210236D01*
Y129134D01*
X202756Y133071D02*Y129134D01*
G54D169*X185236Y122244D02*X200591D01*
X185236Y136024D02*X200591D01*
Y122244D01*
X185236Y136024D02*Y122244D01*
G54D170*X200984Y125787D02*Y121850D01*
X197047D02*X200984D01*
G54D168*X185236Y139961D02*X192717D01*
X185236Y136024D02*X192717D01*
X185236Y139961D02*Y136024D01*
X192717Y139961D02*Y136024D01*
G54D169*X173031Y130906D02*X185236D01*
X173031Y125000D02*X185236D01*
X173031Y130906D02*Y125000D01*
X185236Y130906D02*Y125000D01*
G54D168*X132677Y113386D02*X140157D01*
X132677Y109449D02*X140157D01*
X132677Y113386D02*Y109449D01*
X140157Y113386D02*Y109449D01*
G54D169*X140354Y113976D02*Y100984D01*
X154134Y113976D02*Y100984D01*
X140354D02*X154134D01*
X140354Y113976D02*X154134D01*
X140354Y126969D02*Y113976D01*
X154134Y126969D02*Y113976D01*
X140354D02*X154134D01*
X140354Y126969D02*X154134D01*
G54D168*X151772Y76969D02*X159252D01*
X151772Y80906D02*X159252D01*
Y76969D01*
X151772Y80906D02*Y76969D01*
X156890Y98425D02*X164370D01*
X156890Y94488D02*X164370D01*
X156890Y98425D02*Y94488D01*
X164370Y98425D02*Y94488D01*
G54D169*X166732Y139961D02*X185236D01*
X166732Y130906D02*X185236D01*
X166732Y139961D02*Y130906D01*
X185236Y139961D02*Y130906D01*
X140354Y139961D02*Y126969D01*
X154134Y139961D02*Y126969D01*
X140354D02*X154134D01*
X140354Y139961D02*X154134D01*
G54D168*X156890Y129528D02*X164370D01*
X156890Y133465D02*X164370D01*
Y129528D01*
X156890Y133465D02*Y129528D01*
Y108661D02*X164370D01*
X156890Y112598D02*X164370D01*
Y108661D01*
X156890Y112598D02*Y108661D01*
Y128740D02*X164370D01*
X156890Y124803D02*X164370D01*
X156890Y128740D02*Y124803D01*
X164370Y128740D02*Y124803D01*
X156890Y124016D02*X164370D01*
X156890Y120079D02*X164370D01*
X156890Y124016D02*Y120079D01*
X164370Y124016D02*Y120079D01*
X156890Y115354D02*X164370D01*
X156890Y119291D02*X164370D01*
Y115354D01*
X156890Y119291D02*Y115354D01*
Y103937D02*X164370D01*
X156890Y107874D02*X164370D01*
Y103937D01*
X156890Y107874D02*Y103937D01*
Y103150D02*X164370D01*
X156890Y99213D02*X164370D01*
X156890Y103150D02*Y99213D01*
X164370Y103150D02*Y99213D01*
X139563Y216543D02*Y213423D01*
X140577Y216543D02*X141123Y215997D01*
Y213969D01*
X140577Y213423D02*X141123Y213969D01*
X139173Y213423D02*X140577D01*
X139173Y216543D02*X140577D01*
X143619D02*X144009Y216153D01*
X142449Y216543D02*X143619D01*
X142059Y216153D02*X142449Y216543D01*
X142059Y216153D02*Y215373D01*
X142449Y214983D01*
X143619D01*
X144009Y214593D01*
Y213813D01*
X143619Y213423D02*X144009Y213813D01*
X142449Y213423D02*X143619D01*
X142059Y213813D02*X142449Y213423D01*
X145335D02*X146895Y216543D01*
X144945D02*X146895D01*
X119882Y216817D02*X121682D01*
X122132Y216367D01*
Y215467D01*
X121682Y215017D02*X122132Y215467D01*
X120332Y215017D02*X121682D01*
X120332Y216817D02*Y213217D01*
X121052Y215017D02*X122132Y213217D01*
X123212Y216367D02*X123662Y216817D01*
X125012D01*
X125462Y216367D01*
Y215467D01*
X123212Y213217D02*X125462Y215467D01*
X123212Y213217D02*X125462D01*
X126542Y216097D02*X127262Y216817D01*
Y213217D01*
X126542D02*X127892D01*
X120254Y199401D02*Y198127D01*
X119568Y197441D02*X120254Y198127D01*
X117020Y197441D02*X119568D01*
X117020D02*X116334Y198127D01*
Y199401D02*Y198127D01*
X116824Y200577D02*X116334Y201067D01*
Y202047D02*Y201067D01*
Y202047D02*X116824Y202537D01*
X120254Y202047D02*X119764Y202537D01*
X120254Y202047D02*Y201067D01*
X119764Y200577D02*X120254Y201067D01*
X118098Y202047D02*Y201067D01*
X116824Y202537D02*X117608D01*
X118588D02*X119764D01*
X118588D02*X118098Y202047D01*
X117608Y202537D02*X118098Y202047D01*
X116334Y205183D02*X116824Y205673D01*
X116334Y205183D02*Y204203D01*
X116824Y203713D02*X116334Y204203D01*
X116824Y203713D02*X119764D01*
X120254Y204203D01*
X118098Y205183D02*X118588Y205673D01*
X118098Y205183D02*Y203713D01*
X120254Y205183D02*Y204203D01*
Y205183D02*X119764Y205673D01*
X118588D02*X119764D01*
X142717Y199660D02*Y197050D01*
Y199660D02*X143152Y200095D01*
X144022D01*
X144457Y199660D01*
Y197485D01*
X143587Y196615D02*X144457Y197485D01*
X143152Y196615D02*X143587D01*
X142717Y197050D02*X143152Y196615D01*
X143587Y197920D02*X144457Y196615D01*
X145501Y199660D02*X145936Y200095D01*
X147241D01*
X147676Y199660D01*
Y198790D01*
X145501Y196615D02*X147676Y198790D01*
X145501Y196615D02*X147676D01*
X142489Y181236D02*X143529D01*
X141929Y181796D02*X142489Y181236D01*
X141929Y183876D02*Y181796D01*
Y183876D02*X142489Y184436D01*
X143529D01*
X144489Y184036D02*X144889Y184436D01*
X145689D01*
X146089Y184036D01*
X145689Y181236D02*X146089Y181636D01*
X144889Y181236D02*X145689D01*
X144489Y181636D02*X144889Y181236D01*
Y182996D02*X145689D01*
X146089Y184036D02*Y183396D01*
Y182596D02*Y181636D01*
Y182596D02*X145689Y182996D01*
X146089Y183396D02*X145689Y182996D01*
X147049Y184036D02*X147449Y184436D01*
X148649D01*
X149049Y184036D01*
Y183236D01*
X147049Y181236D02*X149049Y183236D01*
X147049Y181236D02*X149049D01*
X133268Y184883D02*X134368D01*
X134643Y184608D01*
Y184058D01*
X134368Y183783D02*X134643Y184058D01*
X133543Y183783D02*X134368D01*
X133543Y184883D02*Y182683D01*
X133983Y183783D02*X134643Y182683D01*
X135303Y184883D02*X136403D01*
X135303D02*Y183783D01*
X135578Y184058D01*
X136128D01*
X136403Y183783D01*
Y182958D01*
X136128Y182683D02*X136403Y182958D01*
X135578Y182683D02*X136128D01*
X135303Y182958D02*X135578Y182683D01*
X137063Y182958D02*X137338Y182683D01*
X137063Y183398D02*Y182958D01*
Y183398D02*X137448Y183783D01*
X137778D01*
X138163Y183398D01*
Y182958D01*
X137888Y182683D02*X138163Y182958D01*
X137338Y182683D02*X137888D01*
X137063Y184168D02*X137448Y183783D01*
X137063Y184608D02*Y184168D01*
Y184608D02*X137338Y184883D01*
X137888D01*
X138163Y184608D01*
Y184168D01*
X137778Y183783D02*X138163Y184168D01*
X99119Y191332D02*X100042D01*
X98622Y191829D02*X99119Y191332D01*
X98622Y193675D02*Y191829D01*
Y193675D02*X99119Y194172D01*
X100042D01*
X100894Y193817D02*X101249Y194172D01*
X101959D01*
X102314Y193817D01*
X101959Y191332D02*X102314Y191687D01*
X101249Y191332D02*X101959D01*
X100894Y191687D02*X101249Y191332D01*
Y192894D02*X101959D01*
X102314Y193817D02*Y193249D01*
Y192539D02*Y191687D01*
Y192539D02*X101959Y192894D01*
X102314Y193249D02*X101959Y192894D01*
X103166Y194172D02*X104586D01*
X103166D02*Y192752D01*
X103521Y193107D01*
X104231D01*
X104586Y192752D01*
Y191687D01*
X104231Y191332D02*X104586Y191687D01*
X103521Y191332D02*X104231D01*
X103166Y191687D02*X103521Y191332D01*
X104197Y130537D02*Y129497D01*
X103637Y128937D02*X104197Y129497D01*
X101557Y128937D02*X103637D01*
X101557D02*X100997Y129497D01*
Y130537D02*Y129497D01*
X101637Y131497D02*X100997Y132137D01*
X104197D01*
Y132697D02*Y131497D01*
X100997Y134857D02*X101397Y135257D01*
X100997Y134857D02*Y134057D01*
X101397Y133657D02*X100997Y134057D01*
X101397Y133657D02*X103797D01*
X104197Y134057D01*
X102437Y134857D02*X102837Y135257D01*
X102437Y134857D02*Y133657D01*
X104197Y134857D02*Y134057D01*
Y134857D02*X103797Y135257D01*
X102837D02*X103797D01*
X101387Y120472D02*X103787D01*
Y121672D02*Y120472D01*
X101687Y122392D02*X101387Y122692D01*
Y123592D02*Y122692D01*
Y123592D02*X101687Y123892D01*
X102287D01*
X103787Y122392D02*X102287Y123892D01*
X103787D02*Y122392D01*
X138599Y154298D02*Y151018D01*
X139665Y154298D02*X140239Y153724D01*
Y151592D01*
X139665Y151018D02*X140239Y151592D01*
X138189Y151018D02*X139665D01*
X138189Y154298D02*X139665D01*
X141223Y153642D02*X141879Y154298D01*
Y151018D01*
X141223D02*X142453D01*
X143437Y154298D02*X145077D01*
X143437D02*Y152658D01*
X143847Y153068D01*
X144667D01*
X145077Y152658D01*
Y151428D01*
X144667Y151018D02*X145077Y151428D01*
X143847Y151018D02*X144667D01*
X143437Y151428D02*X143847Y151018D01*
X143110Y163573D02*X144310D01*
X144610Y163273D01*
Y162673D01*
X144310Y162373D02*X144610Y162673D01*
X143410Y162373D02*X144310D01*
X143410Y163573D02*Y161173D01*
X143890Y162373D02*X144610Y161173D01*
X145330Y163573D02*X146530D01*
X145330D02*Y162373D01*
X145630Y162673D01*
X146230D01*
X146530Y162373D01*
Y161473D01*
X146230Y161173D02*X146530Y161473D01*
X145630Y161173D02*X146230D01*
X145330Y161473D02*X145630Y161173D01*
X147550D02*X148450Y162373D01*
Y163273D02*Y162373D01*
X148150Y163573D02*X148450Y163273D01*
X147550Y163573D02*X148150D01*
X147250Y163273D02*X147550Y163573D01*
X147250Y163273D02*Y162673D01*
X147550Y162373D01*
X148450D01*
X139370Y173650D02*Y170950D01*
Y173650D02*X139820Y174100D01*
X140720D01*
X141170Y173650D01*
Y171400D01*
X140270Y170500D02*X141170Y171400D01*
X139820Y170500D02*X140270D01*
X139370Y170950D02*X139820Y170500D01*
X140270Y171850D02*X141170Y170500D01*
X142250Y173650D02*X142700Y174100D01*
X143600D01*
X144050Y173650D01*
X143600Y170500D02*X144050Y170950D01*
X142700Y170500D02*X143600D01*
X142250Y170950D02*X142700Y170500D01*
Y172480D02*X143600D01*
X144050Y173650D02*Y172930D01*
Y172030D02*Y170950D01*
Y172030D02*X143600Y172480D01*
X144050Y172930D02*X143600Y172480D01*
X135039Y163573D02*X136239D01*
X136539Y163273D01*
Y162673D01*
X136239Y162373D02*X136539Y162673D01*
X135339Y162373D02*X136239D01*
X135339Y163573D02*Y161173D01*
X135819Y162373D02*X136539Y161173D01*
X138159Y163573D02*X138459Y163273D01*
X137559Y163573D02*X138159D01*
X137259Y163273D02*X137559Y163573D01*
X137259Y163273D02*Y161473D01*
X137559Y161173D01*
X138159Y162493D02*X138459Y162193D01*
X137259Y162493D02*X138159D01*
X137559Y161173D02*X138159D01*
X138459Y161473D01*
Y162193D02*Y161473D01*
X139179D02*X139479Y161173D01*
X139179Y163273D02*Y161473D01*
Y163273D02*X139479Y163573D01*
X140079D01*
X140379Y163273D01*
Y161473D01*
X140079Y161173D02*X140379Y161473D01*
X139479Y161173D02*X140079D01*
X139179Y161773D02*X140379Y162973D01*
X145095Y135204D02*Y131924D01*
X146161Y135204D02*X146735Y134630D01*
Y132498D01*
X146161Y131924D02*X146735Y132498D01*
X144685Y131924D02*X146161D01*
X144685Y135204D02*X146161D01*
X147719Y133154D02*X149359Y135204D01*
X147719Y133154D02*X149769D01*
X149359Y135204D02*Y131924D01*
X139417Y130334D02*Y129554D01*
X138997Y129134D02*X139417Y129554D01*
X137437Y129134D02*X138997D01*
X137437D02*X137017Y129554D01*
Y130334D02*Y129554D01*
X138517Y131054D02*X137017Y132254D01*
X138517Y132554D02*Y131054D01*
X137017Y132254D02*X139417D01*
X137497Y133274D02*X137017Y133754D01*
X139417D01*
Y134174D02*Y133274D01*
X133080Y129743D02*Y128543D01*
Y129743D02*X133380Y130043D01*
X133980D01*
X134280Y129743D02*X133980Y130043D01*
X134280Y129743D02*Y128843D01*
X133080D02*X135480D01*
X134280Y129323D02*X135480Y130043D01*
X133380Y130763D02*X133080Y131063D01*
Y131963D02*Y131063D01*
Y131963D02*X133380Y132263D01*
X133980D01*
X135480Y130763D02*X133980Y132263D01*
X135480D02*Y130763D01*
X133380Y132983D02*X133080Y133283D01*
Y133883D02*Y133283D01*
Y133883D02*X133380Y134183D01*
X135480Y133883D02*X135180Y134183D01*
X135480Y133883D02*Y133283D01*
X135180Y132983D02*X135480Y133283D01*
X134160Y133883D02*Y133283D01*
X133380Y134183D02*X133860D01*
X134460D02*X135180D01*
X134460D02*X134160Y133883D01*
X133860Y134183D02*X134160Y133883D01*
X133465Y138573D02*X134665D01*
X134965Y138273D01*
Y137673D01*
X134665Y137373D02*X134965Y137673D01*
X133765Y137373D02*X134665D01*
X133765Y138573D02*Y136173D01*
X134245Y137373D02*X134965Y136173D01*
X135685Y138273D02*X135985Y138573D01*
X136885D01*
X137185Y138273D01*
Y137673D01*
X135685Y136173D02*X137185Y137673D01*
X135685Y136173D02*X137185D01*
X137905Y138273D02*X138205Y138573D01*
X139105D01*
X139405Y138273D01*
Y137673D01*
X137905Y136173D02*X139405Y137673D01*
X137905Y136173D02*X139405D01*
X145110Y122181D02*Y118781D01*
X146215Y122181D02*X146810Y121586D01*
Y119376D01*
X146215Y118781D02*X146810Y119376D01*
X144685Y118781D02*X146215D01*
X144685Y122181D02*X146215D01*
X148255Y118781D02*X149955Y122181D01*
X147830D02*X149955D01*
X133858Y125581D02*X135058D01*
X135358Y125281D01*
Y124681D01*
X135058Y124381D02*X135358Y124681D01*
X134158Y124381D02*X135058D01*
X134158Y125581D02*Y123181D01*
X134638Y124381D02*X135358Y123181D01*
X136078Y125281D02*X136378Y125581D01*
X136978D01*
X137278Y125281D01*
X136978Y123181D02*X137278Y123481D01*
X136378Y123181D02*X136978D01*
X136078Y123481D02*X136378Y123181D01*
Y124501D02*X136978D01*
X137278Y125281D02*Y124801D01*
Y124201D02*Y123481D01*
Y124201D02*X136978Y124501D01*
X137278Y124801D02*X136978Y124501D01*
X137998Y125281D02*X138298Y125581D01*
X138898D01*
X139198Y125281D01*
X138898Y123181D02*X139198Y123481D01*
X138298Y123181D02*X138898D01*
X137998Y123481D02*X138298Y123181D01*
Y124501D02*X138898D01*
X139198Y125281D02*Y124801D01*
Y124201D02*Y123481D01*
Y124201D02*X138898Y124501D01*
X139198Y124801D02*X138898Y124501D01*
X120110Y135174D02*Y131774D01*
X121215Y135174D02*X121810Y134579D01*
Y132369D01*
X121215Y131774D02*X121810Y132369D01*
X119685Y131774D02*X121215D01*
X119685Y135174D02*X121215D01*
X123255Y131774D02*X124530Y133474D01*
Y134749D02*Y133474D01*
X124105Y135174D02*X124530Y134749D01*
X123255Y135174D02*X124105D01*
X122830Y134749D02*X123255Y135174D01*
X122830Y134749D02*Y133899D01*
X123255Y133474D01*
X124530D01*
X108661Y138573D02*X109861D01*
X110161Y138273D01*
Y137673D01*
X109861Y137373D02*X110161Y137673D01*
X108961Y137373D02*X109861D01*
X108961Y138573D02*Y136173D01*
X109441Y137373D02*X110161Y136173D01*
X110881Y137073D02*X112081Y138573D01*
X110881Y137073D02*X112381D01*
X112081Y138573D02*Y136173D01*
X113401D02*X114301Y137373D01*
Y138273D02*Y137373D01*
X114001Y138573D02*X114301Y138273D01*
X113401Y138573D02*X114001D01*
X113101Y138273D02*X113401Y138573D01*
X113101Y138273D02*Y137673D01*
X113401Y137373D01*
X114301D01*
X108080Y129940D02*Y128740D01*
Y129940D02*X108380Y130240D01*
X108980D01*
X109280Y129940D02*X108980Y130240D01*
X109280Y129940D02*Y129040D01*
X108080D02*X110480D01*
X109280Y129520D02*X110480Y130240D01*
X108080Y132160D02*Y130960D01*
X109280D01*
X108980Y131260D01*
Y131860D02*Y131260D01*
Y131860D02*X109280Y132160D01*
X110180D01*
X110480Y131860D02*X110180Y132160D01*
X110480Y131860D02*Y131260D01*
X110180Y130960D02*X110480Y131260D01*
X110180Y132880D02*X110480Y133180D01*
X108380Y132880D02*X110180D01*
X108380D02*X108080Y133180D01*
Y133780D02*Y133180D01*
Y133780D02*X108380Y134080D01*
X110180D01*
X110480Y133780D02*X110180Y134080D01*
X110480Y133780D02*Y133180D01*
X109880Y132880D02*X108680Y134080D01*
X114367Y129920D02*Y129153D01*
X113954Y128740D02*X114367Y129153D01*
X112420Y128740D02*X113954D01*
X112420D02*X112007Y129153D01*
Y129920D02*Y129153D01*
X113482Y130628D02*X112007Y131808D01*
X113482Y132103D02*Y130628D01*
X112007Y131808D02*X114367D01*
Y133106D02*X112007Y134286D01*
Y132811D01*
X120110Y122181D02*Y118781D01*
X121215Y122181D02*X121810Y121586D01*
Y119376D01*
X121215Y118781D02*X121810Y119376D01*
X119685Y118781D02*X121215D01*
X119685Y122181D02*X121215D01*
X122830Y119206D02*X123255Y118781D01*
X122830Y119886D02*Y119206D01*
Y119886D02*X123425Y120481D01*
X123935D01*
X124530Y119886D01*
Y119206D01*
X124105Y118781D02*X124530Y119206D01*
X123255Y118781D02*X124105D01*
X122830Y121076D02*X123425Y120481D01*
X122830Y121756D02*Y121076D01*
Y121756D02*X123255Y122181D01*
X124105D01*
X124530Y121756D01*
Y121076D01*
X123935Y120481D02*X124530Y121076D01*
X108858Y125581D02*X110058D01*
X110358Y125281D01*
Y124681D01*
X110058Y124381D02*X110358Y124681D01*
X109158Y124381D02*X110058D01*
X109158Y125581D02*Y123181D01*
X109638Y124381D02*X110358Y123181D01*
X111078Y124081D02*X112278Y125581D01*
X111078Y124081D02*X112578D01*
X112278Y125581D02*Y123181D01*
X113298Y125101D02*X113778Y125581D01*
Y123181D01*
X113298D02*X114198D01*
X118752Y277653D02*Y274093D01*
X119909Y277653D02*X120532Y277030D01*
Y274716D01*
X119909Y274093D02*X120532Y274716D01*
X118307Y274093D02*X119909D01*
X118307Y277653D02*X119909D01*
X121600Y276941D02*X122312Y277653D01*
Y274093D01*
X121600D02*X122935D01*
X124003Y277208D02*X124448Y277653D01*
X125783D01*
X126228Y277208D01*
Y276318D01*
X124003Y274093D02*X126228Y276318D01*
X124003Y274093D02*X126228D01*
X61920Y281649D02*X64720D01*
X61920Y282559D02*X62410Y283049D01*
X64230D01*
X64720Y282559D02*X64230Y283049D01*
X64720Y282559D02*Y281299D01*
X61920Y282559D02*Y281299D01*
Y285289D02*X62270Y285639D01*
X61920Y285289D02*Y284239D01*
X62270Y283889D02*X61920Y284239D01*
X62270Y283889D02*X62970D01*
X63320Y284239D01*
Y285289D02*Y284239D01*
Y285289D02*X63670Y285639D01*
X64370D01*
X64720Y285289D02*X64370Y285639D01*
X64720Y285289D02*Y284239D01*
X64370Y283889D02*X64720Y284239D01*
Y286829D02*X63320Y287879D01*
X62270D02*X63320D01*
X61920Y287529D02*X62270Y287879D01*
X61920Y287529D02*Y286829D01*
X62270Y286479D02*X61920Y286829D01*
X62270Y286479D02*X62970D01*
X63320Y286829D01*
Y287879D02*Y286829D01*
X91491Y277596D02*X92505D01*
X90945Y278142D02*X91491Y277596D01*
X90945Y280170D02*Y278142D01*
Y280170D02*X91491Y280716D01*
X92505D01*
X93441Y278766D02*X95001Y280716D01*
X93441Y278766D02*X95391D01*
X95001Y280716D02*Y277596D01*
X96327Y277986D02*X96717Y277596D01*
X96327Y278610D02*Y277986D01*
Y278610D02*X96873Y279156D01*
X97341D01*
X97887Y278610D01*
Y277986D01*
X97497Y277596D02*X97887Y277986D01*
X96717Y277596D02*X97497D01*
X96327Y279702D02*X96873Y279156D01*
X96327Y280326D02*Y279702D01*
Y280326D02*X96717Y280716D01*
X97497D01*
X97887Y280326D01*
Y279702D01*
X97341Y279156D02*X97887Y279702D01*
X75394Y280746D02*X76894D01*
X77269Y280371D01*
Y279621D01*
X76894Y279246D02*X77269Y279621D01*
X75769Y279246D02*X76894D01*
X75769Y280746D02*Y277746D01*
X76369Y279246D02*X77269Y277746D01*
X78169Y280746D02*X79669D01*
X78169D02*Y279246D01*
X78544Y279621D01*
X79294D01*
X79669Y279246D01*
Y278121D01*
X79294Y277746D02*X79669Y278121D01*
X78544Y277746D02*X79294D01*
X78169Y278121D02*X78544Y277746D01*
X80569Y280146D02*X81169Y280746D01*
Y277746D01*
X80569D02*X81694D01*
X46063Y281797D02*X47823D01*
X48263Y281357D01*
Y280477D01*
X47823Y280037D02*X48263Y280477D01*
X46503Y280037D02*X47823D01*
X46503Y281797D02*Y278277D01*
X47207Y280037D02*X48263Y278277D01*
X49319Y281797D02*X51079D01*
X49319D02*Y280037D01*
X49759Y280477D01*
X50639D01*
X51079Y280037D01*
Y278717D01*
X50639Y278277D02*X51079Y278717D01*
X49759Y278277D02*X50639D01*
X49319Y278717D02*X49759Y278277D01*
X52135Y281357D02*X52575Y281797D01*
X53455D01*
X53895Y281357D01*
X53455Y278277D02*X53895Y278717D01*
X52575Y278277D02*X53455D01*
X52135Y278717D02*X52575Y278277D01*
Y280213D02*X53455D01*
X53895Y281357D02*Y280653D01*
Y279773D02*Y278717D01*
Y279773D02*X53455Y280213D01*
X53895Y280653D02*X53455Y280213D01*
X88601Y297752D02*X89297D01*
Y294707D01*
X88862Y294272D02*X89297Y294707D01*
X88427Y294272D02*X88862D01*
X87992Y294707D02*X88427Y294272D01*
X87992Y295142D02*Y294707D01*
X90776Y294272D02*X92516Y297752D01*
X90341D02*X92516D01*
X138784Y262679D02*X139889D01*
X138189Y263274D02*X138784Y262679D01*
X138189Y265484D02*Y263274D01*
Y265484D02*X138784Y266079D01*
X139889D01*
X140909Y265654D02*X141334Y266079D01*
X142184D01*
X142609Y265654D01*
X142184Y262679D02*X142609Y263104D01*
X141334Y262679D02*X142184D01*
X140909Y263104D02*X141334Y262679D01*
Y264549D02*X142184D01*
X142609Y265654D02*Y264974D01*
Y264124D02*Y263104D01*
Y264124D02*X142184Y264549D01*
X142609Y264974D02*X142184Y264549D01*
X143629Y265399D02*X144309Y266079D01*
Y262679D01*
X143629D02*X144904D01*
X138189Y242701D02*Y238701D01*
X140189D01*
X141389Y241901D02*X142189Y242701D01*
Y238701D01*
X141389D02*X142889D01*
X144089Y241901D02*X144889Y242701D01*
Y238701D01*
X144089D02*X145589D01*
X139824Y297298D02*X140568D01*
Y294043D01*
X140103Y293578D02*X140568Y294043D01*
X139638Y293578D02*X140103D01*
X139173Y294043D02*X139638Y293578D01*
X139173Y294508D02*Y294043D01*
X141684Y297298D02*X143544D01*
X141684D02*Y295438D01*
X142149Y295903D01*
X143079D01*
X143544Y295438D01*
Y294043D01*
X143079Y293578D02*X143544Y294043D01*
X142149Y293578D02*X143079D01*
X141684Y294043D02*X142149Y293578D01*
X117335Y250991D02*X120535D01*
X117335Y252031D02*X117895Y252591D01*
X119975D01*
X120535Y252031D02*X119975Y252591D01*
X120535Y252031D02*Y250591D01*
X117335Y252031D02*Y250591D01*
Y255151D02*X117735Y255551D01*
X117335Y255151D02*Y253951D01*
X117735Y253551D02*X117335Y253951D01*
X117735Y253551D02*X118535D01*
X118935Y253951D01*
Y255151D02*Y253951D01*
Y255151D02*X119335Y255551D01*
X120135D01*
X120535Y255151D02*X120135Y255551D01*
X120535Y255151D02*Y253951D01*
X120135Y253551D02*X120535Y253951D01*
X119335Y256511D02*X117335Y258111D01*
X119335Y258511D02*Y256511D01*
X117335Y258111D02*X120535D01*
X117219Y229574D02*X120739D01*
X117219Y230718D02*X117835Y231334D01*
X120123D01*
X120739Y230718D02*X120123Y231334D01*
X120739Y230718D02*Y229134D01*
X117219Y230718D02*Y229134D01*
Y234150D02*X117659Y234590D01*
X117219Y234150D02*Y232830D01*
X117659Y232390D02*X117219Y232830D01*
X117659Y232390D02*X118539D01*
X118979Y232830D01*
Y234150D02*Y232830D01*
Y234150D02*X119419Y234590D01*
X120299D01*
X120739Y234150D02*X120299Y234590D01*
X120739Y234150D02*Y232830D01*
X120299Y232390D02*X120739Y232830D01*
X117219Y237406D02*Y235646D01*
X118979D01*
X118539Y236086D01*
Y236966D02*Y236086D01*
Y236966D02*X118979Y237406D01*
X120299D01*
X120739Y236966D02*X120299Y237406D01*
X120739Y236966D02*Y236086D01*
X120299Y235646D02*X120739Y236086D01*
X139305Y277493D02*Y273293D01*
X140670Y277493D02*X141405Y276758D01*
Y274028D01*
X140670Y273293D02*X141405Y274028D01*
X138780Y273293D02*X140670D01*
X138780Y277493D02*X140670D01*
X142665Y276968D02*X143190Y277493D01*
X144240D01*
X144765Y276968D01*
X144240Y273293D02*X144765Y273818D01*
X143190Y273293D02*X144240D01*
X142665Y273818D02*X143190Y273293D01*
Y275603D02*X144240D01*
X144765Y276968D02*Y276128D01*
Y275078D02*Y273818D01*
Y275078D02*X144240Y275603D01*
X144765Y276128D02*X144240Y275603D01*
X159702Y277643D02*Y274043D01*
X160872Y277643D02*X161502Y277013D01*
Y274673D01*
X160872Y274043D02*X161502Y274673D01*
X159252Y274043D02*X160872D01*
X159252Y277643D02*X160872D01*
X162582Y276923D02*X163302Y277643D01*
Y274043D01*
X162582D02*X163932D01*
X165012Y276923D02*X165732Y277643D01*
Y274043D01*
X165012D02*X166362D01*
X218643Y281074D02*X221563D01*
X218643Y282023D02*X219154Y282534D01*
X221052D01*
X221563Y282023D02*X221052Y282534D01*
X221563Y282023D02*Y280709D01*
X218643Y282023D02*Y280709D01*
Y284870D02*X219008Y285235D01*
X218643Y284870D02*Y283775D01*
X219008Y283410D02*X218643Y283775D01*
X219008Y283410D02*X219738D01*
X220103Y283775D01*
Y284870D02*Y283775D01*
Y284870D02*X220468Y285235D01*
X221198D01*
X221563Y284870D02*X221198Y285235D01*
X221563Y284870D02*Y283775D01*
X221198Y283410D02*X221563Y283775D01*
X221198Y286111D02*X221563Y286476D01*
X220614Y286111D02*X221198D01*
X220614D02*X220103Y286622D01*
Y287060D02*Y286622D01*
Y287060D02*X220614Y287571D01*
X221198D01*
X221563Y287206D02*X221198Y287571D01*
X221563Y287206D02*Y286476D01*
X219592Y286111D02*X220103Y286622D01*
X219008Y286111D02*X219592D01*
X219008D02*X218643Y286476D01*
Y287206D02*Y286476D01*
Y287206D02*X219008Y287571D01*
X219592D01*
X220103Y287060D02*X219592Y287571D01*
X201378Y280746D02*X202878D01*
X203253Y280371D01*
Y279621D01*
X202878Y279246D02*X203253Y279621D01*
X201753Y279246D02*X202878D01*
X201753Y280746D02*Y277746D01*
X202353Y279246D02*X203253Y277746D01*
X204153Y280371D02*X204528Y280746D01*
X205278D01*
X205653Y280371D01*
X205278Y277746D02*X205653Y278121D01*
X204528Y277746D02*X205278D01*
X204153Y278121D02*X204528Y277746D01*
Y279396D02*X205278D01*
X205653Y280371D02*Y279771D01*
Y279021D02*Y278121D01*
Y279021D02*X205278Y279396D01*
X205653Y279771D02*X205278Y279396D01*
X206553Y280746D02*X208053D01*
X206553D02*Y279246D01*
X206928Y279621D01*
X207678D01*
X208053Y279246D01*
Y278121D01*
X207678Y277746D02*X208053Y278121D01*
X206928Y277746D02*X207678D01*
X206553Y278121D02*X206928Y277746D01*
X185592Y277546D02*X186619D01*
X185039Y278099D02*X185592Y277546D01*
X185039Y280153D02*Y278099D01*
Y280153D02*X185592Y280706D01*
X186619D01*
X187567Y278731D02*X189147Y280706D01*
X187567Y278731D02*X189542D01*
X189147Y280706D02*Y277546D01*
X190490Y278731D02*X192070Y280706D01*
X190490Y278731D02*X192465D01*
X192070Y280706D02*Y277546D01*
X229134Y281954D02*X230974D01*
X231434Y281494D01*
Y280574D01*
X230974Y280114D02*X231434Y280574D01*
X229594Y280114D02*X230974D01*
X229594Y281954D02*Y278274D01*
X230330Y280114D02*X231434Y278274D01*
X232538Y281494D02*X232998Y281954D01*
X233918D01*
X234378Y281494D01*
X233918Y278274D02*X234378Y278734D01*
X232998Y278274D02*X233918D01*
X232538Y278734D02*X232998Y278274D01*
Y280298D02*X233918D01*
X234378Y281494D02*Y280758D01*
Y279838D02*Y278734D01*
Y279838D02*X233918Y280298D01*
X234378Y280758D02*X233918Y280298D01*
X235942Y278274D02*X237782Y281954D01*
X235482D02*X237782D01*
X191758Y297348D02*X192462D01*
Y294268D01*
X192022Y293828D02*X192462Y294268D01*
X191582Y293828D02*X192022D01*
X191142Y294268D02*X191582Y293828D01*
X191142Y294708D02*Y294268D01*
X194838Y297348D02*X195278Y296908D01*
X193958Y297348D02*X194838D01*
X193518Y296908D02*X193958Y297348D01*
X193518Y296908D02*Y294268D01*
X193958Y293828D01*
X194838Y295764D02*X195278Y295324D01*
X193518Y295764D02*X194838D01*
X193958Y293828D02*X194838D01*
X195278Y294268D01*
Y295324D02*Y294268D01*
X169598Y163504D02*X170898D01*
X168898Y164204D02*X169598Y163504D01*
X168898Y166804D02*Y164204D01*
Y166804D02*X169598Y167504D01*
X170898D01*
X172098Y167004D02*X172598Y167504D01*
X173598D01*
X174098Y167004D01*
X173598Y163504D02*X174098Y164004D01*
X172598Y163504D02*X173598D01*
X172098Y164004D02*X172598Y163504D01*
Y165704D02*X173598D01*
X174098Y167004D02*Y166204D01*
Y165204D02*Y164004D01*
Y165204D02*X173598Y165704D01*
X174098Y166204D02*X173598Y165704D01*
X175798Y163504D02*X177798Y167504D01*
X175298D02*X177798D01*
X189753Y189940D02*Y188780D01*
Y189940D02*X190043Y190230D01*
X190623D01*
X190913Y189940D02*X190623Y190230D01*
X190913Y189940D02*Y189070D01*
X189753D02*X192073D01*
X190913Y189534D02*X192073Y190230D01*
X190043Y190926D02*X189753Y191216D01*
Y192086D02*Y191216D01*
Y192086D02*X190043Y192376D01*
X190623D01*
X192073Y190926D02*X190623Y192376D01*
X192073D02*Y190926D01*
X191783Y193072D02*X192073Y193362D01*
X191319Y193072D02*X191783D01*
X191319D02*X190913Y193478D01*
Y193826D02*Y193478D01*
Y193826D02*X191319Y194232D01*
X191783D01*
X192073Y193942D02*X191783Y194232D01*
X192073Y193942D02*Y193362D01*
X190507Y193072D02*X190913Y193478D01*
X190043Y193072D02*X190507D01*
X190043D02*X189753Y193362D01*
Y193942D02*Y193362D01*
Y193942D02*X190043Y194232D01*
X190507D01*
X190913Y193826D02*X190507Y194232D01*
X193857Y190273D02*Y189173D01*
Y190273D02*X194132Y190548D01*
X194682D01*
X194957Y190273D02*X194682Y190548D01*
X194957Y190273D02*Y189448D01*
X193857D02*X196057D01*
X194957Y189888D02*X196057Y190548D01*
X194132Y191208D02*X193857Y191483D01*
Y192033D02*Y191483D01*
Y192033D02*X194132Y192308D01*
X196057Y192033D02*X195782Y192308D01*
X196057Y192033D02*Y191483D01*
X195782Y191208D02*X196057Y191483D01*
X194847Y192033D02*Y191483D01*
X194132Y192308D02*X194572D01*
X195122D02*X195782D01*
X195122D02*X194847Y192033D01*
X194572Y192308D02*X194847Y192033D01*
X194132Y192968D02*X193857Y193243D01*
Y194068D02*Y193243D01*
Y194068D02*X194132Y194343D01*
X194682D01*
X196057Y192968D02*X194682Y194343D01*
X196057D02*Y192968D01*
X202362Y237930D02*Y234955D01*
X202787Y234530D01*
X203637D01*
X204062Y234955D01*
Y237930D02*Y234955D01*
X205082Y237930D02*X206782D01*
X205082D02*Y236230D01*
X205507Y236655D01*
X206357D01*
X206782Y236230D01*
Y234955D01*
X206357Y234530D02*X206782Y234955D01*
X205507Y234530D02*X206357D01*
X205082Y234955D02*X205507Y234530D01*
X208268Y193888D02*X209468D01*
X209768Y193588D01*
Y192988D01*
X209468Y192688D02*X209768Y192988D01*
X208568Y192688D02*X209468D01*
X208568Y193888D02*Y191488D01*
X209048Y192688D02*X209768Y191488D01*
X210488Y193588D02*X210788Y193888D01*
X211388D01*
X211688Y193588D01*
X211388Y191488D02*X211688Y191788D01*
X210788Y191488D02*X211388D01*
X210488Y191788D02*X210788Y191488D01*
Y192808D02*X211388D01*
X211688Y193588D02*Y193108D01*
Y192508D02*Y191788D01*
Y192508D02*X211388Y192808D01*
X211688Y193108D02*X211388Y192808D01*
X212408Y193408D02*X212888Y193888D01*
Y191488D01*
X212408D02*X213308D01*
X201554Y190116D02*Y188976D01*
Y190116D02*X201839Y190401D01*
X202409D01*
X202694Y190116D02*X202409Y190401D01*
X202694Y190116D02*Y189261D01*
X201554D02*X203834D01*
X202694Y189717D02*X203834Y190401D01*
X201839Y191085D02*X201554Y191370D01*
Y191940D02*Y191370D01*
Y191940D02*X201839Y192225D01*
X203834Y191940D02*X203549Y192225D01*
X203834Y191940D02*Y191370D01*
X203549Y191085D02*X203834Y191370D01*
X202580Y191940D02*Y191370D01*
X201839Y192225D02*X202295D01*
X202865D02*X203549D01*
X202865D02*X202580Y191940D01*
X202295Y192225D02*X202580Y191940D01*
X203834Y193194D02*X202694Y194049D01*
X201839D02*X202694D01*
X201554Y193764D02*X201839Y194049D01*
X201554Y193764D02*Y193194D01*
X201839Y192909D02*X201554Y193194D01*
X201839Y192909D02*X202409D01*
X202694Y193194D01*
Y194049D02*Y193194D01*
X197647Y190176D02*Y188976D01*
Y190176D02*X197947Y190476D01*
X198547D01*
X198847Y190176D02*X198547Y190476D01*
X198847Y190176D02*Y189276D01*
X197647D02*X200047D01*
X198847Y189756D02*X200047Y190476D01*
X197947Y191196D02*X197647Y191496D01*
Y192096D02*Y191496D01*
Y192096D02*X197947Y192396D01*
X200047Y192096D02*X199747Y192396D01*
X200047Y192096D02*Y191496D01*
X199747Y191196D02*X200047Y191496D01*
X198727Y192096D02*Y191496D01*
X197947Y192396D02*X198427D01*
X199027D02*X199747D01*
X199027D02*X198727Y192096D01*
X198427Y192396D02*X198727Y192096D01*
X197647Y194016D02*X197947Y194316D01*
X197647Y194016D02*Y193416D01*
X197947Y193116D02*X197647Y193416D01*
X197947Y193116D02*X199747D01*
X200047Y193416D01*
X198727Y194016D02*X199027Y194316D01*
X198727Y194016D02*Y193116D01*
X200047Y194016D02*Y193416D01*
Y194016D02*X199747Y194316D01*
X199027D02*X199747D01*
X163005Y251581D02*X166205D01*
X163005Y252621D02*X163565Y253181D01*
X165645D01*
X166205Y252621D02*X165645Y253181D01*
X166205Y252621D02*Y251181D01*
X163005Y252621D02*Y251181D01*
Y255741D02*X163405Y256141D01*
X163005Y255741D02*Y254541D01*
X163405Y254141D02*X163005Y254541D01*
X163405Y254141D02*X164205D01*
X164605Y254541D01*
Y255741D02*Y254541D01*
Y255741D02*X165005Y256141D01*
X165805D01*
X166205Y255741D02*X165805Y256141D01*
X166205Y255741D02*Y254541D01*
X165805Y254141D02*X166205Y254541D01*
X163405Y257101D02*X163005Y257501D01*
Y258701D02*Y257501D01*
Y258701D02*X163405Y259101D01*
X164205D01*
X166205Y257101D02*X164205Y259101D01*
X166205D02*Y257101D01*
X163055Y229953D02*X166455D01*
X163055Y231058D02*X163650Y231653D01*
X165860D01*
X166455Y231058D02*X165860Y231653D01*
X166455Y231058D02*Y229528D01*
X163055Y231058D02*Y229528D01*
Y234373D02*X163480Y234798D01*
X163055Y234373D02*Y233098D01*
X163480Y232673D02*X163055Y233098D01*
X163480Y232673D02*X164330D01*
X164755Y233098D01*
Y234373D02*Y233098D01*
Y234373D02*X165180Y234798D01*
X166030D01*
X166455Y234373D02*X166030Y234798D01*
X166455Y234373D02*Y233098D01*
X166030Y232673D02*X166455Y233098D01*
X163480Y235818D02*X163055Y236243D01*
Y237093D02*Y236243D01*
Y237093D02*X163480Y237518D01*
X166455Y237093D02*X166030Y237518D01*
X166455Y237093D02*Y236243D01*
X166030Y235818D02*X166455Y236243D01*
X164585Y237093D02*Y236243D01*
X163480Y237518D02*X164160D01*
X165010D02*X166030D01*
X165010D02*X164585Y237093D01*
X164160Y237518D02*X164585Y237093D01*
X166664Y199264D02*Y197951D01*
X165957Y197244D02*X166664Y197951D01*
X163331Y197244D02*X165957D01*
X163331D02*X162624Y197951D01*
Y199264D02*Y197951D01*
X163129Y200476D02*X162624Y200981D01*
Y201991D02*Y200981D01*
Y201991D02*X163129Y202496D01*
X166664Y201991D02*X166159Y202496D01*
X166664Y201991D02*Y200981D01*
X166159Y200476D02*X166664Y200981D01*
X164442Y201991D02*Y200981D01*
X163129Y202496D02*X163937D01*
X164947D02*X166159D01*
X164947D02*X164442Y201991D01*
X163937Y202496D02*X164442Y201991D01*
X165149Y203708D02*X162624Y205728D01*
X165149Y206233D02*Y203708D01*
X162624Y205728D02*X166664D01*
X157677Y132668D02*X158877D01*
X159177Y132368D01*
Y131768D01*
X158877Y131468D02*X159177Y131768D01*
X157977Y131468D02*X158877D01*
X157977Y132668D02*Y130268D01*
X158457Y131468D02*X159177Y130268D01*
X159897Y131168D02*X161097Y132668D01*
X159897Y131168D02*X161397D01*
X161097Y132668D02*Y130268D01*
X162117Y132368D02*X162417Y132668D01*
X163017D01*
X163317Y132368D01*
X163017Y130268D02*X163317Y130568D01*
X162417Y130268D02*X163017D01*
X162117Y130568D02*X162417Y130268D01*
Y131588D02*X163017D01*
X163317Y132368D02*Y131888D01*
Y131288D02*Y130568D01*
Y131288D02*X163017Y131588D01*
X163317Y131888D02*X163017Y131588D01*
X157677Y137392D02*X158877D01*
X159177Y137092D01*
Y136492D01*
X158877Y136192D02*X159177Y136492D01*
X157977Y136192D02*X158877D01*
X157977Y137392D02*Y134992D01*
X158457Y136192D02*X159177Y134992D01*
X159897Y137392D02*X161097D01*
X159897D02*Y136192D01*
X160197Y136492D01*
X160797D01*
X161097Y136192D01*
Y135292D01*
X160797Y134992D02*X161097Y135292D01*
X160197Y134992D02*X160797D01*
X159897Y135292D02*X160197Y134992D01*
X161817Y135892D02*X163017Y137392D01*
X161817Y135892D02*X163317D01*
X163017Y137392D02*Y134992D01*
X76772Y237556D02*Y234651D01*
X77187Y234236D01*
X78017D01*
X78432Y234651D01*
Y237556D02*Y234651D01*
X80673Y237556D02*X81088Y237141D01*
X79843Y237556D02*X80673D01*
X79428Y237141D02*X79843Y237556D01*
X79428Y237141D02*Y234651D01*
X79843Y234236D01*
X80673Y236062D02*X81088Y235647D01*
X79428Y236062D02*X80673D01*
X79843Y234236D02*X80673D01*
X81088Y234651D01*
Y235647D02*Y234651D01*
X61811Y193888D02*X63011D01*
X63311Y193588D01*
Y192988D01*
X63011Y192688D02*X63311Y192988D01*
X62111Y192688D02*X63011D01*
X62111Y193888D02*Y191488D01*
X62591Y192688D02*X63311Y191488D01*
X64031Y192388D02*X65231Y193888D01*
X64031Y192388D02*X65531D01*
X65231Y193888D02*Y191488D01*
X66251Y192388D02*X67451Y193888D01*
X66251Y192388D02*X67751D01*
X67451Y193888D02*Y191488D01*
X79512Y137851D02*X80214D01*
X79134Y138229D02*X79512Y137851D01*
X79134Y139633D02*Y138229D01*
Y139633D02*X79512Y140011D01*
X80214D01*
X80862D02*X81942D01*
X80862D02*Y138931D01*
X81132Y139201D01*
X81672D01*
X81942Y138931D01*
Y138121D01*
X81672Y137851D02*X81942Y138121D01*
X81132Y137851D02*X81672D01*
X80862Y138121D02*X81132Y137851D01*
X93692Y137801D02*X94407D01*
X93307Y138186D02*X93692Y137801D01*
X93307Y139616D02*Y138186D01*
Y139616D02*X93692Y140001D01*
X94407D01*
X95067Y138626D02*X96167Y140001D01*
X95067Y138626D02*X96442D01*
X96167Y140001D02*Y137801D01*
X97377D02*X98202Y138901D01*
Y139726D02*Y138901D01*
X97927Y140001D02*X98202Y139726D01*
X97377Y140001D02*X97927D01*
X97102Y139726D02*X97377Y140001D01*
X97102Y139726D02*Y139176D01*
X97377Y138901D01*
X98202D01*
X86205Y137851D02*X86907D01*
X85827Y138229D02*X86205Y137851D01*
X85827Y139633D02*Y138229D01*
Y139633D02*X86205Y140011D01*
X86907D01*
X87555Y138661D02*X88635Y140011D01*
X87555Y138661D02*X88905D01*
X88635Y140011D02*Y137851D01*
X89553Y140011D02*X90633D01*
X89553D02*Y138931D01*
X89823Y139201D01*
X90363D01*
X90633Y138931D01*
Y138121D01*
X90363Y137851D02*X90633Y138121D01*
X89823Y137851D02*X90363D01*
X89553Y138121D02*X89823Y137851D01*
X69882Y193888D02*X71082D01*
X71382Y193588D01*
Y192988D01*
X71082Y192688D02*X71382Y192988D01*
X70182Y192688D02*X71082D01*
X70182Y193888D02*Y191488D01*
X70662Y192688D02*X71382Y191488D01*
X72102Y192388D02*X73302Y193888D01*
X72102Y192388D02*X73602D01*
X73302Y193888D02*Y191488D01*
X74322Y191788D02*X74622Y191488D01*
X74322Y192268D02*Y191788D01*
Y192268D02*X74742Y192688D01*
X75102D01*
X75522Y192268D01*
Y191788D01*
X75222Y191488D02*X75522Y191788D01*
X74622Y191488D02*X75222D01*
X74322Y193108D02*X74742Y192688D01*
X74322Y193588D02*Y193108D01*
Y193588D02*X74622Y193888D01*
X75222D01*
X75522Y193588D01*
Y193108D01*
X75102Y192688D02*X75522Y193108D01*
X83277Y189980D02*Y188780D01*
Y189980D02*X83577Y190280D01*
X84177D01*
X84477Y189980D02*X84177Y190280D01*
X84477Y189980D02*Y189080D01*
X83277D02*X85677D01*
X84477Y189560D02*X85677Y190280D01*
X83277Y192200D02*Y191000D01*
X84477D01*
X84177Y191300D01*
Y191900D02*Y191300D01*
Y191900D02*X84477Y192200D01*
X85377D01*
X85677Y191900D02*X85377Y192200D01*
X85677Y191900D02*Y191300D01*
X85377Y191000D02*X85677Y191300D01*
X83277Y194120D02*Y192920D01*
X84477D01*
X84177Y193220D01*
Y193820D02*Y193220D01*
Y193820D02*X84477Y194120D01*
X85377D01*
X85677Y193820D02*X85377Y194120D01*
X85677Y193820D02*Y193220D01*
X85377Y192920D02*X85677Y193220D01*
X87204Y189960D02*Y188780D01*
Y189960D02*X87499Y190255D01*
X88089D01*
X88384Y189960D02*X88089Y190255D01*
X88384Y189960D02*Y189075D01*
X87204D02*X89564D01*
X88384Y189547D02*X89564Y190255D01*
X88679Y190963D02*X87204Y192143D01*
X88679Y192438D02*Y190963D01*
X87204Y192143D02*X89564D01*
Y193441D02*X87204Y194621D01*
Y193146D01*
X79340Y189980D02*Y188780D01*
Y189980D02*X79640Y190280D01*
X80240D01*
X80540Y189980D02*X80240Y190280D01*
X80540Y189980D02*Y189080D01*
X79340D02*X81740D01*
X80540Y189560D02*X81740Y190280D01*
X79340Y192200D02*Y191000D01*
X80540D01*
X80240Y191300D01*
Y191900D02*Y191300D01*
Y191900D02*X80540Y192200D01*
X81440D01*
X81740Y191900D02*X81440Y192200D01*
X81740Y191900D02*Y191300D01*
X81440Y191000D02*X81740Y191300D01*
X79640Y192920D02*X79340Y193220D01*
Y194120D02*Y193220D01*
Y194120D02*X79640Y194420D01*
X80240D01*
X81740Y192920D02*X80240Y194420D01*
X81740D02*Y192920D01*
X106212Y163307D02*X107512D01*
X105512Y164007D02*X106212Y163307D01*
X105512Y166607D02*Y164007D01*
Y166607D02*X106212Y167307D01*
X107512D01*
X108712Y164807D02*X110712Y167307D01*
X108712Y164807D02*X111212D01*
X110712Y167307D02*Y163307D01*
X112412Y163807D02*X112912Y163307D01*
X112412Y166807D02*Y163807D01*
Y166807D02*X112912Y167307D01*
X113912D01*
X114412Y166807D01*
Y163807D01*
X113912Y163307D02*X114412Y163807D01*
X112912Y163307D02*X113912D01*
X112412Y164307D02*X114412Y166307D01*
X139417Y117145D02*Y116365D01*
X138997Y115945D02*X139417Y116365D01*
X137437Y115945D02*X138997D01*
X137437D02*X137017Y116365D01*
Y117145D02*Y116365D01*
X138517Y117865D02*X137017Y119065D01*
X138517Y119365D02*Y117865D01*
X137017Y119065D02*X139417D01*
X137317Y120085D02*X137017Y120385D01*
Y120985D02*Y120385D01*
Y120985D02*X137317Y121285D01*
X139417Y120985D02*X139117Y121285D01*
X139417Y120985D02*Y120385D01*
X139117Y120085D02*X139417Y120385D01*
X138097Y120985D02*Y120385D01*
X137317Y121285D02*X137797D01*
X138397D02*X139117D01*
X138397D02*X138097Y120985D01*
X137797Y121285D02*X138097Y120985D01*
X133080Y116948D02*Y115748D01*
Y116948D02*X133380Y117248D01*
X133980D01*
X134280Y116948D02*X133980Y117248D01*
X134280Y116948D02*Y116048D01*
X133080D02*X135480D01*
X134280Y116528D02*X135480Y117248D01*
X133380Y117968D02*X133080Y118268D01*
Y118868D02*Y118268D01*
Y118868D02*X133380Y119168D01*
X135480Y118868D02*X135180Y119168D01*
X135480Y118868D02*Y118268D01*
X135180Y117968D02*X135480Y118268D01*
X134160Y118868D02*Y118268D01*
X133380Y119168D02*X133860D01*
X134460D02*X135180D01*
X134460D02*X134160Y118868D01*
X133860Y119168D02*X134160Y118868D01*
X134580Y119888D02*X133080Y121088D01*
X134580Y121388D02*Y119888D01*
X133080Y121088D02*X135480D01*
X157874Y127953D02*X159054D01*
X159349Y127658D01*
Y127068D01*
X159054Y126773D02*X159349Y127068D01*
X158169Y126773D02*X159054D01*
X158169Y127953D02*Y125593D01*
X158641Y126773D02*X159349Y125593D01*
X160057Y126478D02*X161237Y127953D01*
X160057Y126478D02*X161532D01*
X161237Y127953D02*Y125593D01*
X162240Y125888D02*X162535Y125593D01*
X162240Y127658D02*Y125888D01*
Y127658D02*X162535Y127953D01*
X163125D01*
X163420Y127658D01*
Y125888D01*
X163125Y125593D02*X163420Y125888D01*
X162535Y125593D02*X163125D01*
X162240Y126183D02*X163420Y127363D01*
X157874Y123219D02*X159074D01*
X159374Y122919D01*
Y122319D01*
X159074Y122019D02*X159374Y122319D01*
X158174Y122019D02*X159074D01*
X158174Y123219D02*Y120819D01*
X158654Y122019D02*X159374Y120819D01*
X160094Y121719D02*X161294Y123219D01*
X160094Y121719D02*X161594D01*
X161294Y123219D02*Y120819D01*
X162314Y123219D02*X163514D01*
X162314D02*Y122019D01*
X162614Y122319D01*
X163214D01*
X163514Y122019D01*
Y121119D01*
X163214Y120819D02*X163514Y121119D01*
X162614Y120819D02*X163214D01*
X162314Y121119D02*X162614Y120819D01*
X157874Y118494D02*X159074D01*
X159374Y118194D01*
Y117594D01*
X159074Y117294D02*X159374Y117594D01*
X158174Y117294D02*X159074D01*
X158174Y118494D02*Y116094D01*
X158654Y117294D02*X159374Y116094D01*
X160094Y116994D02*X161294Y118494D01*
X160094Y116994D02*X161594D01*
X161294Y118494D02*Y116094D01*
X163214Y118494D02*X163514Y118194D01*
X162614Y118494D02*X163214D01*
X162314Y118194D02*X162614Y118494D01*
X162314Y118194D02*Y116394D01*
X162614Y116094D01*
X163214Y117414D02*X163514Y117114D01*
X162314Y117414D02*X163214D01*
X162614Y116094D02*X163214D01*
X163514Y116394D01*
Y117114D02*Y116394D01*
X157677Y102353D02*X158877D01*
X159177Y102053D01*
Y101453D01*
X158877Y101153D02*X159177Y101453D01*
X157977Y101153D02*X158877D01*
X157977Y102353D02*Y99953D01*
X158457Y101153D02*X159177Y99953D01*
X159897Y102053D02*X160197Y102353D01*
X161097D01*
X161397Y102053D01*
Y101453D01*
X159897Y99953D02*X161397Y101453D01*
X159897Y99953D02*X161397D01*
X162117Y100853D02*X163317Y102353D01*
X162117Y100853D02*X163617D01*
X163317Y102353D02*Y99953D01*
X157677Y107077D02*X158877D01*
X159177Y106777D01*
Y106177D01*
X158877Y105877D02*X159177Y106177D01*
X157977Y105877D02*X158877D01*
X157977Y107077D02*Y104677D01*
X158457Y105877D02*X159177Y104677D01*
X159897Y106777D02*X160197Y107077D01*
X161097D01*
X161397Y106777D01*
Y106177D01*
X159897Y104677D02*X161397Y106177D01*
X159897Y104677D02*X161397D01*
X162417D02*X163617Y107077D01*
X162117D02*X163617D01*
X157677Y97628D02*X158877D01*
X159177Y97328D01*
Y96728D01*
X158877Y96428D02*X159177Y96728D01*
X157977Y96428D02*X158877D01*
X157977Y97628D02*Y95228D01*
X158457Y96428D02*X159177Y95228D01*
X159897Y97328D02*X160197Y97628D01*
X161097D01*
X161397Y97328D01*
Y96728D01*
X159897Y95228D02*X161397Y96728D01*
X159897Y95228D02*X161397D01*
X162417D02*X163317Y96428D01*
Y97328D02*Y96428D01*
X163017Y97628D02*X163317Y97328D01*
X162417Y97628D02*X163017D01*
X162117Y97328D02*X162417Y97628D01*
X162117Y97328D02*Y96728D01*
X162417Y96428D01*
X163317D01*
X111811Y103924D02*X112611Y102324D01*
X113411Y103924D01*
X112611Y102324D02*Y100724D01*
X114371Y103284D02*X115011Y103924D01*
Y100724D01*
X114371D02*X115571D01*
X171654Y79715D02*X172854D01*
X173154Y79415D01*
Y78815D01*
X172854Y78515D02*X173154Y78815D01*
X171954Y78515D02*X172854D01*
X171954Y79715D02*Y77315D01*
X172434Y78515D02*X173154Y77315D01*
X173874Y79235D02*X174354Y79715D01*
Y77315D01*
X173874D02*X174774D01*
X175494Y79415D02*X175794Y79715D01*
X176694D01*
X176994Y79415D01*
Y78815D01*
X175494Y77315D02*X176994Y78815D01*
X175494Y77315D02*X176994D01*
X172260Y65461D02*X176260D01*
X172260Y66761D02*X172960Y67461D01*
X175560D01*
X176260Y66761D02*X175560Y67461D01*
X176260Y66761D02*Y64961D01*
X172260Y66761D02*Y64961D01*
Y70661D02*X172760Y71161D01*
X172260Y70661D02*Y69161D01*
X172760Y68661D02*X172260Y69161D01*
X172760Y68661D02*X173760D01*
X174260Y69161D01*
Y70661D02*Y69161D01*
Y70661D02*X174760Y71161D01*
X175760D01*
X176260Y70661D02*X175760Y71161D01*
X176260Y70661D02*Y69161D01*
X175760Y68661D02*X176260Y69161D01*
X172260Y73861D02*X172760Y74361D01*
X172260Y73861D02*Y72861D01*
X172760Y72361D02*X172260Y72861D01*
X172760Y72361D02*X175760D01*
X176260Y72861D01*
X174060Y73861D02*X174560Y74361D01*
X174060Y73861D02*Y72361D01*
X176260Y73861D02*Y72861D01*
Y73861D02*X175760Y74361D01*
X174560D02*X175760D01*
X164764Y79715D02*X165964D01*
X166264Y79415D01*
Y78815D01*
X165964Y78515D02*X166264Y78815D01*
X165064Y78515D02*X165964D01*
X165064Y79715D02*Y77315D01*
X165544Y78515D02*X166264Y77315D01*
X166984Y79235D02*X167464Y79715D01*
Y77315D01*
X166984D02*X167884D01*
X164543Y65637D02*X168383D01*
X164543Y66885D02*X165215Y67557D01*
X167711D01*
X168383Y66885D02*X167711Y67557D01*
X168383Y66885D02*Y65157D01*
X164543Y66885D02*Y65157D01*
Y70629D02*X165023Y71109D01*
X164543Y70629D02*Y69189D01*
X165023Y68709D02*X164543Y69189D01*
X165023Y68709D02*X165983D01*
X166463Y69189D01*
Y70629D02*Y69189D01*
Y70629D02*X166943Y71109D01*
X167903D01*
X168383Y70629D02*X167903Y71109D01*
X168383Y70629D02*Y69189D01*
X167903Y68709D02*X168383Y69189D01*
X165311Y72261D02*X164543Y73029D01*
X168383D01*
Y73701D02*Y72261D01*
X157874Y111802D02*X159074D01*
X159374Y111502D01*
Y110902D01*
X159074Y110602D02*X159374Y110902D01*
X158174Y110602D02*X159074D01*
X158174Y111802D02*Y109402D01*
X158654Y110602D02*X159374Y109402D01*
X160094Y111502D02*X160394Y111802D01*
X160994D01*
X161294Y111502D01*
X160994Y109402D02*X161294Y109702D01*
X160394Y109402D02*X160994D01*
X160094Y109702D02*X160394Y109402D01*
Y110722D02*X160994D01*
X161294Y111502D02*Y111022D01*
Y110422D02*Y109702D01*
Y110422D02*X160994Y110722D01*
X161294Y111022D02*X160994Y110722D01*
X162014Y109702D02*X162314Y109402D01*
X162014Y110182D02*Y109702D01*
Y110182D02*X162434Y110602D01*
X162794D01*
X163214Y110182D01*
Y109702D01*
X162914Y109402D02*X163214Y109702D01*
X162314Y109402D02*X162914D01*
X162014Y111022D02*X162434Y110602D01*
X162014Y111502D02*Y111022D01*
Y111502D02*X162314Y111802D01*
X162914D01*
X163214Y111502D01*
Y111022D01*
X162794Y110602D02*X163214Y111022D01*
X158071Y92904D02*X159271D01*
X159571Y92604D01*
Y92004D01*
X159271Y91704D02*X159571Y92004D01*
X158371Y91704D02*X159271D01*
X158371Y92904D02*Y90504D01*
X158851Y91704D02*X159571Y90504D01*
X160291Y92604D02*X160591Y92904D01*
X161191D01*
X161491Y92604D01*
X161191Y90504D02*X161491Y90804D01*
X160591Y90504D02*X161191D01*
X160291Y90804D02*X160591Y90504D01*
Y91824D02*X161191D01*
X161491Y92604D02*Y92124D01*
Y91524D02*Y90804D01*
Y91524D02*X161191Y91824D01*
X161491Y92124D02*X161191Y91824D01*
X162211Y90804D02*X162511Y90504D01*
X162211Y92604D02*Y90804D01*
Y92604D02*X162511Y92904D01*
X163111D01*
X163411Y92604D01*
Y90804D01*
X163111Y90504D02*X163411Y90804D01*
X162511Y90504D02*X163111D01*
X162211Y91104D02*X163411Y92304D01*
X216645Y163504D02*X217945D01*
X215945Y164204D02*X216645Y163504D01*
X215945Y166804D02*Y164204D01*
Y166804D02*X216645Y167504D01*
X217945D01*
X219145Y167004D02*X219645Y167504D01*
X220645D01*
X221145Y167004D01*
X220645Y163504D02*X221145Y164004D01*
X219645Y163504D02*X220645D01*
X219145Y164004D02*X219645Y163504D01*
Y165704D02*X220645D01*
X221145Y167004D02*Y166204D01*
Y165204D02*Y164004D01*
Y165204D02*X220645Y165704D01*
X221145Y166204D02*X220645Y165704D01*
X222345Y164004D02*X222845Y163504D01*
X222345Y164804D02*Y164004D01*
Y164804D02*X223045Y165504D01*
X223645D01*
X224345Y164804D01*
Y164004D01*
X223845Y163504D02*X224345Y164004D01*
X222845Y163504D02*X223845D01*
X222345Y166204D02*X223045Y165504D01*
X222345Y167004D02*Y166204D01*
Y167004D02*X222845Y167504D01*
X223845D01*
X224345Y167004D01*
Y166204D01*
X223645Y165504D02*X224345Y166204D01*
X224920Y191232D02*X225869D01*
X224409Y191743D02*X224920Y191232D01*
X224409Y193641D02*Y191743D01*
Y193641D02*X224920Y194152D01*
X225869D01*
X226745Y193787D02*X227110Y194152D01*
X227840D01*
X228205Y193787D01*
X227840Y191232D02*X228205Y191597D01*
X227110Y191232D02*X227840D01*
X226745Y191597D02*X227110Y191232D01*
Y192838D02*X227840D01*
X228205Y193787D02*Y193203D01*
Y192473D02*Y191597D01*
Y192473D02*X227840Y192838D01*
X228205Y193203D02*X227840Y192838D01*
X229081Y193787D02*X229446Y194152D01*
X230176D01*
X230541Y193787D01*
X230176Y191232D02*X230541Y191597D01*
X229446Y191232D02*X230176D01*
X229081Y191597D02*X229446Y191232D01*
Y192838D02*X230176D01*
X230541Y193787D02*Y193203D01*
Y192473D02*Y191597D01*
Y192473D02*X230176Y192838D01*
X230541Y193203D02*X230176Y192838D01*
X228575Y113961D02*X229075Y113461D01*
X227075Y113961D02*X228575D01*
X226575Y113461D02*X227075Y113961D01*
X226575Y113461D02*Y112461D01*
X227075Y111961D01*
X228575D01*
X229075Y111461D01*
Y110461D01*
X228575Y109961D02*X229075Y110461D01*
X227075Y109961D02*X228575D01*
X226575Y110461D02*X227075Y109961D01*
X230275Y113161D02*X231075Y113961D01*
Y109961D01*
X230275D02*X231775D01*
X231522Y89126D02*X232302D01*
X231102Y89546D02*X231522Y89126D01*
X231102Y91106D02*Y89546D01*
Y91106D02*X231522Y91526D01*
X232302D01*
X233322Y89126D02*X234522Y91526D01*
X233022D02*X234522D01*
X207203Y45007D02*Y43902D01*
X206608Y43307D02*X207203Y43902D01*
X204398Y43307D02*X206608D01*
X204398D02*X203803Y43902D01*
Y45007D02*Y43902D01*
X204483Y46027D02*X203803Y46707D01*
X207203D01*
Y47302D02*Y46027D01*
Y48747D02*X205503Y50022D01*
X204228D02*X205503D01*
X203803Y49597D02*X204228Y50022D01*
X203803Y49597D02*Y48747D01*
X204228Y48322D02*X203803Y48747D01*
X204228Y48322D02*X205078D01*
X205503Y48747D01*
Y50022D02*Y48747D01*
X208080Y135846D02*Y134646D01*
Y135846D02*X208380Y136146D01*
X208980D01*
X209280Y135846D02*X208980Y136146D01*
X209280Y135846D02*Y134946D01*
X208080D02*X210480D01*
X209280Y135426D02*X210480Y136146D01*
X208560Y136866D02*X208080Y137346D01*
X210480D01*
Y137766D02*Y136866D01*
X210180Y138486D02*X210480Y138786D01*
X209700Y138486D02*X210180D01*
X209700D02*X209280Y138906D01*
Y139266D02*Y138906D01*
Y139266D02*X209700Y139686D01*
X210180D01*
X210480Y139386D02*X210180Y139686D01*
X210480Y139386D02*Y138786D01*
X208860Y138486D02*X209280Y138906D01*
X208380Y138486D02*X208860D01*
X208380D02*X208080Y138786D01*
Y139386D02*Y138786D01*
Y139386D02*X208380Y139686D01*
X208860D01*
X209280Y139266D02*X208860Y139686D01*
X204357Y122000D02*X205137D01*
X203937Y122420D02*X204357Y122000D01*
X203937Y123980D02*Y122420D01*
Y123980D02*X204357Y124400D01*
X205137D01*
X205857D02*X207057D01*
X205857D02*Y123200D01*
X206157Y123500D01*
X206757D01*
X207057Y123200D01*
Y122300D01*
X206757Y122000D02*X207057Y122300D01*
X206157Y122000D02*X206757D01*
X205857Y122300D02*X206157Y122000D01*
X207777Y122300D02*X208077Y122000D01*
X207777Y124100D02*Y122300D01*
Y124100D02*X208077Y124400D01*
X208677D01*
X208977Y124100D01*
Y122300D01*
X208677Y122000D02*X208977Y122300D01*
X208077Y122000D02*X208677D01*
X207777Y122600D02*X208977Y123800D01*
X203740Y128337D02*X204940D01*
X205240Y128037D01*
Y127437D01*
X204940Y127137D02*X205240Y127437D01*
X204040Y127137D02*X204940D01*
X204040Y128337D02*Y125937D01*
X204520Y127137D02*X205240Y125937D01*
X205960Y128337D02*X207160D01*
X205960D02*Y127137D01*
X206260Y127437D01*
X206860D01*
X207160Y127137D01*
Y126237D01*
X206860Y125937D02*X207160Y126237D01*
X206260Y125937D02*X206860D01*
X205960Y126237D02*X206260Y125937D01*
X208180D02*X209380Y128337D01*
X207880D02*X209380D01*
X203740Y132274D02*X204940D01*
X205240Y131974D01*
Y131374D01*
X204940Y131074D02*X205240Y131374D01*
X204040Y131074D02*X204940D01*
X204040Y132274D02*Y129874D01*
X204520Y131074D02*X205240Y129874D01*
X205960Y132274D02*X207160D01*
X205960D02*Y131074D01*
X206260Y131374D01*
X206860D01*
X207160Y131074D01*
Y130174D01*
X206860Y129874D02*X207160Y130174D01*
X206260Y129874D02*X206860D01*
X205960Y130174D02*X206260Y129874D01*
X208780Y132274D02*X209080Y131974D01*
X208180Y132274D02*X208780D01*
X207880Y131974D02*X208180Y132274D01*
X207880Y131974D02*Y130174D01*
X208180Y129874D01*
X208780Y131194D02*X209080Y130894D01*
X207880Y131194D02*X208780D01*
X208180Y129874D02*X208780D01*
X209080Y130174D01*
Y130894D02*Y130174D01*
X205915Y63405D02*Y62205D01*
Y63405D02*X206215Y63705D01*
X206815D01*
X207115Y63405D02*X206815Y63705D01*
X207115Y63405D02*Y62505D01*
X205915D02*X208315D01*
X207115Y62985D02*X208315Y63705D01*
X206395Y64425D02*X205915Y64905D01*
X208315D01*
Y65325D02*Y64425D01*
X208015Y66045D02*X208315Y66345D01*
X206215Y66045D02*X208015D01*
X206215D02*X205915Y66345D01*
Y66945D02*Y66345D01*
Y66945D02*X206215Y67245D01*
X208015D01*
X208315Y66945D02*X208015Y67245D01*
X208315Y66945D02*Y66345D01*
X207715Y66045D02*X206515Y67245D01*
X204143Y56121D02*Y54921D01*
Y56121D02*X204443Y56421D01*
X205043D01*
X205343Y56121D02*X205043Y56421D01*
X205343Y56121D02*Y55221D01*
X204143D02*X206543D01*
X205343Y55701D02*X206543Y56421D01*
Y57441D02*X205343Y58341D01*
X204443D02*X205343D01*
X204143Y58041D02*X204443Y58341D01*
X204143Y58041D02*Y57441D01*
X204443Y57141D02*X204143Y57441D01*
X204443Y57141D02*X205043D01*
X205343Y57441D01*
Y58341D02*Y57441D01*
X200441Y63602D02*Y62822D01*
X200021Y62402D02*X200441Y62822D01*
X198461Y62402D02*X200021D01*
X198461D02*X198041Y62822D01*
Y63602D02*Y62822D01*
X198521Y64322D02*X198041Y64802D01*
X200441D01*
Y65222D02*Y64322D01*
X200141Y65942D02*X200441Y66242D01*
X199661Y65942D02*X200141D01*
X199661D02*X199241Y66362D01*
Y66722D02*Y66362D01*
Y66722D02*X199661Y67142D01*
X200141D01*
X200441Y66842D02*X200141Y67142D01*
X200441Y66842D02*Y66242D01*
X198821Y65942D02*X199241Y66362D01*
X198341Y65942D02*X198821D01*
X198341D02*X198041Y66242D01*
Y66842D02*Y66242D01*
Y66842D02*X198341Y67142D01*
X198821D01*
X199241Y66722D02*X198821Y67142D01*
X194104Y63189D02*X196504D01*
Y64389D02*Y63189D01*
X194404Y65109D02*X194104Y65409D01*
Y66009D02*Y65409D01*
Y66009D02*X194404Y66309D01*
X196504Y66009D02*X196204Y66309D01*
X196504Y66009D02*Y65409D01*
X196204Y65109D02*X196504Y65409D01*
X195184Y66009D02*Y65409D01*
X194404Y66309D02*X194884D01*
X195484D02*X196204D01*
X195484D02*X195184Y66009D01*
X194884Y66309D02*X195184Y66009D01*
X201978Y64389D02*Y63189D01*
Y64389D02*X202278Y64689D01*
X202878D01*
X203178Y64389D02*X202878Y64689D01*
X203178Y64389D02*Y63489D01*
X201978D02*X204378D01*
X203178Y63969D02*X204378Y64689D01*
X201978Y66609D02*Y65409D01*
X203178D01*
X202878Y65709D01*
Y66309D02*Y65709D01*
Y66309D02*X203178Y66609D01*
X204078D01*
X204378Y66309D02*X204078Y66609D01*
X204378Y66309D02*Y65709D01*
X204078Y65409D02*X204378Y65709D01*
X203394Y71279D02*Y70499D01*
X202974Y70079D02*X203394Y70499D01*
X201414Y70079D02*X202974D01*
X201414D02*X200994Y70499D01*
Y71279D02*Y70499D01*
X201474Y71999D02*X200994Y72479D01*
X203394D01*
Y72899D02*Y71999D01*
X201474Y73619D02*X200994Y74099D01*
X203394D01*
Y74519D02*Y73619D01*
X194318Y69244D02*X195098D01*
X193898Y69664D02*X194318Y69244D01*
X193898Y71224D02*Y69664D01*
Y71224D02*X194318Y71644D01*
X195098D01*
X195818Y71164D02*X196298Y71644D01*
Y69244D01*
X195818D02*X196718D01*
X197738D02*X198938Y71644D01*
X197438D02*X198938D01*
X190961Y126772D02*X194461D01*
X194961Y127272D01*
Y128272D02*Y127272D01*
Y128272D02*X194461Y128772D01*
X190961D02*X194461D01*
X191761Y129972D02*X190961Y130772D01*
X194961D01*
Y131472D02*Y129972D01*
X194488Y109236D02*Y105236D01*
X196488D01*
X197688Y108436D02*X198488Y109236D01*
Y105236D01*
X197688D02*X199188D01*
X200388Y108736D02*X200888Y109236D01*
X202388D01*
X202888Y108736D01*
Y107736D01*
X200388Y105236D02*X202888Y107736D01*
X200388Y105236D02*X202888D01*
X213386Y82661D02*Y79161D01*
X213886Y78661D01*
X214886D01*
X215386Y79161D01*
Y82661D02*Y79161D01*
X216586Y82161D02*X217086Y82661D01*
X218086D01*
X218586Y82161D01*
X218086Y78661D02*X218586Y79161D01*
X217086Y78661D02*X218086D01*
X216586Y79161D02*X217086Y78661D01*
Y80861D02*X218086D01*
X218586Y82161D02*Y81361D01*
Y80361D02*Y79161D01*
Y80361D02*X218086Y80861D01*
X218586Y81361D02*X218086Y80861D01*
X211086Y47472D02*X214486D01*
X211086Y48577D02*X211681Y49172D01*
X213891D01*
X214486Y48577D02*X213891Y49172D01*
X214486Y48577D02*Y47047D01*
X211086Y48577D02*Y47047D01*
X211511Y50192D02*X211086Y50617D01*
Y51892D02*Y50617D01*
Y51892D02*X211511Y52317D01*
X212361D01*
X214486Y50192D02*X212361Y52317D01*
X214486D02*Y50192D01*
X216139Y64369D02*Y63602D01*
X215726Y63189D02*X216139Y63602D01*
X214192Y63189D02*X215726D01*
X214192D02*X213779Y63602D01*
Y64369D02*Y63602D01*
X216139Y65372D02*X214959Y66257D01*
X214074D02*X214959D01*
X213779Y65962D02*X214074Y66257D01*
X213779Y65962D02*Y65372D01*
X214074Y65077D02*X213779Y65372D01*
X214074Y65077D02*X214664D01*
X214959Y65372D01*
Y66257D02*Y65372D01*
X212252Y63208D02*Y62428D01*
X211832Y62008D02*X212252Y62428D01*
X210272Y62008D02*X211832D01*
X210272D02*X209852Y62428D01*
Y63208D02*Y62428D01*
X210152Y63928D02*X209852Y64228D01*
Y65128D02*Y64228D01*
Y65128D02*X210152Y65428D01*
X210752D01*
X212252Y63928D02*X210752Y65428D01*
X212252D02*Y63928D01*
X211952Y66148D02*X212252Y66448D01*
X210152Y66148D02*X211952D01*
X210152D02*X209852Y66448D01*
Y67048D02*Y66448D01*
Y67048D02*X210152Y67348D01*
X211952D01*
X212252Y67048D02*X211952Y67348D01*
X212252Y67048D02*Y66448D01*
X211652Y66148D02*X210452Y67348D01*
X234453Y68781D02*X235558D01*
X233858Y69376D02*X234453Y68781D01*
X233858Y71586D02*Y69376D01*
Y71586D02*X234453Y72181D01*
X235558D01*
X236578Y71501D02*X237258Y72181D01*
Y68781D01*
X236578D02*X237853D01*
X234066Y82655D02*Y79415D01*
X235119Y82655D02*X235686Y82088D01*
Y79982D01*
X235119Y79415D02*X235686Y79982D01*
X233661Y79415D02*X235119D01*
X233661Y82655D02*X235119D01*
X236658Y82007D02*X237306Y82655D01*
Y79415D01*
X236658D02*X237873D01*
X153937Y80306D02*Y77906D01*
X155137D01*
X155857Y80306D02*X157057D01*
X155857D02*Y79106D01*
X156157Y79406D01*
X156757D01*
X157057Y79106D01*
Y78206D01*
X156757Y77906D02*X157057Y78206D01*
X156157Y77906D02*X156757D01*
X155857Y78206D02*X156157Y77906D01*
X146260Y80109D02*Y77709D01*
X147460D01*
X148180Y78609D02*X149380Y80109D01*
X148180Y78609D02*X149680D01*
X149380Y80109D02*Y77709D01*
X138412D02*X139192D01*
X137992Y78129D02*X138412Y77709D01*
X137992Y79689D02*Y78129D01*
Y79689D02*X138412Y80109D01*
X139192D01*
X139912Y79629D02*X140392Y80109D01*
Y77709D01*
X139912D02*X140812D01*
X141532Y78609D02*X142732Y80109D01*
X141532Y78609D02*X143032D01*
X142732Y80109D02*Y77709D01*
X142918Y83742D02*X144023D01*
X142323Y84337D02*X142918Y83742D01*
X142323Y86547D02*Y84337D01*
Y86547D02*X142918Y87142D01*
X144023D01*
X145043Y86717D02*X145468Y87142D01*
X146743D01*
X147168Y86717D01*
Y85867D01*
X145043Y83742D02*X147168Y85867D01*
X145043Y83742D02*X147168D01*
X148188Y86717D02*X148613Y87142D01*
X149463D01*
X149888Y86717D01*
X149463Y83742D02*X149888Y84167D01*
X148613Y83742D02*X149463D01*
X148188Y84167D02*X148613Y83742D01*
Y85612D02*X149463D01*
X149888Y86717D02*Y86037D01*
Y85187D02*Y84167D01*
Y85187D02*X149463Y85612D01*
X149888Y86037D02*X149463Y85612D01*
X175597Y95066D02*Y91866D01*
X176637Y95066D02*X177197Y94506D01*
Y92426D01*
X176637Y91866D02*X177197Y92426D01*
X175197Y91866D02*X176637D01*
X175197Y95066D02*X176637D01*
X178157D02*X179757D01*
X178157D02*Y93466D01*
X178557Y93866D01*
X179357D01*
X179757Y93466D01*
Y92266D01*
X179357Y91866D02*X179757Y92266D01*
X178557Y91866D02*X179357D01*
X178157Y92266D02*X178557Y91866D01*
X187034Y90110D02*X187814D01*
X186614Y90530D02*X187034Y90110D01*
X186614Y92090D02*Y90530D01*
Y92090D02*X187034Y92510D01*
X187814D01*
X188534D02*X189734D01*
X188534D02*Y91310D01*
X188834Y91610D01*
X189434D01*
X189734Y91310D01*
Y90410D01*
X189434Y90110D02*X189734Y90410D01*
X188834Y90110D02*X189434D01*
X188534Y90410D02*X188834Y90110D01*
X190454Y92030D02*X190934Y92510D01*
Y90110D01*
X190454D02*X191354D01*
X181890Y71591D02*X182740Y68191D01*
X183590Y71591D01*
X184610D02*X186310D01*
X186735Y71166D01*
Y70316D01*
X186310Y69891D02*X186735Y70316D01*
X185035Y69891D02*X186310D01*
X185035Y71591D02*Y68191D01*
X185715Y69891D02*X186735Y68191D01*
X187755Y70911D02*X188435Y71591D01*
Y68191D01*
X187755D02*X189030D01*
X179729Y52300D02*X180409D01*
Y49325D01*
X179984Y48900D02*X180409Y49325D01*
X179559Y48900D02*X179984D01*
X179134Y49325D02*X179559Y48900D01*
X179134Y49750D02*Y49325D01*
X181429Y51620D02*X182109Y52300D01*
Y48900D01*
X181429D02*X182704D01*
X233661Y135217D02*Y132817D01*
Y135217D02*X234061Y135617D01*
X234861D01*
X235261Y135217D01*
Y133217D01*
X234461Y132417D02*X235261Y133217D01*
X234061Y132417D02*X234461D01*
X233661Y132817D02*X234061Y132417D01*
X234461Y133617D02*X235261Y132417D01*
X236221Y134977D02*X236861Y135617D01*
Y132417D01*
X236221D02*X237421D01*
X227516Y132699D02*Y131789D01*
X227026Y131299D02*X227516Y131789D01*
X225206Y131299D02*X227026D01*
X225206D02*X224716Y131789D01*
Y132699D02*Y131789D01*
X225066Y133539D02*X224716Y133889D01*
Y134939D02*Y133889D01*
Y134939D02*X225066Y135289D01*
X225766D01*
X227516Y133539D02*X225766Y135289D01*
X227516D02*Y133539D01*
X224716Y137179D02*X225066Y137529D01*
X224716Y137179D02*Y136479D01*
X225066Y136129D02*X224716Y136479D01*
X225066Y136129D02*X227166D01*
X227516Y136479D01*
X225976Y137179D02*X226326Y137529D01*
X225976Y137179D02*Y136129D01*
X227516Y137179D02*Y136479D01*
Y137179D02*X227166Y137529D01*
X226326D02*X227166D01*
X219891Y135649D02*Y134449D01*
Y135649D02*X220191Y135949D01*
X220791D01*
X221091Y135649D02*X220791Y135949D01*
X221091Y135649D02*Y134749D01*
X219891D02*X222291D01*
X221091Y135229D02*X222291Y135949D01*
X220371Y136669D02*X219891Y137149D01*
X222291D01*
Y137569D02*Y136669D01*
Y138589D02*X221091Y139489D01*
X220191D02*X221091D01*
X219891Y139189D02*X220191Y139489D01*
X219891Y139189D02*Y138589D01*
X220191Y138289D02*X219891Y138589D01*
X220191Y138289D02*X220791D01*
X221091Y138589D01*
Y139489D02*Y138589D01*
X215954Y135255D02*Y134055D01*
Y135255D02*X216254Y135555D01*
X216854D01*
X217154Y135255D02*X216854Y135555D01*
X217154Y135255D02*Y134355D01*
X215954D02*X218354D01*
X217154Y134835D02*X218354Y135555D01*
X216254Y136275D02*X215954Y136575D01*
Y137475D02*Y136575D01*
Y137475D02*X216254Y137775D01*
X216854D01*
X218354Y136275D02*X216854Y137775D01*
X218354D02*Y136275D01*
X218054Y138495D02*X218354Y138795D01*
X216254Y138495D02*X218054D01*
X216254D02*X215954Y138795D01*
Y139395D02*Y138795D01*
Y139395D02*X216254Y139695D01*
X218054D01*
X218354Y139395D02*X218054Y139695D01*
X218354Y139395D02*Y138795D01*
X217754Y138495D02*X216554Y139695D01*
X214417Y135452D02*Y134672D01*
X213997Y134252D02*X214417Y134672D01*
X212437Y134252D02*X213997D01*
X212437D02*X212017Y134672D01*
Y135452D02*Y134672D01*
X212317Y136172D02*X212017Y136472D01*
Y137372D02*Y136472D01*
Y137372D02*X212317Y137672D01*
X212917D01*
X214417Y136172D02*X212917Y137672D01*
X214417D02*Y136172D01*
Y138692D02*X212017Y139892D01*
Y138392D01*
X187795Y139214D02*Y137014D01*
X188895D01*
X189555Y138774D02*X189995Y139214D01*
Y137014D01*
X189555D02*X190380D01*
X174125Y133583D02*X175425D01*
X173425Y134283D02*X174125Y133583D01*
X173425Y136883D02*Y134283D01*
Y136883D02*X174125Y137583D01*
X175425D01*
X176625Y137083D02*X177125Y137583D01*
X178125D01*
X178625Y137083D01*
X178125Y133583D02*X178625Y134083D01*
X177125Y133583D02*X178125D01*
X176625Y134083D02*X177125Y133583D01*
Y135783D02*X178125D01*
X178625Y137083D02*Y136283D01*
Y135283D02*Y134083D01*
Y135283D02*X178125Y135783D01*
X178625Y136283D02*X178125Y135783D01*
X177655Y126618D02*X178565D01*
X177165Y127108D02*X177655Y126618D01*
X177165Y128928D02*Y127108D01*
Y128928D02*X177655Y129418D01*
X178565D01*
X179405Y129068D02*X179755Y129418D01*
X180805D01*
X181155Y129068D01*
Y128368D01*
X179405Y126618D02*X181155Y128368D01*
X179405Y126618D02*X181155D01*
X139370Y93101D02*Y90701D01*
X140570D01*
X141290Y91001D02*X141590Y90701D01*
X141290Y91481D02*Y91001D01*
Y91481D02*X141710Y91901D01*
X142070D01*
X142490Y91481D01*
Y91001D01*
X142190Y90701D02*X142490Y91001D01*
X141590Y90701D02*X142190D01*
X141290Y92321D02*X141710Y91901D01*
X141290Y92801D02*Y92321D01*
Y92801D02*X141590Y93101D01*
X142190D01*
X142490Y92801D01*
Y92321D01*
X142070Y91901D02*X142490Y92321D01*
X134756Y95613D02*X135692D01*
X134252Y96117D02*X134756Y95613D01*
X134252Y97989D02*Y96117D01*
Y97989D02*X134756Y98493D01*
X135692D01*
X136556Y98133D02*X136916Y98493D01*
X137996D01*
X138356Y98133D01*
Y97413D01*
X136556Y95613D02*X138356Y97413D01*
X136556Y95613D02*X138356D01*
X139220Y98133D02*X139580Y98493D01*
X140660D01*
X141020Y98133D01*
Y97413D01*
X139220Y95613D02*X141020Y97413D01*
X139220Y95613D02*X141020D01*
X128159Y95866D02*X130559D01*
Y97066D02*Y95866D01*
Y98086D02*X128159Y99286D01*
Y97786D01*
X174866Y103372D02*Y102332D01*
X174306Y101772D02*X174866Y102332D01*
X172226Y101772D02*X174306D01*
X172226D02*X171666Y102332D01*
Y103372D02*Y102332D01*
Y105932D02*Y104332D01*
X173266D01*
X172866Y104732D01*
Y105532D02*Y104732D01*
Y105532D02*X173266Y105932D01*
X174466D01*
X174866Y105532D02*X174466Y105932D01*
X174866Y105532D02*Y104732D01*
X174466Y104332D02*X174866Y104732D01*
X172066Y106892D02*X171666Y107292D01*
Y108492D02*Y107292D01*
Y108492D02*X172066Y108892D01*
X172866D01*
X174866Y106892D02*X172866Y108892D01*
X174866D02*Y106892D01*
X182740Y104553D02*Y103513D01*
X182180Y102953D02*X182740Y103513D01*
X180100Y102953D02*X182180D01*
X180100D02*X179540Y103513D01*
Y104553D02*Y103513D01*
X181540Y105513D02*X179540Y107113D01*
X181540Y107513D02*Y105513D01*
X179540Y107113D02*X182740D01*
X175572Y120116D02*Y117116D01*
X176547Y120116D02*X177072Y119591D01*
Y117641D01*
X176547Y117116D02*X177072Y117641D01*
X175197Y117116D02*X176547D01*
X175197Y120116D02*X176547D01*
X177972Y119516D02*X178572Y120116D01*
Y117116D01*
X177972D02*X179097D01*
X179997Y119741D02*X180372Y120116D01*
X181122D01*
X181497Y119741D01*
X181122Y117116D02*X181497Y117491D01*
X180372Y117116D02*X181122D01*
X179997Y117491D02*X180372Y117116D01*
Y118766D02*X181122D01*
X181497Y119741D02*Y119141D01*
Y118391D02*Y117491D01*
Y118391D02*X181122Y118766D01*
X181497Y119141D02*X181122Y118766D01*
X130559Y103562D02*Y102782D01*
X130139Y102362D02*X130559Y102782D01*
X128579Y102362D02*X130139D01*
X128579D02*X128159Y102782D01*
Y103562D02*Y102782D01*
X128459Y104282D02*X128159Y104582D01*
Y105482D02*Y104582D01*
Y105482D02*X128459Y105782D01*
X129059D01*
X130559Y104282D02*X129059Y105782D01*
X130559D02*Y104282D01*
Y106802D02*X129359Y107702D01*
X128459D02*X129359D01*
X128159Y107402D02*X128459Y107702D01*
X128159Y107402D02*Y106802D01*
X128459Y106502D02*X128159Y106802D01*
X128459Y106502D02*X129059D01*
X129359Y106802D01*
Y107702D02*Y106802D01*
X139417Y103759D02*Y102979D01*
X138997Y102559D02*X139417Y102979D01*
X137437Y102559D02*X138997D01*
X137437D02*X137017Y102979D01*
Y103759D02*Y102979D01*
X138517Y104479D02*X137017Y105679D01*
X138517Y105979D02*Y104479D01*
X137017Y105679D02*X139417D01*
X137317Y106699D02*X137017Y106999D01*
Y107899D02*Y106999D01*
Y107899D02*X137317Y108199D01*
X137917D01*
X139417Y106699D02*X137917Y108199D01*
X139417D02*Y106699D01*
X133080Y103759D02*Y102559D01*
Y103759D02*X133380Y104059D01*
X133980D01*
X134280Y103759D02*X133980Y104059D01*
X134280Y103759D02*Y102859D01*
X133080D02*X135480D01*
X134280Y103339D02*X135480Y104059D01*
X133380Y104779D02*X133080Y105079D01*
Y105979D02*Y105079D01*
Y105979D02*X133380Y106279D01*
X133980D01*
X135480Y104779D02*X133980Y106279D01*
X135480D02*Y104779D01*
X133080Y107899D02*X133380Y108199D01*
X133080Y107899D02*Y107299D01*
X133380Y106999D02*X133080Y107299D01*
X133380Y106999D02*X135180D01*
X135480Y107299D01*
X134160Y107899D02*X134460Y108199D01*
X134160Y107899D02*Y106999D01*
X135480Y107899D02*Y107299D01*
Y107899D02*X135180Y108199D01*
X134460D02*X135180D01*
X133465Y112589D02*X134665D01*
X134965Y112289D01*
Y111689D01*
X134665Y111389D02*X134965Y111689D01*
X133765Y111389D02*X134665D01*
X133765Y112589D02*Y110189D01*
X134245Y111389D02*X134965Y110189D01*
X135685Y112289D02*X135985Y112589D01*
X136885D01*
X137185Y112289D01*
Y111689D01*
X135685Y110189D02*X137185Y111689D01*
X135685Y110189D02*X137185D01*
X137905Y112589D02*X139105D01*
X137905D02*Y111389D01*
X138205Y111689D01*
X138805D01*
X139105Y111389D01*
Y110489D01*
X138805Y110189D02*X139105Y110489D01*
X138205Y110189D02*X138805D01*
X137905Y110489D02*X138205Y110189D01*
X145095Y109023D02*Y105743D01*
X146161Y109023D02*X146735Y108449D01*
Y106317D01*
X146161Y105743D02*X146735Y106317D01*
X144685Y105743D02*X146161D01*
X144685Y109023D02*X146161D01*
X148949D02*X149359Y108613D01*
X148129Y109023D02*X148949D01*
X147719Y108613D02*X148129Y109023D01*
X147719Y108613D02*Y106153D01*
X148129Y105743D01*
X148949Y107547D02*X149359Y107137D01*
X147719Y107547D02*X148949D01*
X148129Y105743D02*X148949D01*
X149359Y106153D01*
Y107137D02*Y106153D01*
X59165Y163307D02*X60465D01*
X58465Y164007D02*X59165Y163307D01*
X58465Y166607D02*Y164007D01*
Y166607D02*X59165Y167307D01*
X60465D01*
X61665Y166807D02*X62165Y167307D01*
X63165D01*
X63665Y166807D01*
X63165Y163307D02*X63665Y163807D01*
X62165Y163307D02*X63165D01*
X61665Y163807D02*X62165Y163307D01*
Y165507D02*X63165D01*
X63665Y166807D02*Y166007D01*
Y165007D02*Y163807D01*
Y165007D02*X63165Y165507D01*
X63665Y166007D02*X63165Y165507D01*
X65365Y163307D02*X66865Y165307D01*
Y166807D02*Y165307D01*
X66365Y167307D02*X66865Y166807D01*
X65365Y167307D02*X66365D01*
X64865Y166807D02*X65365Y167307D01*
X64865Y166807D02*Y165807D01*
X65365Y165307D01*
X66865D01*
X61220Y140011D02*X62300D01*
X62570Y139741D01*
Y139201D01*
X62300Y138931D02*X62570Y139201D01*
X61490Y138931D02*X62300D01*
X61490Y140011D02*Y137851D01*
X61922Y138931D02*X62570Y137851D01*
X63218Y139579D02*X63650Y140011D01*
Y137851D01*
X63218D02*X64028D01*
X64676Y139741D02*X64946Y140011D01*
X65486D01*
X65756Y139741D01*
X65486Y137851D02*X65756Y138121D01*
X64946Y137851D02*X65486D01*
X64676Y138121D02*X64946Y137851D01*
Y139039D02*X65486D01*
X65756Y139741D02*Y139309D01*
Y138769D02*Y138121D01*
Y138769D02*X65486Y139039D01*
X65756Y139309D02*X65486Y139039D01*
X76819Y63208D02*Y62428D01*
X76399Y62008D02*X76819Y62428D01*
X74839Y62008D02*X76399D01*
X74839D02*X74419Y62428D01*
Y63208D02*Y62428D01*
X74719Y63928D02*X74419Y64228D01*
Y65128D02*Y64228D01*
Y65128D02*X74719Y65428D01*
X75319D01*
X76819Y63928D02*X75319Y65428D01*
X76819D02*Y63928D01*
X74899Y66148D02*X74419Y66628D01*
X76819D01*
Y67048D02*Y66148D01*
X85236Y66326D02*Y63126D01*
Y66326D02*X86836D01*
X85236Y64886D02*X86436D01*
X87796Y65686D02*X88436Y66326D01*
Y63126D01*
X87796D02*X88996D01*
X67717Y112780D02*Y109280D01*
X68217Y108780D01*
X69217D01*
X69717Y109280D01*
Y112780D02*Y109280D01*
X70917Y110280D02*X72917Y112780D01*
X70917Y110280D02*X73417D01*
X72917Y112780D02*Y108780D01*
X70482Y62795D02*X72882D01*
Y63995D02*Y62795D01*
X70482Y65615D02*X70782Y65915D01*
X70482Y65615D02*Y65015D01*
X70782Y64715D02*X70482Y65015D01*
X70782Y64715D02*X72582D01*
X72882Y65015D01*
X71562Y65615D02*X71862Y65915D01*
X71562Y65615D02*Y64715D01*
X72882Y65615D02*Y65015D01*
Y65615D02*X72582Y65915D01*
X71862D02*X72582D01*
X59892Y78252D02*X60492D01*
Y75627D01*
X60117Y75252D02*X60492Y75627D01*
X59742Y75252D02*X60117D01*
X59367Y75627D02*X59742Y75252D01*
X59367Y76002D02*Y75627D01*
X61392Y76377D02*X62892Y78252D01*
X61392Y76377D02*X63267D01*
X62892Y78252D02*Y75252D01*
X93817Y74141D02*Y73036D01*
X93222Y72441D02*X93817Y73036D01*
X91012Y72441D02*X93222D01*
X91012D02*X90417Y73036D01*
Y74141D02*Y73036D01*
X91097Y75161D02*X90417Y75841D01*
X93817D01*
Y76436D02*Y75161D01*
X90842Y77456D02*X90417Y77881D01*
Y79156D02*Y77881D01*
Y79156D02*X90842Y79581D01*
X91692D01*
X93817Y77456D02*X91692Y79581D01*
X93817D02*Y77456D01*
X87449Y77972D02*Y77192D01*
X87029Y76772D02*X87449Y77192D01*
X85469Y76772D02*X87029D01*
X85469D02*X85049Y77192D01*
Y77972D02*Y77192D01*
X85529Y78692D02*X85049Y79172D01*
X87449D01*
Y79592D02*Y78692D01*
X87149Y80312D02*X87449Y80612D01*
X85349Y80312D02*X87149D01*
X85349D02*X85049Y80612D01*
Y81212D02*Y80612D01*
Y81212D02*X85349Y81512D01*
X87149D01*
X87449Y81212D02*X87149Y81512D01*
X87449Y81212D02*Y80612D01*
X86849Y80312D02*X85649Y81512D01*
X138609Y41488D02*X139389D01*
X138189Y41908D02*X138609Y41488D01*
X138189Y43468D02*Y41908D01*
Y43468D02*X138609Y43888D01*
X139389D01*
X140109Y43408D02*X140589Y43888D01*
Y41488D01*
X140109D02*X141009D01*
X141729Y43588D02*X142029Y43888D01*
X142629D01*
X142929Y43588D01*
X142629Y41488D02*X142929Y41788D01*
X142029Y41488D02*X142629D01*
X141729Y41788D02*X142029Y41488D01*
Y42808D02*X142629D01*
X142929Y43588D02*Y43108D01*
Y42508D02*Y41788D01*
Y42508D02*X142629Y42808D01*
X142929Y43108D02*X142629Y42808D01*
X100400Y68098D02*Y64898D01*
X101440Y68098D02*X102000Y67538D01*
Y65458D01*
X101440Y64898D02*X102000Y65458D01*
X100000Y64898D02*X101440D01*
X100000Y68098D02*X101440D01*
X102960Y67458D02*X103600Y68098D01*
Y64898D01*
X102960D02*X104160D01*
X105120Y65298D02*X105520Y64898D01*
X105120Y67698D02*Y65298D01*
Y67698D02*X105520Y68098D01*
X106320D01*
X106720Y67698D01*
Y65298D01*
X106320Y64898D02*X106720Y65298D01*
X105520Y64898D02*X106320D01*
X105120Y65698D02*X106720Y67298D01*
X114768Y84977D02*X115448D01*
Y82002D01*
X115023Y81577D02*X115448Y82002D01*
X114598Y81577D02*X115023D01*
X114173Y82002D02*X114598Y81577D01*
X114173Y82427D02*Y82002D01*
X116468Y84552D02*X116893Y84977D01*
X118168D01*
X118593Y84552D01*
Y83702D01*
X116468Y81577D02*X118593Y83702D01*
X116468Y81577D02*X118593D01*
X100700Y52346D02*X101500D01*
Y48846D01*
X101000Y48346D02*X101500Y48846D01*
X100500Y48346D02*X101000D01*
X100000Y48846D02*X100500Y48346D01*
X100000Y49346D02*Y48846D01*
X102700Y51846D02*X103200Y52346D01*
X104200D01*
X104700Y51846D01*
X104200Y48346D02*X104700Y48846D01*
X103200Y48346D02*X104200D01*
X102700Y48846D02*X103200Y48346D01*
Y50546D02*X104200D01*
X104700Y51846D02*Y51046D01*
Y50046D02*Y48846D01*
Y50046D02*X104200Y50546D01*
X104700Y51046D02*X104200Y50546D01*
X117370Y63405D02*Y62625D01*
X116950Y62205D02*X117370Y62625D01*
X115390Y62205D02*X116950D01*
X115390D02*X114970Y62625D01*
Y63405D02*Y62625D01*
X115270Y64125D02*X114970Y64425D01*
Y65325D02*Y64425D01*
Y65325D02*X115270Y65625D01*
X115870D01*
X117370Y64125D02*X115870Y65625D01*
X117370D02*Y64125D01*
X114970Y67545D02*Y66345D01*
X116170D01*
X115870Y66645D01*
Y67245D02*Y66645D01*
Y67245D02*X116170Y67545D01*
X117070D01*
X117370Y67245D02*X117070Y67545D01*
X117370Y67245D02*Y66645D01*
X117070Y66345D02*X117370Y66645D01*
X111033Y62598D02*X113433D01*
Y63798D02*Y62598D01*
X111513Y64518D02*X111033Y64998D01*
X113433D01*
Y65418D02*Y64518D01*
X113133Y66138D02*X113433Y66438D01*
X111333Y66138D02*X113133D01*
X111333D02*X111033Y66438D01*
Y67038D02*Y66438D01*
Y67038D02*X111333Y67338D01*
X113133D01*
X113433Y67038D02*X113133Y67338D01*
X113433Y67038D02*Y66438D01*
X112833Y66138D02*X111633Y67338D01*
X145610Y63067D02*Y60092D01*
X146035Y59667D01*
X146885D01*
X147310Y60092D01*
Y63067D02*Y60092D01*
X148330Y62642D02*X148755Y63067D01*
X150030D01*
X150455Y62642D01*
Y61792D01*
X148330Y59667D02*X150455Y61792D01*
X148330Y59667D02*X150455D01*
X122844Y63583D02*X125244D01*
Y64783D02*Y63583D01*
Y65803D02*X124044Y66703D01*
X123144D02*X124044D01*
X122844Y66403D02*X123144Y66703D01*
X122844Y66403D02*Y65803D01*
X123144Y65503D02*X122844Y65803D01*
X123144Y65503D02*X123744D01*
X124044Y65803D01*
Y66703D02*Y65803D01*
X118907Y63602D02*Y62402D01*
Y63602D02*X119207Y63902D01*
X119807D01*
X120107Y63602D02*X119807Y63902D01*
X120107Y63602D02*Y62702D01*
X118907D02*X121307D01*
X120107Y63182D02*X121307Y63902D01*
X119387Y64622D02*X118907Y65102D01*
X121307D01*
Y65522D02*Y64622D01*
X118907Y67442D02*Y66242D01*
X120107D01*
X119807Y66542D01*
Y67142D02*Y66542D01*
Y67142D02*X120107Y67442D01*
X121007D01*
X121307Y67142D02*X121007Y67442D01*
X121307Y67142D02*Y66542D01*
X121007Y66242D02*X121307Y66542D01*
X129181Y63405D02*Y62625D01*
X128761Y62205D02*X129181Y62625D01*
X127201Y62205D02*X128761D01*
X127201D02*X126781Y62625D01*
Y63405D02*Y62625D01*
X127081Y64125D02*X126781Y64425D01*
Y65325D02*Y64425D01*
Y65325D02*X127081Y65625D01*
X127681D01*
X129181Y64125D02*X127681Y65625D01*
X129181D02*Y64125D01*
X128281Y66345D02*X126781Y67545D01*
X128281Y67845D02*Y66345D01*
X126781Y67545D02*X129181D01*
X130718Y63405D02*Y62205D01*
Y63405D02*X131018Y63705D01*
X131618D01*
X131918Y63405D02*X131618Y63705D01*
X131918Y63405D02*Y62505D01*
X130718D02*X133118D01*
X131918Y62985D02*X133118Y63705D01*
X131198Y64425D02*X130718Y64905D01*
X133118D01*
Y65325D02*Y64425D01*
X132218Y66045D02*X130718Y67245D01*
X132218Y67545D02*Y66045D01*
X130718Y67245D02*X133118D01*
X43354Y92735D02*Y91955D01*
X42934Y91535D02*X43354Y91955D01*
X41374Y91535D02*X42934D01*
X41374D02*X40954Y91955D01*
Y92735D02*Y91955D01*
X43054Y93455D02*X43354Y93755D01*
X42574Y93455D02*X43054D01*
X42574D02*X42154Y93875D01*
Y94235D02*Y93875D01*
Y94235D02*X42574Y94655D01*
X43054D01*
X43354Y94355D02*X43054Y94655D01*
X43354Y94355D02*Y93755D01*
X41734Y93455D02*X42154Y93875D01*
X41254Y93455D02*X41734D01*
X41254D02*X40954Y93755D01*
Y94355D02*Y93755D01*
Y94355D02*X41254Y94655D01*
X41734D01*
X42154Y94235D02*X41734Y94655D01*
X54906Y137851D02*X55608D01*
X54528Y138229D02*X54906Y137851D01*
X54528Y139633D02*Y138229D01*
Y139633D02*X54906Y140011D01*
X55608D01*
X57066D02*X57336Y139741D01*
X56526Y140011D02*X57066D01*
X56256Y139741D02*X56526Y140011D01*
X56256Y139741D02*Y138121D01*
X56526Y137851D01*
X57066Y139039D02*X57336Y138769D01*
X56256Y139039D02*X57066D01*
X56526Y137851D02*X57066D01*
X57336Y138121D01*
Y138769D02*Y138121D01*
X41091Y128245D02*Y127165D01*
Y128245D02*X41361Y128515D01*
X41901D01*
X42171Y128245D02*X41901Y128515D01*
X42171Y128245D02*Y127435D01*
X41091D02*X43251D01*
X42171Y127867D02*X43251Y128515D01*
X42441Y129163D02*X41091Y130243D01*
X42441Y130513D02*Y129163D01*
X41091Y130243D02*X43251D01*
X40924Y135589D02*Y134449D01*
Y135589D02*X41209Y135874D01*
X41779D01*
X42064Y135589D02*X41779Y135874D01*
X42064Y135589D02*Y134734D01*
X40924D02*X43204D01*
X42064Y135190D02*X43204Y135874D01*
X40924Y137413D02*X41209Y137698D01*
X40924Y137413D02*Y136843D01*
X41209Y136558D02*X40924Y136843D01*
X41209Y136558D02*X42919D01*
X43204Y136843D01*
X41950Y137413D02*X42235Y137698D01*
X41950Y137413D02*Y136558D01*
X43204Y137413D02*Y136843D01*
Y137413D02*X42919Y137698D01*
X42235D02*X42919D01*
X41101Y114289D02*Y113189D01*
Y114289D02*X41376Y114564D01*
X41926D01*
X42201Y114289D02*X41926Y114564D01*
X42201Y114289D02*Y113464D01*
X41101D02*X43301D01*
X42201Y113904D02*X43301Y114564D01*
Y115499D02*X41101Y116599D01*
Y115224D01*
X40954Y106712D02*Y105512D01*
Y106712D02*X41254Y107012D01*
X41854D01*
X42154Y106712D02*X41854Y107012D01*
X42154Y106712D02*Y105812D01*
X40954D02*X43354D01*
X42154Y106292D02*X43354Y107012D01*
X43054Y107732D02*X43354Y108032D01*
X42574Y107732D02*X43054D01*
X42574D02*X42154Y108152D01*
Y108512D02*Y108152D01*
Y108512D02*X42574Y108932D01*
X43054D01*
X43354Y108632D02*X43054Y108932D01*
X43354Y108632D02*Y108032D01*
X41734Y107732D02*X42154Y108152D01*
X41254Y107732D02*X41734D01*
X41254D02*X40954Y108032D01*
Y108632D02*Y108032D01*
Y108632D02*X41254Y108932D01*
X41734D01*
X42154Y108512D02*X41734Y108932D01*
X101387Y113405D02*Y112205D01*
Y113405D02*X101687Y113705D01*
X102287D01*
X102587Y113405D02*X102287Y113705D01*
X102587Y113405D02*Y112505D01*
X101387D02*X103787D01*
X102587Y112985D02*X103787Y113705D01*
X101867Y114425D02*X101387Y114905D01*
X103787D01*
Y115325D02*Y114425D01*
X101387Y116945D02*X101687Y117245D01*
X101387Y116945D02*Y116345D01*
X101687Y116045D02*X101387Y116345D01*
X101687Y116045D02*X103487D01*
X103787Y116345D01*
X102467Y116945D02*X102767Y117245D01*
X102467Y116945D02*Y116045D01*
X103787Y116945D02*Y116345D01*
Y116945D02*X103487Y117245D01*
X102767D02*X103487D01*
X99850Y110452D02*Y109672D01*
X99430Y109252D02*X99850Y109672D01*
X97870Y109252D02*X99430D01*
X97870D02*X97450Y109672D01*
Y110452D02*Y109672D01*
X97750Y111172D02*X97450Y111472D01*
Y112372D02*Y111472D01*
Y112372D02*X97750Y112672D01*
X98350D01*
X99850Y111172D02*X98350Y112672D01*
X99850D02*Y111172D01*
X99550Y113392D02*X99850Y113692D01*
X99070Y113392D02*X99550D01*
X99070D02*X98650Y113812D01*
Y114172D02*Y113812D01*
Y114172D02*X99070Y114592D01*
X99550D01*
X99850Y114292D02*X99550Y114592D01*
X99850Y114292D02*Y113692D01*
X98230Y113392D02*X98650Y113812D01*
X97750Y113392D02*X98230D01*
X97750D02*X97450Y113692D01*
Y114292D02*Y113692D01*
Y114292D02*X97750Y114592D01*
X98230D01*
X98650Y114172D02*X98230Y114592D01*
X99850Y118129D02*Y117349D01*
X99430Y116929D02*X99850Y117349D01*
X97870Y116929D02*X99430D01*
X97870D02*X97450Y117349D01*
Y118129D02*Y117349D01*
X97930Y118849D02*X97450Y119329D01*
X99850D01*
Y119749D02*Y118849D01*
X97450Y121669D02*Y120469D01*
X98650D01*
X98350Y120769D01*
Y121369D02*Y120769D01*
Y121369D02*X98650Y121669D01*
X99550D01*
X99850Y121369D02*X99550Y121669D01*
X99850Y121369D02*Y120769D01*
X99550Y120469D02*X99850Y120769D01*
X108070Y116731D02*Y115551D01*
Y116731D02*X108365Y117026D01*
X108955D01*
X109250Y116731D02*X108955Y117026D01*
X109250Y116731D02*Y115846D01*
X108070D02*X110430D01*
X109250Y116318D02*X110430Y117026D01*
X109545Y117734D02*X108070Y118914D01*
X109545Y119209D02*Y117734D01*
X108070Y118914D02*X110430D01*
X108365Y119917D02*X108070Y120212D01*
Y121097D02*Y120212D01*
Y121097D02*X108365Y121392D01*
X108955D01*
X110430Y119917D02*X108955Y121392D01*
X110430D02*Y119917D01*
X99850Y95688D02*Y94908D01*
X99430Y94488D02*X99850Y94908D01*
X97870Y94488D02*X99430D01*
X97870D02*X97450Y94908D01*
Y95688D02*Y94908D01*
X97750Y96408D02*X97450Y96708D01*
Y97308D02*Y96708D01*
Y97308D02*X97750Y97608D01*
X99850Y97308D02*X99550Y97608D01*
X99850Y97308D02*Y96708D01*
X99550Y96408D02*X99850Y96708D01*
X98530Y97308D02*Y96708D01*
X97750Y97608D02*X98230D01*
X98830D02*X99550D01*
X98830D02*X98530Y97308D01*
X98230Y97608D02*X98530Y97308D01*
X99550Y98328D02*X99850Y98628D01*
X97750Y98328D02*X99550D01*
X97750D02*X97450Y98628D01*
Y99228D02*Y98628D01*
Y99228D02*X97750Y99528D01*
X99550D01*
X99850Y99228D02*X99550Y99528D01*
X99850Y99228D02*Y98628D01*
X99250Y98328D02*X98050Y99528D01*
X97450Y102775D02*Y101575D01*
Y102775D02*X97750Y103075D01*
X98350D01*
X98650Y102775D02*X98350Y103075D01*
X98650Y102775D02*Y101875D01*
X97450D02*X99850D01*
X98650Y102355D02*X99850Y103075D01*
X97930Y103795D02*X97450Y104275D01*
X99850D01*
Y104695D02*Y103795D01*
Y105715D02*X97450Y106915D01*
Y105415D01*
X114417Y116948D02*Y116168D01*
X113997Y115748D02*X114417Y116168D01*
X112437Y115748D02*X113997D01*
X112437D02*X112017Y116168D01*
Y116948D02*Y116168D01*
X113517Y117668D02*X112017Y118868D01*
X113517Y119168D02*Y117668D01*
X112017Y118868D02*X114417D01*
X112017Y120788D02*X112317Y121088D01*
X112017Y120788D02*Y120188D01*
X112317Y119888D02*X112017Y120188D01*
X112317Y119888D02*X114117D01*
X114417Y120188D01*
X113097Y120788D02*X113397Y121088D01*
X113097Y120788D02*Y119888D01*
X114417Y120788D02*Y120188D01*
Y120788D02*X114117Y121088D01*
X113397D02*X114117D01*
M02*
