M48
INCH,TZ
T10C0.039
T11C0.051
T12C0.063
T13C0.059
T14C0.047
T15C0.031
T16C0.026
T17C0.012
T18C0.126
%
T10
X010150Y008799
X010150Y007799
X011150Y008799
X011150Y007799
X012150Y008799
X012150Y007799
X013150Y008799
X013150Y007799
X022894Y012067
X022894Y010295
T11
X021909Y012559
X021909Y009803
T12
X008031Y029134
X010000Y029134
X012697Y029134
X015650Y029134
X018346Y029134
X020315Y029134
T13
X013673Y024854
X013673Y023256
X014673Y024854
X014673Y023256
T14
X007986Y005512
X009486Y005512
X010986Y005512
X012486Y005512
X016496Y004429
X019724Y004429
T15
X017156Y005642
X019065Y005642
T16
X005131Y007913
X005131Y007413
X005631Y007913
X005631Y007413
X006131Y007913
X006131Y007413
X006631Y007913
X006631Y007413
X007131Y007913
X007131Y007413
T17
X004232Y010217
X004232Y009823
X004232Y008799
X004331Y012343
X004331Y011988
X004606Y025413
X004606Y025138
X004606Y024862
X004606Y024587
X004606Y024311
X004606Y024035
X004626Y013839
X004665Y012972
X004744Y020157
X004744Y019902
X004744Y019646
X004764Y016575
X004843Y025551
X004843Y025276
X004843Y025000
X004843Y024724
X004843Y024449
X004843Y024173
X004843Y023898
X004921Y016260
X004961Y012795
X005000Y028012
X005118Y027559
X005118Y026654
X005217Y010906
X005217Y010433
X005256Y013484
X005335Y012008
X005335Y009902
X005472Y022874
X005472Y022598
X005472Y022323
X005472Y022047
X005472Y021772
X005551Y019469
X005591Y026634
X005591Y026378
X005591Y012224
X005709Y023012
X005709Y022736
X005709Y022461
X005709Y022185
X005709Y021909
X005709Y021634
X005728Y018720
X005728Y018465
X005728Y018209
X005728Y017953
X005728Y017697
X005728Y017441
X005728Y016732
X005728Y015630
X005728Y015374
X005728Y015118
X005728Y014862
X005728Y014606
X005728Y014350
X005748Y012894
X005846Y026634
X005846Y026378
X005886Y008307
X005906Y020413
X005906Y019469
X005925Y011496
X006102Y026634
X006102Y026378
X006339Y011299
X006358Y026634
X006358Y026378
X006417Y016496
X006496Y009252
X006594Y012382
X006614Y026634
X006614Y026378
X006693Y020413
X006811Y025906
X006831Y012657
X006831Y012126
X006831Y011772
X006870Y018465
X006870Y018209
X006870Y017953
X006870Y017697
X006870Y017441
X006870Y015630
X006870Y015394
X006870Y015157
X006870Y014429
X006870Y013898
X006949Y026142
X006988Y018937
X007087Y027559
X007087Y026654
X007087Y025906
X007087Y015512
X007087Y015276
X007185Y021142
X007205Y013858
X007224Y026142
X007303Y015630
X007303Y015394
X007303Y015157
X007323Y020906
X007362Y025906
X007362Y018937
X007461Y021142
X007480Y005965
X007539Y013898
X007598Y020906
X007657Y014488
X007657Y007756
X007677Y030453
X007677Y030177
X007697Y010650
X007717Y007402
X007717Y007047
X007736Y026417
X007736Y023504
X007736Y021142
X007736Y012815
X007874Y027559
X007874Y026654
X007874Y023740
X007874Y020906
X007874Y020413
X007933Y014705
X007933Y010079
X008012Y026417
X008012Y023504
X008012Y021142
X008051Y008091
X008071Y007402
X008091Y018661
X008091Y016496
X008091Y012894
X008150Y020906
X008248Y011358
X008248Y011004
X008248Y010650
X008268Y020413
X008287Y021142
X008307Y010079
X008307Y007736
X008327Y008307
X008386Y025906
X008425Y020906
X008445Y018661
X008524Y026142
X008563Y021142
X008602Y012047
X008661Y027559
X008661Y026654
X008661Y025906
X008740Y010413
X008740Y008425
X008799Y026142
X008819Y018661
X008819Y013445
X008858Y016398
X008858Y011811
X008858Y010098
X008858Y006575
X008858Y006299
X008937Y025906
X009016Y008425
X009134Y028327
X009134Y026634
X009134Y026378
X009173Y018661
X009173Y016535
X009390Y026634
X009390Y026378
X009390Y013563
X009429Y019469
X009429Y019193
X009449Y020413
X009646Y026634
X009646Y026378
X009665Y007579
X009705Y007244
X009744Y014685
X009744Y013563
X009783Y013031
X009783Y012638
X009843Y020413
X009902Y026634
X009902Y026378
X009921Y006260
X010020Y015630
X010020Y015394
X010020Y015157
X010039Y023012
X010039Y022736
X010039Y022461
X010039Y022185
X010039Y021909
X010039Y021634
X010098Y014547
X010157Y026634
X010157Y026378
X010197Y020413
X010236Y015512
X010236Y015276
X010256Y013898
X010276Y022874
X010276Y022598
X010276Y022323
X010276Y022047
X010276Y021772
X010394Y030453
X010394Y030177
X010453Y018720
X010453Y018465
X010453Y018209
X010453Y017953
X010453Y017697
X010453Y017441
X010453Y015630
X010453Y015394
X010453Y015157
X010453Y014449
X010591Y012087
X010630Y027559
X010630Y026654
X010630Y012441
X010650Y013898
X010906Y025650
X010906Y025374
X010906Y025098
X010906Y024823
X010906Y024547
X010906Y024272
X010906Y019488
X010906Y019213
X011063Y020256
X011142Y025512
X011142Y025236
X011142Y024961
X011142Y024685
X011142Y024409
X011142Y024134
X011240Y020413
X011299Y020177
X011358Y030650
X011398Y010748
X011535Y005984
X011594Y018720
X011594Y018465
X011594Y018209
X011594Y017953
X011594Y017697
X011594Y017441
X011594Y015630
X011594Y015394
X011594Y015157
X011594Y014449
X011634Y031220
X011634Y028327
X011654Y013898
X011732Y027579
X011732Y026142
X011732Y022067
X011811Y015512
X011811Y015276
X011890Y024547
X011890Y024193
X011890Y022441
X011929Y005984
X011949Y014449
X011949Y012972
X011949Y011673
X011988Y020295
X011988Y020020
X012008Y022067
X012028Y015630
X012028Y015394
X012028Y015157
X012224Y013720
X012224Y013346
X012224Y012972
X012224Y012421
X012224Y012047
X012224Y011673
X012264Y014606
X012598Y009134
X012657Y020650
X012657Y020374
X012657Y020098
X012657Y019823
X012657Y019547
X012657Y019272
X012736Y013346
X012795Y007008
X012992Y017815
X012992Y017539
X012992Y017264
X013091Y013346
X013130Y013740
X013228Y017677
X013228Y017402
X013228Y017126
X013327Y016535
X013425Y026693
X013425Y026437
X013425Y026181
X013465Y005709
X013465Y005118
X013524Y016890
X013543Y020650
X013543Y020374
X013543Y020098
X013543Y019823
X013543Y019547
X013543Y019272
X013543Y004272
X013602Y007441
X013839Y016535
X013937Y018858
X014075Y018681
X014134Y011457
X014154Y011122
X014213Y018858
X014272Y013720
X014331Y012972
X014350Y018681
X014449Y011673
X014469Y009823
X014469Y009547
X014488Y018858
X014508Y008661
X014567Y004272
X014587Y011358
X014587Y009055
X014606Y012972
X014626Y018681
X014626Y013720
X014685Y008287
X014724Y012421
X014724Y012047
X014724Y011673
X014724Y010374
X014764Y018858
X014783Y008661
X014862Y009055
X014902Y018681
X014902Y017874
X014902Y017638
X014921Y026693
X014921Y026437
X014921Y026181
X014921Y004272
X015000Y016535
X015039Y018858
X015118Y017756
X015118Y010020
X015276Y004272
X015551Y013150
X015551Y012795
X015551Y011732
X015551Y010591
X015551Y010236
X015551Y009528
X015551Y009173
X015571Y012441
X015571Y004449
X015591Y009882
X015669Y020551
X015669Y020276
X015669Y020000
X015669Y019724
X015669Y019449
X015669Y019173
X015669Y008583
X015807Y013976
X015886Y007362
X015906Y020413
X015906Y020138
X015906Y019862
X015906Y019587
X015906Y019311
X016122Y021161
X016240Y021378
X016240Y011398
X016240Y008327
X016319Y015630
X016319Y015394
X016319Y015157
X016358Y021161
X016457Y024547
X016457Y024193
X016457Y022441
X016476Y021378
X016535Y015512
X016535Y015276
X016594Y021161
X016594Y014213
X016614Y027579
X016614Y026142
X016713Y028327
X016752Y018701
X016752Y018445
X016752Y018189
X016752Y017933
X016752Y017677
X016752Y017421
X016752Y015630
X016752Y015394
X016752Y015157
X016772Y006181
X016791Y014488
X016831Y011043
X016831Y010768
X016831Y010256
X016831Y009980
X016831Y009705
X016831Y009429
X016988Y020256
X017028Y016791
X017047Y020492
X017205Y025512
X017205Y025236
X017205Y024961
X017205Y024685
X017205Y024409
X017205Y024134
X017224Y020315
X017283Y006181
X017441Y025650
X017441Y025374
X017441Y025098
X017441Y024823
X017441Y024547
X017441Y024272
X017598Y005079
X017638Y009488
X017638Y009213
X017717Y027579
X017717Y026654
X017894Y018701
X017894Y018445
X017894Y018189
X017894Y017933
X017894Y017677
X017894Y017421
X017894Y015630
X017894Y015394
X017894Y015157
X017972Y030453
X017972Y030197
X018071Y022874
X018071Y022598
X018071Y022323
X018071Y022047
X018071Y021772
X018110Y015512
X018110Y015276
X018150Y019469
X018189Y026634
X018189Y026378
X018307Y023012
X018307Y022736
X018307Y022461
X018307Y022185
X018307Y021909
X018307Y021634
X018327Y015630
X018327Y015394
X018327Y015157
X018386Y007067
X018445Y026634
X018445Y026378
X018504Y020413
X018504Y019469
X018701Y026634
X018701Y026378
X018701Y006909
X018760Y018661
X018957Y026634
X018957Y026378
X019173Y006142
X019213Y028327
X019213Y026634
X019213Y026378
X019291Y020413
X019291Y007500
X019350Y013799
X019370Y012913
X019390Y018661
X019409Y025906
X019409Y009134
X019547Y026142
X019606Y007382
X019626Y013799
X019685Y027559
X019685Y026654
X019685Y025906
X019685Y014469
X019685Y009134
X019764Y018661
X019783Y021142
X019823Y026142
X019882Y007382
X019921Y020906
X019961Y025906
X019980Y008150
X020059Y021142
X020079Y005768
X020138Y018661
X020157Y012913
X020197Y020906
X020197Y004646
X020335Y026417
X020335Y023504
X020335Y021142
X020335Y008150
X020472Y027559
X020472Y026654
X020472Y023740
X020472Y020906
X020472Y020413
X020472Y013465
X020591Y013819
X020610Y030453
X020610Y030177
X020610Y026417
X020610Y023504
X020610Y021142
X020709Y014469
X020748Y020906
X020866Y020413
X020866Y018937
X020886Y021142
X020886Y005984
X020984Y025906
X021024Y020906
X021122Y026142
X021142Y005256
X021142Y004744
X021161Y021142
X021220Y018937
X021220Y016535
X021260Y027559
X021260Y026654
X021260Y025906
X021378Y013189
X021398Y026142
X021417Y005256
X021417Y004744
X021476Y018701
X021476Y018445
X021476Y018189
X021476Y017933
X021476Y017677
X021476Y017421
X021476Y015630
X021476Y015374
X021476Y015118
X021476Y014862
X021476Y014606
X021476Y014350
X021535Y025906
X021732Y029035
X021732Y026634
X021732Y026378
X021732Y016535
X021732Y013189
X021811Y006476
X021811Y006122
X021988Y026634
X021988Y026378
X022008Y019449
X022008Y019193
X022047Y020433
X022224Y013130
X022244Y026634
X022244Y026378
X022343Y006654
X022441Y020413
X022500Y026634
X022500Y026378
X022520Y009252
X022618Y018701
X022618Y018445
X022618Y018189
X022618Y017933
X022618Y017677
X022618Y017421
X022618Y015630
X022618Y015374
X022618Y015118
X022618Y014862
X022618Y014606
X022618Y014350
X022638Y023012
X022638Y022736
X022638Y022461
X022638Y022185
X022638Y021909
X022638Y021634
X022756Y026634
X022756Y026378
X022756Y008996
X022776Y007047
X022776Y006772
X022835Y020413
X022874Y022874
X022874Y022598
X022874Y022323
X022874Y022047
X022874Y021772
X022992Y008110
X023228Y027559
X023228Y026654
X023504Y025551
X023504Y025276
X023504Y025000
X023504Y024724
X023504Y024449
X023504Y024173
X023504Y023898
X023504Y019488
X023504Y019213
X023563Y008701
X023563Y008445
X023563Y007776
X023563Y007520
X023563Y006614
X023583Y020098
X023602Y013681
X023602Y013130
X023740Y025413
X023740Y025138
X023740Y024862
X023740Y024587
X023740Y024311
X023740Y024035
X023760Y020276
X023917Y007657
X023937Y020453
X024075Y009035
X024075Y008563
X024114Y020630
X024154Y017028
X024154Y016752
T18
X005315Y030118
X005315Y005315
X023031Y030118
X023031Y005315
M30

