G04 start of page 2 for group 0 idx 0 *
G04 Title: (unknown), top *
G04 Creator: pcb 20140316 *
G04 CreationDate: Tue 21 Mar 2017 17:58:46 GMT UTC *
G04 For: kier *
G04 Format: Gerber/RS-274X *
G04 PCB-Dimensions (mil): 2755.91 3543.31 *
G04 PCB-Coordinate-Origin: lower left *
%MOIN*%
%FSLAX25Y25*%
%LNTOP*%
%ADD55C,0.0256*%
%ADD54C,0.0591*%
%ADD53C,0.0512*%
%ADD52C,0.0394*%
%ADD51C,0.0118*%
%ADD50C,0.0315*%
%ADD49C,0.0276*%
%ADD48R,0.0787X0.0787*%
%ADD47R,0.0079X0.0079*%
%ADD46R,0.0157X0.0157*%
%ADD45R,0.0575X0.0575*%
%ADD44R,0.0541X0.0541*%
%ADD43R,0.0276X0.0276*%
%ADD42R,0.0640X0.0640*%
%ADD41R,0.0358X0.0358*%
%ADD40R,0.1260X0.1260*%
%ADD39R,0.0531X0.0531*%
%ADD38R,0.2067X0.2067*%
%ADD37R,0.0236X0.0236*%
%ADD36R,0.0118X0.0118*%
%ADD35R,0.0551X0.0551*%
%ADD34R,0.0315X0.0315*%
%ADD33R,0.0591X0.0591*%
%ADD32R,0.1390X0.1390*%
%ADD31R,0.0630X0.0630*%
%ADD30R,0.0374X0.0374*%
%ADD29R,0.0244X0.0244*%
%ADD28R,0.0256X0.0256*%
%ADD27R,0.0177X0.0177*%
%ADD26R,0.0453X0.0453*%
%ADD25C,0.0413*%
%ADD24C,0.0472*%
%ADD23C,0.0945*%
%ADD22C,0.0630*%
%ADD21C,0.0906*%
%ADD20C,0.1260*%
%ADD19C,0.0866*%
%ADD18C,0.0669*%
%ADD17C,0.0551*%
%ADD16C,0.0148*%
%ADD15C,0.0059*%
%ADD14C,0.0098*%
%ADD13C,0.0079*%
%ADD12C,0.0197*%
%ADD11C,0.0001*%
G54D11*G36*
X133858Y313386D02*X141142D01*
Y267045D01*
X141033Y267137D01*
X140901Y267218D01*
X140758Y267278D01*
X140607Y267314D01*
X140453Y267323D01*
X136558Y267314D01*
X136408Y267278D01*
X136264Y267218D01*
X136132Y267137D01*
X136014Y267037D01*
X135914Y266919D01*
X135833Y266787D01*
X135774Y266644D01*
X135737Y266493D01*
X135728Y266339D01*
X135737Y262247D01*
X135774Y262096D01*
X135833Y261953D01*
X135914Y261821D01*
X136014Y261703D01*
X136132Y261603D01*
X136264Y261522D01*
X136408Y261463D01*
X136558Y261426D01*
X136713Y261417D01*
X140607Y261426D01*
X140758Y261463D01*
X140901Y261522D01*
X141033Y261603D01*
X141142Y261696D01*
Y241142D01*
X133858D01*
Y271186D01*
X136769Y271190D01*
X136919Y271226D01*
X137062Y271286D01*
X137194Y271367D01*
X137312Y271467D01*
X137413Y271585D01*
X137494Y271717D01*
X137553Y271860D01*
X137589Y272011D01*
X137598Y272165D01*
X137589Y278776D01*
X137553Y278927D01*
X137494Y279070D01*
X137413Y279202D01*
X137312Y279320D01*
X137194Y279421D01*
X137062Y279502D01*
X136919Y279561D01*
X136769Y279597D01*
X136614Y279606D01*
X133858Y279602D01*
Y313386D01*
G37*
G36*
X123031Y277362D02*X123032Y277264D01*
X120391D01*
X120484Y277372D01*
X120565Y277505D01*
X120624Y277648D01*
X120660Y277798D01*
X120669Y277953D01*
X120660Y281257D01*
X120624Y281407D01*
X120565Y281551D01*
X120484Y281683D01*
X120383Y281800D01*
X120265Y281901D01*
X120133Y281982D01*
X119990Y282041D01*
X119839Y282077D01*
X119685Y282087D01*
X119488Y282086D01*
Y284055D01*
X114173Y289370D01*
Y304613D01*
X114193Y304618D01*
X114479Y304737D01*
X114743Y304899D01*
X114979Y305100D01*
X115180Y305335D01*
X115342Y305600D01*
X115461Y305886D01*
X115533Y306187D01*
X115551Y306496D01*
X115533Y306805D01*
X115461Y307106D01*
X115342Y307392D01*
X115180Y307657D01*
X114979Y307892D01*
X114743Y308094D01*
X114479Y308255D01*
X114193Y308374D01*
X114173Y308379D01*
Y313386D01*
X114759D01*
X114741Y313365D01*
X114579Y313101D01*
X114461Y312815D01*
X114388Y312514D01*
X114364Y312205D01*
X114388Y311896D01*
X114461Y311595D01*
X114579Y311308D01*
X114741Y311044D01*
X114942Y310808D01*
X115178Y310607D01*
X115442Y310445D01*
X115728Y310327D01*
X116030Y310254D01*
X116339Y310230D01*
X116647Y310254D01*
X116949Y310327D01*
X117235Y310445D01*
X117499Y310607D01*
X117735Y310808D01*
X117936Y311044D01*
X118098Y311308D01*
X118217Y311595D01*
X118289Y311896D01*
X118307Y312205D01*
X118289Y312514D01*
X118217Y312815D01*
X118098Y313101D01*
X117936Y313365D01*
X117919Y313386D01*
X133858D01*
Y279602D01*
X130948Y279597D01*
X130797Y279561D01*
X130654Y279502D01*
X130522Y279421D01*
X130404Y279320D01*
X130304Y279202D01*
X130223Y279070D01*
X130163Y278927D01*
X130127Y278776D01*
X130118Y278622D01*
X130127Y272011D01*
X130163Y271860D01*
X130223Y271717D01*
X130304Y271585D01*
X130404Y271467D01*
X130522Y271367D01*
X130654Y271286D01*
X130797Y271226D01*
X130948Y271190D01*
X131102Y271181D01*
X133858Y271186D01*
Y241142D01*
X121128D01*
X121151Y241197D01*
X121238Y241558D01*
X121260Y241929D01*
X121238Y242300D01*
X121151Y242661D01*
X121009Y243005D01*
X120815Y243322D01*
X120573Y243605D01*
X120461Y243701D01*
X120573Y243797D01*
X120815Y244080D01*
X121009Y244397D01*
X121151Y244740D01*
X121238Y245102D01*
X121260Y245472D01*
X121238Y245843D01*
X121151Y246205D01*
X121009Y246548D01*
X121000Y246563D01*
X121906Y246564D01*
X122057Y246600D01*
X122200Y246660D01*
X122332Y246741D01*
X122450Y246841D01*
X122551Y246959D01*
X122632Y247091D01*
X122691Y247234D01*
X122727Y247385D01*
X122736Y247539D01*
X122727Y252221D01*
X122691Y252372D01*
X122632Y252515D01*
X122551Y252647D01*
X122450Y252765D01*
X122332Y252866D01*
X122200Y252947D01*
X122057Y253006D01*
X121906Y253042D01*
X121752Y253051D01*
X119488Y253048D01*
Y253647D01*
X121906Y253651D01*
X122057Y253687D01*
X122200Y253746D01*
X122332Y253827D01*
X122450Y253928D01*
X122551Y254046D01*
X122632Y254178D01*
X122691Y254321D01*
X122727Y254472D01*
X122736Y254626D01*
X122727Y259308D01*
X122691Y259459D01*
X122632Y259602D01*
X122551Y259734D01*
X122450Y259852D01*
X122332Y259952D01*
X122200Y260033D01*
X122057Y260093D01*
X121906Y260129D01*
X121752Y260138D01*
X120346Y260136D01*
X120306Y260300D01*
X120217Y260515D01*
X120096Y260713D01*
X120096Y260713D01*
X119945Y260890D01*
X119901Y260927D01*
X119670Y261158D01*
X119685Y261417D01*
X119663Y261788D01*
X119576Y262150D01*
X119488Y262362D01*
Y269496D01*
X119839Y269497D01*
X119990Y269533D01*
X120133Y269593D01*
X120265Y269674D01*
X120383Y269774D01*
X120484Y269892D01*
X120565Y270024D01*
X120624Y270167D01*
X120660Y270318D01*
X120669Y270472D01*
X120660Y273776D01*
X120624Y273927D01*
X120565Y274070D01*
X120484Y274202D01*
X120391Y274311D01*
X123040D01*
X123041Y274058D01*
X123077Y273908D01*
X123136Y273764D01*
X123217Y273632D01*
X123318Y273514D01*
X123435Y273414D01*
X123568Y273333D01*
X123711Y273274D01*
X123861Y273237D01*
X124016Y273228D01*
X127714Y273237D01*
X127864Y273274D01*
X128007Y273333D01*
X128139Y273414D01*
X128257Y273514D01*
X128358Y273632D01*
X128439Y273764D01*
X128498Y273908D01*
X128534Y274058D01*
X128543Y274213D01*
X128534Y277517D01*
X128498Y277667D01*
X128439Y277810D01*
X128358Y277943D01*
X128257Y278060D01*
X128139Y278161D01*
X128007Y278242D01*
X127864Y278301D01*
X127714Y278337D01*
X127559Y278346D01*
X123861Y278337D01*
X123711Y278301D01*
X123568Y278242D01*
X123435Y278161D01*
X123318Y278060D01*
X123217Y277943D01*
X123136Y277810D01*
X123077Y277667D01*
X123041Y277517D01*
X123031Y277362D01*
G37*
G36*
X155315D02*X155324Y274058D01*
X155360Y273908D01*
X155420Y273764D01*
X155500Y273632D01*
X155601Y273514D01*
X155719Y273414D01*
X155851Y273333D01*
X155994Y273274D01*
X156145Y273237D01*
X156299Y273228D01*
X159997Y273237D01*
X160148Y273274D01*
X160291Y273333D01*
X160423Y273414D01*
X160541Y273514D01*
X160641Y273632D01*
X160722Y273764D01*
X160781Y273908D01*
X160818Y274058D01*
X160827Y274213D01*
X160826Y274311D01*
X163467D01*
X163374Y274202D01*
X163294Y274070D01*
X163234Y273927D01*
X163198Y273776D01*
X163189Y273622D01*
X163198Y270318D01*
X163234Y270167D01*
X163294Y270024D01*
X163374Y269892D01*
X163475Y269774D01*
X163593Y269674D01*
X163725Y269593D01*
X163868Y269533D01*
X163976Y269507D01*
Y262362D01*
X163888Y262150D01*
X163801Y261788D01*
X163772Y261417D01*
X163793Y261156D01*
X163564Y260927D01*
X163520Y260890D01*
X163369Y260713D01*
X163247Y260515D01*
X163158Y260300D01*
X163118Y260131D01*
X161558Y260129D01*
X161408Y260093D01*
X161264Y260033D01*
X161132Y259952D01*
X161014Y259852D01*
X160914Y259734D01*
X160833Y259602D01*
X160774Y259459D01*
X160737Y259308D01*
X160728Y259154D01*
X160737Y254472D01*
X160774Y254321D01*
X160833Y254178D01*
X160914Y254046D01*
X161014Y253928D01*
X161132Y253827D01*
X161264Y253746D01*
X161408Y253687D01*
X161558Y253651D01*
X161713Y253642D01*
X163976Y253645D01*
Y253046D01*
X161558Y253042D01*
X161408Y253006D01*
X161264Y252947D01*
X161132Y252866D01*
X161014Y252765D01*
X160914Y252647D01*
X160833Y252515D01*
X160774Y252372D01*
X160737Y252221D01*
X160728Y252067D01*
X160737Y247385D01*
X160774Y247234D01*
X160833Y247091D01*
X160914Y246959D01*
X161014Y246841D01*
X161132Y246741D01*
X161264Y246660D01*
X161408Y246600D01*
X161558Y246564D01*
X161713Y246555D01*
X162461Y246556D01*
X162456Y246548D01*
X162313Y246205D01*
X162227Y245843D01*
X162197Y245472D01*
X162227Y245102D01*
X162313Y244740D01*
X162456Y244397D01*
X162650Y244080D01*
X162891Y243797D01*
X163004Y243701D01*
X162891Y243605D01*
X162650Y243322D01*
X162456Y243005D01*
X162313Y242661D01*
X162227Y242300D01*
X162197Y241929D01*
X162227Y241558D01*
X162313Y241197D01*
X162336Y241142D01*
X149606D01*
Y271186D01*
X152517Y271190D01*
X152667Y271226D01*
X152810Y271286D01*
X152943Y271367D01*
X153060Y271467D01*
X153161Y271585D01*
X153242Y271717D01*
X153301Y271860D01*
X153337Y272011D01*
X153346Y272165D01*
X153337Y278776D01*
X153301Y278927D01*
X153242Y279070D01*
X153161Y279202D01*
X153060Y279320D01*
X152943Y279421D01*
X152810Y279502D01*
X152667Y279561D01*
X152517Y279597D01*
X152362Y279606D01*
X149606Y279602D01*
Y313386D01*
X169291D01*
Y289370D01*
X163976Y284055D01*
Y282067D01*
X163868Y282041D01*
X163725Y281982D01*
X163593Y281901D01*
X163475Y281800D01*
X163374Y281683D01*
X163294Y281551D01*
X163234Y281407D01*
X163198Y281257D01*
X163189Y281102D01*
X163198Y277798D01*
X163234Y277648D01*
X163294Y277505D01*
X163374Y277372D01*
X163467Y277264D01*
X160818D01*
X160818Y277517D01*
X160781Y277667D01*
X160722Y277810D01*
X160641Y277943D01*
X160541Y278060D01*
X160423Y278161D01*
X160291Y278242D01*
X160148Y278301D01*
X159997Y278337D01*
X159843Y278346D01*
X156145Y278337D01*
X155994Y278301D01*
X155851Y278242D01*
X155719Y278161D01*
X155601Y278060D01*
X155500Y277943D01*
X155420Y277810D01*
X155360Y277667D01*
X155324Y277517D01*
X155315Y277362D01*
G37*
G36*
X149606Y241142D02*X142323D01*
Y261696D01*
X142431Y261603D01*
X142564Y261522D01*
X142707Y261463D01*
X142857Y261426D01*
X143012Y261417D01*
X146906Y261426D01*
X147057Y261463D01*
X147200Y261522D01*
X147332Y261603D01*
X147450Y261703D01*
X147551Y261821D01*
X147632Y261953D01*
X147691Y262096D01*
X147727Y262247D01*
X147736Y262402D01*
X147727Y266493D01*
X147691Y266644D01*
X147632Y266787D01*
X147551Y266919D01*
X147450Y267037D01*
X147332Y267137D01*
X147200Y267218D01*
X147057Y267278D01*
X146906Y267314D01*
X146752Y267323D01*
X142857Y267314D01*
X142707Y267278D01*
X142564Y267218D01*
X142431Y267137D01*
X142323Y267045D01*
Y313386D01*
X149606D01*
Y279602D01*
X146696Y279597D01*
X146545Y279561D01*
X146402Y279502D01*
X146270Y279421D01*
X146152Y279320D01*
X146052Y279202D01*
X145971Y279070D01*
X145911Y278927D01*
X145875Y278776D01*
X145866Y278622D01*
X145875Y272011D01*
X145911Y271860D01*
X145971Y271717D01*
X146052Y271585D01*
X146152Y271467D01*
X146270Y271367D01*
X146402Y271286D01*
X146545Y271226D01*
X146696Y271190D01*
X146850Y271181D01*
X149606Y271186D01*
Y241142D01*
G37*
G36*
X185827Y261417D02*X194882D01*
Y267798D01*
X194991Y267705D01*
X195123Y267624D01*
X195266Y267565D01*
X195416Y267529D01*
X195571Y267520D01*
X198284Y267529D01*
X198435Y267565D01*
X198578Y267624D01*
X198710Y267705D01*
X198819Y267798D01*
X198928Y267705D01*
X199060Y267624D01*
X199203Y267565D01*
X199353Y267529D01*
X199508Y267520D01*
X201830Y267527D01*
X201689Y267363D01*
X201382Y266861D01*
X201156Y266317D01*
X201019Y265744D01*
X200984Y265157D01*
Y258481D01*
X200896Y258518D01*
X200745Y258554D01*
X200591Y258563D01*
X191591Y258560D01*
X191535Y258563D01*
X188112Y258558D01*
X185827Y258558D01*
Y261417D01*
G37*
G36*
X192126Y313386D02*X209252D01*
X193701Y297835D01*
Y287598D01*
X199299Y282000D01*
X199257Y281982D01*
X199124Y281901D01*
X199007Y281800D01*
X198906Y281683D01*
X198825Y281551D01*
X198766Y281407D01*
X198730Y281257D01*
X198720Y281102D01*
X198730Y277011D01*
X198766Y276860D01*
X198825Y276717D01*
X198906Y276585D01*
X199007Y276467D01*
X199124Y276367D01*
X199257Y276286D01*
X199400Y276226D01*
X199550Y276190D01*
X199705Y276181D01*
X202438Y276188D01*
X202384Y275961D01*
X202355Y275591D01*
X202384Y275220D01*
X202471Y274858D01*
X202613Y274515D01*
X202697Y274379D01*
X202647Y274421D01*
X202515Y274502D01*
X202372Y274561D01*
X202221Y274597D01*
X202067Y274606D01*
X199353Y274597D01*
X199203Y274561D01*
X199060Y274502D01*
X198928Y274421D01*
X198819Y274328D01*
X198710Y274421D01*
X198578Y274502D01*
X198435Y274561D01*
X198284Y274597D01*
X198130Y274606D01*
X195416Y274597D01*
X195266Y274561D01*
X195123Y274502D01*
X194991Y274421D01*
X194882Y274328D01*
X194773Y274421D01*
X194641Y274502D01*
X194498Y274561D01*
X194347Y274597D01*
X194193Y274606D01*
X192126Y274599D01*
Y276185D01*
X194151Y276190D01*
X194301Y276226D01*
X194444Y276286D01*
X194576Y276367D01*
X194694Y276467D01*
X194795Y276585D01*
X194876Y276717D01*
X194935Y276860D01*
X194971Y277011D01*
X194980Y277165D01*
X194971Y281257D01*
X194935Y281407D01*
X194876Y281551D01*
X194795Y281683D01*
X194694Y281800D01*
X194576Y281901D01*
X194444Y281982D01*
X194361Y282017D01*
X194413Y282102D01*
X194567Y282474D01*
X194661Y282866D01*
X194685Y283268D01*
X194661Y283669D01*
X194567Y284061D01*
X194413Y284433D01*
X194203Y284777D01*
X193941Y285083D01*
X193635Y285344D01*
X193291Y285555D01*
X192919Y285709D01*
X192528Y285803D01*
X192126Y285835D01*
Y313386D01*
G37*
G36*
X185827D02*X192126D01*
Y285835D01*
X191724Y285803D01*
X191333Y285709D01*
X190961Y285555D01*
X190617Y285344D01*
X190311Y285083D01*
X190049Y284777D01*
X189839Y284433D01*
X189685Y284061D01*
X189591Y283669D01*
X189559Y283268D01*
X189591Y282866D01*
X189685Y282474D01*
X189839Y282102D01*
X189891Y282017D01*
X189808Y281982D01*
X189676Y281901D01*
X189558Y281800D01*
X189457Y281683D01*
X189376Y281551D01*
X189317Y281407D01*
X189281Y281257D01*
X189272Y281102D01*
X189281Y277011D01*
X189317Y276860D01*
X189376Y276717D01*
X189457Y276585D01*
X189558Y276467D01*
X189676Y276367D01*
X189808Y276286D01*
X189951Y276226D01*
X190101Y276190D01*
X190256Y276181D01*
X192126Y276185D01*
Y274599D01*
X191479Y274597D01*
X191329Y274561D01*
X191186Y274502D01*
X191054Y274421D01*
X190945Y274328D01*
X190836Y274421D01*
X190704Y274502D01*
X190561Y274561D01*
X190410Y274597D01*
X190256Y274606D01*
X187542Y274597D01*
X187392Y274561D01*
X187249Y274502D01*
X187117Y274421D01*
X187008Y274328D01*
X186899Y274421D01*
X186767Y274502D01*
X186624Y274561D01*
X186473Y274597D01*
X186319Y274606D01*
X185827Y274605D01*
Y276185D01*
X187851Y276190D01*
X188002Y276226D01*
X188145Y276286D01*
X188277Y276367D01*
X188395Y276467D01*
X188496Y276585D01*
X188577Y276717D01*
X188636Y276860D01*
X188672Y277011D01*
X188681Y277165D01*
X188672Y281257D01*
X188636Y281407D01*
X188577Y281551D01*
X188496Y281683D01*
X188395Y281800D01*
X188277Y281901D01*
X188145Y281982D01*
X188002Y282041D01*
X187851Y282077D01*
X187697Y282087D01*
X185827Y282082D01*
Y313386D01*
G37*
G36*
Y235927D02*X188266Y235930D01*
X193786Y235932D01*
X193898Y235925D01*
X200745Y235934D01*
X200896Y235970D01*
X200984Y236007D01*
Y235039D01*
X185827D01*
Y235927D01*
G37*
G36*
X174803Y257579D02*X174806Y249958D01*
X174803Y249902D01*
X174808Y247166D01*
X174810Y242337D01*
X174803Y242224D01*
X174812Y236755D01*
X174848Y236604D01*
X174908Y236461D01*
X174989Y236329D01*
X175089Y236211D01*
X175207Y236111D01*
X175339Y236030D01*
X175482Y235970D01*
X175633Y235934D01*
X175787Y235925D01*
X184787Y235928D01*
X184843Y235925D01*
X185827Y235927D01*
Y235039D01*
X174541D01*
X174406Y235365D01*
X174098Y235867D01*
X173716Y236314D01*
X173268Y236697D01*
X172766Y237004D01*
X172222Y237229D01*
X171650Y237367D01*
X171063Y237413D01*
X170476Y237367D01*
X169904Y237229D01*
X169360Y237004D01*
X168858Y236697D01*
X168410Y236314D01*
X168400Y236303D01*
X168396Y238245D01*
X168360Y238396D01*
X168301Y238539D01*
X168220Y238671D01*
X168119Y238789D01*
X168002Y238889D01*
X167869Y238970D01*
X167726Y239030D01*
X167576Y239066D01*
X167421Y239075D01*
X166043Y239073D01*
Y240084D01*
X166242Y240254D01*
X166484Y240536D01*
X166678Y240853D01*
X166820Y241197D01*
X166907Y241558D01*
X166929Y241929D01*
X166907Y242300D01*
X166820Y242661D01*
X166678Y243005D01*
X166484Y243322D01*
X166242Y243605D01*
X166130Y243701D01*
X166242Y243797D01*
X166484Y244080D01*
X166678Y244397D01*
X166820Y244740D01*
X166907Y245102D01*
X166929Y245472D01*
X166907Y245843D01*
X166820Y246205D01*
X166678Y246548D01*
X166669Y246563D01*
X167576Y246564D01*
X167726Y246600D01*
X167869Y246660D01*
X168002Y246741D01*
X168119Y246841D01*
X168220Y246959D01*
X168301Y247091D01*
X168360Y247234D01*
X168396Y247385D01*
X168406Y247539D01*
X168396Y252221D01*
X168360Y252372D01*
X168301Y252515D01*
X168220Y252647D01*
X168119Y252765D01*
X168002Y252866D01*
X167869Y252947D01*
X167726Y253006D01*
X167576Y253042D01*
X167421Y253051D01*
X165157Y253048D01*
Y253647D01*
X167576Y253651D01*
X167726Y253687D01*
X167869Y253746D01*
X168002Y253827D01*
X168119Y253928D01*
X168220Y254046D01*
X168301Y254178D01*
X168360Y254321D01*
X168396Y254472D01*
X168406Y254626D01*
X168396Y259308D01*
X168360Y259459D01*
X168301Y259602D01*
X168220Y259734D01*
X168119Y259852D01*
X168002Y259952D01*
X167999Y259954D01*
X168059Y260025D01*
X168253Y260342D01*
X168395Y260685D01*
X168482Y261047D01*
X168504Y261417D01*
X168482Y261788D01*
X168395Y262150D01*
X168253Y262493D01*
X168059Y262810D01*
X167817Y263093D01*
X167534Y263334D01*
X167217Y263529D01*
X166874Y263671D01*
X166512Y263758D01*
X166142Y263787D01*
X165771Y263758D01*
X165410Y263671D01*
X165157Y263566D01*
Y269491D01*
X167871Y269497D01*
X168022Y269533D01*
X168165Y269593D01*
X168297Y269674D01*
X168415Y269774D01*
X168515Y269892D01*
X168596Y270024D01*
X168656Y270167D01*
X168692Y270318D01*
X168701Y270472D01*
X168692Y273776D01*
X168656Y273927D01*
X168596Y274070D01*
X168515Y274202D01*
X168415Y274320D01*
X168297Y274421D01*
X168165Y274502D01*
X168022Y274561D01*
X167871Y274597D01*
X167721Y274606D01*
X167739Y274627D01*
X167901Y274891D01*
X168020Y275177D01*
X168092Y275479D01*
X168110Y275787D01*
X168092Y276096D01*
X168020Y276398D01*
X167901Y276684D01*
X167739Y276948D01*
X167714Y276977D01*
X167871Y276978D01*
X168022Y277014D01*
X168165Y277073D01*
X168297Y277154D01*
X168415Y277255D01*
X168515Y277372D01*
X168596Y277505D01*
X168656Y277648D01*
X168692Y277798D01*
X168701Y277953D01*
X168692Y281257D01*
X168656Y281407D01*
X168637Y281452D01*
X168801Y281592D01*
X169043Y281875D01*
X169237Y282192D01*
X169380Y282536D01*
X169466Y282897D01*
X169488Y283268D01*
X169466Y283638D01*
X169380Y284000D01*
X169237Y284343D01*
X169043Y284660D01*
X168801Y284943D01*
X168519Y285185D01*
X168202Y285379D01*
X167858Y285521D01*
X167497Y285608D01*
X167315Y285622D01*
X170472Y288780D01*
Y313386D01*
X185827D01*
Y282082D01*
X183802Y282077D01*
X183652Y282041D01*
X183508Y281982D01*
X183376Y281901D01*
X183259Y281800D01*
X183158Y281683D01*
X183077Y281551D01*
X183018Y281407D01*
X182982Y281257D01*
X182972Y281102D01*
X182982Y277011D01*
X183018Y276860D01*
X183077Y276717D01*
X183158Y276585D01*
X183259Y276467D01*
X183376Y276367D01*
X183508Y276286D01*
X183652Y276226D01*
X183802Y276190D01*
X183957Y276181D01*
X185827Y276185D01*
Y274605D01*
X183605Y274597D01*
X183455Y274561D01*
X183312Y274502D01*
X183180Y274421D01*
X183071Y274328D01*
X182962Y274421D01*
X182830Y274502D01*
X182687Y274561D01*
X182536Y274597D01*
X182382Y274606D01*
X179668Y274597D01*
X179518Y274561D01*
X179375Y274502D01*
X179243Y274421D01*
X179134Y274328D01*
X179025Y274421D01*
X178893Y274502D01*
X178750Y274561D01*
X178599Y274597D01*
X178445Y274606D01*
X175731Y274597D01*
X175581Y274561D01*
X175438Y274502D01*
X175306Y274421D01*
X175188Y274320D01*
X175087Y274202D01*
X175006Y274070D01*
X174947Y273927D01*
X174911Y273776D01*
X174902Y273622D01*
X174911Y268349D01*
X174947Y268199D01*
X175006Y268056D01*
X175087Y267924D01*
X175188Y267806D01*
X175306Y267705D01*
X175438Y267624D01*
X175581Y267565D01*
X175731Y267529D01*
X175886Y267520D01*
X178599Y267529D01*
X178750Y267565D01*
X178893Y267624D01*
X179025Y267705D01*
X179134Y267798D01*
Y261417D01*
X185827D01*
Y258558D01*
X182592Y258556D01*
X182480Y258563D01*
X175633Y258554D01*
X175482Y258518D01*
X175339Y258458D01*
X175207Y258377D01*
X175089Y258277D01*
X174989Y258159D01*
X174908Y258027D01*
X174848Y257884D01*
X174812Y257733D01*
X174803Y257579D01*
G37*
G36*
X180118Y262402D02*Y267521D01*
X182536Y267529D01*
X182687Y267565D01*
X182830Y267624D01*
X182962Y267705D01*
X183071Y267798D01*
X183180Y267705D01*
X183312Y267624D01*
X183455Y267565D01*
X183605Y267529D01*
X183760Y267520D01*
X186473Y267529D01*
X186624Y267565D01*
X186767Y267624D01*
X186899Y267705D01*
X187008Y267798D01*
X187117Y267705D01*
X187249Y267624D01*
X187392Y267565D01*
X187542Y267529D01*
X187697Y267520D01*
X190410Y267529D01*
X190561Y267565D01*
X190704Y267624D01*
X190836Y267705D01*
X190945Y267798D01*
X191054Y267705D01*
X191186Y267624D01*
X191329Y267565D01*
X191479Y267529D01*
X191634Y267520D01*
X193898Y267527D01*
Y263386D01*
X192913Y262402D01*
X180118D01*
G37*
G36*
X229331D02*X216535D01*
X215551Y263386D01*
Y267521D01*
X217969Y267529D01*
X218120Y267565D01*
X218263Y267624D01*
X218395Y267705D01*
X218504Y267798D01*
X218613Y267705D01*
X218745Y267624D01*
X218888Y267565D01*
X219038Y267529D01*
X219193Y267520D01*
X221906Y267529D01*
X222057Y267565D01*
X222200Y267624D01*
X222332Y267705D01*
X222441Y267798D01*
X222550Y267705D01*
X222682Y267624D01*
X222825Y267565D01*
X222975Y267529D01*
X223130Y267520D01*
X225843Y267529D01*
X225994Y267565D01*
X226137Y267624D01*
X226269Y267705D01*
X226378Y267798D01*
X226487Y267705D01*
X226619Y267624D01*
X226762Y267565D01*
X226912Y267529D01*
X227067Y267520D01*
X229331Y267527D01*
Y262402D01*
G37*
G36*
X222440Y313386D02*X229837D01*
X228400Y313273D01*
X226532Y312824D01*
X224757Y312089D01*
X223119Y311085D01*
X222440Y310505D01*
Y313386D01*
G37*
G36*
Y235930D02*X226857Y235932D01*
X226968Y235925D01*
X233816Y235934D01*
X233967Y235970D01*
X234110Y236030D01*
X234242Y236111D01*
X234360Y236211D01*
X234460Y236329D01*
X234541Y236461D01*
X234600Y236604D01*
X234637Y236755D01*
X234646Y236909D01*
X234642Y244530D01*
X234646Y244587D01*
X234641Y247321D01*
X234639Y252151D01*
X234646Y252264D01*
X234637Y257733D01*
X234600Y257884D01*
X234541Y258027D01*
X234460Y258159D01*
X234360Y258277D01*
X234242Y258377D01*
X234110Y258458D01*
X233967Y258518D01*
X233816Y258554D01*
X233661Y258563D01*
X224662Y258560D01*
X224606Y258563D01*
X222440Y258560D01*
Y261417D01*
X230315D01*
Y267798D01*
X230424Y267705D01*
X230556Y267624D01*
X230699Y267565D01*
X230849Y267529D01*
X231004Y267520D01*
X233717Y267529D01*
X233868Y267565D01*
X234011Y267624D01*
X234143Y267705D01*
X234261Y267806D01*
X234362Y267924D01*
X234443Y268056D01*
X234502Y268199D01*
X234538Y268349D01*
X234547Y268504D01*
X234538Y273776D01*
X234502Y273927D01*
X234443Y274070D01*
X234362Y274202D01*
X234261Y274320D01*
X234143Y274421D01*
X234011Y274502D01*
X233868Y274561D01*
X233717Y274597D01*
X233563Y274606D01*
X230849Y274597D01*
X230699Y274561D01*
X230556Y274502D01*
X230424Y274421D01*
X230315Y274328D01*
X230206Y274421D01*
X230074Y274502D01*
X229931Y274561D01*
X229780Y274597D01*
X229626Y274606D01*
X226912Y274597D01*
X226762Y274561D01*
X226619Y274502D01*
X226487Y274421D01*
X226378Y274328D01*
X226269Y274421D01*
X226137Y274502D01*
X225994Y274561D01*
X225843Y274597D01*
X225689Y274606D01*
X222975Y274597D01*
X222825Y274561D01*
X222682Y274502D01*
X222550Y274421D01*
X222441Y274328D01*
X222440Y274329D01*
Y275597D01*
X223284Y275600D01*
X223435Y275636D01*
X223578Y275695D01*
X223710Y275776D01*
X223828Y275877D01*
X223929Y275994D01*
X224010Y276127D01*
X224069Y276270D01*
X224105Y276420D01*
X224114Y276575D01*
X224109Y279238D01*
X224213Y279230D01*
X224247Y279232D01*
X224317D01*
X224320Y276420D01*
X224356Y276270D01*
X224416Y276127D01*
X224497Y275994D01*
X224597Y275877D01*
X224715Y275776D01*
X224847Y275695D01*
X224990Y275636D01*
X225141Y275600D01*
X225295Y275591D01*
X229977Y275600D01*
X230128Y275636D01*
X230271Y275695D01*
X230403Y275776D01*
X230521Y275877D01*
X230622Y275994D01*
X230703Y276127D01*
X230762Y276270D01*
X230798Y276420D01*
X230807Y276575D01*
X230798Y283816D01*
X230762Y283967D01*
X230703Y284110D01*
X230622Y284242D01*
X230521Y284360D01*
X230403Y284460D01*
X230271Y284541D01*
X230128Y284600D01*
X229977Y284637D01*
X229823Y284646D01*
X225141Y284637D01*
X224990Y284600D01*
X224847Y284541D01*
X224715Y284460D01*
X224597Y284360D01*
X224497Y284242D01*
X224416Y284110D01*
X224356Y283967D01*
X224320Y283816D01*
X224311Y283661D01*
X224312Y283043D01*
X224048Y283307D01*
X224069Y283356D01*
X224105Y283507D01*
X224114Y283661D01*
X224105Y288540D01*
X224069Y288691D01*
X224010Y288834D01*
X223929Y288966D01*
X223828Y289084D01*
X223710Y289185D01*
X223578Y289266D01*
X223435Y289325D01*
X223284Y289361D01*
X223130Y289370D01*
X222714Y289369D01*
X222695Y289448D01*
X222642Y289577D01*
X222569Y289696D01*
X222479Y289802D01*
X222452Y289824D01*
X222440Y289837D01*
Y291857D01*
X223119Y291277D01*
X224757Y290273D01*
X226532Y289538D01*
X228400Y289089D01*
X230315Y288939D01*
X232230Y289089D01*
X234098Y289538D01*
X235873Y290273D01*
X237511Y291277D01*
X238972Y292524D01*
X240219Y293985D01*
X241223Y295623D01*
X241958Y297398D01*
X242407Y299266D01*
X242520Y301181D01*
Y284095D01*
X242514Y284110D01*
X242433Y284242D01*
X242332Y284360D01*
X242214Y284460D01*
X242082Y284541D01*
X241939Y284600D01*
X241788Y284637D01*
X241634Y284646D01*
X236952Y284637D01*
X236801Y284600D01*
X236658Y284541D01*
X236526Y284460D01*
X236408Y284360D01*
X236308Y284242D01*
X236227Y284110D01*
X236167Y283967D01*
X236131Y283816D01*
X236122Y283661D01*
X236131Y276420D01*
X236167Y276270D01*
X236227Y276127D01*
X236308Y275994D01*
X236408Y275877D01*
X236526Y275776D01*
X236658Y275695D01*
X236801Y275636D01*
X236952Y275600D01*
X237106Y275591D01*
X241788Y275600D01*
X241939Y275636D01*
X242082Y275695D01*
X242214Y275776D01*
X242332Y275877D01*
X242433Y275994D01*
X242514Y276127D01*
X242520Y276141D01*
Y236194D01*
X242417Y236314D01*
X241969Y236697D01*
X241467Y237004D01*
X240923Y237229D01*
X240351Y237367D01*
X239764Y237413D01*
X239177Y237367D01*
X238604Y237229D01*
X238061Y237004D01*
X237559Y236697D01*
X237111Y236314D01*
X236729Y235867D01*
X236421Y235365D01*
X236286Y235039D01*
X222440D01*
Y235930D01*
G37*
G36*
Y274329D02*X222332Y274421D01*
X222200Y274502D01*
X222057Y274561D01*
X221906Y274597D01*
X221752Y274606D01*
X219038Y274597D01*
X218888Y274561D01*
X218745Y274502D01*
X218613Y274421D01*
X218504Y274328D01*
X218395Y274421D01*
X218263Y274502D01*
X218120Y274561D01*
X217969Y274597D01*
X217815Y274606D01*
X215101Y274597D01*
X214951Y274561D01*
X214808Y274502D01*
X214676Y274421D01*
X214567Y274328D01*
X214458Y274421D01*
X214326Y274502D01*
X214183Y274561D01*
X214032Y274597D01*
X213878Y274606D01*
X211164Y274597D01*
X211014Y274561D01*
X210871Y274502D01*
X210739Y274421D01*
X210630Y274328D01*
X210521Y274421D01*
X210389Y274502D01*
X210246Y274561D01*
X210095Y274597D01*
X209941Y274606D01*
X207227Y274597D01*
X207077Y274561D01*
X206934Y274502D01*
X206802Y274421D01*
X206752Y274379D01*
X206836Y274515D01*
X206978Y274858D01*
X207065Y275220D01*
X207087Y275591D01*
X207065Y275961D01*
X207011Y276183D01*
X209899Y276190D01*
X210049Y276226D01*
X210192Y276286D01*
X210324Y276367D01*
X210442Y276467D01*
X210543Y276585D01*
X210624Y276717D01*
X210683Y276860D01*
X210719Y277011D01*
X210728Y277165D01*
X210719Y281257D01*
X210683Y281407D01*
X210624Y281551D01*
X210543Y281683D01*
X210442Y281800D01*
X210324Y281901D01*
X210192Y281982D01*
X210049Y282041D01*
X209899Y282077D01*
X209744Y282087D01*
X205849Y282077D01*
X205699Y282041D01*
X205556Y281982D01*
X205424Y281901D01*
X205306Y281800D01*
X205205Y281683D01*
X205124Y281551D01*
X205065Y281407D01*
X205029Y281257D01*
X205020Y281102D01*
X205027Y277936D01*
X204930Y277944D01*
X204426Y278448D01*
X204420Y281257D01*
X204384Y281407D01*
X204325Y281551D01*
X204244Y281683D01*
X204143Y281800D01*
X204025Y281901D01*
X203893Y281982D01*
X203750Y282041D01*
X203599Y282077D01*
X203445Y282087D01*
X200794Y282080D01*
X194882Y287992D01*
Y297441D01*
X210827Y313386D01*
X222440D01*
Y310505D01*
X221658Y309838D01*
X220411Y308377D01*
X219407Y306739D01*
X218672Y304964D01*
X218223Y303096D01*
X218073Y301181D01*
X218223Y299266D01*
X218672Y297398D01*
X219407Y295623D01*
X220411Y293985D01*
X221658Y292524D01*
X222440Y291857D01*
Y289837D01*
X218958Y293318D01*
X218935Y293345D01*
X218829Y293435D01*
X218710Y293508D01*
X218582Y293562D01*
X218472Y293588D01*
X218446Y293594D01*
X218307Y293605D01*
X218272Y293602D01*
X216373D01*
X216339Y293605D01*
X216200Y293594D01*
X216064Y293562D01*
X215935Y293508D01*
X215816Y293435D01*
X215816Y293435D01*
X215710Y293345D01*
X215688Y293318D01*
X214359Y291989D01*
X214332Y291967D01*
X214242Y291861D01*
X214169Y291742D01*
X214116Y291613D01*
X214083Y291478D01*
X214083Y291477D01*
X214072Y291339D01*
X214075Y291304D01*
Y289405D01*
X214072Y289370D01*
X214083Y289231D01*
X214116Y289096D01*
X214169Y288967D01*
X214242Y288848D01*
X214242Y288848D01*
X214332Y288742D01*
X214359Y288719D01*
X215059Y288019D01*
Y283106D01*
X215056Y283071D01*
X215067Y282932D01*
X215100Y282796D01*
X215153Y282667D01*
X215226Y282549D01*
X215226Y282548D01*
X215317Y282443D01*
X215343Y282420D01*
X216109Y281654D01*
X216089Y281604D01*
X216052Y281454D01*
X216043Y281299D01*
X216052Y276420D01*
X216089Y276270D01*
X216148Y276127D01*
X216229Y275994D01*
X216329Y275877D01*
X216447Y275776D01*
X216579Y275695D01*
X216722Y275636D01*
X216873Y275600D01*
X217028Y275591D01*
X219544Y275600D01*
X219695Y275636D01*
X219838Y275695D01*
X219970Y275776D01*
X220079Y275869D01*
X220187Y275776D01*
X220319Y275695D01*
X220463Y275636D01*
X220613Y275600D01*
X220768Y275591D01*
X222440Y275597D01*
Y274329D01*
G37*
G36*
Y258560D02*X221183Y258558D01*
X215663Y258556D01*
X215551Y258563D01*
X208704Y258554D01*
X208553Y258518D01*
X208465Y258481D01*
Y265157D01*
X208430Y265744D01*
X208292Y266317D01*
X208067Y266861D01*
X207760Y267363D01*
X207625Y267521D01*
X210095Y267529D01*
X210246Y267565D01*
X210389Y267624D01*
X210521Y267705D01*
X210630Y267798D01*
X210739Y267705D01*
X210871Y267624D01*
X211014Y267565D01*
X211164Y267529D01*
X211319Y267520D01*
X214032Y267529D01*
X214183Y267565D01*
X214326Y267624D01*
X214458Y267705D01*
X214567Y267798D01*
Y261417D01*
X222440D01*
Y258560D01*
G37*
G36*
X208465Y236007D02*X208553Y235970D01*
X208704Y235934D01*
X208858Y235925D01*
X217858Y235928D01*
X217913Y235925D01*
X221336Y235930D01*
X222440Y235930D01*
Y235039D01*
X208465D01*
Y236007D01*
G37*
G36*
X110236Y190079D02*X110448Y190209D01*
X110731Y190450D01*
X110972Y190733D01*
X111166Y191050D01*
X111309Y191394D01*
X111395Y191755D01*
X111417Y192126D01*
X111395Y192497D01*
X111309Y192858D01*
X111166Y193202D01*
X111024Y193435D01*
Y193573D01*
X111166Y193806D01*
X111309Y194150D01*
X111395Y194511D01*
X111417Y194882D01*
X111395Y195253D01*
X111309Y195614D01*
X111166Y195958D01*
X110972Y196275D01*
X110731Y196557D01*
X110448Y196799D01*
X110236Y196929D01*
Y204760D01*
X110322Y204836D01*
X113782Y208296D01*
X113789Y204865D01*
X113825Y204715D01*
X113884Y204571D01*
X113965Y204439D01*
X114066Y204322D01*
X114183Y204221D01*
X114316Y204140D01*
X114459Y204081D01*
X114609Y204045D01*
X114764Y204035D01*
X116400Y204037D01*
X116429Y203917D01*
X116548Y203631D01*
X116710Y203367D01*
X116710Y203367D01*
X116911Y203131D01*
X116970Y203081D01*
X117565Y202486D01*
X117628Y202221D01*
X117771Y201877D01*
X117913Y201644D01*
Y201505D01*
X117771Y201273D01*
X117628Y200929D01*
X117542Y200568D01*
X117512Y200197D01*
X117542Y199826D01*
X117628Y199465D01*
X117771Y199121D01*
X117965Y198804D01*
X118040Y198716D01*
X114609Y198711D01*
X114459Y198675D01*
X114316Y198616D01*
X114183Y198535D01*
X114066Y198434D01*
X113965Y198317D01*
X113884Y198184D01*
X113825Y198041D01*
X113789Y197891D01*
X113780Y197736D01*
X113789Y193054D01*
X113825Y192904D01*
X113884Y192760D01*
X113965Y192628D01*
X114066Y192511D01*
X114183Y192410D01*
X114316Y192329D01*
X114459Y192270D01*
X114609Y192234D01*
X114764Y192224D01*
X121940Y192233D01*
X127165Y187008D01*
X128489D01*
X128543Y187004D01*
X128597Y187008D01*
X130138D01*
X130315Y186831D01*
Y181550D01*
X130311Y181496D01*
X130328Y181280D01*
X130378Y181069D01*
X130461Y180869D01*
X130575Y180684D01*
X130575Y180683D01*
X130716Y180519D01*
X130757Y180484D01*
X133858Y177382D01*
Y170824D01*
X133843Y170815D01*
X133561Y170573D01*
X133319Y170290D01*
X133125Y169973D01*
X132983Y169630D01*
X132896Y169268D01*
X132867Y168898D01*
X132896Y168527D01*
X132983Y168165D01*
X133125Y167822D01*
X133189Y167718D01*
X132897Y167695D01*
X132536Y167608D01*
X132192Y167466D01*
X131875Y167271D01*
X131592Y167030D01*
X131351Y166747D01*
X131342Y166732D01*
X110236D01*
Y172249D01*
X113540Y172253D01*
X113691Y172289D01*
X113834Y172349D01*
X113966Y172430D01*
X114084Y172530D01*
X114185Y172648D01*
X114266Y172780D01*
X114325Y172923D01*
X114361Y173074D01*
X114370Y173228D01*
X114361Y188737D01*
X114325Y188888D01*
X114266Y189031D01*
X114185Y189163D01*
X114084Y189281D01*
X113966Y189381D01*
X113834Y189462D01*
X113691Y189522D01*
X113540Y189558D01*
X113386Y189567D01*
X110236Y189562D01*
Y190079D01*
G37*
G36*
Y196929D02*X110131Y196993D01*
X109787Y197135D01*
X109426Y197222D01*
X109055Y197251D01*
X108684Y197222D01*
X108562Y197193D01*
X108554Y202123D01*
X108518Y202274D01*
X108458Y202417D01*
X108377Y202549D01*
X108277Y202667D01*
X108268Y202674D01*
Y203776D01*
X108836Y203912D01*
X109380Y204138D01*
X109882Y204445D01*
X110236Y204760D01*
Y196929D01*
G37*
G36*
X98425Y195870D02*X99859Y195875D01*
X100010Y195911D01*
X100153Y195971D01*
X100285Y196052D01*
X100394Y196144D01*
X100502Y196052D01*
X100634Y195971D01*
X100778Y195911D01*
X100928Y195875D01*
X101083Y195866D01*
X103796Y195875D01*
X103947Y195911D01*
X104090Y195971D01*
X104222Y196052D01*
X104331Y196144D01*
X104439Y196052D01*
X104571Y195971D01*
X104715Y195911D01*
X104865Y195875D01*
X105020Y195866D01*
X106909Y195872D01*
X106814Y195645D01*
X106749Y195660D01*
X106594Y195669D01*
X102700Y195660D01*
X102549Y195624D01*
X102406Y195565D01*
X102274Y195484D01*
X102156Y195383D01*
X102056Y195265D01*
X101975Y195133D01*
X101915Y194990D01*
X101879Y194839D01*
X101870Y194685D01*
X101879Y190594D01*
X101915Y190443D01*
X101975Y190300D01*
X102056Y190168D01*
X102156Y190050D01*
X102274Y189949D01*
X102406Y189868D01*
X102549Y189809D01*
X102700Y189773D01*
X102854Y189764D01*
X106749Y189773D01*
X106900Y189809D01*
X107043Y189868D01*
X107175Y189949D01*
X107293Y190050D01*
X107393Y190168D01*
X107474Y190300D01*
X107496Y190351D01*
X107662Y190209D01*
X107979Y190015D01*
X108323Y189872D01*
X108684Y189786D01*
X109055Y189756D01*
X109426Y189786D01*
X109787Y189872D01*
X110131Y190015D01*
X110236Y190079D01*
Y189562D01*
X106932Y189558D01*
X106782Y189522D01*
X106638Y189462D01*
X106506Y189381D01*
X106388Y189281D01*
X106288Y189163D01*
X106207Y189031D01*
X106148Y188888D01*
X106111Y188737D01*
X106102Y188583D01*
X106111Y173074D01*
X106148Y172923D01*
X106207Y172780D01*
X106288Y172648D01*
X106388Y172530D01*
X106506Y172430D01*
X106638Y172349D01*
X106782Y172289D01*
X106932Y172253D01*
X107087Y172244D01*
X110236Y172249D01*
Y166732D01*
X98425D01*
Y189768D01*
X100450Y189773D01*
X100600Y189809D01*
X100743Y189868D01*
X100876Y189949D01*
X100993Y190050D01*
X101094Y190168D01*
X101175Y190300D01*
X101234Y190443D01*
X101270Y190594D01*
X101280Y190748D01*
X101270Y194839D01*
X101234Y194990D01*
X101175Y195133D01*
X101094Y195265D01*
X100993Y195383D01*
X100876Y195484D01*
X100743Y195565D01*
X100600Y195624D01*
X100450Y195660D01*
X100295Y195669D01*
X98425Y195665D01*
Y195870D01*
G37*
G36*
X62992Y190516D02*X64371Y190521D01*
X64522Y190557D01*
X64665Y190616D01*
X64764Y190677D01*
X64863Y190616D01*
X65006Y190557D01*
X65157Y190521D01*
X65311Y190512D01*
X66786Y190517D01*
X67546Y189758D01*
X67542Y189741D01*
X67512Y189370D01*
X67542Y188999D01*
X67628Y188638D01*
X67771Y188294D01*
X67965Y187977D01*
X68206Y187695D01*
X68489Y187453D01*
X68806Y187259D01*
X69150Y187117D01*
X69511Y187030D01*
X69882Y187001D01*
X70253Y187030D01*
X70614Y187117D01*
X70958Y187259D01*
X71275Y187453D01*
X71557Y187695D01*
X71752Y187922D01*
X71947Y187695D01*
X72229Y187453D01*
X72546Y187259D01*
X72890Y187117D01*
X73251Y187030D01*
X73622Y187001D01*
X73993Y187030D01*
X74354Y187117D01*
X74698Y187259D01*
X75015Y187453D01*
X75298Y187695D01*
X75539Y187977D01*
X75733Y188294D01*
X75876Y188638D01*
X75962Y188999D01*
X75984Y189370D01*
X75962Y189741D01*
X75876Y190102D01*
X75787Y190315D01*
Y190521D01*
X75788Y190521D01*
X75939Y190557D01*
X76082Y190616D01*
X76214Y190697D01*
X76332Y190798D01*
X76433Y190916D01*
X76514Y191048D01*
X76573Y191191D01*
X76609Y191342D01*
X76618Y191496D01*
X76610Y193685D01*
X77728Y192568D01*
X77763Y192527D01*
X77928Y192386D01*
X77928Y192386D01*
X78113Y192272D01*
X78313Y192189D01*
X78316Y192189D01*
X78316Y192125D01*
X78352Y191974D01*
X78412Y191831D01*
X78472Y191732D01*
X78412Y191633D01*
X78352Y191490D01*
X78316Y191339D01*
X78307Y191185D01*
X78316Y188582D01*
X78352Y188431D01*
X78412Y188288D01*
X78493Y188156D01*
X78593Y188038D01*
X78711Y187937D01*
X78843Y187857D01*
X78886Y187839D01*
X78794Y187690D01*
X78652Y187346D01*
X78565Y186985D01*
X78536Y186614D01*
X78565Y186244D01*
X78652Y185882D01*
X78794Y185538D01*
X78989Y185221D01*
X79230Y184939D01*
X79513Y184697D01*
X79830Y184503D01*
X80173Y184361D01*
X80535Y184274D01*
X80906Y184245D01*
X81276Y184274D01*
X81638Y184361D01*
X81981Y184503D01*
X82298Y184697D01*
X82581Y184939D01*
X82677Y185051D01*
X82773Y184939D01*
X83056Y184697D01*
X83373Y184503D01*
X83717Y184361D01*
X84078Y184274D01*
X84449Y184245D01*
X84819Y184274D01*
X85181Y184361D01*
X85525Y184503D01*
X85842Y184697D01*
X86124Y184939D01*
X86319Y185167D01*
X86513Y184939D01*
X86796Y184697D01*
X87113Y184503D01*
X87457Y184361D01*
X87818Y184274D01*
X88189Y184245D01*
X88560Y184274D01*
X88921Y184361D01*
X89265Y184503D01*
X89582Y184697D01*
X89864Y184939D01*
X89961Y185051D01*
X90057Y184939D01*
X90340Y184697D01*
X90657Y184503D01*
X91000Y184361D01*
X91362Y184274D01*
X91732Y184245D01*
X92103Y184274D01*
X92464Y184361D01*
X92808Y184503D01*
X93125Y184697D01*
X93408Y184939D01*
X93649Y185221D01*
X93844Y185538D01*
X93986Y185882D01*
X94073Y186244D01*
X94094Y186614D01*
X94073Y186985D01*
X93986Y187346D01*
X93844Y187690D01*
X93649Y188007D01*
X93408Y188290D01*
X93125Y188531D01*
X93110Y188540D01*
Y194434D01*
X93114Y194488D01*
X93097Y194704D01*
X93097Y194704D01*
X93047Y194915D01*
X92964Y195116D01*
X92851Y195301D01*
X92710Y195466D01*
X92668Y195501D01*
X92222Y195947D01*
X92279Y195971D01*
X92411Y196052D01*
X92520Y196144D01*
X92628Y196052D01*
X92760Y195971D01*
X92904Y195911D01*
X93054Y195875D01*
X93209Y195866D01*
X95922Y195875D01*
X96073Y195911D01*
X96216Y195971D01*
X96348Y196052D01*
X96457Y196144D01*
X96565Y196052D01*
X96697Y195971D01*
X96841Y195911D01*
X96991Y195875D01*
X97146Y195866D01*
X98425Y195870D01*
Y195665D01*
X96401Y195660D01*
X96250Y195624D01*
X96107Y195565D01*
X95975Y195484D01*
X95857Y195383D01*
X95756Y195265D01*
X95675Y195133D01*
X95616Y194990D01*
X95580Y194839D01*
X95571Y194685D01*
X95580Y190594D01*
X95616Y190443D01*
X95675Y190300D01*
X95756Y190168D01*
X95857Y190050D01*
X95975Y189949D01*
X96107Y189868D01*
X96250Y189809D01*
X96401Y189773D01*
X96555Y189764D01*
X98425Y189768D01*
Y166732D01*
X93658D01*
X93649Y166747D01*
X93408Y167030D01*
X93125Y167271D01*
X92808Y167466D01*
X92464Y167608D01*
X92103Y167695D01*
X91732Y167724D01*
X91362Y167695D01*
X91000Y167608D01*
X90657Y167466D01*
X90340Y167271D01*
X90057Y167030D01*
X89815Y166747D01*
X89621Y166430D01*
X89505Y166151D01*
X89315Y166230D01*
X88953Y166317D01*
X88583Y166346D01*
X88212Y166317D01*
X87850Y166230D01*
X87507Y166088D01*
X87274Y165945D01*
X83055D01*
X83017Y166036D01*
X82822Y166353D01*
X82581Y166636D01*
X82298Y166878D01*
X81981Y167072D01*
X81638Y167214D01*
X81276Y167301D01*
X80906Y167330D01*
X80535Y167301D01*
X80173Y167214D01*
X79830Y167072D01*
X79513Y166878D01*
X79230Y166636D01*
X78989Y166353D01*
X78794Y166036D01*
X78756Y165945D01*
X66322D01*
X66284Y166036D01*
X66090Y166353D01*
X65849Y166636D01*
X65566Y166878D01*
X65249Y167072D01*
X64905Y167214D01*
X64544Y167301D01*
X64173Y167330D01*
X63803Y167301D01*
X63441Y167214D01*
X63098Y167072D01*
X62992Y167007D01*
Y172249D01*
X66296Y172253D01*
X66447Y172289D01*
X66590Y172349D01*
X66722Y172430D01*
X66840Y172530D01*
X66940Y172648D01*
X67021Y172780D01*
X67081Y172923D01*
X67117Y173074D01*
X67126Y173228D01*
X67117Y188737D01*
X67081Y188888D01*
X67021Y189031D01*
X66940Y189163D01*
X66840Y189281D01*
X66722Y189381D01*
X66590Y189462D01*
X66447Y189522D01*
X66296Y189558D01*
X66142Y189567D01*
X62992Y189562D01*
Y190516D01*
G37*
G36*
X60783Y193937D02*X60793Y191342D01*
X60829Y191191D01*
X60888Y191048D01*
X60969Y190916D01*
X61070Y190798D01*
X61187Y190697D01*
X61319Y190616D01*
X61463Y190557D01*
X61613Y190521D01*
X61768Y190512D01*
X62992Y190516D01*
Y189562D01*
X59688Y189558D01*
X59537Y189522D01*
X59394Y189462D01*
X59262Y189381D01*
X59144Y189281D01*
X59044Y189163D01*
X58963Y189031D01*
X58904Y188888D01*
X58867Y188737D01*
X58858Y188583D01*
X58867Y173074D01*
X58904Y172923D01*
X58963Y172780D01*
X59044Y172648D01*
X59144Y172530D01*
X59262Y172430D01*
X59394Y172349D01*
X59537Y172289D01*
X59688Y172253D01*
X59843Y172244D01*
X62992Y172249D01*
Y167007D01*
X62780Y166878D01*
X62498Y166636D01*
X62256Y166353D01*
X62062Y166036D01*
X62024Y165945D01*
X59209D01*
X59395Y166247D01*
X59537Y166591D01*
X59624Y166952D01*
X59646Y167323D01*
X59624Y167694D01*
X59537Y168055D01*
X59395Y168399D01*
X59200Y168716D01*
X58959Y168998D01*
X58676Y169240D01*
X58359Y169434D01*
X58016Y169576D01*
X57654Y169663D01*
X57283Y169692D01*
X56913Y169663D01*
X56551Y169576D01*
X56208Y169434D01*
X55891Y169240D01*
X55608Y168998D01*
X55367Y168716D01*
X55172Y168399D01*
X55030Y168055D01*
X54943Y167694D01*
X54914Y167323D01*
X54943Y166952D01*
X55030Y166591D01*
X55172Y166247D01*
X55357Y165945D01*
X49988D01*
X49978Y166119D01*
X49891Y166480D01*
X49749Y166824D01*
X49555Y167141D01*
X49313Y167424D01*
X49031Y167665D01*
X48714Y167859D01*
X48370Y168002D01*
X48008Y168088D01*
X47638Y168118D01*
X47267Y168088D01*
X46906Y168002D01*
X46562Y167859D01*
X46245Y167665D01*
X45962Y167424D01*
X45721Y167141D01*
X45527Y166824D01*
X45384Y166480D01*
X45297Y166119D01*
X45284Y165945D01*
X40945D01*
Y209449D01*
X40968D01*
X41048Y209355D01*
X41160Y209260D01*
X46568Y203851D01*
X47007Y203461D01*
X47509Y203153D01*
X48053Y202928D01*
X48626Y202791D01*
X49213Y202744D01*
Y202674D01*
X49203Y202667D01*
X49103Y202549D01*
X49022Y202417D01*
X48963Y202274D01*
X48926Y202123D01*
X48917Y201969D01*
X48926Y196696D01*
X48963Y196545D01*
X49022Y196402D01*
X49103Y196270D01*
X49203Y196152D01*
X49321Y196052D01*
X49453Y195971D01*
X49596Y195911D01*
X49747Y195875D01*
X49902Y195866D01*
X50804Y195869D01*
X52924Y193749D01*
X52960Y193708D01*
X53124Y193567D01*
X53125Y193567D01*
X53310Y193453D01*
X53510Y193370D01*
X53553Y193360D01*
X53595Y193292D01*
X53836Y193010D01*
X54119Y192768D01*
X54436Y192574D01*
X54780Y192432D01*
X55141Y192345D01*
X55512Y192316D01*
X55882Y192345D01*
X56244Y192432D01*
X56588Y192574D01*
X56905Y192768D01*
X57187Y193010D01*
X57429Y193292D01*
X57623Y193609D01*
X57765Y193953D01*
X57852Y194314D01*
X57874Y194685D01*
X57852Y195056D01*
X57765Y195417D01*
X57623Y195761D01*
X57541Y195894D01*
X57621Y195875D01*
X57776Y195866D01*
X60489Y195875D01*
X60640Y195911D01*
X60783Y195971D01*
X60915Y196052D01*
X61024Y196144D01*
X61132Y196052D01*
X61264Y195971D01*
X61408Y195911D01*
X61558Y195875D01*
X61614Y195872D01*
Y194912D01*
X61613Y194912D01*
X61463Y194876D01*
X61319Y194817D01*
X61187Y194736D01*
X61070Y194635D01*
X60969Y194517D01*
X60888Y194385D01*
X60829Y194242D01*
X60793Y194091D01*
X60783Y193937D01*
G37*
G36*
X47418Y233858D02*X57523D01*
X57489Y233717D01*
X57480Y233563D01*
X57480Y233560D01*
X57484Y225942D01*
X57480Y225886D01*
X57485Y223149D01*
X57487Y218322D01*
X57480Y218209D01*
X57489Y212739D01*
X57526Y212589D01*
X57585Y212445D01*
X57666Y212313D01*
X57766Y212196D01*
X57884Y212095D01*
X58016Y212014D01*
X58159Y211955D01*
X58310Y211919D01*
X58465Y211909D01*
X58469Y211909D01*
X69152Y211912D01*
X69193Y211909D01*
X72037Y211912D01*
X79840Y211914D01*
X79921Y211909D01*
X85606Y211916D01*
X90528Y211917D01*
X90650Y211909D01*
X99170Y211919D01*
X99321Y211955D01*
X99464Y212014D01*
X99596Y212095D01*
X99714Y212196D01*
X99814Y212313D01*
X99895Y212445D01*
X99955Y212589D01*
X99991Y212739D01*
X100000Y212894D01*
X100000Y212897D01*
X99997Y220514D01*
X100000Y220571D01*
X99995Y223309D01*
X99993Y228135D01*
X100000Y228248D01*
X99991Y233717D01*
X99957Y233858D01*
X108685D01*
X108661Y233465D01*
Y213754D01*
X105032Y210125D01*
X104642Y209686D01*
X104334Y209184D01*
X104109Y208640D01*
X103972Y208067D01*
X103925Y207480D01*
X103972Y206893D01*
X104109Y206321D01*
X104334Y205777D01*
X104371Y205717D01*
X104349Y205624D01*
X104349Y205624D01*
X104348Y205610D01*
X103814D01*
X103644Y205809D01*
X103361Y206051D01*
X103044Y206245D01*
X102701Y206387D01*
X102339Y206474D01*
X101969Y206503D01*
X101598Y206474D01*
X101236Y206387D01*
X100893Y206245D01*
X100576Y206051D01*
X100293Y205809D01*
X100052Y205527D01*
X99857Y205210D01*
X99715Y204866D01*
X99628Y204505D01*
X99599Y204134D01*
X99628Y203763D01*
X99715Y203402D01*
X99857Y203058D01*
X99939Y202924D01*
X99859Y202944D01*
X99705Y202953D01*
X96991Y202944D01*
X96841Y202907D01*
X96697Y202848D01*
X96565Y202767D01*
X96552Y202756D01*
X96361D01*
X96348Y202767D01*
X96216Y202848D01*
X96073Y202907D01*
X95922Y202944D01*
X95768Y202953D01*
X93054Y202944D01*
X92904Y202907D01*
X92760Y202848D01*
X92628Y202767D01*
X92615Y202756D01*
X92424D01*
X92411Y202767D01*
X92279Y202848D01*
X92136Y202907D01*
X91985Y202944D01*
X91831Y202953D01*
X89117Y202944D01*
X88967Y202907D01*
X88823Y202848D01*
X88691Y202767D01*
X88678Y202756D01*
X88487D01*
X88474Y202767D01*
X88342Y202848D01*
X88199Y202907D01*
X88048Y202944D01*
X87894Y202953D01*
X85180Y202944D01*
X85030Y202907D01*
X84886Y202848D01*
X84754Y202767D01*
X84741Y202756D01*
X84603D01*
X84788Y203058D01*
X84931Y203402D01*
X85017Y203763D01*
X85039Y204134D01*
X85017Y204505D01*
X84931Y204866D01*
X84788Y205210D01*
X84594Y205527D01*
X84353Y205809D01*
X84070Y206051D01*
X83753Y206245D01*
X83409Y206387D01*
X83048Y206474D01*
X82677Y206503D01*
X82306Y206474D01*
X81945Y206387D01*
X81601Y206245D01*
X81284Y206051D01*
X81002Y205809D01*
X80760Y205527D01*
X80709Y205442D01*
X80657Y205527D01*
X80416Y205809D01*
X80133Y206051D01*
X79816Y206245D01*
X79472Y206387D01*
X79111Y206474D01*
X78740Y206503D01*
X78369Y206474D01*
X78008Y206387D01*
X77664Y206245D01*
X77347Y206051D01*
X77065Y205809D01*
X76823Y205527D01*
X76629Y205210D01*
X76487Y204866D01*
X76400Y204505D01*
X76371Y204134D01*
X76400Y203763D01*
X76487Y203402D01*
X76629Y203058D01*
X76814Y202756D01*
X76676D01*
X76663Y202767D01*
X76531Y202848D01*
X76388Y202907D01*
X76237Y202944D01*
X76083Y202953D01*
X73369Y202944D01*
X73219Y202907D01*
X73075Y202848D01*
X72943Y202767D01*
X72930Y202756D01*
X72739D01*
X72726Y202767D01*
X72594Y202848D01*
X72451Y202907D01*
X72300Y202944D01*
X72146Y202953D01*
X69432Y202944D01*
X69282Y202907D01*
X69138Y202848D01*
X69006Y202767D01*
X68993Y202756D01*
X68855D01*
X69040Y203058D01*
X69183Y203402D01*
X69269Y203763D01*
X69291Y204134D01*
X69269Y204505D01*
X69183Y204866D01*
X69040Y205210D01*
X68846Y205527D01*
X68605Y205809D01*
X68322Y206051D01*
X68005Y206245D01*
X67661Y206387D01*
X67300Y206474D01*
X66929Y206503D01*
X66558Y206474D01*
X66197Y206387D01*
X65853Y206245D01*
X65536Y206051D01*
X65254Y205809D01*
X65012Y205527D01*
X64818Y205210D01*
X64676Y204866D01*
X64589Y204505D01*
X64560Y204134D01*
X64589Y203763D01*
X64676Y203402D01*
X64818Y203058D01*
X65003Y202756D01*
X64865D01*
X64852Y202767D01*
X64720Y202848D01*
X64577Y202907D01*
X64426Y202944D01*
X64272Y202953D01*
X61558Y202944D01*
X61408Y202907D01*
X61264Y202848D01*
X61132Y202767D01*
X61119Y202756D01*
X60928D01*
X60915Y202767D01*
X60783Y202848D01*
X60640Y202907D01*
X60489Y202944D01*
X60335Y202953D01*
X57621Y202944D01*
X57471Y202907D01*
X57327Y202848D01*
X57195Y202767D01*
X57182Y202756D01*
X56991D01*
X56978Y202767D01*
X56846Y202848D01*
X56703Y202907D01*
X56552Y202944D01*
X56398Y202953D01*
X53684Y202944D01*
X53533Y202907D01*
X53390Y202848D01*
X53258Y202767D01*
X53245Y202756D01*
X53150D01*
Y204450D01*
X53156Y204528D01*
X53131Y204836D01*
X53059Y205138D01*
X52940Y205424D01*
X52841Y205587D01*
X52918Y205909D01*
X52964Y206496D01*
X52918Y207083D01*
X52781Y207655D01*
X52555Y208199D01*
X52248Y208701D01*
X51857Y209141D01*
X47441Y213557D01*
Y233465D01*
X47418Y233858D01*
G37*
G36*
X174792D02*X183507D01*
X183474Y233717D01*
X183465Y233563D01*
X183465Y233560D01*
X183468Y225942D01*
X183465Y225886D01*
X183469Y223149D01*
X183471Y218322D01*
X183465Y218209D01*
X183474Y212739D01*
X183510Y212589D01*
X183569Y212445D01*
X183650Y212313D01*
X183751Y212196D01*
X183868Y212095D01*
X184001Y212014D01*
X184144Y211955D01*
X184294Y211919D01*
X184449Y211909D01*
X184453Y211909D01*
X195137Y211912D01*
X195177Y211909D01*
X198021Y211912D01*
X205824Y211914D01*
X205906Y211909D01*
X211590Y211916D01*
X216512Y211917D01*
X216634Y211909D01*
X225154Y211919D01*
X225305Y211955D01*
X225448Y212014D01*
X225580Y212095D01*
X225698Y212196D01*
X225799Y212313D01*
X225880Y212445D01*
X225939Y212589D01*
X225975Y212739D01*
X225984Y212894D01*
X225984Y212897D01*
X225981Y220514D01*
X225984Y220571D01*
X225980Y223309D01*
X225978Y228135D01*
X225984Y228248D01*
X225975Y233717D01*
X225941Y233858D01*
X236035D01*
X236024Y233661D01*
Y213754D01*
X231607Y209338D01*
X231217Y208898D01*
X230909Y208396D01*
X230684Y207852D01*
X230546Y207280D01*
X230500Y206693D01*
X230546Y206106D01*
X230624Y205784D01*
X230524Y205621D01*
X230520Y205610D01*
X230192D01*
X230022Y205809D01*
X229739Y206051D01*
X229422Y206245D01*
X229079Y206387D01*
X228717Y206474D01*
X228346Y206503D01*
X227976Y206474D01*
X227614Y206387D01*
X227271Y206245D01*
X226954Y206051D01*
X226671Y205809D01*
X226430Y205527D01*
X226235Y205210D01*
X226093Y204866D01*
X226006Y204505D01*
X225977Y204134D01*
X226006Y203763D01*
X226093Y203402D01*
X226235Y203058D01*
X226420Y202756D01*
X226283D01*
X226269Y202767D01*
X226137Y202848D01*
X225994Y202907D01*
X225843Y202944D01*
X225689Y202953D01*
X222975Y202944D01*
X222825Y202907D01*
X222682Y202848D01*
X222550Y202767D01*
X222536Y202756D01*
X222346D01*
X222332Y202767D01*
X222200Y202848D01*
X222057Y202907D01*
X221906Y202944D01*
X221752Y202953D01*
X219038Y202944D01*
X218888Y202907D01*
X218745Y202848D01*
X218613Y202767D01*
X218599Y202756D01*
X218409D01*
X218395Y202767D01*
X218263Y202848D01*
X218120Y202907D01*
X217969Y202944D01*
X217815Y202953D01*
X215101Y202944D01*
X214951Y202907D01*
X214808Y202848D01*
X214676Y202767D01*
X214662Y202756D01*
X214472D01*
X214458Y202767D01*
X214326Y202848D01*
X214183Y202907D01*
X214032Y202944D01*
X213878Y202953D01*
X211164Y202944D01*
X211014Y202907D01*
X210871Y202848D01*
X210739Y202767D01*
X210725Y202756D01*
X210587D01*
X210773Y203058D01*
X210915Y203402D01*
X211002Y203763D01*
X211024Y204134D01*
X211002Y204505D01*
X210915Y204866D01*
X210773Y205210D01*
X210578Y205527D01*
X210337Y205809D01*
X210054Y206051D01*
X209737Y206245D01*
X209394Y206387D01*
X209032Y206474D01*
X208661Y206503D01*
X208291Y206474D01*
X207929Y206387D01*
X207586Y206245D01*
X207269Y206051D01*
X206986Y205809D01*
X206744Y205527D01*
X206693Y205442D01*
X206641Y205527D01*
X206400Y205809D01*
X206117Y206051D01*
X205800Y206245D01*
X205457Y206387D01*
X205095Y206474D01*
X204724Y206503D01*
X204354Y206474D01*
X203992Y206387D01*
X203649Y206245D01*
X203332Y206051D01*
X203049Y205809D01*
X202807Y205527D01*
X202613Y205210D01*
X202471Y204866D01*
X202384Y204505D01*
X202355Y204134D01*
X202384Y203763D01*
X202471Y203402D01*
X202613Y203058D01*
X202798Y202756D01*
X202661D01*
X202647Y202767D01*
X202515Y202848D01*
X202372Y202907D01*
X202221Y202944D01*
X202067Y202953D01*
X199353Y202944D01*
X199203Y202907D01*
X199060Y202848D01*
X198928Y202767D01*
X198914Y202756D01*
X198724D01*
X198710Y202767D01*
X198578Y202848D01*
X198435Y202907D01*
X198284Y202944D01*
X198130Y202953D01*
X195416Y202944D01*
X195266Y202907D01*
X195123Y202848D01*
X194991Y202767D01*
X194977Y202756D01*
X194839D01*
X195025Y203058D01*
X195167Y203402D01*
X195254Y203763D01*
X195276Y204134D01*
X195254Y204505D01*
X195167Y204866D01*
X195025Y205210D01*
X194830Y205527D01*
X194589Y205809D01*
X194306Y206051D01*
X193989Y206245D01*
X193646Y206387D01*
X193284Y206474D01*
X192913Y206503D01*
X192543Y206474D01*
X192181Y206387D01*
X191838Y206245D01*
X191521Y206051D01*
X191238Y205809D01*
X190996Y205527D01*
X190802Y205210D01*
X190660Y204866D01*
X190573Y204505D01*
X190544Y204134D01*
X190573Y203763D01*
X190660Y203402D01*
X190802Y203058D01*
X190987Y202756D01*
X190849D01*
X190836Y202767D01*
X190704Y202848D01*
X190561Y202907D01*
X190410Y202944D01*
X190256Y202953D01*
X187542Y202944D01*
X187392Y202907D01*
X187249Y202848D01*
X187117Y202767D01*
X187103Y202756D01*
X186912D01*
X186899Y202767D01*
X186767Y202848D01*
X186624Y202907D01*
X186473Y202944D01*
X186319Y202953D01*
X183605Y202944D01*
X183455Y202907D01*
X183312Y202848D01*
X183180Y202767D01*
X183166Y202756D01*
X182975D01*
X182962Y202767D01*
X182830Y202848D01*
X182687Y202907D01*
X182536Y202944D01*
X182382Y202953D01*
X179668Y202944D01*
X179518Y202907D01*
X179375Y202848D01*
X179243Y202767D01*
X179229Y202756D01*
X179134D01*
Y205195D01*
X179355Y205730D01*
X179493Y206303D01*
X179539Y206890D01*
X179493Y207477D01*
X179355Y208049D01*
X179130Y208593D01*
X178823Y209095D01*
X178432Y209534D01*
X174803Y213163D01*
Y233661D01*
X174792Y233858D01*
G37*
G36*
X232579Y195669D02*X228684Y195660D01*
X228533Y195624D01*
X228390Y195565D01*
X228258Y195484D01*
X228140Y195383D01*
X228040Y195265D01*
X227959Y195133D01*
X227900Y194990D01*
X227863Y194839D01*
X227854Y194685D01*
X227863Y190594D01*
X227900Y190443D01*
X227959Y190300D01*
X228040Y190168D01*
X228140Y190050D01*
X228258Y189949D01*
X228390Y189868D01*
X228533Y189809D01*
X228684Y189773D01*
X228839Y189764D01*
X232733Y189773D01*
X232884Y189809D01*
X233027Y189868D01*
X233159Y189949D01*
X233277Y190050D01*
X233377Y190168D01*
X233458Y190300D01*
X233518Y190443D01*
X233554Y190594D01*
X233563Y190748D01*
X233628D01*
X233643Y190730D01*
X233879Y190529D01*
X233879Y190529D01*
X234143Y190367D01*
X234345Y190283D01*
X234429Y190248D01*
X234488Y190234D01*
X234730Y190176D01*
X235039Y190151D01*
X235039D01*
X235348Y190176D01*
X235650Y190248D01*
X235936Y190367D01*
X236200Y190529D01*
X236309Y190621D01*
X236436Y190730D01*
X236528Y190838D01*
X236537Y190848D01*
X236637Y190965D01*
X236799Y191230D01*
X236883Y191432D01*
X236917Y191516D01*
X236931Y191574D01*
X236990Y191817D01*
X237014Y192126D01*
X237008Y192203D01*
Y194805D01*
X237014Y194882D01*
X236990Y195191D01*
X236917Y195492D01*
X236799Y195778D01*
X236637Y196043D01*
X236436Y196278D01*
X236200Y196479D01*
X235936Y196641D01*
X235650Y196760D01*
X235348Y196832D01*
X235039Y196856D01*
X234730Y196832D01*
X234544Y196787D01*
X234547Y196850D01*
X234538Y202123D01*
X234502Y202274D01*
X234443Y202417D01*
X234362Y202549D01*
X234261Y202667D01*
X234252Y202674D01*
Y202941D01*
X234252D01*
X234839Y202987D01*
X235411Y203125D01*
X235955Y203350D01*
X236457Y203658D01*
X236897Y204048D01*
X242305Y209456D01*
X242417Y209552D01*
X242520Y209673D01*
Y165945D01*
X224409D01*
Y172635D01*
X224421Y172648D01*
X224502Y172780D01*
X224561Y172923D01*
X224597Y173074D01*
X224606Y173228D01*
X224597Y188737D01*
X224561Y188888D01*
X224502Y189031D01*
X224421Y189163D01*
X224409Y189176D01*
Y189768D01*
X226434Y189773D01*
X226585Y189809D01*
X226728Y189868D01*
X226860Y189949D01*
X226978Y190050D01*
X227078Y190168D01*
X227159Y190300D01*
X227218Y190443D01*
X227255Y190594D01*
X227264Y190748D01*
X227255Y194839D01*
X227218Y194990D01*
X227159Y195133D01*
X227078Y195265D01*
X226978Y195383D01*
X226860Y195484D01*
X226728Y195565D01*
X226585Y195624D01*
X226434Y195660D01*
X226280Y195669D01*
X224409Y195665D01*
Y195870D01*
X225843Y195875D01*
X225994Y195911D01*
X226137Y195971D01*
X226269Y196052D01*
X226378Y196144D01*
X226487Y196052D01*
X226619Y195971D01*
X226762Y195911D01*
X226912Y195875D01*
X227067Y195866D01*
X229780Y195875D01*
X229931Y195911D01*
X230074Y195971D01*
X230206Y196052D01*
X230315Y196144D01*
X230424Y196052D01*
X230556Y195971D01*
X230699Y195911D01*
X230849Y195875D01*
X231004Y195866D01*
X233247Y195874D01*
X232964Y195591D01*
X232884Y195624D01*
X232733Y195660D01*
X232579Y195669D01*
G37*
G36*
X224409Y165945D02*X219610D01*
X219576Y166087D01*
X219434Y166430D01*
X219240Y166747D01*
X218998Y167030D01*
X218716Y167271D01*
X218399Y167466D01*
X218055Y167608D01*
X217694Y167695D01*
X217323Y167724D01*
X216952Y167695D01*
X216591Y167608D01*
X216247Y167466D01*
X215930Y167271D01*
X215647Y167030D01*
X215406Y166747D01*
X215212Y166430D01*
X215069Y166087D01*
X215035Y165945D01*
X214492D01*
X214458Y166087D01*
X214316Y166430D01*
X214122Y166747D01*
X213880Y167030D01*
X213597Y167271D01*
X213280Y167466D01*
X212937Y167608D01*
X212575Y167695D01*
X212205Y167724D01*
X211834Y167695D01*
X211473Y167608D01*
X211129Y167466D01*
X210812Y167271D01*
X210529Y167030D01*
X210288Y166747D01*
X210279Y166732D01*
X173228D01*
Y172249D01*
X176532Y172253D01*
X176683Y172289D01*
X176826Y172349D01*
X176958Y172430D01*
X177076Y172530D01*
X177177Y172648D01*
X177258Y172780D01*
X177317Y172923D01*
X177353Y173074D01*
X177362Y173228D01*
X177353Y188737D01*
X177317Y188888D01*
X177258Y189031D01*
X177177Y189163D01*
X177076Y189281D01*
X176958Y189381D01*
X176826Y189462D01*
X176683Y189522D01*
X176532Y189558D01*
X176378Y189567D01*
X173228Y189562D01*
Y204169D01*
X173582Y203855D01*
X174084Y203547D01*
X174628Y203322D01*
X175197Y203185D01*
Y202674D01*
X175188Y202667D01*
X175087Y202549D01*
X175006Y202417D01*
X174947Y202274D01*
X174911Y202123D01*
X174902Y201969D01*
X174911Y196696D01*
X174947Y196545D01*
X175006Y196402D01*
X175087Y196270D01*
X175188Y196152D01*
X175306Y196052D01*
X175438Y195971D01*
X175581Y195911D01*
X175731Y195875D01*
X175886Y195866D01*
X176788Y195869D01*
X178909Y193749D01*
X178944Y193708D01*
X179109Y193567D01*
X179109Y193567D01*
X179294Y193453D01*
X179494Y193370D01*
X179538Y193360D01*
X179579Y193292D01*
X179821Y193010D01*
X180103Y192768D01*
X180420Y192574D01*
X180764Y192432D01*
X181125Y192345D01*
X181496Y192316D01*
X181867Y192345D01*
X182228Y192432D01*
X182572Y192574D01*
X182889Y192768D01*
X183172Y193010D01*
X183413Y193292D01*
X183607Y193609D01*
X183750Y193953D01*
X183836Y194314D01*
X183858Y194685D01*
X183836Y195056D01*
X183750Y195417D01*
X183607Y195761D01*
X183525Y195894D01*
X183605Y195875D01*
X183760Y195866D01*
X186473Y195875D01*
X186624Y195911D01*
X186767Y195971D01*
X186899Y196052D01*
X187008Y196144D01*
X187117Y196052D01*
X187249Y195971D01*
X187392Y195911D01*
X187542Y195875D01*
X187697Y195866D01*
X188006Y195867D01*
X188040Y195838D01*
X188803Y195075D01*
X188785Y195033D01*
X188749Y194883D01*
X188740Y194728D01*
X188749Y192125D01*
X188785Y191974D01*
X188845Y191831D01*
X188905Y191732D01*
X188845Y191633D01*
X188785Y191490D01*
X188749Y191339D01*
X188740Y191185D01*
X188749Y188680D01*
X188674Y188725D01*
X188331Y188868D01*
X187969Y188954D01*
X187598Y188984D01*
X187228Y188954D01*
X186866Y188868D01*
X186523Y188725D01*
X186206Y188531D01*
X185923Y188290D01*
X185681Y188007D01*
X185487Y187690D01*
X185345Y187346D01*
X185258Y186985D01*
X185229Y186614D01*
X185258Y186244D01*
X185345Y185882D01*
X185487Y185538D01*
X185681Y185221D01*
X185923Y184939D01*
X186206Y184697D01*
X186523Y184503D01*
X186866Y184361D01*
X187228Y184274D01*
X187598Y184245D01*
X187969Y184274D01*
X188331Y184361D01*
X188674Y184503D01*
X188991Y184697D01*
X189274Y184939D01*
X189515Y185221D01*
X189524Y185236D01*
X190103D01*
X190157Y185232D01*
X190374Y185249D01*
X190585Y185300D01*
X190785Y185383D01*
X190970Y185496D01*
X191135Y185637D01*
X191170Y185678D01*
X191592Y186100D01*
X191644Y185882D01*
X191786Y185538D01*
X191981Y185221D01*
X192222Y184939D01*
X192505Y184697D01*
X192822Y184503D01*
X193165Y184361D01*
X193527Y184274D01*
X193898Y184245D01*
X194268Y184274D01*
X194630Y184361D01*
X194973Y184503D01*
X195290Y184697D01*
X195573Y184939D01*
X195768Y185167D01*
X195962Y184939D01*
X196245Y184697D01*
X196562Y184503D01*
X196906Y184361D01*
X197267Y184274D01*
X197638Y184245D01*
X198008Y184274D01*
X198370Y184361D01*
X198714Y184503D01*
X199031Y184697D01*
X199313Y184939D01*
X199508Y185167D01*
X199702Y184939D01*
X199985Y184697D01*
X200302Y184503D01*
X200646Y184361D01*
X201007Y184274D01*
X201378Y184245D01*
X201749Y184274D01*
X202110Y184361D01*
X202454Y184503D01*
X202771Y184697D01*
X203053Y184939D01*
X203295Y185221D01*
X203489Y185538D01*
X203631Y185882D01*
X203718Y186244D01*
X203740Y186614D01*
X203718Y186985D01*
X203715Y186999D01*
X203733Y187015D01*
X203874Y187179D01*
X203874Y187180D01*
X203987Y187365D01*
X204070Y187565D01*
X204118Y187761D01*
X204131Y187761D01*
X204281Y187797D01*
X204425Y187857D01*
X204557Y187937D01*
X204674Y188038D01*
X204775Y188156D01*
X204856Y188288D01*
X204915Y188431D01*
X204952Y188582D01*
X204961Y188736D01*
X204952Y191339D01*
X204915Y191490D01*
X204856Y191633D01*
X204795Y191732D01*
X204856Y191831D01*
X204915Y191974D01*
X204952Y192125D01*
X204961Y192280D01*
X204952Y194883D01*
X204915Y195033D01*
X204898Y195075D01*
X205661Y195838D01*
X205702Y195873D01*
X205702Y195874D01*
X206158Y195875D01*
X206309Y195911D01*
X206452Y195971D01*
X206584Y196052D01*
X206693Y196144D01*
X206802Y196052D01*
X206934Y195971D01*
X207077Y195911D01*
X207227Y195875D01*
X207382Y195866D01*
X210095Y195875D01*
X210246Y195911D01*
X210389Y195971D01*
X210521Y196052D01*
X210630Y196144D01*
X210739Y196052D01*
X210871Y195971D01*
X211014Y195911D01*
X211164Y195875D01*
X211220Y195872D01*
Y194912D01*
X211220Y194912D01*
X211069Y194876D01*
X210926Y194817D01*
X210827Y194756D01*
X210728Y194817D01*
X210585Y194876D01*
X210434Y194912D01*
X210280Y194921D01*
X207676Y194912D01*
X207526Y194876D01*
X207382Y194817D01*
X207250Y194736D01*
X207133Y194635D01*
X207032Y194517D01*
X206951Y194385D01*
X206892Y194242D01*
X206856Y194091D01*
X206846Y193937D01*
X206856Y191342D01*
X206892Y191191D01*
X206951Y191048D01*
X206966Y191023D01*
X206744Y190763D01*
X206550Y190446D01*
X206408Y190102D01*
X206321Y189741D01*
X206292Y189370D01*
X206321Y188999D01*
X206408Y188638D01*
X206550Y188294D01*
X206744Y187977D01*
X206986Y187695D01*
X207269Y187453D01*
X207586Y187259D01*
X207929Y187117D01*
X208291Y187030D01*
X208661Y187001D01*
X209032Y187030D01*
X209394Y187117D01*
X209737Y187259D01*
X210054Y187453D01*
X210337Y187695D01*
X210433Y187807D01*
X210529Y187695D01*
X210812Y187453D01*
X211129Y187259D01*
X211473Y187117D01*
X211834Y187030D01*
X212205Y187001D01*
X212575Y187030D01*
X212937Y187117D01*
X213280Y187259D01*
X213597Y187453D01*
X213880Y187695D01*
X214122Y187977D01*
X214227Y188149D01*
X214395Y188252D01*
X214560Y188393D01*
X214595Y188434D01*
X217472Y191310D01*
X217513Y191345D01*
X217653Y191510D01*
X217654Y191510D01*
X217767Y191695D01*
X217850Y191896D01*
X217901Y192107D01*
X217918Y192323D01*
X217913Y192377D01*
Y195875D01*
X217969Y195875D01*
X218120Y195911D01*
X218263Y195971D01*
X218395Y196052D01*
X218504Y196144D01*
X218613Y196052D01*
X218745Y195971D01*
X218888Y195911D01*
X219038Y195875D01*
X219193Y195866D01*
X221906Y195875D01*
X222057Y195911D01*
X222200Y195971D01*
X222332Y196052D01*
X222441Y196144D01*
X222550Y196052D01*
X222682Y195971D01*
X222825Y195911D01*
X222975Y195875D01*
X223130Y195866D01*
X224409Y195870D01*
Y195665D01*
X222385Y195660D01*
X222234Y195624D01*
X222091Y195565D01*
X221959Y195484D01*
X221841Y195383D01*
X221741Y195265D01*
X221660Y195133D01*
X221600Y194990D01*
X221564Y194839D01*
X221555Y194685D01*
X221564Y190594D01*
X221600Y190443D01*
X221660Y190300D01*
X221741Y190168D01*
X221841Y190050D01*
X221959Y189949D01*
X222091Y189868D01*
X222234Y189809D01*
X222385Y189773D01*
X222539Y189764D01*
X224409Y189768D01*
Y189176D01*
X224320Y189281D01*
X224202Y189381D01*
X224070Y189462D01*
X223927Y189522D01*
X223776Y189558D01*
X223622Y189567D01*
X217168Y189558D01*
X217018Y189522D01*
X216875Y189462D01*
X216743Y189381D01*
X216625Y189281D01*
X216524Y189163D01*
X216443Y189031D01*
X216384Y188888D01*
X216348Y188737D01*
X216339Y188583D01*
X216348Y173074D01*
X216384Y172923D01*
X216443Y172780D01*
X216524Y172648D01*
X216625Y172530D01*
X216743Y172430D01*
X216875Y172349D01*
X217018Y172289D01*
X217168Y172253D01*
X217323Y172244D01*
X223776Y172253D01*
X223927Y172289D01*
X224070Y172349D01*
X224202Y172430D01*
X224320Y172530D01*
X224409Y172635D01*
Y165945D01*
G37*
G36*
X173228Y166732D02*X172322D01*
X172387Y166838D01*
X172529Y167181D01*
X172616Y167543D01*
X172638Y167913D01*
X172616Y168284D01*
X172529Y168646D01*
X172387Y168989D01*
X172193Y169306D01*
X171951Y169589D01*
X171668Y169830D01*
X171351Y170025D01*
X171008Y170167D01*
X170646Y170254D01*
X170276Y170283D01*
X169905Y170254D01*
X169543Y170167D01*
X169200Y170025D01*
X168883Y169830D01*
X168600Y169589D01*
X168359Y169306D01*
X168164Y168989D01*
X168022Y168646D01*
X167935Y168284D01*
X167906Y167913D01*
X167935Y167543D01*
X168022Y167181D01*
X168164Y166838D01*
X168229Y166732D01*
X164567D01*
Y192229D01*
X168265Y192234D01*
X168415Y192270D01*
X168558Y192329D01*
X168691Y192410D01*
X168808Y192511D01*
X168909Y192628D01*
X168990Y192760D01*
X169049Y192904D01*
X169085Y193054D01*
X169094Y193209D01*
X169085Y197891D01*
X169049Y198041D01*
X168990Y198184D01*
X168909Y198317D01*
X168808Y198434D01*
X168691Y198535D01*
X168558Y198616D01*
X168415Y198675D01*
X168265Y198711D01*
X168110Y198720D01*
X164567Y198716D01*
Y204040D01*
X168265Y204045D01*
X168415Y204081D01*
X168558Y204140D01*
X168691Y204221D01*
X168808Y204322D01*
X168909Y204439D01*
X168990Y204571D01*
X169049Y204715D01*
X169085Y204865D01*
X169094Y205020D01*
X169088Y208300D01*
X173143Y204245D01*
X173228Y204169D01*
Y189562D01*
X169924Y189558D01*
X169774Y189522D01*
X169631Y189462D01*
X169498Y189381D01*
X169381Y189281D01*
X169280Y189163D01*
X169199Y189031D01*
X169140Y188888D01*
X169104Y188737D01*
X169094Y188583D01*
X169104Y173074D01*
X169140Y172923D01*
X169199Y172780D01*
X169280Y172648D01*
X169381Y172530D01*
X169498Y172430D01*
X169631Y172349D01*
X169774Y172289D01*
X169924Y172253D01*
X170079Y172244D01*
X173228Y172249D01*
Y166732D01*
G37*
G36*
X164567D02*X151926D01*
X151917Y166747D01*
X151675Y167030D01*
X151393Y167271D01*
X151076Y167466D01*
X150732Y167608D01*
X150371Y167695D01*
X150000Y167724D01*
X149629Y167695D01*
X149268Y167608D01*
X148924Y167466D01*
X148819Y167401D01*
Y171009D01*
X148823Y171063D01*
X148806Y171279D01*
X148806Y171279D01*
X148756Y171490D01*
X148672Y171690D01*
X148559Y171875D01*
X148418Y172040D01*
X148377Y172076D01*
X147019Y173434D01*
X147202Y173434D01*
X147352Y173470D01*
X147495Y173530D01*
X147628Y173611D01*
X147745Y173711D01*
X147846Y173829D01*
X147927Y173961D01*
X147986Y174104D01*
X148017Y174235D01*
X148284Y174124D01*
X148645Y174038D01*
X149016Y174008D01*
X149386Y174038D01*
X149748Y174124D01*
X150091Y174267D01*
X150383Y174446D01*
X150610Y174500D01*
X150896Y174619D01*
X151161Y174780D01*
X151396Y174982D01*
X151447Y175041D01*
X151648Y175242D01*
X151913Y175306D01*
X152257Y175448D01*
X152574Y175642D01*
X152857Y175884D01*
X153098Y176166D01*
X153292Y176483D01*
X153435Y176827D01*
X153521Y177188D01*
X153543Y177559D01*
X153521Y177930D01*
X153435Y178291D01*
X153292Y178635D01*
X153098Y178952D01*
X152857Y179235D01*
X152574Y179476D01*
X152257Y179670D01*
X151913Y179813D01*
X151648Y179876D01*
X151643Y179881D01*
X151593Y179940D01*
X151357Y180141D01*
X151329Y180158D01*
X151387Y180207D01*
X151488Y180325D01*
X151569Y180457D01*
X151628Y180600D01*
X151664Y180751D01*
X151673Y180906D01*
X151664Y184997D01*
X151628Y185148D01*
X151569Y185291D01*
X151488Y185423D01*
X151387Y185541D01*
X151269Y185641D01*
X151137Y185722D01*
X150994Y185781D01*
X150843Y185818D01*
X150689Y185827D01*
X146794Y185818D01*
X146644Y185781D01*
X146501Y185722D01*
X146369Y185641D01*
X146251Y185541D01*
X146150Y185423D01*
X146069Y185291D01*
X146010Y185148D01*
X145974Y184997D01*
X145965Y184843D01*
X145974Y180751D01*
X146010Y180600D01*
X146069Y180457D01*
X146150Y180325D01*
X146251Y180207D01*
X146369Y180107D01*
X146501Y180026D01*
X146644Y179967D01*
X146794Y179930D01*
X146850Y179927D01*
Y179685D01*
X146762Y179472D01*
X146675Y179111D01*
X146662Y178936D01*
X143743Y178928D01*
X143593Y178892D01*
X143449Y178832D01*
X143317Y178751D01*
X143200Y178651D01*
X143099Y178533D01*
X143018Y178401D01*
X142987Y178327D01*
X142964Y178383D01*
X142851Y178568D01*
X142710Y178733D01*
X142668Y178768D01*
X141514Y179923D01*
X144544Y179930D01*
X144695Y179967D01*
X144838Y180026D01*
X144970Y180107D01*
X145088Y180207D01*
X145188Y180325D01*
X145269Y180457D01*
X145329Y180600D01*
X145365Y180751D01*
X145374Y180906D01*
X145365Y184997D01*
X145329Y185148D01*
X145269Y185291D01*
X145188Y185423D01*
X145088Y185541D01*
X144970Y185641D01*
X144838Y185722D01*
X144695Y185781D01*
X144544Y185818D01*
X144390Y185827D01*
X140495Y185818D01*
X140345Y185781D01*
X140201Y185722D01*
X140069Y185641D01*
X139951Y185541D01*
X139851Y185423D01*
X139780Y185307D01*
X139762Y185384D01*
X139703Y185527D01*
X139622Y185659D01*
X139521Y185777D01*
X139403Y185877D01*
X139271Y185958D01*
X139128Y186018D01*
X138977Y186054D01*
X138823Y186063D01*
X136220Y186054D01*
X136069Y186018D01*
X135926Y185958D01*
X135827Y185898D01*
X135728Y185958D01*
X135585Y186018D01*
X135434Y186054D01*
X135433Y186054D01*
Y186614D01*
X135420Y186830D01*
X135370Y187041D01*
X135340Y187112D01*
X137385Y189157D01*
X137471Y189083D01*
X137603Y189002D01*
X137746Y188943D01*
X137897Y188907D01*
X138051Y188898D01*
X150454Y188906D01*
X150591Y188898D01*
X154682Y188907D01*
X154833Y188943D01*
X154976Y189002D01*
X155108Y189083D01*
X155226Y189184D01*
X155326Y189302D01*
X155407Y189434D01*
X155467Y189577D01*
X155503Y189727D01*
X155512Y189882D01*
X155503Y191808D01*
X155467Y191959D01*
X155407Y192102D01*
X155326Y192234D01*
X155226Y192352D01*
X155108Y192452D01*
X154976Y192533D01*
X154833Y192593D01*
X154682Y192629D01*
X154528Y192638D01*
X152932Y192634D01*
X152931Y193903D01*
X154682Y193907D01*
X154833Y193943D01*
X154976Y194002D01*
X155108Y194083D01*
X155226Y194184D01*
X155326Y194302D01*
X155407Y194434D01*
X155467Y194577D01*
X155503Y194727D01*
X155512Y194882D01*
X155503Y196808D01*
X155467Y196959D01*
X155407Y197102D01*
X155326Y197234D01*
X155226Y197352D01*
X155108Y197452D01*
X154976Y197533D01*
X154833Y197593D01*
X154682Y197629D01*
X154528Y197638D01*
X152929Y197634D01*
X152928Y198903D01*
X154682Y198907D01*
X154833Y198943D01*
X154976Y199002D01*
X155108Y199083D01*
X155226Y199184D01*
X155326Y199302D01*
X155407Y199434D01*
X155467Y199577D01*
X155503Y199727D01*
X155512Y199882D01*
X155503Y201808D01*
X155467Y201959D01*
X155407Y202102D01*
X155326Y202234D01*
X155226Y202352D01*
X155108Y202452D01*
X154976Y202533D01*
X154833Y202593D01*
X154682Y202629D01*
X154528Y202638D01*
X152926Y202634D01*
X152926Y203903D01*
X154682Y203907D01*
X154833Y203943D01*
X154976Y204002D01*
X155108Y204083D01*
X155226Y204184D01*
X155326Y204302D01*
X155407Y204434D01*
X155467Y204577D01*
X155503Y204727D01*
X155512Y204882D01*
X155503Y206808D01*
X155483Y206890D01*
X160045D01*
X160048Y204865D01*
X160085Y204715D01*
X160144Y204571D01*
X160225Y204439D01*
X160326Y204322D01*
X160443Y204221D01*
X160575Y204140D01*
X160719Y204081D01*
X160869Y204045D01*
X161024Y204035D01*
X164567Y204040D01*
Y198716D01*
X160869Y198711D01*
X160719Y198675D01*
X160575Y198616D01*
X160443Y198535D01*
X160326Y198434D01*
X160225Y198317D01*
X160144Y198184D01*
X160085Y198041D01*
X160048Y197891D01*
X160039Y197736D01*
X160048Y193054D01*
X160085Y192904D01*
X160144Y192760D01*
X160225Y192628D01*
X160326Y192511D01*
X160443Y192410D01*
X160575Y192329D01*
X160719Y192270D01*
X160869Y192234D01*
X161024Y192224D01*
X164567Y192229D01*
Y166732D01*
G37*
G36*
X179134Y112008D02*Y124213D01*
X185337D01*
X185338Y123876D01*
X185371Y123740D01*
X185425Y123610D01*
X185498Y123491D01*
X185589Y123384D01*
X185695Y123293D01*
X185815Y123220D01*
X185944Y123166D01*
X186081Y123133D01*
X186220Y123125D01*
X190297Y123133D01*
X190434Y123166D01*
X190563Y123220D01*
X190683Y123293D01*
X190789Y123384D01*
X190880Y123491D01*
X190953Y123610D01*
X191007Y123740D01*
X191040Y123876D01*
X191048Y124016D01*
X191040Y126772D01*
X193608D01*
X193701Y126764D01*
X193793Y126772D01*
X193898D01*
Y120669D01*
X211220D01*
Y112008D01*
X179134D01*
G37*
G36*
X185236Y105512D02*X166142D01*
Y117400D01*
X166192Y117483D01*
X166275Y117683D01*
X166326Y117894D01*
X166343Y118110D01*
X166339Y118164D01*
Y137938D01*
X166343Y137992D01*
X166326Y138208D01*
X166275Y138419D01*
X166192Y138620D01*
X166142Y138702D01*
Y139772D01*
X166316Y139786D01*
X166677Y139872D01*
X167021Y140015D01*
X167338Y140209D01*
X167620Y140450D01*
X167862Y140733D01*
X167992Y140945D01*
X178150D01*
Y111024D01*
X185236D01*
Y105512D01*
G37*
G36*
X210433Y104724D02*Y101038D01*
X210429Y100984D01*
X210433Y100930D01*
Y95866D01*
X188976D01*
Y93378D01*
X188877Y93439D01*
X188734Y93498D01*
X188584Y93534D01*
X188429Y93543D01*
X185826Y93534D01*
X185675Y93498D01*
X185532Y93439D01*
X185400Y93358D01*
X185282Y93257D01*
X185182Y93139D01*
X185101Y93007D01*
X185041Y92864D01*
X185005Y92714D01*
X184996Y92559D01*
X185005Y89964D01*
X185041Y89813D01*
X185101Y89670D01*
X185182Y89538D01*
X185282Y89420D01*
X185400Y89319D01*
X185532Y89238D01*
X185675Y89179D01*
X185826Y89143D01*
X185980Y89134D01*
X188584Y89143D01*
X188734Y89179D01*
X188877Y89238D01*
X188976Y89299D01*
Y88386D01*
X181890D01*
Y91343D01*
X183229Y91348D01*
X183380Y91384D01*
X183523Y91443D01*
X183655Y91524D01*
X183773Y91625D01*
X183874Y91743D01*
X183954Y91875D01*
X184014Y92018D01*
X184050Y92168D01*
X184059Y92323D01*
X184050Y94839D01*
X184014Y94990D01*
X183954Y95133D01*
X183874Y95265D01*
X183773Y95383D01*
X183655Y95484D01*
X183523Y95565D01*
X183380Y95624D01*
X183229Y95660D01*
X183075Y95669D01*
X181890Y95665D01*
Y104724D01*
X210433D01*
G37*
G36*
X181890Y88386D02*X174900D01*
Y90282D01*
X174985Y90209D01*
X175302Y90015D01*
X175646Y89872D01*
X176007Y89786D01*
X176378Y89756D01*
X176749Y89786D01*
X177110Y89872D01*
X177454Y90015D01*
X177771Y90209D01*
X178053Y90450D01*
X178295Y90733D01*
X178489Y91050D01*
X178631Y91394D01*
X178718Y91755D01*
X178740Y92126D01*
X178718Y92497D01*
X178631Y92858D01*
X178489Y93202D01*
X178346Y93435D01*
Y93573D01*
X178489Y93806D01*
X178631Y94150D01*
X178718Y94511D01*
X178740Y94882D01*
X178718Y95253D01*
X178631Y95614D01*
X178489Y95958D01*
X178295Y96275D01*
X178053Y96557D01*
X177771Y96799D01*
X177454Y96993D01*
X177110Y97135D01*
X176749Y97222D01*
X176378Y97251D01*
X176007Y97222D01*
X175646Y97135D01*
X175302Y96993D01*
X174985Y96799D01*
X174900Y96726D01*
Y104724D01*
X181890D01*
Y95665D01*
X180550Y95660D01*
X180400Y95624D01*
X180257Y95565D01*
X180124Y95484D01*
X180007Y95383D01*
X179906Y95265D01*
X179825Y95133D01*
X179766Y94990D01*
X179730Y94839D01*
X179720Y94685D01*
X179730Y92168D01*
X179766Y92018D01*
X179825Y91875D01*
X179906Y91743D01*
X180007Y91625D01*
X180124Y91524D01*
X180257Y91443D01*
X180400Y91384D01*
X180550Y91348D01*
X180705Y91339D01*
X181890Y91343D01*
Y88386D01*
G37*
G36*
X174900D02*X166142D01*
Y104724D01*
X174900D01*
Y96726D01*
X174702Y96557D01*
X174461Y96275D01*
X174267Y95958D01*
X174147Y95668D01*
X171889Y95660D01*
X171738Y95624D01*
X171595Y95565D01*
X171463Y95484D01*
X171345Y95383D01*
X171245Y95265D01*
X171164Y95133D01*
X171104Y94990D01*
X171068Y94839D01*
X171059Y94685D01*
X171068Y92168D01*
X171104Y92018D01*
X171164Y91875D01*
X171245Y91743D01*
X171345Y91625D01*
X171463Y91524D01*
X171595Y91443D01*
X171738Y91384D01*
X171889Y91348D01*
X172043Y91339D01*
X174144Y91346D01*
X174267Y91050D01*
X174461Y90733D01*
X174702Y90450D01*
X174900Y90282D01*
Y88386D01*
G37*
G36*
X160630Y55315D02*X164764Y59449D01*
X165082D01*
X165070Y59399D01*
X165064Y59291D01*
X165070Y53436D01*
X165095Y53331D01*
X165136Y53232D01*
X165193Y53140D01*
X165263Y53058D01*
X165345Y52988D01*
X165436Y52932D01*
X165536Y52891D01*
X165641Y52865D01*
X165748Y52859D01*
X173729Y52865D01*
X173834Y52891D01*
X173934Y52932D01*
X174025Y52988D01*
X174107Y53058D01*
X174177Y53140D01*
X174221Y53211D01*
X174222Y52601D01*
X174238Y52534D01*
X174238Y52534D01*
X173986Y52239D01*
X173784Y51909D01*
X173635Y51551D01*
X173545Y51174D01*
X173514Y50787D01*
X173545Y50401D01*
X173635Y50024D01*
X173784Y49666D01*
X173986Y49336D01*
X174238Y49041D01*
X174533Y48789D01*
X174863Y48587D01*
X175221Y48438D01*
X175598Y48348D01*
X175984Y48318D01*
X176371Y48348D01*
X176747Y48438D01*
X177106Y48587D01*
X177436Y48789D01*
X177731Y49041D01*
X177982Y49336D01*
X178185Y49666D01*
X178333Y50024D01*
X178424Y50401D01*
X178446Y50787D01*
X178424Y51174D01*
X178333Y51551D01*
X178241Y51774D01*
X179485Y51781D01*
X179636Y51817D01*
X179779Y51876D01*
X179823Y51903D01*
X179867Y51876D01*
X180010Y51817D01*
X180161Y51781D01*
X180315Y51772D01*
X182044Y51781D01*
X182195Y51817D01*
X182338Y51876D01*
X182382Y51903D01*
X182426Y51876D01*
X182569Y51817D01*
X182720Y51781D01*
X182874Y51772D01*
X184603Y51781D01*
X184754Y51817D01*
X184897Y51876D01*
X184941Y51903D01*
X184985Y51876D01*
X185128Y51817D01*
X185279Y51781D01*
X185433Y51772D01*
X187162Y51781D01*
X187313Y51817D01*
X187456Y51876D01*
X187588Y51957D01*
X187706Y52058D01*
X187807Y52176D01*
X187888Y52308D01*
X187947Y52451D01*
X187983Y52601D01*
X187992Y52756D01*
X187992Y53198D01*
X188027Y53140D01*
X188097Y53058D01*
X188179Y52988D01*
X188271Y52932D01*
X188371Y52891D01*
X188475Y52865D01*
X188583Y52859D01*
X196564Y52865D01*
X196669Y52891D01*
X196768Y52932D01*
X196860Y52988D01*
X196942Y53058D01*
X197012Y53140D01*
X197068Y53232D01*
X197109Y53331D01*
X197135Y53436D01*
X197141Y53543D01*
X197135Y59399D01*
X197123Y59449D01*
X199225D01*
X199112Y59353D01*
X198870Y59070D01*
X198676Y58753D01*
X198534Y58409D01*
X198447Y58048D01*
X198418Y57677D01*
X198447Y57306D01*
X198534Y56945D01*
X198676Y56601D01*
X198870Y56284D01*
X199112Y56002D01*
X199395Y55760D01*
X199712Y55566D01*
X200055Y55424D01*
X200417Y55337D01*
X200787Y55308D01*
X201158Y55337D01*
X201520Y55424D01*
X201863Y55566D01*
X202180Y55760D01*
X202463Y56002D01*
X202704Y56284D01*
X202713Y56299D01*
X203174D01*
X203156Y56254D01*
X203119Y56103D01*
X203110Y55949D01*
X203119Y53346D01*
X203156Y53195D01*
X203215Y53052D01*
X203296Y52920D01*
X203396Y52802D01*
X203514Y52701D01*
X203599Y52649D01*
X203192Y52648D01*
X203041Y52612D01*
X202898Y52553D01*
X202766Y52472D01*
X202648Y52371D01*
X202548Y52254D01*
X202467Y52121D01*
X202407Y51978D01*
X202371Y51828D01*
X202362Y51673D01*
X202369Y48790D01*
X202339Y48797D01*
X201969Y48826D01*
X201598Y48797D01*
X201236Y48710D01*
X200893Y48568D01*
X200576Y48374D01*
X200479Y48291D01*
X200479Y48531D01*
X200454Y48635D01*
X200413Y48735D01*
X200356Y48827D01*
X200287Y48909D01*
X200205Y48979D01*
X200113Y49035D01*
X200013Y49076D01*
X199909Y49101D01*
X199801Y49107D01*
X193296Y49101D01*
X193191Y49076D01*
X193092Y49035D01*
X193000Y48979D01*
X192918Y48909D01*
X192848Y48827D01*
X192792Y48735D01*
X192751Y48635D01*
X192726Y48531D01*
X192719Y48423D01*
X192725Y40945D01*
X169485D01*
X169479Y48531D01*
X169454Y48635D01*
X169413Y48735D01*
X169356Y48827D01*
X169287Y48909D01*
X169205Y48979D01*
X169113Y49035D01*
X169013Y49076D01*
X168909Y49101D01*
X168801Y49107D01*
X162296Y49101D01*
X162191Y49076D01*
X162092Y49035D01*
X162000Y48979D01*
X161918Y48909D01*
X161848Y48827D01*
X161792Y48735D01*
X161751Y48635D01*
X161726Y48531D01*
X161719Y48423D01*
X161720Y46863D01*
X161606Y46729D01*
X161266Y46174D01*
X161017Y45573D01*
X160865Y44940D01*
X160814Y44291D01*
X160865Y43643D01*
X161017Y43010D01*
X161266Y42409D01*
X161606Y41854D01*
X161724Y41715D01*
X161725Y40945D01*
X160630D01*
Y55315D01*
G37*
G36*
X207083Y163976D02*X210279D01*
X210288Y163962D01*
X210529Y163679D01*
X210812Y163437D01*
X211129Y163243D01*
X211473Y163101D01*
X211834Y163014D01*
X212205Y162985D01*
X212575Y163014D01*
X212937Y163101D01*
X213280Y163243D01*
X213597Y163437D01*
X213880Y163679D01*
X214122Y163962D01*
X214316Y164279D01*
X214458Y164622D01*
X214492Y164764D01*
X215035D01*
X215069Y164622D01*
X215212Y164279D01*
X215406Y163962D01*
X215647Y163679D01*
X215930Y163437D01*
X216247Y163243D01*
X216591Y163101D01*
X216952Y163014D01*
X217323Y162985D01*
X217694Y163014D01*
X218055Y163101D01*
X218399Y163243D01*
X218716Y163437D01*
X218998Y163679D01*
X219240Y163962D01*
X219434Y164279D01*
X219576Y164622D01*
X219610Y164764D01*
X242520D01*
Y142126D01*
X224606D01*
X224597Y157635D01*
X224561Y157785D01*
X224502Y157929D01*
X224421Y158061D01*
X224320Y158178D01*
X224202Y158279D01*
X224070Y158360D01*
X223927Y158419D01*
X223776Y158455D01*
X223622Y158465D01*
X217168Y158455D01*
X217018Y158419D01*
X216875Y158360D01*
X216743Y158279D01*
X216625Y158178D01*
X216524Y158061D01*
X216443Y157929D01*
X216384Y157785D01*
X216348Y157635D01*
X216339Y157480D01*
X216348Y142126D01*
X207083D01*
Y142316D01*
X207087Y142316D01*
X207457Y142345D01*
X207819Y142432D01*
X208162Y142574D01*
X208479Y142768D01*
X208762Y143010D01*
X209004Y143292D01*
X209198Y143609D01*
X209340Y143953D01*
X209427Y144314D01*
X209449Y144685D01*
X209427Y145056D01*
X209340Y145417D01*
X209198Y145761D01*
X209004Y146078D01*
X208762Y146361D01*
X208479Y146602D01*
X208162Y146796D01*
X207819Y146939D01*
X207457Y147025D01*
X207087Y147055D01*
X207083Y147054D01*
Y163976D01*
G37*
G36*
X196847D02*X207083D01*
Y147054D01*
X206716Y147025D01*
X206354Y146939D01*
X206011Y146796D01*
X205694Y146602D01*
X205411Y146361D01*
X205170Y146078D01*
X204975Y145761D01*
X204833Y145417D01*
X204746Y145056D01*
X204717Y144685D01*
X204746Y144314D01*
X204833Y143953D01*
X204975Y143609D01*
X205170Y143292D01*
X205411Y143010D01*
X205694Y142768D01*
X206011Y142574D01*
X206354Y142432D01*
X206716Y142345D01*
X207083Y142316D01*
Y142126D01*
X196847D01*
Y142316D01*
X196850Y142316D01*
X197221Y142345D01*
X197583Y142432D01*
X197926Y142574D01*
X198243Y142768D01*
X198526Y143010D01*
X198767Y143292D01*
X198962Y143609D01*
X199104Y143953D01*
X199191Y144314D01*
X199213Y144685D01*
X199191Y145056D01*
X199104Y145417D01*
X198962Y145761D01*
X198767Y146078D01*
X198526Y146361D01*
X198243Y146602D01*
X197926Y146796D01*
X197583Y146939D01*
X197221Y147025D01*
X196850Y147055D01*
X196847Y147054D01*
Y163976D01*
G37*
G36*
X146074Y160205D02*X146217Y160197D01*
X148820Y160206D01*
X148970Y160242D01*
X149114Y160301D01*
X149246Y160382D01*
X149363Y160483D01*
X149464Y160601D01*
X149545Y160733D01*
X149604Y160876D01*
X149640Y161027D01*
X149650Y161181D01*
X149643Y163013D01*
X150000Y162985D01*
X150371Y163014D01*
X150732Y163101D01*
X151076Y163243D01*
X151393Y163437D01*
X151675Y163679D01*
X151917Y163962D01*
X151926Y163976D01*
X196847D01*
Y147054D01*
X196480Y147025D01*
X196118Y146939D01*
X195775Y146796D01*
X195458Y146602D01*
X195175Y146361D01*
X194933Y146078D01*
X194739Y145761D01*
X194597Y145417D01*
X194510Y145056D01*
X194481Y144685D01*
X194510Y144314D01*
X194597Y143953D01*
X194739Y143609D01*
X194933Y143292D01*
X195175Y143010D01*
X195458Y142768D01*
X195775Y142574D01*
X196118Y142432D01*
X196480Y142345D01*
X196847Y142316D01*
Y142126D01*
X177362D01*
X177353Y157635D01*
X177317Y157785D01*
X177258Y157929D01*
X177177Y158061D01*
X177076Y158178D01*
X176958Y158279D01*
X176826Y158360D01*
X176683Y158419D01*
X176532Y158455D01*
X176378Y158465D01*
X169924Y158455D01*
X169774Y158419D01*
X169631Y158360D01*
X169498Y158279D01*
X169381Y158178D01*
X169280Y158061D01*
X169199Y157929D01*
X169140Y157785D01*
X169104Y157635D01*
X169094Y157480D01*
X169101Y146925D01*
X168989Y146993D01*
X168646Y147135D01*
X168284Y147222D01*
X167913Y147251D01*
X167543Y147222D01*
X167181Y147135D01*
X166838Y146993D01*
X166521Y146799D01*
X166238Y146557D01*
X165996Y146275D01*
X165802Y145958D01*
X165660Y145614D01*
X165573Y145253D01*
X165544Y144882D01*
X165573Y144511D01*
X165584Y144467D01*
X165574Y144466D01*
X165213Y144380D01*
X164869Y144237D01*
X164552Y144043D01*
X164269Y143801D01*
X164028Y143519D01*
X163834Y143202D01*
X163691Y142858D01*
X163639Y142640D01*
X160265Y146015D01*
X160229Y146056D01*
X160065Y146197D01*
X160064Y146197D01*
X159879Y146310D01*
X159679Y146393D01*
X159468Y146444D01*
X159252Y146461D01*
X159198Y146457D01*
X144209D01*
X144246Y146545D01*
X144282Y146696D01*
X144291Y146850D01*
X144282Y150548D01*
X144246Y150699D01*
X144187Y150842D01*
X144106Y150974D01*
X144005Y151092D01*
X143887Y151192D01*
X143755Y151273D01*
X143612Y151333D01*
X143462Y151369D01*
X143307Y151378D01*
X140003Y151369D01*
X139852Y151333D01*
X139709Y151273D01*
X139577Y151192D01*
X139459Y151092D01*
X139359Y150974D01*
X139278Y150842D01*
X139219Y150699D01*
X139182Y150548D01*
X139173Y150394D01*
X139182Y146696D01*
X139219Y146545D01*
X139255Y146457D01*
X124973D01*
X124891Y146795D01*
X124749Y147139D01*
X124555Y147456D01*
X124313Y147738D01*
X124031Y147980D01*
X123714Y148174D01*
X123370Y148317D01*
X123008Y148403D01*
X122638Y148432D01*
X122267Y148403D01*
X121906Y148317D01*
X121562Y148174D01*
X121245Y147980D01*
X120962Y147738D01*
X120721Y147456D01*
X120527Y147139D01*
X120384Y146795D01*
X120358Y146685D01*
X120220Y146742D01*
X119859Y146829D01*
X119488Y146858D01*
X119118Y146829D01*
X118756Y146742D01*
X118412Y146599D01*
X118095Y146405D01*
X117813Y146164D01*
X117717Y146051D01*
X117620Y146164D01*
X117338Y146405D01*
X117021Y146599D01*
X116677Y146742D01*
X116316Y146829D01*
X115945Y146858D01*
X115574Y146829D01*
X115213Y146742D01*
X114869Y146599D01*
X114552Y146405D01*
X114368Y146248D01*
X114361Y157635D01*
X114325Y157785D01*
X114266Y157929D01*
X114185Y158061D01*
X114084Y158178D01*
X113966Y158279D01*
X113834Y158360D01*
X113691Y158419D01*
X113540Y158455D01*
X113386Y158465D01*
X106932Y158455D01*
X106782Y158419D01*
X106638Y158360D01*
X106506Y158279D01*
X106388Y158178D01*
X106288Y158061D01*
X106207Y157929D01*
X106148Y157785D01*
X106111Y157635D01*
X106102Y157480D01*
X106109Y146244D01*
X105920Y146405D01*
X105603Y146599D01*
X105260Y146742D01*
X104898Y146829D01*
X104528Y146858D01*
X104157Y146829D01*
X103795Y146742D01*
X103452Y146599D01*
X103151Y146415D01*
X103095Y146548D01*
X102901Y146865D01*
X102660Y147148D01*
X102377Y147389D01*
X102060Y147584D01*
X101716Y147726D01*
X101355Y147813D01*
X100984Y147842D01*
X100614Y147813D01*
X100252Y147726D01*
X99909Y147584D01*
X99722Y147469D01*
X99694Y147583D01*
X99552Y147926D01*
X99358Y148243D01*
X99116Y148526D01*
X98834Y148767D01*
X98517Y148962D01*
X98173Y149104D01*
X97812Y149191D01*
X97441Y149220D01*
X97070Y149191D01*
X96709Y149104D01*
X96365Y148962D01*
X96048Y148767D01*
X95765Y148526D01*
X95524Y148243D01*
X95330Y147926D01*
X95187Y147583D01*
X95106Y147244D01*
X81681D01*
X81671Y147418D01*
X81584Y147779D01*
X81442Y148123D01*
X81248Y148440D01*
X81006Y148723D01*
X80723Y148964D01*
X80406Y149158D01*
X80063Y149301D01*
X79701Y149388D01*
X79331Y149417D01*
X78960Y149388D01*
X78598Y149301D01*
X78255Y149158D01*
X77938Y148964D01*
X77655Y148723D01*
X77414Y148440D01*
X77219Y148123D01*
X77077Y147779D01*
X76990Y147418D01*
X76974Y147215D01*
X76945Y147222D01*
X76575Y147251D01*
X76204Y147222D01*
X75843Y147135D01*
X75499Y146993D01*
X75182Y146799D01*
X74899Y146557D01*
X74658Y146275D01*
X74464Y145958D01*
X74321Y145614D01*
X74234Y145253D01*
X74205Y144882D01*
X74234Y144511D01*
X74321Y144150D01*
X74464Y143806D01*
X74649Y143504D01*
X71437D01*
X71037Y143904D01*
X71041Y143921D01*
X71063Y144291D01*
X71041Y144662D01*
X70954Y145024D01*
X70812Y145367D01*
X70618Y145684D01*
X70376Y145967D01*
X70094Y146208D01*
X69777Y146403D01*
X69433Y146545D01*
X69071Y146632D01*
X68701Y146661D01*
X68330Y146632D01*
X67969Y146545D01*
X67625Y146403D01*
X67308Y146208D01*
X67124Y146051D01*
X67117Y157635D01*
X67081Y157785D01*
X67021Y157929D01*
X66940Y158061D01*
X66840Y158178D01*
X66722Y158279D01*
X66590Y158360D01*
X66447Y158419D01*
X66296Y158455D01*
X66142Y158465D01*
X59688Y158455D01*
X59537Y158419D01*
X59394Y158360D01*
X59262Y158279D01*
X59144Y158178D01*
X59044Y158061D01*
X58963Y157929D01*
X58904Y157785D01*
X58867Y157635D01*
X58858Y157480D01*
X58867Y142126D01*
X40945D01*
Y164764D01*
X45489D01*
X45527Y164672D01*
X45721Y164355D01*
X45962Y164073D01*
X46245Y163831D01*
X46562Y163637D01*
X46906Y163495D01*
X47016Y163468D01*
X46959Y163331D01*
X46872Y162969D01*
X46843Y162598D01*
X46872Y162228D01*
X46959Y161866D01*
X47101Y161523D01*
X47296Y161206D01*
X47537Y160923D01*
X47820Y160681D01*
X48137Y160487D01*
X48480Y160345D01*
X48842Y160258D01*
X49213Y160229D01*
X49583Y160258D01*
X49945Y160345D01*
X50288Y160487D01*
X50605Y160681D01*
X50888Y160923D01*
X51130Y161206D01*
X51324Y161523D01*
X51466Y161866D01*
X51553Y162228D01*
X51575Y162598D01*
X51553Y162969D01*
X51466Y163331D01*
X51324Y163674D01*
X51130Y163991D01*
X50888Y164274D01*
X50605Y164515D01*
X50288Y164710D01*
X50158Y164764D01*
X61819D01*
X61833Y164590D01*
X61920Y164228D01*
X62062Y163885D01*
X62256Y163568D01*
X62498Y163285D01*
X62780Y163044D01*
X63098Y162849D01*
X63441Y162707D01*
X63803Y162620D01*
X64173Y162591D01*
X64544Y162620D01*
X64905Y162707D01*
X65249Y162849D01*
X65566Y163044D01*
X65849Y163285D01*
X66090Y163568D01*
X66284Y163885D01*
X66427Y164228D01*
X66514Y164590D01*
X66524Y164764D01*
X78552D01*
X78565Y164590D01*
X78652Y164228D01*
X78794Y163885D01*
X78989Y163568D01*
X79230Y163285D01*
X79513Y163044D01*
X79830Y162849D01*
X80173Y162707D01*
X80535Y162620D01*
X80906Y162591D01*
X81276Y162620D01*
X81638Y162707D01*
X81981Y162849D01*
X82298Y163044D01*
X82581Y163285D01*
X82822Y163568D01*
X83017Y163885D01*
X83159Y164228D01*
X83246Y164590D01*
X83256Y164764D01*
X86352D01*
X86329Y164709D01*
X86242Y164347D01*
X86213Y163976D01*
X86242Y163606D01*
X86329Y163244D01*
X86471Y162901D01*
X86666Y162584D01*
X86907Y162301D01*
X87190Y162059D01*
X87507Y161865D01*
X87850Y161723D01*
X88212Y161636D01*
X88583Y161607D01*
X88953Y161636D01*
X89315Y161723D01*
X89658Y161865D01*
X89975Y162059D01*
X90258Y162301D01*
X90500Y162584D01*
X90694Y162901D01*
X90810Y163180D01*
X91000Y163101D01*
X91362Y163014D01*
X91732Y162985D01*
X92103Y163014D01*
X92464Y163101D01*
X92808Y163243D01*
X93125Y163437D01*
X93408Y163679D01*
X93649Y163962D01*
X93658Y163976D01*
X131342D01*
X131351Y163962D01*
X131592Y163679D01*
X131875Y163437D01*
X132192Y163243D01*
X132536Y163101D01*
X132897Y163014D01*
X133268Y162985D01*
X133638Y163014D01*
X133817Y163057D01*
X133824Y161027D01*
X133860Y160876D01*
X133920Y160733D01*
X134000Y160601D01*
X134101Y160483D01*
X134219Y160382D01*
X134351Y160301D01*
X134494Y160242D01*
X134645Y160206D01*
X134799Y160197D01*
X137391Y160206D01*
X137056Y159871D01*
X137015Y159836D01*
X136874Y159671D01*
X136761Y159486D01*
X136678Y159285D01*
X136668Y159244D01*
X136263Y159243D01*
X136112Y159207D01*
X135969Y159147D01*
X135837Y159066D01*
X135719Y158966D01*
X135619Y158848D01*
X135538Y158716D01*
X135478Y158573D01*
X135442Y158422D01*
X135433Y158268D01*
X135442Y154570D01*
X135478Y154419D01*
X135538Y154276D01*
X135619Y154144D01*
X135719Y154026D01*
X135837Y153926D01*
X135969Y153845D01*
X136112Y153785D01*
X136263Y153749D01*
X136417Y153740D01*
X139721Y153749D01*
X139872Y153785D01*
X140015Y153845D01*
X140147Y153926D01*
X140265Y154026D01*
X140366Y154144D01*
X140447Y154276D01*
X140506Y154419D01*
X140542Y154570D01*
X140551Y154724D01*
X140542Y158422D01*
X140506Y158573D01*
X140447Y158716D01*
X140366Y158848D01*
X140265Y158966D01*
X140148Y159066D01*
X140503Y159420D01*
X140544Y159456D01*
X140685Y159620D01*
X140685Y159621D01*
X140798Y159806D01*
X140881Y160006D01*
X140929Y160206D01*
X140946Y160206D01*
X141096Y160242D01*
X141240Y160301D01*
X141372Y160382D01*
X141489Y160483D01*
X141590Y160601D01*
X141671Y160733D01*
X141730Y160876D01*
X141732Y160884D01*
X141734Y160876D01*
X141794Y160733D01*
X141874Y160601D01*
X141975Y160483D01*
X142093Y160382D01*
X142225Y160301D01*
X142368Y160242D01*
X142519Y160206D01*
X142535Y160205D01*
X142545Y160166D01*
X142583Y160006D01*
X142666Y159806D01*
X142779Y159621D01*
X142780Y159621D01*
X142920Y159456D01*
X142961Y159421D01*
X143316Y159066D01*
X143200Y158966D01*
X143099Y158848D01*
X143018Y158716D01*
X142959Y158573D01*
X142923Y158422D01*
X142913Y158268D01*
X142923Y154570D01*
X142959Y154419D01*
X143018Y154276D01*
X143099Y154144D01*
X143200Y154026D01*
X143317Y153926D01*
X143449Y153845D01*
X143593Y153785D01*
X143743Y153749D01*
X143898Y153740D01*
X147202Y153749D01*
X147352Y153785D01*
X147495Y153845D01*
X147628Y153926D01*
X147745Y154026D01*
X147846Y154144D01*
X147927Y154276D01*
X147986Y154419D01*
X148022Y154570D01*
X148031Y154724D01*
X148022Y158422D01*
X147986Y158573D01*
X147927Y158716D01*
X147846Y158848D01*
X147745Y158966D01*
X147628Y159066D01*
X147495Y159147D01*
X147352Y159207D01*
X147202Y159243D01*
X147047Y159252D01*
X146795Y159251D01*
X146787Y159285D01*
X146704Y159486D01*
X146591Y159671D01*
X146450Y159836D01*
X146409Y159871D01*
X146074Y160205D01*
G37*
G36*
X145472Y239961D02*X163091D01*
Y239068D01*
X161558Y239066D01*
X161408Y239030D01*
X161264Y238970D01*
X161132Y238889D01*
X161014Y238789D01*
X160914Y238671D01*
X160833Y238539D01*
X160774Y238396D01*
X160737Y238245D01*
X160728Y238091D01*
X160737Y233409D01*
X160774Y233258D01*
X160833Y233115D01*
X160914Y232983D01*
X161014Y232865D01*
X161132Y232764D01*
X161264Y232683D01*
X161408Y232624D01*
X161558Y232588D01*
X161713Y232579D01*
X163976Y232582D01*
Y231983D01*
X161558Y231979D01*
X161408Y231943D01*
X161264Y231884D01*
X161132Y231803D01*
X161014Y231702D01*
X160914Y231584D01*
X160833Y231452D01*
X160774Y231309D01*
X160737Y231158D01*
X160728Y231004D01*
X160737Y226322D01*
X160774Y226171D01*
X160833Y226028D01*
X160914Y225896D01*
X161014Y225778D01*
X161132Y225678D01*
X161264Y225597D01*
X161408Y225537D01*
X161558Y225501D01*
X161713Y225492D01*
X162461Y225493D01*
X162456Y225485D01*
X162313Y225142D01*
X162227Y224780D01*
X162197Y224409D01*
X162227Y224039D01*
X162313Y223677D01*
X162456Y223334D01*
X162650Y223017D01*
X162891Y222734D01*
X163174Y222492D01*
X163491Y222298D01*
X163835Y222156D01*
X163976Y222122D01*
Y216010D01*
X163819Y215945D01*
X163347D01*
X163134Y216033D01*
X162772Y216120D01*
X162402Y216149D01*
X162031Y216120D01*
X161669Y216033D01*
X161326Y215891D01*
X161009Y215696D01*
X160726Y215455D01*
X160485Y215172D01*
X160290Y214855D01*
X160284Y214839D01*
X159489Y214045D01*
X159431Y213995D01*
X159229Y213759D01*
X159067Y213495D01*
X158949Y213209D01*
X158877Y212907D01*
X158876Y212907D01*
X158852Y212598D01*
X158858Y212521D01*
Y211707D01*
X158851Y211614D01*
X158880Y211244D01*
X158967Y210882D01*
X159109Y210538D01*
X159304Y210221D01*
X159545Y209939D01*
X159828Y209697D01*
X160041Y209567D01*
X160039Y209547D01*
X160042Y208071D01*
X145472D01*
Y211126D01*
X147891Y211131D01*
X148041Y211167D01*
X148184Y211227D01*
X148317Y211308D01*
X148434Y211408D01*
X148535Y211526D01*
X148616Y211658D01*
X148675Y211801D01*
X148711Y211952D01*
X148720Y212106D01*
X148711Y217969D01*
X148675Y218120D01*
X148616Y218263D01*
X148535Y218395D01*
X148434Y218513D01*
X148317Y218614D01*
X148184Y218695D01*
X148041Y218754D01*
X147891Y218790D01*
X147736Y218799D01*
X145472Y218795D01*
Y239961D01*
G37*
G36*
X136724Y211123D02*X140804Y211131D01*
X140955Y211167D01*
X141098Y211227D01*
X141230Y211308D01*
X141348Y211408D01*
X141448Y211526D01*
X141529Y211658D01*
X141589Y211801D01*
X141625Y211952D01*
X141634Y212106D01*
X141625Y217969D01*
X141589Y218120D01*
X141529Y218263D01*
X141448Y218395D01*
X141348Y218513D01*
X141230Y218614D01*
X141098Y218695D01*
X140955Y218754D01*
X140804Y218790D01*
X140650Y218799D01*
X136724Y218792D01*
Y227031D01*
X136732Y227030D01*
X137597Y227098D01*
X138441Y227301D01*
X139242Y227633D01*
X139982Y228086D01*
X140642Y228650D01*
X141205Y229309D01*
X141658Y230049D01*
X141990Y230851D01*
X142193Y231694D01*
X142244Y232559D01*
X142193Y233424D01*
X141990Y234268D01*
X141658Y235069D01*
X141205Y235809D01*
X140642Y236469D01*
X139982Y237032D01*
X139242Y237485D01*
X138441Y237817D01*
X137597Y238020D01*
X136732Y238088D01*
X136724Y238087D01*
Y239961D01*
X145472D01*
Y218795D01*
X143054Y218790D01*
X142904Y218754D01*
X142760Y218695D01*
X142628Y218614D01*
X142511Y218513D01*
X142410Y218395D01*
X142329Y218263D01*
X142270Y218120D01*
X142234Y217969D01*
X142224Y217815D01*
X142234Y211952D01*
X142270Y211801D01*
X142329Y211658D01*
X142410Y211526D01*
X142511Y211408D01*
X142628Y211308D01*
X142760Y211227D01*
X142904Y211167D01*
X143054Y211131D01*
X143209Y211122D01*
X145472Y211126D01*
Y208071D01*
X136811D01*
Y190354D01*
X136724Y190267D01*
Y211123D01*
G37*
G36*
Y218792D02*X135968Y218790D01*
X135817Y218754D01*
X135674Y218695D01*
X135542Y218614D01*
X135424Y218513D01*
X135323Y218395D01*
X135242Y218263D01*
X135183Y218120D01*
X135147Y217969D01*
X135138Y217815D01*
X135140Y216634D01*
X133163D01*
X133160Y218855D01*
X133124Y219006D01*
X133065Y219149D01*
X132984Y219281D01*
X132883Y219399D01*
X132765Y219500D01*
X132633Y219580D01*
X132490Y219640D01*
X132339Y219676D01*
X132185Y219685D01*
X131043Y219683D01*
Y239961D01*
X136724D01*
Y238087D01*
X135867Y238020D01*
X135024Y237817D01*
X134222Y237485D01*
X133483Y237032D01*
X132823Y236469D01*
X132259Y235809D01*
X131806Y235069D01*
X131474Y234268D01*
X131272Y233424D01*
X131203Y232559D01*
X131272Y231694D01*
X131474Y230851D01*
X131806Y230049D01*
X132259Y229309D01*
X132823Y228650D01*
X133483Y228086D01*
X134222Y227633D01*
X135024Y227301D01*
X135867Y227098D01*
X136724Y227031D01*
Y218792D01*
G37*
G36*
X132139Y188904D02*X133324Y188907D01*
X133474Y188943D01*
X133618Y189002D01*
X133750Y189083D01*
X133867Y189184D01*
X133968Y189302D01*
X134049Y189434D01*
X134108Y189577D01*
X134144Y189727D01*
X134154Y189882D01*
X134144Y191808D01*
X134108Y191959D01*
X134049Y192102D01*
X133968Y192234D01*
X133867Y192352D01*
X133750Y192452D01*
X133618Y192533D01*
X133474Y192593D01*
X133324Y192629D01*
X133169Y192638D01*
X131043Y192633D01*
Y193902D01*
X133324Y193907D01*
X133474Y193943D01*
X133618Y194002D01*
X133750Y194083D01*
X133867Y194184D01*
X133968Y194302D01*
X134049Y194434D01*
X134108Y194577D01*
X134144Y194727D01*
X134154Y194882D01*
X134144Y196808D01*
X134108Y196959D01*
X134049Y197102D01*
X133968Y197234D01*
X133867Y197352D01*
X133750Y197452D01*
X133618Y197533D01*
X133474Y197593D01*
X133324Y197629D01*
X133169Y197638D01*
X131043Y197633D01*
Y198902D01*
X133324Y198907D01*
X133474Y198943D01*
X133618Y199002D01*
X133750Y199083D01*
X133867Y199184D01*
X133968Y199302D01*
X134049Y199434D01*
X134108Y199577D01*
X134144Y199727D01*
X134154Y199882D01*
X134144Y201808D01*
X134108Y201959D01*
X134049Y202102D01*
X133968Y202234D01*
X133867Y202352D01*
X133750Y202452D01*
X133618Y202533D01*
X133474Y202593D01*
X133324Y202629D01*
X133169Y202638D01*
X131043Y202633D01*
Y203902D01*
X133324Y203907D01*
X133474Y203943D01*
X133618Y204002D01*
X133750Y204083D01*
X133867Y204184D01*
X133968Y204302D01*
X134049Y204434D01*
X134108Y204577D01*
X134144Y204727D01*
X134154Y204882D01*
X134144Y206808D01*
X134108Y206959D01*
X134049Y207102D01*
X133968Y207234D01*
X133867Y207352D01*
X133750Y207452D01*
X133618Y207533D01*
X133474Y207593D01*
X133324Y207629D01*
X133169Y207638D01*
X131043Y207633D01*
Y210637D01*
X132339Y210639D01*
X132490Y210675D01*
X132633Y210734D01*
X132765Y210815D01*
X132883Y210916D01*
X132984Y211034D01*
X133065Y211166D01*
X133124Y211309D01*
X133160Y211460D01*
X133169Y211614D01*
X133167Y213681D01*
X135144D01*
X135147Y211952D01*
X135183Y211801D01*
X135242Y211658D01*
X135323Y211526D01*
X135424Y211408D01*
X135542Y211308D01*
X135674Y211227D01*
X135817Y211167D01*
X135968Y211131D01*
X136122Y211122D01*
X136724Y211123D01*
Y190267D01*
X134646Y188189D01*
X132826D01*
X132811Y188214D01*
X132811Y188214D01*
X132670Y188379D01*
X132629Y188414D01*
X132139Y188904D01*
G37*
G36*
X131043Y192633D02*X128763Y192629D01*
X128612Y192593D01*
X128469Y192533D01*
X128337Y192452D01*
X128219Y192352D01*
X128119Y192234D01*
X128041Y192107D01*
X127939Y192082D01*
X127739Y191999D01*
X127554Y191886D01*
X127553Y191886D01*
X127389Y191745D01*
X127354Y191704D01*
X126820Y191170D01*
X126779Y191135D01*
X126638Y190970D01*
X126524Y190785D01*
X126441Y190585D01*
X126391Y190374D01*
X126391Y190374D01*
X126374Y190157D01*
X126378Y190104D01*
Y189370D01*
X122800Y192948D01*
X122826Y193054D01*
X122835Y193209D01*
X122826Y197891D01*
X122789Y198041D01*
X122730Y198184D01*
X122649Y198317D01*
X122549Y198434D01*
X122431Y198535D01*
X122299Y198616D01*
X122155Y198675D01*
X122005Y198711D01*
X121850Y198720D01*
X121727Y198720D01*
X121799Y198804D01*
X121993Y199121D01*
X122135Y199465D01*
X122222Y199826D01*
X122244Y200197D01*
X122222Y200568D01*
X122135Y200929D01*
X121993Y201273D01*
X121850Y201505D01*
Y201644D01*
X121993Y201877D01*
X122135Y202221D01*
X122222Y202582D01*
X122244Y202953D01*
X122222Y203323D01*
X122135Y203685D01*
X121993Y204028D01*
X121983Y204045D01*
X122005Y204045D01*
X122155Y204081D01*
X122299Y204140D01*
X122431Y204221D01*
X122549Y204322D01*
X122649Y204439D01*
X122730Y204571D01*
X122789Y204715D01*
X122826Y204865D01*
X122835Y205020D01*
X122826Y209702D01*
X122789Y209852D01*
X122730Y209995D01*
X122649Y210128D01*
X122549Y210245D01*
X122431Y210346D01*
X122299Y210427D01*
X122155Y210486D01*
X122005Y210522D01*
X121850Y210531D01*
X120276Y210530D01*
Y210639D01*
X120528Y210639D01*
X120679Y210675D01*
X120822Y210734D01*
X120954Y210815D01*
X121072Y210916D01*
X121173Y211034D01*
X121254Y211166D01*
X121313Y211309D01*
X121349Y211460D01*
X121358Y211614D01*
X121349Y218677D01*
X121471Y218752D01*
X121754Y218994D01*
X121996Y219277D01*
X122190Y219594D01*
X122332Y219937D01*
X122419Y220299D01*
X122441Y220669D01*
X122419Y221040D01*
X122332Y221402D01*
X122190Y221745D01*
X121996Y222062D01*
X121754Y222345D01*
X121471Y222586D01*
X121154Y222781D01*
X120811Y222923D01*
X120747Y222938D01*
X120815Y223017D01*
X121009Y223334D01*
X121151Y223677D01*
X121238Y224039D01*
X121260Y224409D01*
X121238Y224780D01*
X121151Y225142D01*
X121009Y225485D01*
X121000Y225500D01*
X121906Y225501D01*
X122057Y225537D01*
X122200Y225597D01*
X122332Y225678D01*
X122450Y225778D01*
X122551Y225896D01*
X122632Y226028D01*
X122691Y226171D01*
X122727Y226322D01*
X122736Y226476D01*
X122727Y231158D01*
X122691Y231309D01*
X122632Y231452D01*
X122551Y231584D01*
X122450Y231702D01*
X122332Y231803D01*
X122200Y231884D01*
X122057Y231943D01*
X121906Y231979D01*
X121752Y231988D01*
X119488Y231985D01*
Y232584D01*
X121906Y232588D01*
X122057Y232624D01*
X122200Y232683D01*
X122332Y232764D01*
X122450Y232865D01*
X122551Y232983D01*
X122632Y233115D01*
X122691Y233258D01*
X122727Y233409D01*
X122736Y233563D01*
X122727Y238245D01*
X122691Y238396D01*
X122632Y238539D01*
X122551Y238671D01*
X122450Y238789D01*
X122332Y238889D01*
X122200Y238970D01*
X122057Y239030D01*
X121906Y239066D01*
X121752Y239075D01*
X120374Y239073D01*
Y239961D01*
X131043D01*
Y219683D01*
X127503Y219676D01*
X127352Y219640D01*
X127209Y219580D01*
X127077Y219500D01*
X126959Y219399D01*
X126859Y219281D01*
X126778Y219149D01*
X126719Y219006D01*
X126682Y218855D01*
X126673Y218701D01*
X126682Y211460D01*
X126719Y211309D01*
X126778Y211166D01*
X126859Y211034D01*
X126959Y210916D01*
X127077Y210815D01*
X127209Y210734D01*
X127352Y210675D01*
X127503Y210639D01*
X127657Y210630D01*
X131043Y210637D01*
Y207633D01*
X128763Y207629D01*
X128612Y207593D01*
X128469Y207533D01*
X128337Y207452D01*
X128219Y207352D01*
X128119Y207234D01*
X128038Y207102D01*
X127978Y206959D01*
X127942Y206808D01*
X127933Y206654D01*
X127942Y204727D01*
X127978Y204577D01*
X128038Y204434D01*
X128119Y204302D01*
X128219Y204184D01*
X128337Y204083D01*
X128469Y204002D01*
X128612Y203943D01*
X128763Y203907D01*
X128917Y203898D01*
X131043Y203902D01*
Y202633D01*
X128763Y202629D01*
X128612Y202593D01*
X128469Y202533D01*
X128337Y202452D01*
X128219Y202352D01*
X128119Y202234D01*
X128038Y202102D01*
X127978Y201959D01*
X127942Y201808D01*
X127933Y201654D01*
X127942Y199727D01*
X127978Y199577D01*
X128038Y199434D01*
X128119Y199302D01*
X128219Y199184D01*
X128337Y199083D01*
X128469Y199002D01*
X128612Y198943D01*
X128763Y198907D01*
X128917Y198898D01*
X131043Y198902D01*
Y197633D01*
X128763Y197629D01*
X128612Y197593D01*
X128469Y197533D01*
X128337Y197452D01*
X128219Y197352D01*
X128119Y197234D01*
X128038Y197102D01*
X127978Y196959D01*
X127942Y196808D01*
X127933Y196654D01*
X127942Y194727D01*
X127978Y194577D01*
X128038Y194434D01*
X128119Y194302D01*
X128219Y194184D01*
X128337Y194083D01*
X128469Y194002D01*
X128612Y193943D01*
X128763Y193907D01*
X128917Y193898D01*
X131043Y193902D01*
Y192633D01*
G37*
G36*
X97638Y235931D02*X100873Y235932D01*
X100984Y235925D01*
X107832Y235934D01*
X107982Y235970D01*
X108125Y236030D01*
X108257Y236111D01*
X108375Y236211D01*
X108476Y236329D01*
X108557Y236461D01*
X108616Y236604D01*
X108652Y236755D01*
X108661Y236909D01*
X108658Y244530D01*
X108661Y244587D01*
X108657Y247321D01*
X108655Y252151D01*
X108661Y252264D01*
X108652Y257733D01*
X108616Y257884D01*
X108557Y258027D01*
X108476Y258159D01*
X108375Y258277D01*
X108257Y258377D01*
X108125Y258458D01*
X107982Y258518D01*
X107832Y258554D01*
X107677Y258563D01*
X98678Y258560D01*
X98622Y258563D01*
X97638Y258562D01*
Y261417D01*
X104331D01*
Y267798D01*
X104439Y267705D01*
X104571Y267624D01*
X104715Y267565D01*
X104865Y267529D01*
X105020Y267520D01*
X107733Y267529D01*
X107884Y267565D01*
X108027Y267624D01*
X108159Y267705D01*
X108277Y267806D01*
X108377Y267924D01*
X108458Y268056D01*
X108518Y268199D01*
X108554Y268349D01*
X108563Y268504D01*
X108554Y273776D01*
X108518Y273927D01*
X108458Y274070D01*
X108377Y274202D01*
X108277Y274320D01*
X108159Y274421D01*
X108027Y274502D01*
X107884Y274561D01*
X107733Y274597D01*
X107579Y274606D01*
X104865Y274597D01*
X104715Y274561D01*
X104571Y274502D01*
X104439Y274421D01*
X104331Y274328D01*
X104222Y274421D01*
X104090Y274502D01*
X103947Y274561D01*
X103796Y274597D01*
X103642Y274606D01*
X100928Y274597D01*
X100778Y274561D01*
X100634Y274502D01*
X100502Y274421D01*
X100394Y274328D01*
X100285Y274421D01*
X100153Y274502D01*
X100010Y274561D01*
X99859Y274597D01*
X99705Y274606D01*
X97638Y274599D01*
Y276185D01*
X99662Y276190D01*
X99813Y276226D01*
X99956Y276286D01*
X100088Y276367D01*
X100206Y276467D01*
X100307Y276585D01*
X100388Y276717D01*
X100447Y276860D01*
X100483Y277011D01*
X100492Y277165D01*
X100483Y281257D01*
X100447Y281407D01*
X100388Y281551D01*
X100307Y281683D01*
X100206Y281800D01*
X100088Y281901D01*
X99956Y281982D01*
X99813Y282041D01*
X99662Y282077D01*
X99508Y282087D01*
X97638Y282082D01*
Y313386D01*
X112992D01*
Y308379D01*
X112972Y308374D01*
X112686Y308255D01*
X112422Y308094D01*
X112186Y307892D01*
X111985Y307657D01*
X111823Y307392D01*
X111705Y307106D01*
X111632Y306805D01*
X111608Y306496D01*
X111632Y306187D01*
X111705Y305886D01*
X111823Y305600D01*
X111985Y305335D01*
X112186Y305100D01*
X112422Y304899D01*
X112686Y304737D01*
X112972Y304618D01*
X112992Y304613D01*
Y288780D01*
X116149Y285622D01*
X115968Y285608D01*
X115606Y285521D01*
X115263Y285379D01*
X114946Y285185D01*
X114663Y284943D01*
X114422Y284660D01*
X114227Y284343D01*
X114085Y284000D01*
X113998Y283638D01*
X113969Y283268D01*
X113998Y282897D01*
X114085Y282536D01*
X114227Y282192D01*
X114422Y281875D01*
X114663Y281592D01*
X114946Y281351D01*
X115164Y281217D01*
X115157Y281102D01*
X115167Y277798D01*
X115203Y277648D01*
X115262Y277505D01*
X115343Y277372D01*
X115444Y277255D01*
X115459Y277242D01*
X115406Y277180D01*
X115212Y276863D01*
X115069Y276520D01*
X114983Y276158D01*
X114953Y275787D01*
X114983Y275417D01*
X115069Y275055D01*
X115212Y274712D01*
X115406Y274395D01*
X115459Y274333D01*
X115444Y274320D01*
X115343Y274202D01*
X115262Y274070D01*
X115203Y273927D01*
X115167Y273776D01*
X115157Y273622D01*
X115167Y270318D01*
X115203Y270167D01*
X115262Y270024D01*
X115343Y269892D01*
X115444Y269774D01*
X115561Y269674D01*
X115694Y269593D01*
X115837Y269533D01*
X115987Y269497D01*
X116142Y269488D01*
X118307Y269494D01*
Y263566D01*
X118055Y263671D01*
X117694Y263758D01*
X117323Y263787D01*
X116952Y263758D01*
X116591Y263671D01*
X116247Y263529D01*
X115930Y263334D01*
X115647Y263093D01*
X115406Y262810D01*
X115212Y262493D01*
X115069Y262150D01*
X114983Y261788D01*
X114953Y261417D01*
X114983Y261047D01*
X115069Y260685D01*
X115212Y260342D01*
X115406Y260025D01*
X115466Y259954D01*
X115463Y259952D01*
X115345Y259852D01*
X115245Y259734D01*
X115164Y259602D01*
X115104Y259459D01*
X115068Y259308D01*
X115059Y259154D01*
X115068Y254472D01*
X115104Y254321D01*
X115164Y254178D01*
X115245Y254046D01*
X115345Y253928D01*
X115463Y253827D01*
X115595Y253746D01*
X115738Y253687D01*
X115889Y253651D01*
X116043Y253642D01*
X118307Y253645D01*
Y253046D01*
X115889Y253042D01*
X115738Y253006D01*
X115595Y252947D01*
X115463Y252866D01*
X115345Y252765D01*
X115245Y252647D01*
X115164Y252515D01*
X115104Y252372D01*
X115068Y252221D01*
X115059Y252067D01*
X115068Y247385D01*
X115104Y247234D01*
X115164Y247091D01*
X115245Y246959D01*
X115345Y246841D01*
X115463Y246741D01*
X115595Y246660D01*
X115738Y246600D01*
X115889Y246564D01*
X116043Y246555D01*
X116791Y246556D01*
X116786Y246548D01*
X116644Y246205D01*
X116557Y245843D01*
X116528Y245472D01*
X116557Y245102D01*
X116644Y244740D01*
X116786Y244397D01*
X116981Y244080D01*
X117222Y243797D01*
X117335Y243701D01*
X117222Y243605D01*
X116981Y243322D01*
X116786Y243005D01*
X116644Y242661D01*
X116557Y242300D01*
X116528Y241929D01*
X116557Y241558D01*
X116644Y241197D01*
X116786Y240853D01*
X116981Y240536D01*
X117222Y240254D01*
X117421Y240084D01*
Y239068D01*
X115889Y239066D01*
X115738Y239030D01*
X115595Y238970D01*
X115463Y238889D01*
X115345Y238789D01*
X115245Y238671D01*
X115164Y238539D01*
X115104Y238396D01*
X115068Y238245D01*
X115059Y238091D01*
X115063Y236107D01*
X115054Y236117D01*
X114607Y236500D01*
X114105Y236807D01*
X113561Y237033D01*
X112988Y237170D01*
X112402Y237216D01*
X111815Y237170D01*
X111242Y237033D01*
X110698Y236807D01*
X110196Y236500D01*
X109749Y236117D01*
X109366Y235670D01*
X109059Y235168D01*
X109006Y235039D01*
X97638D01*
Y235931D01*
G37*
G36*
Y274599D02*X96991Y274597D01*
X96841Y274561D01*
X96697Y274502D01*
X96565Y274421D01*
X96457Y274328D01*
X96348Y274421D01*
X96216Y274502D01*
X96073Y274561D01*
X95922Y274597D01*
X95768Y274606D01*
X93054Y274597D01*
X92904Y274561D01*
X92760Y274502D01*
X92628Y274421D01*
X92520Y274328D01*
X92411Y274421D01*
X92279Y274502D01*
X92136Y274561D01*
X91985Y274597D01*
X91831Y274606D01*
X91339Y274605D01*
Y276185D01*
X93363Y276190D01*
X93514Y276226D01*
X93657Y276286D01*
X93789Y276367D01*
X93907Y276467D01*
X94007Y276585D01*
X94088Y276717D01*
X94148Y276860D01*
X94184Y277011D01*
X94193Y277165D01*
X94184Y281257D01*
X94148Y281407D01*
X94088Y281551D01*
X94007Y281683D01*
X93907Y281800D01*
X93789Y281901D01*
X93657Y281982D01*
X93514Y282041D01*
X93378Y282074D01*
X93450Y282192D01*
X93592Y282536D01*
X93679Y282897D01*
X93701Y283268D01*
X93679Y283638D01*
X93592Y284000D01*
X93450Y284343D01*
X93256Y284660D01*
X93014Y284943D01*
X92731Y285185D01*
X92414Y285379D01*
X92071Y285521D01*
X91709Y285608D01*
X91339Y285637D01*
Y313386D01*
X97638D01*
Y282082D01*
X95613Y282077D01*
X95463Y282041D01*
X95319Y281982D01*
X95187Y281901D01*
X95070Y281800D01*
X94969Y281683D01*
X94888Y281551D01*
X94829Y281407D01*
X94793Y281257D01*
X94783Y281102D01*
X94793Y277011D01*
X94829Y276860D01*
X94888Y276717D01*
X94969Y276585D01*
X95070Y276467D01*
X95187Y276367D01*
X95319Y276286D01*
X95463Y276226D01*
X95613Y276190D01*
X95768Y276181D01*
X97638Y276185D01*
Y274599D01*
G37*
G36*
X91339Y274605D02*X89117Y274597D01*
X88967Y274561D01*
X88823Y274502D01*
X88691Y274421D01*
X88583Y274328D01*
X88474Y274421D01*
X88342Y274502D01*
X88199Y274561D01*
X88048Y274597D01*
X87894Y274606D01*
X85180Y274597D01*
X85030Y274561D01*
X84886Y274502D01*
X84754Y274421D01*
X84646Y274328D01*
X84537Y274421D01*
X84405Y274502D01*
X84262Y274561D01*
X84111Y274597D01*
X83957Y274606D01*
X81243Y274597D01*
X81093Y274561D01*
X80949Y274502D01*
X80817Y274421D01*
X80768Y274379D01*
X80851Y274515D01*
X80994Y274858D01*
X81080Y275220D01*
X81102Y275591D01*
X81080Y275961D01*
X81027Y276183D01*
X83914Y276190D01*
X84065Y276226D01*
X84208Y276286D01*
X84340Y276367D01*
X84458Y276467D01*
X84559Y276585D01*
X84640Y276717D01*
X84699Y276860D01*
X84735Y277011D01*
X84744Y277165D01*
X84735Y281257D01*
X84699Y281407D01*
X84640Y281551D01*
X84559Y281683D01*
X84458Y281800D01*
X84340Y281901D01*
X84208Y281982D01*
X84165Y282000D01*
X89764Y287598D01*
Y297835D01*
X74213Y313386D01*
X91339D01*
Y285637D01*
X90968Y285608D01*
X90606Y285521D01*
X90263Y285379D01*
X89946Y285185D01*
X89663Y284943D01*
X89422Y284660D01*
X89227Y284343D01*
X89085Y284000D01*
X88998Y283638D01*
X88969Y283268D01*
X88998Y282897D01*
X89085Y282536D01*
X89227Y282192D01*
X89300Y282074D01*
X89163Y282041D01*
X89020Y281982D01*
X88888Y281901D01*
X88770Y281800D01*
X88670Y281683D01*
X88589Y281551D01*
X88530Y281407D01*
X88493Y281257D01*
X88484Y281102D01*
X88493Y277011D01*
X88530Y276860D01*
X88589Y276717D01*
X88670Y276585D01*
X88770Y276467D01*
X88888Y276367D01*
X89020Y276286D01*
X89163Y276226D01*
X89314Y276190D01*
X89469Y276181D01*
X91339Y276185D01*
Y274605D01*
G37*
G36*
X97638Y258562D02*X95199Y258558D01*
X89678Y258556D01*
X89567Y258563D01*
X82720Y258554D01*
X82569Y258518D01*
X82480Y258481D01*
Y265157D01*
X82446Y265744D01*
X82308Y266317D01*
X82083Y266861D01*
X81775Y267363D01*
X81641Y267521D01*
X84111Y267529D01*
X84262Y267565D01*
X84405Y267624D01*
X84537Y267705D01*
X84646Y267798D01*
X84754Y267705D01*
X84886Y267624D01*
X85030Y267565D01*
X85180Y267529D01*
X85335Y267520D01*
X88048Y267529D01*
X88199Y267565D01*
X88342Y267624D01*
X88474Y267705D01*
X88583Y267798D01*
Y261417D01*
X97638D01*
Y258562D01*
G37*
G36*
X82480Y236007D02*X82569Y235970D01*
X82720Y235934D01*
X82874Y235925D01*
X91873Y235928D01*
X91929Y235925D01*
X95352Y235930D01*
X97638Y235931D01*
Y235039D01*
X82480D01*
Y236007D01*
G37*
G36*
X103346Y262402D02*X90551D01*
X89567Y263386D01*
Y267521D01*
X91985Y267529D01*
X92136Y267565D01*
X92279Y267624D01*
X92411Y267705D01*
X92520Y267798D01*
X92628Y267705D01*
X92760Y267624D01*
X92904Y267565D01*
X93054Y267529D01*
X93209Y267520D01*
X95922Y267529D01*
X96073Y267565D01*
X96216Y267624D01*
X96348Y267705D01*
X96457Y267798D01*
X96565Y267705D01*
X96697Y267624D01*
X96841Y267565D01*
X96991Y267529D01*
X97146Y267520D01*
X99859Y267529D01*
X100010Y267565D01*
X100153Y267624D01*
X100285Y267705D01*
X100394Y267798D01*
X100502Y267705D01*
X100634Y267624D01*
X100778Y267565D01*
X100928Y267529D01*
X101083Y267520D01*
X103346Y267527D01*
Y262402D01*
G37*
G36*
X60039Y261417D02*X68898D01*
Y267798D01*
X69006Y267705D01*
X69138Y267624D01*
X69282Y267565D01*
X69432Y267529D01*
X69587Y267520D01*
X72300Y267529D01*
X72451Y267565D01*
X72594Y267624D01*
X72726Y267705D01*
X72835Y267798D01*
X72943Y267705D01*
X73075Y267624D01*
X73219Y267565D01*
X73369Y267529D01*
X73524Y267520D01*
X75846Y267527D01*
X75705Y267363D01*
X75397Y266861D01*
X75172Y266317D01*
X75035Y265744D01*
X75000Y265157D01*
Y258481D01*
X74911Y258518D01*
X74761Y258554D01*
X74606Y258563D01*
X65607Y258560D01*
X65551Y258563D01*
X62128Y258558D01*
X60039Y258558D01*
Y261417D01*
G37*
G36*
Y291089D02*X60345Y291277D01*
X61806Y292524D01*
X63054Y293985D01*
X64058Y295623D01*
X64793Y297398D01*
X65241Y299266D01*
X65354Y301181D01*
X65241Y303096D01*
X64793Y304964D01*
X64058Y306739D01*
X63054Y308377D01*
X61806Y309838D01*
X60345Y311085D01*
X60039Y311273D01*
Y313386D01*
X72638D01*
X88583Y297441D01*
Y287992D01*
X82675Y282084D01*
X79865Y282077D01*
X79715Y282041D01*
X79571Y281982D01*
X79439Y281901D01*
X79322Y281800D01*
X79221Y281683D01*
X79140Y281551D01*
X79081Y281407D01*
X79045Y281257D01*
X79035Y281102D01*
X79041Y278451D01*
X78534Y277944D01*
X78443Y277937D01*
X78436Y281257D01*
X78400Y281407D01*
X78340Y281551D01*
X78259Y281683D01*
X78159Y281800D01*
X78041Y281901D01*
X77909Y281982D01*
X77766Y282041D01*
X77615Y282077D01*
X77461Y282087D01*
X73566Y282077D01*
X73415Y282041D01*
X73272Y281982D01*
X73140Y281901D01*
X73022Y281800D01*
X72922Y281683D01*
X72841Y281551D01*
X72782Y281407D01*
X72745Y281257D01*
X72736Y281102D01*
X72745Y277011D01*
X72782Y276860D01*
X72841Y276717D01*
X72922Y276585D01*
X73022Y276467D01*
X73140Y276367D01*
X73272Y276286D01*
X73415Y276226D01*
X73566Y276190D01*
X73720Y276181D01*
X76454Y276188D01*
X76400Y275961D01*
X76371Y275591D01*
X76400Y275220D01*
X76487Y274858D01*
X76629Y274515D01*
X76712Y274379D01*
X76663Y274421D01*
X76531Y274502D01*
X76388Y274561D01*
X76237Y274597D01*
X76083Y274606D01*
X73369Y274597D01*
X73219Y274561D01*
X73075Y274502D01*
X72943Y274421D01*
X72835Y274328D01*
X72726Y274421D01*
X72594Y274502D01*
X72451Y274561D01*
X72300Y274597D01*
X72146Y274606D01*
X69432Y274597D01*
X69282Y274561D01*
X69138Y274502D01*
X69006Y274421D01*
X68898Y274328D01*
X68789Y274421D01*
X68657Y274502D01*
X68514Y274561D01*
X68363Y274597D01*
X68209Y274606D01*
X65495Y274597D01*
X65345Y274561D01*
X65201Y274502D01*
X65069Y274421D01*
X64961Y274328D01*
X64852Y274421D01*
X64720Y274502D01*
X64577Y274561D01*
X64426Y274597D01*
X64272Y274606D01*
X61558Y274597D01*
X61408Y274561D01*
X61264Y274502D01*
X61132Y274421D01*
X61024Y274328D01*
X60915Y274421D01*
X60783Y274502D01*
X60640Y274561D01*
X60489Y274597D01*
X60335Y274606D01*
X60039Y274605D01*
Y275633D01*
X60180Y275600D01*
X60335Y275591D01*
X62851Y275600D01*
X63002Y275636D01*
X63145Y275695D01*
X63277Y275776D01*
X63386Y275869D01*
X63494Y275776D01*
X63627Y275695D01*
X63770Y275636D01*
X63920Y275600D01*
X64075Y275591D01*
X66591Y275600D01*
X66742Y275636D01*
X66885Y275695D01*
X67017Y275776D01*
X67135Y275877D01*
X67236Y275994D01*
X67317Y276127D01*
X67376Y276270D01*
X67412Y276420D01*
X67421Y276575D01*
X67412Y281454D01*
X67376Y281604D01*
X67317Y281747D01*
X67236Y281880D01*
X67135Y281997D01*
X67017Y282098D01*
X66885Y282179D01*
X66742Y282238D01*
X66591Y282274D01*
X66437Y282283D01*
X65422Y282280D01*
X65826Y282684D01*
X66591Y282686D01*
X66742Y282722D01*
X66885Y282782D01*
X67017Y282863D01*
X67135Y282963D01*
X67236Y283081D01*
X67317Y283213D01*
X67376Y283356D01*
X67412Y283507D01*
X67421Y283661D01*
X67412Y288540D01*
X67376Y288691D01*
X67317Y288834D01*
X67236Y288966D01*
X67135Y289084D01*
X67017Y289185D01*
X66885Y289266D01*
X66742Y289325D01*
X66591Y289361D01*
X66437Y289370D01*
X63920Y289361D01*
X63770Y289325D01*
X63627Y289266D01*
X63494Y289185D01*
X63386Y289092D01*
X63277Y289185D01*
X63145Y289266D01*
X63002Y289325D01*
X62851Y289361D01*
X62697Y289370D01*
X60180Y289361D01*
X60039Y289327D01*
Y291089D01*
G37*
G36*
Y235927D02*X62281Y235930D01*
X67802Y235932D01*
X67913Y235925D01*
X74761Y235934D01*
X74911Y235970D01*
X75000Y236007D01*
Y235039D01*
X60039D01*
Y235927D01*
G37*
G36*
Y311273D02*X58708Y312089D01*
X56933Y312824D01*
X55065Y313273D01*
X53628Y313386D01*
X60039D01*
Y311273D01*
G37*
G36*
X48819Y257579D02*X48822Y249958D01*
X48819Y249902D01*
X48823Y247166D01*
X48826Y242337D01*
X48819Y242224D01*
X48828Y236755D01*
X48864Y236604D01*
X48923Y236461D01*
X49004Y236329D01*
X49105Y236211D01*
X49223Y236111D01*
X49355Y236030D01*
X49498Y235970D01*
X49649Y235934D01*
X49803Y235925D01*
X58803Y235928D01*
X58858Y235925D01*
X60039Y235927D01*
Y235039D01*
X47097D01*
X47044Y235168D01*
X46736Y235670D01*
X46354Y236117D01*
X45906Y236500D01*
X45404Y236807D01*
X44860Y237033D01*
X44288Y237170D01*
X43701Y237216D01*
X43114Y237170D01*
X42541Y237033D01*
X41998Y236807D01*
X41496Y236500D01*
X41048Y236117D01*
X40945Y235997D01*
Y276141D01*
X40951Y276127D01*
X41032Y275994D01*
X41133Y275877D01*
X41250Y275776D01*
X41382Y275695D01*
X41526Y275636D01*
X41676Y275600D01*
X41831Y275591D01*
X46513Y275600D01*
X46663Y275636D01*
X46806Y275695D01*
X46939Y275776D01*
X47056Y275877D01*
X47157Y275994D01*
X47238Y276127D01*
X47297Y276270D01*
X47333Y276420D01*
X47343Y276575D01*
X47340Y278642D01*
X48154D01*
X48325Y278443D01*
X48607Y278201D01*
X48924Y278007D01*
X49268Y277865D01*
X49629Y277778D01*
X50000Y277749D01*
X50371Y277778D01*
X50732Y277865D01*
X51076Y278007D01*
X51393Y278201D01*
X51675Y278443D01*
X51917Y278725D01*
X52111Y279042D01*
X52254Y279386D01*
X52340Y279747D01*
X52362Y280118D01*
X52340Y280489D01*
X52254Y280850D01*
X52111Y281194D01*
X51917Y281511D01*
X51675Y281794D01*
X51393Y282035D01*
X51076Y282229D01*
X50732Y282372D01*
X50371Y282458D01*
X50000Y282488D01*
X49629Y282458D01*
X49268Y282372D01*
X48924Y282229D01*
X48607Y282035D01*
X48325Y281794D01*
X48154Y281594D01*
X47336D01*
X47333Y283816D01*
X47297Y283967D01*
X47238Y284110D01*
X47157Y284242D01*
X47056Y284360D01*
X46939Y284460D01*
X46806Y284541D01*
X46663Y284600D01*
X46513Y284637D01*
X46358Y284646D01*
X41676Y284637D01*
X41526Y284600D01*
X41382Y284541D01*
X41250Y284460D01*
X41133Y284360D01*
X41032Y284242D01*
X40951Y284110D01*
X40945Y284095D01*
Y300703D01*
X41058Y299266D01*
X41506Y297398D01*
X42242Y295623D01*
X43245Y293985D01*
X44493Y292524D01*
X45954Y291277D01*
X47592Y290273D01*
X49367Y289538D01*
X51234Y289089D01*
X53150Y288939D01*
X55065Y289089D01*
X56933Y289538D01*
X58708Y290273D01*
X60039Y291089D01*
Y289327D01*
X60030Y289325D01*
X59886Y289266D01*
X59754Y289185D01*
X59637Y289084D01*
X59536Y288966D01*
X59455Y288834D01*
X59396Y288691D01*
X59360Y288540D01*
X59350Y288386D01*
X59360Y283507D01*
X59396Y283356D01*
X59432Y283268D01*
X59320Y283199D01*
X59320Y283199D01*
X59214Y283109D01*
X59192Y283082D01*
X59145Y283036D01*
X59144Y283816D01*
X59108Y283967D01*
X59049Y284110D01*
X58968Y284242D01*
X58867Y284360D01*
X58750Y284460D01*
X58618Y284541D01*
X58474Y284600D01*
X58324Y284637D01*
X58169Y284646D01*
X53487Y284637D01*
X53337Y284600D01*
X53194Y284541D01*
X53061Y284460D01*
X52944Y284360D01*
X52843Y284242D01*
X52762Y284110D01*
X52703Y283967D01*
X52667Y283816D01*
X52657Y283661D01*
X52667Y276420D01*
X52703Y276270D01*
X52762Y276127D01*
X52843Y275994D01*
X52944Y275877D01*
X53061Y275776D01*
X53194Y275695D01*
X53337Y275636D01*
X53487Y275600D01*
X53642Y275591D01*
X58324Y275600D01*
X58474Y275636D01*
X58618Y275695D01*
X58750Y275776D01*
X58867Y275877D01*
X58968Y275994D01*
X59049Y276127D01*
X59108Y276270D01*
X59144Y276420D01*
X59154Y276575D01*
X59150Y279379D01*
X59184Y279399D01*
X59290Y279490D01*
X59312Y279516D01*
X59354Y279558D01*
X59360Y276420D01*
X59396Y276270D01*
X59455Y276127D01*
X59536Y275994D01*
X59637Y275877D01*
X59754Y275776D01*
X59886Y275695D01*
X60030Y275636D01*
X60039Y275633D01*
Y274605D01*
X57621Y274597D01*
X57471Y274561D01*
X57327Y274502D01*
X57195Y274421D01*
X57087Y274328D01*
X56978Y274421D01*
X56846Y274502D01*
X56703Y274561D01*
X56552Y274597D01*
X56398Y274606D01*
X53684Y274597D01*
X53533Y274561D01*
X53390Y274502D01*
X53258Y274421D01*
X53150Y274328D01*
X53041Y274421D01*
X52909Y274502D01*
X52766Y274561D01*
X52615Y274597D01*
X52461Y274606D01*
X49747Y274597D01*
X49596Y274561D01*
X49453Y274502D01*
X49321Y274421D01*
X49203Y274320D01*
X49103Y274202D01*
X49022Y274070D01*
X48963Y273927D01*
X48926Y273776D01*
X48917Y273622D01*
X48926Y268349D01*
X48963Y268199D01*
X49022Y268056D01*
X49103Y267924D01*
X49203Y267806D01*
X49321Y267705D01*
X49453Y267624D01*
X49596Y267565D01*
X49747Y267529D01*
X49902Y267520D01*
X52615Y267529D01*
X52766Y267565D01*
X52909Y267624D01*
X53041Y267705D01*
X53150Y267798D01*
Y261417D01*
X60039D01*
Y258558D01*
X56607Y258556D01*
X56496Y258563D01*
X49649Y258554D01*
X49498Y258518D01*
X49355Y258458D01*
X49223Y258377D01*
X49105Y258277D01*
X49004Y258159D01*
X48923Y258027D01*
X48864Y257884D01*
X48828Y257733D01*
X48819Y257579D01*
G37*
G36*
X54134Y262402D02*Y267521D01*
X56552Y267529D01*
X56703Y267565D01*
X56846Y267624D01*
X56978Y267705D01*
X57087Y267798D01*
X57195Y267705D01*
X57327Y267624D01*
X57471Y267565D01*
X57621Y267529D01*
X57776Y267520D01*
X60489Y267529D01*
X60640Y267565D01*
X60783Y267624D01*
X60915Y267705D01*
X61024Y267798D01*
X61132Y267705D01*
X61264Y267624D01*
X61408Y267565D01*
X61558Y267529D01*
X61713Y267520D01*
X64426Y267529D01*
X64577Y267565D01*
X64720Y267624D01*
X64852Y267705D01*
X64961Y267798D01*
X65069Y267705D01*
X65201Y267624D01*
X65345Y267565D01*
X65495Y267529D01*
X65650Y267520D01*
X67913Y267527D01*
Y263386D01*
X66929Y262402D01*
X54134D01*
G37*
G54D12*X240748Y85630D02*X239567Y84449D01*
Y76969D02*X239173Y76575D01*
X239567Y84449D02*Y76969D01*
X239173Y76575D02*Y70669D01*
X231693Y84843D02*X235236D01*
X231693D02*X235236D01*
X235630Y84449D01*
Y87008D01*
X235236Y84843D02*X235630Y86811D01*
G54D13*X234449Y90354D02*X240748D01*
G54D12*X231693Y77362D02*X235236D01*
X235630Y75197D01*
X235236Y77362D02*X235630Y77756D01*
Y75197D01*
X227756Y70472D02*X231890D01*
X232087Y70669D01*
X235630Y66142D02*X232087Y69685D01*
Y70669D01*
G54D14*X228150Y70866D02*X227756Y70472D01*
X225197Y75787D02*X227362D01*
X228150Y75000D01*
Y70866D01*
G54D13*X225197Y83661D02*X227362D01*
X229921Y81102D01*
G54D14*X158858Y73622D02*Y71457D01*
G54D13*X157283Y78937D02*Y80906D01*
X156693Y85827D03*
X157283Y80906D02*X156693Y81496D01*
Y85827D01*
G54D14*X158858Y71457D02*X155531D01*
G54D13*X164567Y78543D02*Y75000D01*
X168110Y78543D02*Y76575D01*
X170276D01*
G54D15*X172441Y78543D02*Y80315D01*
X173031Y80906D01*
G54D13*X165945Y86811D02*X162402Y83268D01*
X164567Y75000D02*X166339Y73228D01*
X170276D02*X174213D01*
X175984Y78543D02*X178543Y75984D01*
Y70472D01*
X174213Y66142D01*
X170276Y61811D02*Y76575D01*
X166339Y63189D02*Y66142D01*
G54D15*X181102Y55906D02*Y61024D01*
X181890Y61811D01*
X183661Y55906D02*Y61024D01*
X181890Y65157D02*Y61811D01*
G54D14*X175984Y55906D02*Y50787D01*
X168801Y49902D02*Y55533D01*
X169685Y56417D01*
X164567Y56299D02*X169567D01*
X169685Y56417D01*
G54D13*X167717Y61811D02*X167126Y62402D01*
X166339Y63189D01*
X172835Y61811D02*X170276D01*
G54D14*X186220Y55906D02*Y60039D01*
G54D15*X189370Y62598D02*Y65157D01*
X181890Y77165D02*X183858Y79134D01*
X181890Y74606D02*Y77165D01*
X181299Y65157D02*Y74606D01*
X189961Y65157D02*Y74606D01*
G54D12*X183661Y70472D02*X185630Y72441D01*
Y65157D02*Y67717D01*
G54D15*X189370Y76969D02*X189764Y77362D01*
G54D12*X185630Y67717D02*X187008Y69094D01*
G54D15*X189370Y76969D02*Y74606D01*
G54D12*X185630Y72441D02*Y74606D01*
X192913Y75000D02*Y72244D01*
X194685Y70472D01*
G54D15*X183661Y61024D02*X184843Y62205D01*
X188976D01*
X189370Y62598D01*
G54D14*X186220Y60039D02*X186811Y60630D01*
X190945D01*
X193404Y49902D02*Y55533D01*
X192520Y56417D01*
X197835Y56496D02*X192598D01*
X192520Y56417D01*
G54D15*X189764Y77362D02*X202756D01*
X183858Y79134D02*X203543D01*
X173031Y80906D02*X195669D01*
G54D13*X200000Y86811D02*X165945D01*
G54D14*X190945Y60630D02*X191732Y61417D01*
X203150Y62992D02*Y61220D01*
X203740Y60630D01*
G54D15*X202756Y77362D02*X204331Y75787D01*
X206693D01*
X203543Y79134D02*X204921Y77756D01*
X206693D01*
G54D13*Y73819D02*X202362D01*
G54D15*X195669Y80906D02*X198622Y83858D01*
X199803Y81496D02*X200000D01*
X198622Y83858D02*X200591D01*
X204331Y87598D01*
X200000Y81496D02*X204134Y85630D01*
X203346Y81496D02*Y82874D01*
X204134Y83661D01*
X204331Y87598D02*X206693D01*
X204134Y85630D02*X206693D01*
X204134Y83661D02*X206693D01*
G54D13*X200984Y87795D02*X200000Y86811D01*
X202362Y73819D02*X202165Y74016D01*
G54D14*X205906Y69291D02*X204724Y70472D01*
X202165D01*
G54D12*X195276Y66535D02*X194685Y67126D01*
G54D14*X195276Y62992D02*X203150D01*
G54D12*X199213Y66535D02*Y67913D01*
X198228Y68898D01*
Y70472D02*X202165D01*
X194685D02*Y67126D01*
X196063Y73819D02*X198819D01*
X198228Y73228D01*
Y68898D02*Y73228D01*
G54D14*X205315Y49803D02*X201969D01*
X205315D02*Y54724D01*
X202362D01*
G54D12*X205315Y43504D02*X204921D01*
X201969Y46457D01*
X211417Y47441D02*X214173D01*
X212795Y43563D02*Y46063D01*
X214173Y47441D01*
X212795Y46063D02*X211417Y47441D01*
X200787Y57677D02*X201378Y58268D01*
X205315D01*
X211417Y52559D02*X214173D01*
X212795Y56437D02*Y53937D01*
X211417Y52559D01*
X212795Y53937D02*X214173Y52559D01*
G54D14*X203740Y60630D02*X208071D01*
X208858Y59843D01*
X209055Y71457D02*Y69291D01*
X205906D01*
G54D13*X203150Y66535D02*X211024D01*
G54D12*X207087Y62992D02*X214961D01*
G54D14*X216339D02*X214961D01*
G54D13*X211024Y66535D02*Y71457D01*
G54D14*X212992D02*Y68701D01*
X214961Y71457D02*Y69488D01*
X212992Y68701D02*X213583Y68110D01*
Y67913D01*
X214961Y66535D01*
X216339D01*
X214961Y69488D02*X215354Y69094D01*
X217323D01*
X220866Y65551D01*
G54D13*X218898Y71457D02*Y69882D01*
G54D14*X216339Y66535D02*X218110Y64764D01*
G54D13*X223425Y66535D02*X222244D01*
X218898Y69882D02*X222244Y66535D01*
G54D14*X222835Y69291D02*X223031Y69094D01*
X220866Y65551D02*Y63976D01*
X218110Y61220D02*X216339Y62992D01*
X220866Y63976D02*X218110Y61220D01*
X222835Y71457D02*Y69291D01*
X223031Y69094D02*X226378D01*
G54D13*X227756Y67717D01*
G54D12*Y70472D01*
G54D14*X188189Y125394D02*X191142D01*
X188189D02*Y123031D01*
X196850Y91339D02*X190748D01*
G54D12*X187205Y137992D02*X184449D01*
X181890Y135433D01*
X182283Y135039D01*
Y127953D01*
X184252D01*
X185433Y129134D01*
X188189D01*
G54D14*X185433D02*X185236Y129331D01*
Y132087D01*
X186024Y132874D01*
X188189D01*
G54D12*X190748Y137992D02*X196260D01*
G54D14*X179331Y93504D02*X184252D01*
X181890Y96063D02*Y91142D01*
X187205Y93898D02*Y89173D01*
Y91339D02*X184646D01*
X173228Y93504D02*X175000D01*
X176378Y94882D01*
X175000Y93504D02*X176378Y92126D01*
G54D12*Y94882D01*
G54D14*X162402Y96850D02*Y100787D01*
Y91732D02*Y92323D01*
X158858Y101181D02*Y101772D01*
X162402Y105906D02*Y105315D01*
G54D13*X158858Y101772D02*X162402Y105315D01*
X156693Y101181D02*X158858D01*
X155512Y105906D02*X158858D01*
X155512Y102362D02*X156693Y101181D01*
G54D14*X158858Y96457D02*Y95866D01*
G54D13*X162402Y92323D01*
G54D14*X155906Y98819D02*X162402D01*
G54D13*X155512Y95276D02*X156693Y96457D01*
X158858D01*
X155512Y91732D02*X158858D01*
G54D14*X162402Y126378D02*Y122441D01*
X155709Y124409D02*X162402D01*
X158858Y122047D02*Y121457D01*
X162402Y117323D02*Y117913D01*
G54D13*X158858Y121457D02*X162402Y117913D01*
X155512Y117323D02*X158858D01*
X162402D02*X164173D01*
X164961Y118110D01*
X162402Y110630D02*Y113976D01*
X158858Y110630D02*X156102D01*
G54D14*X158858Y126772D02*Y127362D01*
X162402Y131496D02*Y130906D01*
G54D13*X158858Y127362D02*X162402Y130906D01*
X155512Y131496D02*X158858D01*
X155512Y127953D02*X156693Y126772D01*
X158858D01*
G54D14*X162402Y136220D02*Y137008D01*
G54D13*X157283Y136220D02*X158858D01*
X160630Y138780D02*X162402Y137008D01*
X158268Y143504D02*X160630Y141142D01*
X156102Y141732D02*X158071Y139764D01*
X159252Y145079D02*X163189Y141142D01*
X160630D02*Y138780D01*
X163189Y141142D02*Y139764D01*
X164961Y118110D02*Y137992D01*
X163189Y139764D01*
X204724Y123228D02*X202756D01*
X200591Y125394D01*
X197638D01*
G54D16*X208268Y123228D02*Y120472D01*
G54D15*Y127165D02*Y127362D01*
G54D13*X228937Y120669D02*X226772D01*
X224606Y122835D02*Y129724D01*
X226772Y120669D02*X224606Y122835D01*
G54D12*X193701Y129134D02*X201575D01*
G54D13*X197638Y132874D02*X201181D01*
X202953Y131102D01*
G54D14*X204724Y127165D02*X203543D01*
X201575Y129134D01*
G54D15*X208268Y127362D02*X204724Y130906D01*
G54D14*X208268Y131102D02*Y131693D01*
G54D15*X204724Y130906D02*Y131102D01*
G54D13*X202953D02*X204724D01*
G54D14*X208268Y131693D02*X206496Y133465D01*
X205906D01*
X204724Y134646D01*
X205906Y138189D02*X206496Y138780D01*
G54D13*X213189D02*X221063D01*
G54D14*X206496D02*X209252D01*
X217323Y131890D02*X217126Y132087D01*
G54D13*X209252Y135236D02*X213189D01*
Y132480D01*
X213780Y131890D01*
G54D14*X217126Y132087D02*Y135236D01*
G54D13*X221063D02*X223031D01*
X223819Y134449D01*
X230709D01*
G54D14*X226181Y137598D02*Y140157D01*
G54D13*X230709Y134449D02*X232087Y135827D01*
Y137795D01*
G54D14*X226181Y140157D02*X226575Y140551D01*
X235039D01*
X236024Y139567D01*
Y131299D01*
G54D13*X239961Y134055D02*Y122835D01*
G54D14*X236024Y131299D02*X235039Y130315D01*
X232087D01*
G54D13*X226181Y131299D02*X222244D01*
X239961Y122835D02*X223031Y105906D01*
X216732D01*
X224606Y129724D02*X226181Y131299D01*
X228346Y92913D02*X234055D01*
X234449Y92520D02*Y90354D01*
X234055Y92913D02*X234449Y92520D01*
G54D14*X222835Y89961D02*X227559D01*
G54D15*X222638Y92520D02*X225197D01*
G54D14*X227559Y89961D02*X227953Y90354D01*
X230906D01*
G54D15*X219882Y92126D02*X224016Y94882D01*
X226378D01*
X228346Y92913D01*
G54D13*X211024Y93110D02*X201772D01*
X200984Y92323D01*
Y87795D01*
G54D15*X220866Y89961D02*Y91339D01*
X222638Y92520D01*
X216929Y89961D02*Y91732D01*
X217323Y92126D01*
X219882D01*
G54D13*X216732Y105906D02*X211811Y100984D01*
Y93898D01*
X211024Y93110D01*
G54D12*X110236Y146260D02*Y158858D01*
G54D13*X99606Y144094D02*X100984Y145472D01*
G54D12*X105709Y152756D02*X114567D01*
X105512Y147835D02*X114764D01*
G54D13*X102165Y142126D02*X104528Y144488D01*
X115945D02*X118701Y141732D01*
X119488Y144488D02*X120472Y143504D01*
X122638Y146063D02*X123622Y145079D01*
G54D14*X134252Y129724D02*X151181D01*
G54D13*X134252Y133268D02*X143110D01*
G54D14*X143307Y133465D01*
G54D13*Y136614D01*
X142717Y137205D01*
X138189Y133268D02*Y137402D01*
X131299D02*X134646D01*
X118701Y141732D02*X156102D01*
X117520Y139961D02*X153543D01*
X129724Y131102D02*X127362Y133465D01*
X131496Y132874D02*X130906Y133465D01*
G54D14*X109252Y129724D02*X126181D01*
X118110Y133268D02*X118307Y133465D01*
G54D13*X122244D01*
X118110Y133268D02*X109252D01*
X113189D02*Y137402D01*
X109646D02*X108071D01*
X106496Y138976D01*
G54D14*X122244Y137205D02*X126181D01*
G54D13*X116535Y138976D02*X117520Y139961D01*
G54D14*X122244Y124213D02*X126181D01*
G54D13*X118110Y120276D02*X109252D01*
X106299Y124409D02*X109646D01*
G54D14*X147244Y124213D02*X151181D01*
G54D13*X138189Y113386D02*X138976Y114173D01*
G54D14*X134252Y116732D02*X139961D01*
X142717D02*X151181D01*
G54D13*X138976Y114173D02*X140945D01*
G54D14*X139961Y116732D02*X140354Y117126D01*
X142323D01*
X142717Y116732D01*
G54D13*X140945Y114173D02*X141339Y114567D01*
X129724D02*Y131102D01*
X134646Y124409D02*X131496Y127559D01*
Y132874D01*
X120472Y143504D02*X158268D01*
X123622Y145079D02*X159252D01*
G54D14*X146260Y137205D02*X151181D01*
G54D13*X153543Y139961D02*X157283Y136220D01*
G54D15*X96260Y105709D02*X96654Y106102D01*
X98622D01*
G54D13*Y110039D02*X99803D01*
X102559Y112795D01*
G54D14*X105315Y107087D02*Y110630D01*
X109252Y114567D01*
G54D13*X134646Y111417D02*X132874D01*
X129724Y114567D01*
G54D12*X131496Y77992D02*X138937Y85433D01*
G54D14*X142323Y78937D02*X143898Y80512D01*
Y85433D01*
G54D13*X149803Y78937D02*Y79921D01*
X146850Y82874D01*
G54D12*X138937Y85433D02*X140354D01*
X147835Y86614D02*X145079D01*
X147835D02*X149016Y85433D01*
X152165D01*
G54D14*X143898D02*X145079Y86614D01*
G54D12*X140354Y85433D02*X139173Y86614D01*
Y91929D01*
G54D14*X151181Y103740D02*Y100197D01*
G54D12*X148622Y90551D02*X145866D01*
X144488Y91929D01*
X142717D01*
X127165Y92913D02*X125984Y91732D01*
Y91339D01*
G54D13*X116535Y76969D02*Y83031D01*
X121496Y87992D01*
X107165Y83661D02*X111496Y87992D01*
X107205Y82283D02*X111496Y77992D01*
X76378Y103937D02*X83465D01*
X87205Y107677D01*
X74803Y108661D02*X76969Y106496D01*
X64961Y92520D02*X76378Y103937D01*
X85827Y95079D02*Y102559D01*
X81299Y99016D02*X83071Y100787D01*
X79331Y87992D02*Y100787D01*
X81299Y87992D02*Y99016D01*
X85827Y102559D02*X87402Y104134D01*
G54D14*X89567Y95866D02*X93110D01*
X88583Y96850D02*X89567Y95866D01*
X86220Y77362D02*Y74016D01*
G54D13*X75394Y82283D02*X80512Y77165D01*
Y74213D01*
X80709Y74016D01*
X74016Y70866D02*X77165Y74016D01*
X76181Y69488D02*X77165Y70472D01*
G54D14*X92126Y72244D02*X87992D01*
X86220Y74016D01*
G54D13*X97047Y72441D02*X98425Y73819D01*
X113386D01*
X116535Y76969D01*
X97244Y83661D02*X107165D01*
X99606Y82283D02*X107205D01*
X96654Y75787D02*Y79331D01*
X99606Y82283D01*
G54D14*X155709Y44488D02*X155531Y44665D01*
Y50984D01*
X142323Y42717D02*X145669D01*
G54D13*X149213D02*X145531Y46398D01*
Y50984D01*
G54D14*X140354Y50807D02*X140531Y50984D01*
X135433Y42717D02*X138780D01*
Y44488D01*
X140354Y46063D01*
Y50807D01*
G54D13*X152756Y42717D02*X150531Y44941D01*
Y50984D01*
G54D14*X115354Y59843D02*X116142Y60630D01*
Y63189D01*
G54D13*X120079D02*Y60630D01*
X119291Y59843D01*
X120079Y66732D02*X112205D01*
X107087Y70079D02*X123031D01*
X124016Y69094D01*
Y66732D01*
X107087Y67323D02*Y70079D01*
X106102Y66339D02*X107087Y67323D01*
X104921Y66339D02*X106102D01*
X124016Y63189D02*X131890D01*
G54D14*X127953Y70079D02*Y66732D01*
G54D13*X131890Y66736D02*X133657D01*
X134646Y65748D01*
Y51181D01*
X145531Y71457D02*Y76437D01*
X146260Y77165D01*
Y78937D01*
X150531Y71457D02*Y76122D01*
X150984Y76575D01*
X153346D01*
X153740Y76969D01*
Y78937D01*
G54D14*X140531Y71457D02*Y75413D01*
X138780Y77165D01*
Y78937D01*
X136024Y74409D02*X138780Y77165D01*
G54D12*X131496Y87992D02*X134449Y90945D01*
Y97047D01*
X132283Y99213D01*
X129331D01*
Y95669D02*Y93504D01*
X128740Y92913D01*
X127165D01*
X140748Y97047D02*X143504D01*
X144685Y98228D01*
X143504Y97047D02*X144685Y95472D01*
Y98228D01*
G54D13*X109449Y102559D02*X110827Y103937D01*
G54D14*X129331Y103150D02*X127165D01*
X126378Y102362D01*
X113976D01*
X122638D02*Y97638D01*
X134252Y103740D02*X151181D01*
X148228Y111220D02*X151181D01*
G54D13*X156102Y110630D02*X152953Y107480D01*
X148819D01*
X145669Y110630D01*
G54D14*X109252Y116732D02*X126181D01*
X118110Y120276D02*X118307Y120472D01*
G54D13*X113189Y120276D02*Y124409D01*
G54D14*X113976Y97638D02*Y107480D01*
G54D13*X110827Y103937D02*Y108071D01*
X115354Y110039D02*X118307Y107087D01*
Y120472D02*X122244D01*
X129331Y106693D02*X127362D01*
X126969Y107087D01*
X112795Y110039D02*X115354D01*
X118307Y107087D02*X126969D01*
X134252Y120276D02*X143110D01*
G54D14*X143307Y120472D01*
G54D13*X138189Y120276D02*Y124409D01*
G54D14*X145866Y113583D02*X148228Y111220D01*
G54D13*X145669Y110630D02*X142126D01*
X147244Y120472D02*X143307D01*
X134252Y107283D02*X143110D01*
G54D14*X143307Y107480D01*
G54D13*X138189Y107283D02*Y111417D01*
Y113386D01*
X142126Y110630D02*X141535Y111220D01*
X93898Y132874D02*Y138976D01*
G54D14*X97441Y135236D02*Y138976D01*
X102559D01*
Y135236D01*
X97441D01*
G54D13*X90945Y136024D02*X89961Y137008D01*
X97047Y125591D02*X97835Y126378D01*
X93110Y125394D02*Y128150D01*
X95276Y130315D01*
X97835D01*
G54D14*X102559Y116339D02*Y120276D01*
X105315D01*
X105906Y120866D01*
X109252Y114567D02*Y116732D01*
G54D13*X89961Y137008D02*Y138976D01*
X72047Y138583D02*Y137598D01*
X73425Y136417D01*
X67520Y133268D02*Y136220D01*
X68701Y137402D01*
Y138976D01*
Y144291D02*X70866Y142126D01*
X69488Y127756D02*Y133268D01*
X73425Y136417D02*Y130315D01*
X73031Y129921D01*
X71457Y130709D02*Y133268D01*
X71260Y130512D02*X71457Y130709D01*
X70866Y142126D02*X102165D01*
G54D12*X62992Y146457D02*Y159252D01*
X58465Y152953D02*X67323D01*
X58268Y147638D02*X67323D01*
G54D13*X76575Y144882D02*X77362Y144094D01*
X79331Y147047D02*X80512Y145866D01*
X96457D01*
X97441Y146850D01*
X77362Y144094D02*X99606D01*
X61614Y128346D02*X59646Y130315D01*
Y133268D01*
X61614D02*Y130709D01*
X63386Y128937D01*
X65551Y133268D02*Y124213D01*
X65945Y123819D01*
X68307Y121260D02*X71260Y124213D01*
X63386Y128937D02*Y112992D01*
X68307Y126575D02*X69488Y127756D01*
X71260Y124213D02*Y130512D01*
X73031Y129921D02*Y110827D01*
X68307Y117717D02*Y108661D01*
G54D14*X47835Y95866D02*X44488D01*
Y91339D01*
G54D13*X48031Y85827D02*Y71260D01*
X48425Y70866D01*
X46260Y86614D02*Y70669D01*
X47441Y69488D01*
G54D14*X44488Y91339D02*X42126D01*
Y88189D01*
X42323Y87992D01*
X47835Y97835D02*X42717D01*
X42323Y98228D02*X42126Y98031D01*
G54D13*X53346Y99016D02*X52559Y99803D01*
G54D14*X42717Y97835D02*X42323Y98228D01*
G54D13*X52559Y99803D02*X47835D01*
G54D14*X42126Y98031D02*Y94882D01*
G54D13*X56201Y93996D02*X48031Y85827D01*
X55709Y87992D02*Y79724D01*
X47835Y111614D02*X44882D01*
X47835Y113583D02*X44488D01*
X43701Y109055D02*X42126D01*
X44488Y113583D02*X43898Y112992D01*
X42126D01*
X43701Y109055D02*X44291Y109646D01*
Y111024D01*
X44882Y111614D01*
G54D14*X55709Y79724D02*X56299Y79134D01*
G54D13*X67520Y87992D02*Y85354D01*
X61299Y79134D01*
X57677Y87992D02*Y84252D01*
X58858Y83071D01*
X73425Y87992D02*Y81890D01*
X75394Y87992D02*Y82283D01*
X77362Y87992D02*Y84055D01*
X80512Y80906D01*
X48425Y70866D02*X74016D01*
X47441Y69488D02*X76181D01*
X47835Y105709D02*X50787D01*
X52165Y104331D01*
X73031Y110827D02*X56102Y93898D01*
X68307Y108661D02*X46260Y86614D01*
X47835Y107677D02*X50787D01*
X52165Y109055D01*
X42323Y102165D02*X42126Y102362D01*
Y105512D01*
G54D14*X92126Y82283D02*X90157Y84252D01*
X98622Y95079D02*X99803D01*
X101378Y93504D01*
X90157Y84252D02*X86220D01*
X88583Y100787D02*Y96850D01*
G54D13*X97244Y83661D02*X85827Y95079D01*
G54D15*X96457Y103346D02*Y98819D01*
X96654Y98622D01*
X98622D01*
G54D13*X100394D01*
X101378Y97638D01*
X105315D01*
G54D14*X101378Y93504D02*X109843D01*
X113976Y97638D01*
G54D15*X93110Y103740D02*X96063D01*
X96457Y103346D01*
X93110Y105709D02*X96260D01*
G54D13*X98622Y102559D02*X109449D01*
G54D15*X93110Y107677D02*X95866D01*
X96457Y108268D01*
Y109843D01*
X96654Y110039D01*
X98622D01*
G54D13*X110827Y108071D02*X112795Y110039D01*
G54D14*X85236Y87992D02*Y85236D01*
X83268Y83071D02*Y87992D01*
X85236Y85236D02*X86220Y84252D01*
Y80906D01*
Y77362D02*X83071D01*
Y82874D01*
X83268Y83071D01*
G54D13*X73425Y81890D02*X76575Y78740D01*
Y77559D01*
G54D12*X79921Y55118D02*X75000D01*
X71654Y58465D01*
Y62205D01*
Y66142D02*X79331D01*
X81102Y64370D01*
X74803Y59646D02*X75591Y60433D01*
Y62205D01*
G54D14*X92126Y79331D02*Y82283D01*
X99213Y62598D02*Y66339D01*
G54D13*X103150Y60827D02*Y64567D01*
X104921Y66339D01*
X107087Y62598D02*X110236D01*
X110827Y63189D01*
X112205D01*
G54D14*X94862Y55118D02*X97441D01*
X109862D02*X107087Y57894D01*
G54D13*Y62598D01*
X97441Y55118D02*X103150Y60827D01*
G54D12*X88583Y62992D02*X89961Y64370D01*
X92913D01*
X88583Y65748D02*X89961Y64370D01*
X88583Y62992D02*Y65748D01*
G54D14*X93110Y119488D02*X95669D01*
X97244Y121063D01*
X98622Y113583D02*Y117520D01*
G54D13*X93110Y109646D02*X85630D01*
G54D14*X98622Y121063D02*Y123228D01*
X99213Y123819D01*
X102559D01*
Y128937D01*
X89173Y117520D02*X98622D01*
X97244Y121063D02*X98622D01*
G54D13*X93110Y123425D02*X96457D01*
X97047Y124016D01*
Y125591D01*
G54D14*X55709Y133268D02*Y136024D01*
X54331Y137402D01*
Y138976D01*
X57677Y136614D02*X57874Y136811D01*
Y138976D01*
G54D13*X63583Y133268D02*Y136614D01*
X63780Y136811D01*
X64961D01*
X65354Y137205D01*
Y138976D01*
G54D14*X61811D02*X57874D01*
X57677Y136614D02*Y129134D01*
G54D13*X55118Y126378D02*X58268D01*
X60039Y124606D01*
G54D14*X57677Y129134D02*X57480Y128937D01*
G54D13*X55118Y128346D02*Y126378D01*
G54D14*X81299Y133268D02*Y136024D01*
X83268Y136220D02*Y130512D01*
X88189Y134449D02*Y135039D01*
X86417Y136811D01*
X81299Y136024D02*X80512Y136811D01*
X83268Y136220D02*X82874Y136614D01*
Y138386D01*
X82283Y138976D01*
X86417D02*X82283D01*
X86417Y136811D02*Y138976D01*
G54D13*X90945Y132480D02*Y136024D01*
G54D14*X83268Y130512D02*X81693Y128937D01*
X80906D01*
G54D13*X85236Y133268D02*Y129528D01*
X81102Y125394D01*
G54D14*X80512Y136811D02*X78937D01*
X78740Y137008D01*
Y138976D01*
X75394D02*X78740D01*
G54D13*X77362Y128150D02*Y133268D01*
X81102Y125394D02*X74803D01*
X75394Y132677D02*Y129921D01*
X74803Y129331D01*
X82480Y106496D02*X79921Y109055D01*
X85630Y109646D02*X82480Y106496D01*
X84055Y111614D02*X82480Y110039D01*
X79921Y121457D02*X90945Y132480D01*
X82480Y121457D02*X93898Y132874D01*
X93110Y121457D02*X87008D01*
X79921Y109055D02*Y121457D01*
X84055Y115551D02*X82480Y117126D01*
Y121457D01*
X74803Y129331D02*Y108661D01*
X87205Y107677D02*X93110D01*
Y111614D02*X84055D01*
X93110Y113583D02*X82480D01*
X93110Y115551D02*X84055D01*
G54D14*X88583Y118110D02*X89173Y117520D01*
G54D13*X87008Y121457D02*X86024Y120472D01*
X58465Y120276D02*X55709Y117520D01*
X60039Y119488D02*X56102Y115551D01*
X60039Y124606D02*Y119488D01*
X53346Y124803D02*X57480D01*
X58465Y123819D01*
Y120276D01*
G54D14*X55906Y122244D02*X55315Y122835D01*
G54D13*X59252Y114961D02*X61614Y117323D01*
Y128346D01*
X53346Y127756D02*Y124803D01*
X42126Y134449D02*X49016D01*
X42126Y137992D02*X45866D01*
X46260Y138386D01*
X42126Y130512D02*X43701D01*
X45472Y132283D01*
X48819D01*
X47835Y125394D02*X45079D01*
X44685Y125787D02*Y127756D01*
X45079Y125394D02*X44685Y125787D01*
X43307Y123425D02*X42126Y124606D01*
Y126969D01*
X43307Y119882D02*X42126Y118701D01*
Y116535D01*
X44685Y127756D02*X46654Y129724D01*
X55709Y117520D02*X47835D01*
X56102Y115551D02*X47835D01*
X49016Y134449D02*X55118Y128346D01*
X48819Y132283D02*X53346Y127756D01*
X50000Y127953D02*X49606D01*
G54D14*X52559Y134843D02*X54724Y137008D01*
X47835Y119488D02*X52756D01*
X53346Y120079D01*
X47835Y121457D02*X50984D01*
X52362Y122835D01*
X55315D01*
G54D13*X47835Y123425D02*X50591D01*
X51575Y124409D01*
Y126378D01*
X50000Y127953D01*
G54D17*X204724Y223228D02*Y265157D01*
G54D12*Y275591D01*
X196850Y275000D02*Y267126D01*
X175394Y236417D02*X200197D01*
X175394Y258071D02*Y236417D01*
G54D14*X164567Y245472D02*Y249803D01*
X165945Y282087D02*X167126Y283268D01*
X164567Y259843D02*X166142Y261417D01*
G54D12*X184055Y212402D02*X225394D01*
Y233071D01*
G54D13*X212598Y192717D02*Y199409D01*
X208661Y204134D02*Y199409D01*
X216535Y192323D02*Y199409D01*
X202756Y194882D02*X204724Y196850D01*
Y204134D01*
X202756Y187992D02*Y189961D01*
X212205Y189370D02*X213583D01*
X216535Y192323D01*
X208661Y189370D02*X209055Y189764D01*
Y192717D01*
G54D17*X171063Y233661D02*Y211614D01*
G54D14*X164567Y224409D02*Y228740D01*
G54D12*X184055Y233071D02*Y212402D01*
X185039Y195472D02*Y203150D01*
X175787Y206890D02*X177165Y205512D01*
Y199409D01*
G54D13*X181496Y194685D02*X179921D01*
X177165Y197441D01*
G54D14*Y199803D01*
G54D13*X194882Y193504D02*Y194882D01*
X196850Y196850D01*
Y199409D01*
X192913Y204134D02*Y199409D01*
X198819Y193504D02*Y194882D01*
X200787Y196850D01*
Y199409D01*
X202756Y193504D02*Y194882D01*
X201378Y186614D02*X202756Y187992D01*
X197638Y186614D02*X198819Y187795D01*
Y189961D01*
X187598Y186614D02*X190157D01*
X194882Y187598D02*Y189961D01*
X190157Y186614D02*X190945Y187402D01*
Y189961D01*
G54D17*X78740Y223228D02*Y265157D01*
G54D12*X108071Y236417D02*X83268D01*
Y258071D02*X108071D01*
X99409Y212402D02*Y233071D01*
G54D17*X43701Y237598D02*Y233465D01*
G54D12*X49409Y236417D02*X74213D01*
G54D17*X43701Y233465D02*Y212008D01*
G54D12*X58071Y233071D02*Y212402D01*
X49409Y258071D02*Y236417D01*
Y258071D02*X74213D01*
G54D14*X118898Y245472D02*Y249803D01*
Y259843D02*X117323Y261417D01*
X118898Y224409D02*Y228740D01*
G54D12*X78740Y265157D02*Y275591D01*
X70866Y266535D02*Y275591D01*
X51181Y266535D02*Y275591D01*
X59055Y271063D02*Y266929D01*
X62992Y271063D02*Y266732D01*
X66929Y271063D02*Y266732D01*
X86614Y266339D02*Y275591D01*
X90551Y271063D02*Y266929D01*
X94488Y271063D02*Y266732D01*
G54D14*X81890Y275984D02*Y279134D01*
X84843D01*
G54D12*X106299Y266535D02*Y275591D01*
X98425Y271063D02*Y266732D01*
G54D14*X97638Y275984D02*Y282087D01*
X94685Y279134D02*X100591D01*
X117913Y279528D02*Y281693D01*
X116339Y283268D01*
X91339Y279134D02*Y283268D01*
X75591Y275984D02*Y282283D01*
X78543Y279331D02*X72441D01*
G54D15*X61516Y286024D02*Y289567D01*
X65256Y278937D02*Y275197D01*
Y286024D02*Y283366D01*
X64370Y282480D01*
X55906Y280118D02*X58661D01*
X59252Y280709D01*
Y281890D01*
X59843Y282480D01*
X64370D02*X59843D01*
X61516Y278937D02*Y282480D01*
G54D14*X50000Y280118D02*X44094D01*
G54D17*X43701Y212008D02*X49213Y206496D01*
G54D12*X51181Y204528D01*
Y199213D01*
X59055Y194685D02*Y204134D01*
G54D14*X51181Y199409D02*Y197441D01*
G54D13*X53937Y194685D01*
X55512D01*
G54D12*X94488Y204134D02*Y194882D01*
X98425Y192717D02*X94488D01*
G54D17*X112402Y212205D02*X107677Y207480D01*
G54D14*X101969Y204134D02*X106299D01*
G54D13*X88386Y189961D02*Y186811D01*
G54D14*X78740Y199409D02*Y204134D01*
G54D13*X80906Y186614D02*X80512Y187008D01*
Y189961D01*
X88386Y186811D02*X88189Y186614D01*
X69882Y189370D02*X66535Y192717D01*
X73622Y189370D02*X74409Y190157D01*
Y192717D01*
G54D12*X58071Y212402D02*X99409D01*
X131043Y205768D02*X134252D01*
G54D14*X145472Y219291D02*Y210827D01*
X142126Y214961D02*X149016D01*
X138189Y215157D02*X138386Y214961D01*
G54D12*X164567Y207283D02*Y210630D01*
Y207874D02*X160827Y211614D01*
X166339Y209055D02*Y212598D01*
X160827Y211614D02*X166339D01*
X160827D02*Y212598D01*
X162205Y213976D01*
Y212992D01*
X164961D02*X163583Y211614D01*
X164567Y210630D02*X162205Y212992D01*
X164961Y213976D02*X162205D01*
X166339Y212598D02*X164961Y213976D01*
Y212992D01*
G54D14*X129921Y215157D02*X138189D01*
G54D12*X109055Y194882D02*Y192126D01*
X108465Y192717D02*X109055Y192126D01*
X118307Y195472D02*Y191339D01*
Y195472D02*X113386D01*
X118307D02*Y197244D01*
X116535Y199016D01*
X119882Y200197D02*Y202953D01*
X118307Y214961D02*X118110Y215157D01*
G54D17*X112402Y233465D02*Y212205D01*
G54D12*X118110Y207480D02*X118307Y207283D01*
X118110Y207480D02*Y219882D01*
X117323Y220669D01*
X120079D01*
X118307Y214961D02*Y204528D01*
X119882Y202953D01*
G54D14*X239370Y285236D02*Y275197D01*
Y280118D02*X235827D01*
G54D12*X232283Y275000D02*Y267323D01*
X234055Y258071D02*Y236417D01*
G54D17*X239764Y237795D02*Y233661D01*
G54D14*X185827Y275787D02*Y282283D01*
G54D12*X192913Y271063D02*Y267126D01*
X188976Y271063D02*Y267520D01*
X185039Y271063D02*Y267520D01*
G54D14*X182677Y279134D02*X188780D01*
X165945Y279528D02*Y282087D01*
X192126Y283268D02*Y279134D01*
X201575D02*X198425D01*
G54D12*X175394Y258071D02*X200197D01*
G54D17*X171063Y237795D02*Y233661D01*
G54D12*X212598Y275197D02*Y267126D01*
X216535Y271063D02*Y267126D01*
X220472Y271063D02*Y267520D01*
X224409Y271063D02*Y267520D01*
G54D15*X224213Y280118D02*X227559D01*
G54D12*X234055Y236417D02*X209252D01*
Y258071D02*X234055D01*
G54D14*X205118Y279134D02*X211024D01*
X207874Y275984D02*Y282480D01*
X201575Y279134D02*Y275984D01*
G54D15*X218209Y278937D02*Y280807D01*
X215945Y283071D01*
X218209Y283169D02*X218898Y282480D01*
X221850Y286122D02*X221949Y286024D01*
X221260Y282480D02*X218898D01*
X222096Y285876D02*Y284006D01*
X221850Y289173D02*Y286122D01*
Y289173D02*X218307Y292717D01*
X221949Y278937D02*Y281791D01*
X221260Y282480D01*
X222096Y284006D02*X224213Y281890D01*
Y280118D01*
X218307Y292717D02*X216339D01*
X214961Y291339D01*
Y289370D01*
X218209Y289469D02*X217323Y290354D01*
X214961Y289370D02*X215945Y288386D01*
Y283071D01*
X218209Y283169D02*Y289469D01*
G54D14*X144882Y268110D02*Y260827D01*
Y264370D02*X148228D01*
X165945Y269094D02*Y272047D01*
X169094D01*
G54D12*X177165Y275394D02*Y266929D01*
G54D14*X149606Y280315D02*Y270669D01*
X138583Y264370D02*Y267913D01*
Y264370D02*Y260827D01*
Y264370D02*X135236D01*
X118898Y241929D02*Y235827D01*
Y256890D02*Y259843D01*
X133858Y275394D02*Y280118D01*
Y275394D02*Y270866D01*
Y275394D02*X129724D01*
X133858D02*X137992D01*
X164567Y256890D02*Y259843D01*
Y235827D02*Y241929D01*
X145079Y275394D02*X153937D01*
X117323Y275787D02*X125787D01*
X166142D02*X158071D01*
G54D17*X112402Y237598D02*Y233465D01*
G54D12*X108071Y258071D02*Y236417D01*
G54D14*X117717Y269094D02*Y272047D01*
X114567D01*
G54D12*X131043Y205768D02*X127559D01*
X127953Y200768D02*X134449D01*
X127756Y195768D02*X134449D01*
X107677Y206693D02*X106299Y205315D01*
Y199213D01*
X110236Y171850D02*Y188976D01*
X105709Y184252D02*X114567D01*
X105512Y177756D02*X114764D01*
X106890Y192717D02*X109055Y194882D01*
X98425Y204134D02*Y188780D01*
X104724Y192717D02*X106890D01*
X104724D02*X108465D01*
G54D13*X91732Y165354D02*X133268D01*
G54D12*X62992Y172047D02*Y189370D01*
X58465Y184449D02*X67323D01*
X58268Y177953D02*X67520D01*
G54D13*X62992Y199409D02*Y192717D01*
X70866Y199409D02*Y192717D01*
X66929Y199409D02*Y204134D01*
X86614Y199409D02*Y197047D01*
X88386Y195276D01*
Y193504D01*
G54D14*X82677Y199409D02*Y204134D01*
G54D15*X84449Y195669D02*Y193504D01*
G54D13*X90551Y195669D02*Y199409D01*
X84449Y186614D02*Y189961D01*
X91732Y186614D02*Y194488D01*
X90551Y195669D01*
X80512Y193504D02*X78740D01*
X76969Y195276D01*
G54D15*X78740Y196654D02*X79724Y195669D01*
G54D13*X76969Y195276D02*X75591D01*
X74803Y196063D01*
Y199409D01*
G54D15*X78740D02*Y196654D01*
X79724Y195669D02*X84449D01*
G54D12*X164567Y207283D02*X166339Y209055D01*
X164567Y207283D02*Y207874D01*
X173228Y146457D02*Y159252D01*
G54D14*X135433Y192717D02*Y189764D01*
X134055Y188386D01*
G54D13*Y186614D01*
Y181496D01*
X131693Y187402D02*Y181496D01*
X131043Y190768D02*X128366D01*
X127756Y190157D01*
Y189173D01*
X128543Y188386D01*
X130709D01*
X131693Y187402D01*
X137598Y181890D02*Y183858D01*
X136811Y180315D02*X135236D01*
X134055Y181496D01*
X131693D02*X135236Y177953D01*
Y168898D02*X135827Y168307D01*
Y162598D01*
Y168307D02*X141732D01*
X143898Y164764D02*X144685Y165551D01*
X138386Y165354D02*X139567Y164173D01*
G54D14*X135827Y162598D02*X136024Y162402D01*
G54D13*X145472Y156496D02*Y158858D01*
X137992Y156496D02*Y158858D01*
X139567Y160433D01*
X145472Y158858D02*X143898Y160433D01*
Y164764D02*Y160433D01*
G54D14*X141732Y148622D02*Y151772D01*
X138780Y148622D02*X144882D01*
G54D13*X139567Y160433D02*Y164173D01*
X144685Y171063D02*Y165551D01*
X147441Y162402D02*Y171063D01*
X137992Y176181D02*Y179134D01*
X136811Y180315D01*
X141732Y177756D02*X137598Y181890D01*
X135236Y177953D02*Y168898D01*
G54D14*X142520Y179921D02*Y186024D01*
Y182874D02*X145472D01*
G54D12*X148819D02*Y178937D01*
X138189Y189173D02*X150787D01*
X148819Y178937D02*X149016Y178740D01*
Y176378D01*
X150000D01*
X151181Y177559D01*
X150197Y178543D01*
X148819D01*
G54D13*X141732Y174016D02*Y177756D01*
Y174016D02*X144685Y171063D01*
X147441D02*X145472Y173031D01*
Y176181D01*
G54D12*X220472Y195669D02*Y202953D01*
X224409Y190354D02*Y202953D01*
Y192717D02*X221260D01*
X232283Y204724D02*Y199409D01*
G54D14*X228346Y204134D02*X232283D01*
G54D17*X239764Y212205D02*X234252Y206693D01*
X239764Y233661D02*Y212205D01*
G54D12*X234252Y206693D02*X232283Y204724D01*
X220472Y171654D02*Y189567D01*
Y146260D02*Y159252D01*
X215945Y184055D02*X224803D01*
X215748Y177559D02*X225000D01*
X215945Y152756D02*X224803D01*
X215748Y146260D02*X225000D01*
X235039Y192126D02*X234449Y192717D01*
X230709D01*
X235039Y194882D02*X232874Y192717D01*
X230709D01*
X235039Y192126D02*Y194882D01*
G54D13*X190945Y193504D02*Y194882D01*
X188976Y196850D01*
Y199409D01*
G54D17*X171063Y211614D02*X175787Y206890D01*
G54D12*X173228Y171850D02*Y189764D01*
X168701Y184252D02*X177559D01*
X168504Y177756D02*X177756D01*
X168701Y152953D02*X177559D01*
X168504Y148819D02*X177756D01*
X164567Y199213D02*Y192126D01*
X159646Y195472D02*X169094D01*
X152559Y190768D02*X155709D01*
X152559Y195768D02*X155709D01*
X152559Y200768D02*X155709D01*
X152559Y205768D02*X155709D01*
G54D13*X193898Y186614D02*X194882Y187598D01*
X212205Y165354D02*X150000D01*
G54D18*X228937Y102953D03*
Y120669D03*
G54D19*X219094Y98031D03*
Y125591D03*
G54D20*X203150Y291339D03*
X183465D03*
X156496D03*
X100000D03*
X80315D03*
G54D21*X146732Y248543D03*
X136732D03*
Y232559D03*
X146732D03*
G54D20*X126969Y291339D03*
G54D11*G36*
X128346Y91142D02*Y84843D01*
X134646D01*
Y91142D01*
X128346D01*
G37*
G54D22*X121496Y87992D03*
X111496D03*
X101496D03*
X131496Y77992D03*
X121496D03*
X111496D03*
X101496D03*
G54D23*X94862Y55118D03*
X109862D03*
X124862D03*
G54D22*X164961Y44291D03*
X197244D03*
G54D24*X171555Y56417D03*
X190650D03*
G54D23*X79862Y55118D03*
G54D11*G36*
X49246Y76198D02*Y72064D01*
X53380D01*
Y76198D01*
X49246D01*
G37*
G54D25*X51313Y79131D03*
X56313Y74131D03*
Y79131D03*
X61313Y74131D03*
Y79131D03*
X66313Y74131D03*
Y79131D03*
X71313Y74131D03*
Y79131D03*
G54D26*X138386Y215551D02*Y214370D01*
X118110Y216437D02*Y213878D01*
X129921Y216437D02*Y213878D01*
X145472Y215551D02*Y214370D01*
G54D27*X151476Y205768D02*X153642D01*
G54D28*X78740Y200689D02*Y198130D01*
X82677Y200689D02*Y198130D01*
G54D29*X84449Y189965D02*Y189957D01*
Y193508D02*Y193500D01*
X80512Y193508D02*Y193500D01*
Y189965D02*Y189957D01*
G54D28*X86614Y200689D02*Y198130D01*
G54D29*X88386Y193508D02*Y193500D01*
Y189965D02*Y189957D01*
G54D28*X90551Y200689D02*Y198130D01*
X94488Y200689D02*Y198130D01*
X98425Y200689D02*Y198130D01*
X102362Y200689D02*Y198130D01*
G54D30*X98425Y192815D02*Y192618D01*
G54D31*X110236Y185433D02*Y176378D01*
G54D28*X106299Y200689D02*Y198130D01*
G54D30*X104724Y192815D02*Y192618D01*
G54D26*X117028Y207283D02*X119587D01*
X117028Y195472D02*X119587D01*
G54D27*X129803Y205768D02*X132283D01*
X129803Y200768D02*X132283D01*
X129803Y195768D02*X132283D01*
X129803Y190768D02*X132283D01*
G54D32*X145000Y199705D02*Y196831D01*
G54D33*X141083Y203661D02*Y202205D01*
Y194331D02*Y192874D01*
G54D27*X151476Y190768D02*X153642D01*
X151476Y195768D02*X153642D01*
X151476Y200768D02*X153642D01*
G54D33*X148957Y203661D02*Y202205D01*
Y194331D02*Y192874D01*
G54D30*X148819Y182972D02*Y182776D01*
X142520Y182972D02*Y182776D01*
G54D29*X137594Y183858D02*X137602D01*
X134051D02*X134059D01*
G54D34*X137992Y176378D02*Y175984D01*
G54D29*X147437Y162402D02*X147445D01*
X143894D02*X143902D01*
X139563D02*X139571D01*
X136020D02*X136028D01*
G54D34*X145472Y176378D02*Y175984D01*
X141732Y168504D02*Y168110D01*
G54D29*X82280Y138976D02*X82287D01*
X78736D02*X78744D01*
X86413D02*X86421D01*
X89957D02*X89965D01*
G54D35*X121850Y107087D02*X123425D01*
X104528D02*X106102D01*
X104528Y97638D02*X106102D01*
X121850D02*X123425D01*
G54D31*X62992Y185433D02*Y176378D01*
Y154331D02*Y145276D01*
G54D28*Y200689D02*Y198130D01*
X66929Y200689D02*Y198130D01*
G54D29*X62988Y192717D02*X62996D01*
X66531D02*X66539D01*
G54D28*X70866Y200689D02*Y198130D01*
X74803Y200689D02*Y198130D01*
G54D29*X74406Y192717D02*X74413D01*
X70862D02*X70870D01*
X61807Y138976D02*X61815D01*
X57870D02*X57878D01*
X54327D02*X54335D01*
X65350D02*X65358D01*
G54D36*X75394Y135039D02*Y131496D01*
X73425Y135039D02*Y131496D01*
X71457Y135039D02*Y131496D01*
X69488Y135039D02*Y131496D01*
X67520Y135039D02*Y131496D01*
X65551Y135039D02*Y131496D01*
X63583Y135039D02*Y131496D01*
X46063Y125394D02*X49606D01*
X46063Y123425D02*X49606D01*
X46063Y121457D02*X49606D01*
G54D29*X42126Y126972D02*Y126965D01*
Y130516D02*Y130508D01*
Y137996D02*Y137988D01*
Y134453D02*Y134445D01*
G54D36*X46063Y111614D02*X49606D01*
X46063Y109646D02*X49606D01*
X46063Y107677D02*X49606D01*
X46063Y105709D02*X49606D01*
X46063Y103740D02*X49606D01*
G54D29*X42126Y105516D02*Y105508D01*
Y109059D02*Y109051D01*
G54D36*X46063Y101772D02*X49606D01*
X46063Y99803D02*X49606D01*
X46063Y97835D02*X49606D01*
X46063Y95866D02*X49606D01*
G54D29*X42126Y94886D02*Y94878D01*
Y91343D02*Y91335D01*
G54D36*X46063Y119488D02*X49606D01*
X46063Y117520D02*X49606D01*
X46063Y115551D02*X49606D01*
X46063Y113583D02*X49606D01*
G54D29*X42126Y116539D02*Y116531D01*
Y112996D02*Y112988D01*
G54D37*X65256Y280118D02*Y277756D01*
Y287205D02*Y284843D01*
X61516Y287205D02*Y284843D01*
Y280118D02*Y277756D01*
G54D28*X62992Y272343D02*Y269783D01*
G54D26*X44094Y281398D02*Y278839D01*
X55906Y281398D02*Y278839D01*
G54D28*X59055Y272343D02*Y269783D01*
X55118Y272343D02*Y269783D01*
X51181Y272343D02*Y269783D01*
X106299Y272343D02*Y269783D01*
X102362Y272343D02*Y269783D01*
X98425Y272343D02*Y269783D01*
X94488Y272343D02*Y269783D01*
X90551Y272343D02*Y269783D01*
G54D30*X97638Y279232D02*Y279035D01*
X91339Y279232D02*Y279035D01*
G54D28*X51181Y200689D02*Y198130D01*
X55118Y200689D02*Y198130D01*
X59055Y200689D02*Y198130D01*
G54D38*X68799Y223228D02*X88681D01*
G54D39*X82579Y230906D02*X85630D01*
X82579Y223228D02*X85630D01*
X71850D02*X74902D01*
X93307Y230906D02*X96358D01*
X93307Y223228D02*X96358D01*
X61122Y230906D02*X64173D01*
X71850D02*X74902D01*
X61122Y223228D02*X64173D01*
X61122Y215551D02*X64173D01*
X82579D02*X85630D01*
X93307D02*X96358D01*
X71850D02*X74902D01*
G54D26*X118307Y228740D02*X119488D01*
G54D38*X60138Y247244D02*X64272D01*
G54D39*X70571Y254921D02*X71949D01*
X61516D02*X62894D01*
X61516Y247244D02*X62894D01*
X52461Y239567D02*X53839D01*
X52461Y254921D02*X53839D01*
X52461Y247244D02*X53839D01*
X70571D02*X71949D01*
X70571Y239567D02*X71949D01*
X61516D02*X62894D01*
G54D38*X93209Y247244D02*X97343D01*
G54D39*X85531Y254921D02*X86909D01*
X94587D02*X95965D01*
X94587Y247244D02*X95965D01*
X103642Y239567D02*X105020D01*
G54D26*X118307Y235827D02*X119488D01*
G54D39*X103642Y254921D02*X105020D01*
X103642Y247244D02*X105020D01*
X85531D02*X86909D01*
X85531Y239567D02*X86909D01*
X94587D02*X95965D01*
G54D28*X86614Y272343D02*Y269783D01*
X82677Y272343D02*Y269783D01*
X78740Y272343D02*Y269783D01*
X74803Y272343D02*Y269783D01*
G54D30*X81890Y279232D02*Y279035D01*
X75591Y279232D02*Y279035D01*
G54D28*X70866Y272343D02*Y269783D01*
X66929Y272343D02*Y269783D01*
G54D34*X117717Y279528D02*X118110D01*
X117717Y272047D02*X118110D01*
X125591Y275787D02*X125984D01*
G54D35*X133858Y275866D02*Y274921D01*
G54D34*X165748Y279528D02*X166142D01*
X157874Y275787D02*X158268D01*
G54D35*X149606Y275866D02*Y274921D01*
G54D34*X165748Y272047D02*X166142D01*
G54D30*X138583Y264469D02*Y264272D01*
X144882Y264469D02*Y264272D01*
G54D26*X163976Y256890D02*X165157D01*
X163976Y249803D02*X165157D01*
X118307Y256890D02*X119488D01*
X118307Y249803D02*X119488D01*
G54D37*X221949Y280118D02*Y277756D01*
Y287205D02*Y284843D01*
X218209Y287205D02*Y284843D01*
Y280118D02*Y277756D01*
G54D26*X239370Y281398D02*Y278839D01*
X227559Y281398D02*Y278839D01*
G54D28*X232283Y272343D02*Y269783D01*
X228346Y272343D02*Y269783D01*
X224409Y272343D02*Y269783D01*
X220472Y272343D02*Y269783D01*
G54D30*X207874Y279232D02*Y279035D01*
X201575Y279232D02*Y279035D01*
X192126Y279232D02*Y279035D01*
X185827Y279232D02*Y279035D01*
G54D28*X216535Y272343D02*Y269783D01*
X212598Y272343D02*Y269783D01*
X208661Y272343D02*Y269783D01*
X204724Y272343D02*Y269783D01*
X200787Y272343D02*Y269783D01*
X196850Y272343D02*Y269783D01*
X192913Y272343D02*Y269783D01*
X188976Y272343D02*Y269783D01*
X185039Y272343D02*Y269783D01*
X181102Y272343D02*Y269783D01*
X177165Y272343D02*Y269783D01*
G54D36*X206102Y85630D02*X207283D01*
X206102Y83661D02*X207283D01*
X206102Y81693D02*X207283D01*
X206102Y79724D02*X207283D01*
X206102Y77756D02*X207283D01*
X206102Y75787D02*X207283D01*
X206102Y73819D02*X207283D01*
X222835Y72047D02*Y70866D01*
X220866Y72047D02*Y70866D01*
X218898Y72047D02*Y70866D01*
X216929Y72047D02*Y70866D01*
X214961Y72047D02*Y70866D01*
X212992Y72047D02*Y70866D01*
X211024Y72047D02*Y70866D01*
X224606Y75787D02*X225787D01*
X224606Y73819D02*X225787D01*
G54D26*X232087Y71260D02*Y70079D01*
X239173Y71260D02*Y70079D01*
G54D36*X224606Y77756D02*X225787D01*
G54D40*X215945Y80713D02*Y80705D01*
G54D36*X216929Y81299D02*Y80118D01*
X214961Y81299D02*Y80118D01*
X212992Y77362D02*Y76181D01*
X211024Y77362D02*Y76181D01*
X220866Y77362D02*Y76181D01*
X218898Y77362D02*Y76181D01*
X212992Y81299D02*Y80118D01*
X211024Y81299D02*Y80118D01*
X216929Y77362D02*Y76181D01*
X214961Y77362D02*Y76181D01*
X224606Y87598D02*X225787D01*
X224606Y85630D02*X225787D01*
X224606Y83661D02*X225787D01*
X220866Y85236D02*Y84055D01*
Y81299D02*Y80118D01*
X218898Y85236D02*Y84055D01*
Y81299D02*Y80118D01*
X224606Y81693D02*X225787D01*
X224606Y79724D02*X225787D01*
G54D34*X231496Y84843D02*X231890D01*
X231496Y77362D02*X231890D01*
X239370Y81102D02*X239764D01*
G54D30*X205217Y49803D02*X205413D01*
G54D29*X205315Y58272D02*Y58264D01*
Y54728D02*Y54720D01*
G54D41*X212185Y56437D02*X213406D01*
G54D29*X214961Y62996D02*Y62988D01*
Y66539D02*Y66531D01*
X211024Y62996D02*Y62988D01*
Y66539D02*Y66531D01*
X198224Y70472D02*X198232D01*
X194681D02*X194689D01*
X199213Y66539D02*Y66531D01*
Y62996D02*Y62988D01*
X195276Y62996D02*Y62988D01*
Y66539D02*Y66531D01*
X207087Y62996D02*Y62988D01*
Y66539D02*Y66531D01*
X203150Y66539D02*Y66531D01*
Y62996D02*Y62988D01*
G54D30*X205217Y43504D02*X205413D01*
G54D41*X212185Y43563D02*X213406D01*
G54D42*X196602Y45224D02*Y43354D01*
G54D43*X185630Y65748D02*Y64567D01*
X189370Y65748D02*Y64567D01*
G54D44*X184791Y45720D02*Y42862D01*
G54D39*X192469Y49902D02*X194339D01*
G54D45*X191457Y56417D02*X193583D01*
G54D46*X186220Y58268D02*Y53543D01*
X183661Y58268D02*Y53543D01*
X181102Y58268D02*Y53543D01*
X178543Y58268D02*Y53543D01*
X175984Y58268D02*Y53543D01*
G54D29*X157280Y78937D02*X157287D01*
X153736D02*X153744D01*
X149799D02*X149807D01*
X146256D02*X146264D01*
X142319D02*X142327D01*
G54D37*X140531Y54134D02*Y47835D01*
G54D30*X140433Y58071D02*X140630D01*
G54D47*X140531Y56102D02*Y55315D01*
G54D37*X145531Y54134D02*Y47835D01*
G54D30*X145433Y58071D02*X145630D01*
G54D47*X145531Y56102D02*Y55315D01*
G54D37*X150531Y54134D02*Y47835D01*
G54D30*X150433Y58071D02*X150630D01*
G54D47*X150531Y56102D02*Y55315D01*
G54D37*X155531Y54134D02*Y47835D01*
G54D30*X155433Y58071D02*X155630D01*
G54D47*X155531Y56102D02*Y55315D01*
G54D26*X165748Y73228D02*X166929D01*
G54D45*X168622Y56417D02*X170748D01*
G54D44*X177413Y45720D02*Y42862D01*
G54D42*X165602Y45224D02*Y43354D01*
G54D29*X142319Y42717D02*X142327D01*
X138776D02*X138783D01*
G54D39*X167866Y49902D02*X169736D01*
G54D36*X222835Y90551D02*Y89370D01*
G54D29*X234445Y90354D02*X234453D01*
X230902D02*X230909D01*
G54D36*X220866Y90551D02*Y89370D01*
X218898Y90551D02*Y89370D01*
G54D29*X162398Y91732D02*X162406D01*
X158854D02*X158862D01*
G54D36*X216929Y90551D02*Y89370D01*
X214961Y90551D02*Y89370D01*
X212992Y90551D02*Y89370D01*
X211024Y90551D02*Y89370D01*
X209055Y90551D02*Y89370D01*
X206102Y87598D02*X207283D01*
X216929Y85236D02*Y84055D01*
X214961Y85236D02*Y84055D01*
X212992Y85236D02*Y84055D01*
X211024Y85236D02*Y84055D01*
X209055Y72047D02*Y70866D01*
G54D29*X202165Y70476D02*Y70469D01*
Y74020D02*Y74012D01*
G54D43*X189370Y75197D02*Y74016D01*
X185630Y75197D02*Y74016D01*
X181890Y75197D02*Y74016D01*
Y65748D02*Y64567D01*
G54D31*X173228Y185433D02*Y176378D01*
Y154331D02*Y145276D01*
X220472Y185433D02*Y176378D01*
Y154331D02*Y145276D01*
G54D29*X190945Y189965D02*Y189957D01*
X202756Y189965D02*Y189957D01*
X194882Y189965D02*Y189957D01*
X198819Y189965D02*Y189957D01*
G54D28*X177165Y200689D02*Y198130D01*
X181102Y200689D02*Y198130D01*
X185039Y200689D02*Y198130D01*
X188976Y200689D02*Y198130D01*
G54D26*X163287Y207283D02*X165846D01*
X163287Y195472D02*X165846D01*
G54D28*X192913Y200689D02*Y198130D01*
X196850Y200689D02*Y198130D01*
G54D29*X190945Y193508D02*Y193500D01*
X194882Y193508D02*Y193500D01*
G54D28*X200787Y200689D02*Y198130D01*
G54D29*X202756Y193508D02*Y193500D01*
X198819Y193508D02*Y193500D01*
G54D38*X194783Y223228D02*X214665D01*
G54D39*X208563Y230906D02*X211614D01*
X208563Y223228D02*X211614D01*
X197835D02*X200886D01*
X219291Y230906D02*X222343D01*
X219291Y223228D02*X222343D01*
X187106Y230906D02*X190157D01*
X197835D02*X200886D01*
X187106Y223228D02*X190157D01*
X187106Y215551D02*X190157D01*
X208563D02*X211614D01*
X219291D02*X222343D01*
X197835D02*X200886D01*
G54D26*X163976Y228740D02*X165157D01*
G54D38*X186122Y247244D02*X190256D01*
G54D39*X196555Y254921D02*X197933D01*
X187500D02*X188878D01*
X187500Y247244D02*X188878D01*
X178445Y239567D02*X179823D01*
G54D26*X163976Y235827D02*X165157D01*
G54D39*X178445Y254921D02*X179823D01*
X178445Y247244D02*X179823D01*
X196555D02*X197933D01*
X196555Y239567D02*X197933D01*
X187500D02*X188878D01*
G54D38*X219193Y247244D02*X223327D01*
G54D39*X211516Y254921D02*X212894D01*
X220571D02*X221949D01*
X220571Y247244D02*X221949D01*
X229626Y239567D02*X231004D01*
X229626Y254921D02*X231004D01*
X229626Y247244D02*X231004D01*
X211516D02*X212894D01*
X211516Y239567D02*X212894D01*
X220571D02*X221949D01*
G54D28*X204724Y200689D02*Y198130D01*
X208661Y200689D02*Y198130D01*
X212598Y200689D02*Y198130D01*
X216535Y200689D02*Y198130D01*
X220472Y200689D02*Y198130D01*
X224409Y200689D02*Y198130D01*
X228346Y200689D02*Y198130D01*
X232283Y200689D02*Y198130D01*
G54D30*X230709Y192815D02*Y192618D01*
X224409Y192815D02*Y192618D01*
G54D29*X212594Y192717D02*X212602D01*
X209051D02*X209059D01*
G54D34*X231890Y137795D02*X232283D01*
X239764Y134055D02*X240157D01*
G54D30*X226083Y137598D02*X226280D01*
G54D29*X221063Y135240D02*Y135232D01*
Y138783D02*Y138776D01*
G54D30*X226083Y131299D02*X226280D01*
G54D34*X231890Y130315D02*X232283D01*
G54D29*X209252Y138783D02*Y138776D01*
Y135240D02*Y135232D01*
X217126Y135240D02*Y135232D01*
Y138783D02*Y138776D01*
X213189Y138783D02*Y138776D01*
Y135240D02*Y135232D01*
G54D43*X197047Y132874D02*X198228D01*
G54D29*X204720Y123228D02*X204728D01*
X208264Y127165D02*X208272D01*
G54D43*X197047Y125394D02*X198228D01*
X197047Y129134D02*X198228D01*
G54D29*X204720Y127165D02*X204728D01*
X208264Y131102D02*X208272D01*
X204720D02*X204728D01*
G54D48*X190551Y98622D02*X206299D01*
G54D29*X190744Y91339D02*X190752D01*
X187201D02*X187209D01*
G54D26*X172835Y108661D02*X174016D01*
X172835Y101575D02*X174016D01*
X180709Y108661D02*X181890D01*
X180709Y101575D02*X181890D01*
G54D29*X162398Y101181D02*X162406D01*
X162398Y105906D02*X162406D01*
X162398Y96457D02*X162406D01*
X208264Y123228D02*X208272D01*
G54D48*X190551Y115551D02*X206299D01*
G54D34*X174213Y122244D02*X174606D01*
G54D29*X162398Y126772D02*X162406D01*
X162398Y122047D02*X162406D01*
G54D34*X174213Y114764D02*X174606D01*
X182087Y118504D02*X182480D01*
G54D29*X162398Y110630D02*X162406D01*
X162398Y117323D02*X162406D01*
X162398Y131496D02*X162406D01*
G54D43*X187598Y132874D02*X188780D01*
G54D29*X187201Y137992D02*X187209D01*
X190744D02*X190752D01*
G54D26*X181890Y136713D02*Y134154D01*
X170079Y136713D02*Y134154D01*
G54D43*X187598Y129134D02*X188780D01*
X187598Y125394D02*X188780D01*
G54D30*X175984Y128051D02*Y127854D01*
X182283Y128051D02*Y127854D01*
G54D29*X162398Y136220D02*X162406D01*
G54D31*X110236Y154331D02*Y145276D01*
G54D29*X109252Y129728D02*Y129720D01*
Y133272D02*Y133264D01*
X113189Y129728D02*Y129720D01*
Y133272D02*Y133264D01*
X113185Y124409D02*X113193D01*
X113189Y116736D02*Y116728D01*
Y120280D02*Y120272D01*
X109642Y137402D02*X109650D01*
X113185D02*X113193D01*
G54D36*X91339Y113583D02*X94882D01*
X91339Y115551D02*X94882D01*
X91339Y117520D02*X94882D01*
X91339Y119488D02*X94882D01*
X91339Y121457D02*X94882D01*
X91339Y123425D02*X94882D01*
X91339Y125394D02*X94882D01*
X85236Y135039D02*Y131496D01*
X83268Y135039D02*Y131496D01*
X81299Y135039D02*Y131496D01*
X79331Y135039D02*Y131496D01*
X77362Y135039D02*Y131496D01*
G54D34*X143110Y107480D02*X143504D01*
X143110Y120472D02*X143504D01*
X150984Y116732D02*X151378D01*
G54D29*X138189Y116736D02*Y116728D01*
Y120280D02*Y120272D01*
X134252Y116736D02*Y116728D01*
Y120280D02*Y120272D01*
G54D34*X125984Y116732D02*X126378D01*
X150984Y124213D02*X151378D01*
G54D29*X134642Y124409D02*X134650D01*
X138185D02*X138193D01*
G54D34*X125984Y129724D02*X126378D01*
X125984Y137205D02*X126378D01*
X118110Y133465D02*X118504D01*
X125984Y124213D02*X126378D01*
X118110Y120472D02*X118504D01*
G54D36*X61614Y135039D02*Y131496D01*
X59646Y135039D02*Y131496D01*
X57677Y135039D02*Y131496D01*
X55709Y135039D02*Y131496D01*
Y89764D02*Y86220D01*
X57677Y89764D02*Y86220D01*
X59646Y89764D02*Y86220D01*
X61614Y89764D02*Y86220D01*
X63583Y89764D02*Y86220D01*
X65551Y89764D02*Y86220D01*
X67520Y89764D02*Y86220D01*
X69488Y89764D02*Y86220D01*
X71457Y89764D02*Y86220D01*
X73425Y89764D02*Y86220D01*
X75394Y89764D02*Y86220D01*
X77362Y89764D02*Y86220D01*
X79331Y89764D02*Y86220D01*
X81299Y89764D02*Y86220D01*
X83268Y89764D02*Y86220D01*
X85236Y89764D02*Y86220D01*
G54D29*X75591Y62602D02*Y62594D01*
Y66146D02*Y66138D01*
X71654Y66146D02*Y66138D01*
Y62602D02*Y62594D01*
G54D34*X145472Y156693D02*Y156299D01*
X137992Y156693D02*Y156299D01*
X141732Y148819D02*Y148425D01*
X150984Y137205D02*X151378D01*
X143110Y133465D02*X143504D01*
G54D29*X138189Y129728D02*Y129720D01*
Y133272D02*Y133264D01*
X134252Y129728D02*Y129720D01*
Y133272D02*Y133264D01*
X134642Y137402D02*X134650D01*
X138185D02*X138193D01*
G54D30*X102461Y135236D02*X102657D01*
X102461Y128937D02*X102657D01*
G54D29*X97437Y138976D02*X97445D01*
X93894D02*X93902D01*
X98622Y117524D02*Y117516D01*
Y121067D02*Y121059D01*
X102559Y120280D02*Y120272D01*
Y123823D02*Y123815D01*
X134642Y111417D02*X134650D01*
X138185D02*X138193D01*
G54D34*X150984Y129724D02*X151378D01*
X150984Y111220D02*X151378D01*
G54D29*X158854Y110630D02*X158862D01*
X158854Y126772D02*X158862D01*
X158854Y122047D02*X158862D01*
X158854Y117323D02*X158862D01*
X158854Y131496D02*X158862D01*
X158854Y136220D02*X158862D01*
X98622Y110043D02*Y110035D01*
G54D36*X91339Y95866D02*X94882D01*
X91339Y97835D02*X94882D01*
X91339Y99803D02*X94882D01*
X91339Y101772D02*X94882D01*
X91339Y103740D02*X94882D01*
X91339Y105709D02*X94882D01*
X91339Y107677D02*X94882D01*
X91339Y109646D02*X94882D01*
X91339Y111614D02*X94882D01*
G54D26*X92913Y65650D02*Y63091D01*
X81102Y65650D02*Y63091D01*
X91535Y72244D02*X92717D01*
X91535Y79331D02*X92717D01*
G54D29*X86220Y77366D02*Y77358D01*
Y80909D02*Y80902D01*
X98622Y113587D02*Y113579D01*
G54D34*X106890Y62598D02*X107283D01*
X106890Y70079D02*X107283D01*
X99016Y66339D02*X99409D01*
G54D29*X98622Y95083D02*Y95075D01*
Y98626D02*Y98618D01*
Y102563D02*Y102555D01*
Y106106D02*Y106098D01*
X102559Y112799D02*Y112791D01*
Y116343D02*Y116335D01*
X109252Y116736D02*Y116728D01*
Y120280D02*Y120272D01*
X109642Y124409D02*X109650D01*
X112205Y66736D02*Y66728D01*
Y63193D02*Y63185D01*
X129331Y99217D02*Y99209D01*
Y103154D02*Y103146D01*
Y106697D02*Y106689D01*
X138189Y103744D02*Y103736D01*
Y107287D02*Y107280D01*
X134252Y103744D02*Y103736D01*
Y107287D02*Y107280D01*
G54D34*X150984Y103740D02*X151378D01*
G54D29*X158854Y101181D02*X158862D01*
X158854Y105906D02*X158862D01*
X158854Y96457D02*X158862D01*
X138776Y78937D02*X138783D01*
G54D26*X140354Y86713D02*Y84154D01*
G54D29*X142713Y91929D02*X142720D01*
X139169D02*X139177D01*
G54D30*X140748Y97146D02*Y96949D01*
X134449Y97146D02*Y96949D01*
G54D29*X129331Y95673D02*Y95665D01*
X124016Y63193D02*Y63185D01*
X116142Y63193D02*Y63185D01*
X120079Y63193D02*Y63185D01*
X124016Y66736D02*Y66728D01*
X116142Y66736D02*Y66728D01*
X120079Y66736D02*Y66728D01*
X127953Y66736D02*Y66728D01*
Y63193D02*Y63185D01*
X131890Y66736D02*Y66728D01*
Y63193D02*Y63185D01*
G54D37*X181886Y93504D02*X181894D01*
X173224D02*X173232D01*
G54D29*X172437Y78543D02*X172445D01*
X175980D02*X175988D01*
G54D26*X173622Y66142D02*X174803D01*
X173622Y73228D02*X174803D01*
X152165Y86713D02*Y84154D01*
G54D37*X150531Y74606D02*Y68307D01*
X145531Y74606D02*Y68307D01*
X140531Y74606D02*Y68307D01*
G54D30*X140433Y64370D02*X140630D01*
G54D47*X140531Y67126D02*Y66339D01*
G54D30*X145433Y64370D02*X145630D01*
G54D47*X145531Y67126D02*Y66339D01*
G54D30*X150433Y64370D02*X150630D01*
X155433D02*X155630D01*
G54D47*X155531Y67126D02*Y66339D01*
X150531Y67126D02*Y66339D01*
G54D37*X155531Y74606D02*Y68307D01*
G54D29*X164563Y78543D02*X164571D01*
X168106D02*X168114D01*
G54D26*X165748Y66142D02*X166929D01*
G54D49*X101575Y266339D03*
Y263780D03*
X99016Y266339D03*
Y263780D03*
X106299Y266535D03*
X96457Y266339D03*
Y263780D03*
X93898D03*
X91339Y266339D03*
X89370Y259055D03*
X87992Y261417D03*
X91339Y263780D03*
X109055Y256496D03*
Y253740D03*
X111417Y252362D03*
X109055Y250984D03*
X111417Y255118D03*
X100394Y216339D03*
X102756Y217717D03*
X100394Y230118D03*
X118898Y224409D03*
X102756Y228740D03*
X100394Y227362D03*
X102756Y225984D03*
X100394Y224606D03*
X102756Y223228D03*
Y220472D03*
X100394Y221850D03*
Y219094D03*
X93898Y266339D03*
X91339Y283268D03*
X106299Y275591D03*
X117323Y275787D03*
X103937Y301772D03*
Y304528D03*
X118898Y245472D03*
X111417Y241339D03*
Y244094D03*
X109055Y242717D03*
Y248228D03*
Y245472D03*
X111417Y249606D03*
Y246850D03*
X135433Y203740D03*
Y200984D03*
Y198228D03*
Y195472D03*
Y192717D03*
Y206496D03*
X126575Y203740D03*
Y206496D03*
Y200984D03*
Y198228D03*
Y195472D03*
X119882Y202953D03*
Y200197D03*
X117323Y220669D03*
X120079D03*
X115945Y156299D03*
Y153937D03*
Y151575D03*
X118110Y155118D03*
X120276Y153937D03*
Y151575D03*
X118110Y152756D03*
X120276Y156299D03*
X81496Y209055D03*
X84252D03*
X94488Y204134D03*
X98425D03*
X101969D03*
X112402D03*
X110630Y202559D03*
X112992Y201772D03*
X82677Y204134D03*
X126575Y192717D03*
X115945Y187205D03*
Y184646D03*
Y182087D03*
Y179528D03*
Y176969D03*
Y174409D03*
X132283Y171260D03*
X133268Y165354D03*
X135236Y168898D03*
X132283Y174016D03*
Y176772D03*
X129921Y175394D03*
Y178150D03*
Y172638D03*
X94291Y194685D03*
Y191929D03*
X84449Y186614D03*
X91732D03*
X88189D03*
X104528Y182087D03*
Y179528D03*
Y176969D03*
Y174409D03*
Y187205D03*
Y184646D03*
X109055Y194882D03*
Y192126D03*
X91732Y165354D03*
X88583Y163976D03*
X104528Y156299D03*
Y153937D03*
Y151575D03*
X102362Y155118D03*
Y152756D03*
X100197Y153937D03*
Y156299D03*
Y151575D03*
X78740Y275591D03*
X76772Y301772D03*
Y304528D03*
X77362Y235039D03*
X80118D03*
X78740Y237402D03*
Y266535D03*
X77362Y264173D03*
X80118D03*
X55906Y266339D03*
X51181Y266535D03*
Y275591D03*
X50000Y280118D03*
X55906Y263780D03*
X58465Y266339D03*
Y263780D03*
X61024D03*
X63583D03*
X61024Y266339D03*
X63583D03*
X66142D03*
X70866Y266535D03*
Y275591D03*
X46063Y245866D03*
Y248622D03*
Y251378D03*
X48425Y255512D03*
X46063Y254134D03*
X48425Y252756D03*
Y250000D03*
Y247244D03*
Y244488D03*
Y241732D03*
X46063Y240354D03*
Y243110D03*
X48425Y238976D03*
X54724Y228740D03*
X57087Y230118D03*
Y227362D03*
Y224606D03*
X54724Y225984D03*
Y223228D03*
X57087Y221850D03*
Y219094D03*
Y216339D03*
X54724Y220472D03*
Y217717D03*
X66142Y263780D03*
X73622Y259055D03*
X70866D03*
X68110D03*
X72244Y261417D03*
X69488D03*
X83858Y259055D03*
X86614D03*
Y266535D03*
X85236Y261417D03*
X86614Y275591D03*
X57283Y156299D03*
Y153740D03*
Y151181D03*
Y148622D03*
Y146063D03*
Y167323D03*
X68701Y156299D03*
X64173Y164961D03*
X80906D03*
X47638Y165748D03*
X49213Y162598D03*
X73031Y156299D03*
X68701Y153937D03*
Y151575D03*
X70866Y155118D03*
X73031Y153937D03*
Y151575D03*
X76575Y144882D03*
X79331Y147047D03*
X70866Y152756D03*
X71850Y211417D03*
X74606D03*
X77362D03*
X80118D03*
X82874D03*
X85630D03*
X73228Y209055D03*
X59055Y204134D03*
Y194685D03*
X66929Y204134D03*
X75984Y209055D03*
X78740D03*
Y204134D03*
X47441Y199016D03*
Y201575D03*
Y196457D03*
X55512Y194685D03*
X68701Y184646D03*
Y182087D03*
Y179528D03*
Y176969D03*
Y174409D03*
X57283Y187205D03*
Y184646D03*
Y182087D03*
Y179528D03*
Y176969D03*
Y174409D03*
X73622Y189370D03*
X80906Y186614D03*
X69882Y189370D03*
X97441Y135630D03*
X97835Y130315D03*
Y126378D03*
X93898Y135630D03*
X102559Y138976D03*
X105906Y120866D03*
X106496Y138976D03*
X106299Y124409D03*
X104528Y144488D03*
X100984Y145472D03*
X97441Y146850D03*
X115354Y59843D03*
X119291D03*
X145669Y42717D03*
X149213D03*
X155709Y44488D03*
X152756Y42717D03*
X135433D03*
X127953Y70079D03*
X134646Y51181D03*
X136024Y74409D03*
X134646Y57087D03*
X125984Y91339D03*
X146850Y82874D03*
X145866Y90551D03*
X148622D03*
X155512Y91732D03*
Y95276D03*
X147835Y86614D03*
X145079D03*
X144685Y98228D03*
Y95472D03*
X143307Y129724D03*
X142717Y137205D03*
X146260D03*
X146063Y129724D03*
X147244Y124213D03*
Y120472D03*
Y116732D03*
X144488D03*
X145866Y113583D03*
X147244Y103740D03*
X151181Y100197D03*
X155512Y117323D03*
Y131496D03*
Y127953D03*
Y102362D03*
Y105906D03*
X122244Y124213D03*
X155709Y124409D03*
X141339Y114567D03*
X141535Y111220D03*
X113976Y107480D03*
X122244Y116732D03*
X119488D03*
X122244Y129724D03*
X119488D03*
X122244Y133465D03*
Y120472D03*
Y137205D03*
X131299Y137402D03*
X115945Y144488D03*
X119488D03*
X116535Y138976D03*
X122638Y146063D03*
X130906Y133465D03*
X127362D03*
X99213Y62598D03*
X88583Y62992D03*
X96654Y75787D03*
X97047Y72441D03*
X58858Y83071D03*
X64961Y92520D03*
X42323Y98228D03*
Y102165D03*
X53346Y99016D03*
X42323Y87992D03*
X57283Y143504D03*
X57480Y128937D03*
X55906Y122244D03*
X53346Y120079D03*
X52165Y109055D03*
Y104331D03*
X52559Y134843D03*
X46260Y138386D03*
X49606Y127953D03*
X46654Y129724D03*
X43307Y119882D03*
Y123425D03*
X75394Y138976D03*
X72047Y138583D03*
X68701Y138976D03*
X68307Y126575D03*
Y121260D03*
X65945Y123819D03*
X68701Y144291D03*
X68307Y117717D03*
X59252Y114961D03*
X63386Y112992D03*
X80906Y128937D03*
X77362Y128150D03*
X88189Y134449D03*
X88583Y118110D03*
X82480Y113583D03*
X86024Y120472D03*
X82480Y110039D03*
Y106496D03*
X87402Y104134D03*
X76969Y106496D03*
X83268Y83071D03*
X79331Y100787D03*
X83071D03*
X80512Y80906D03*
X83071Y77362D03*
X80709Y74016D03*
X76575Y77559D03*
X77165Y74016D03*
Y70472D03*
X90157Y84252D03*
X87402D03*
X88583Y100984D03*
X74803Y59646D03*
X88583Y65748D03*
X192913Y204134D03*
X183071Y230118D03*
X203346Y235039D03*
X206102D03*
X204724Y237402D03*
X185039Y204134D03*
X197835Y211417D03*
X200591D03*
X199213Y209055D03*
X203346Y211417D03*
X206102D03*
X201969Y209055D03*
X204724D03*
Y204134D03*
X193898Y186614D03*
X201378D03*
X208661Y189370D03*
X187598Y186614D03*
X197638D03*
X180709Y228740D03*
X183071Y227362D03*
Y224606D03*
Y221850D03*
Y219094D03*
Y216339D03*
X180709Y225984D03*
Y223228D03*
Y220472D03*
Y217717D03*
X185039Y194685D03*
X181496D03*
X181102Y155118D03*
Y152756D03*
X183268Y153937D03*
Y156299D03*
Y151575D03*
X214764Y184449D03*
Y181890D03*
Y179331D03*
Y176772D03*
Y174213D03*
Y156299D03*
Y153740D03*
Y151181D03*
X212205Y165354D03*
X214764Y148622D03*
Y146063D03*
Y143504D03*
X205906Y138189D03*
X213780Y131890D03*
X207087Y144685D03*
X193504Y137992D03*
X196850Y144685D03*
X201575Y129134D03*
X193701D03*
X204724Y134646D03*
X196260Y137992D03*
X194094Y91339D03*
X196850D03*
X199803Y81496D03*
X203346D03*
X191732Y61417D03*
X187008Y69094D03*
X196063Y73819D03*
X198819D03*
X183858Y70669D03*
X192913Y75000D03*
X201969Y46457D03*
X200787Y57677D03*
X211417Y52559D03*
Y47441D03*
X214173Y52559D03*
Y47441D03*
X208858Y59843D03*
X178937Y187008D03*
Y184449D03*
Y181890D03*
Y179331D03*
Y176772D03*
Y174213D03*
Y156299D03*
Y153937D03*
Y151575D03*
X167520Y187008D03*
Y184449D03*
Y181890D03*
Y179331D03*
Y176772D03*
Y174213D03*
X170276Y167913D03*
X142126Y188583D03*
X139370D03*
X140748Y186811D03*
X143504D03*
X138386Y165354D03*
X149016Y178740D03*
X151181Y177559D03*
X149016Y176378D03*
X150000Y165354D03*
X144882Y188583D03*
X147638D03*
X150394D03*
X146260Y186811D03*
X149016D03*
X156693Y205512D03*
Y202756D03*
Y200000D03*
X159055Y204134D03*
Y201378D03*
X170472Y204921D03*
X172244Y203150D03*
X169882Y202559D03*
X165945Y211614D03*
X163583D03*
X161220D03*
X162402Y213780D03*
X164764D03*
X164567Y224409D03*
X156693Y197244D03*
X159055Y198622D03*
Y195866D03*
Y193110D03*
X156693Y194488D03*
Y191732D03*
X176378Y94882D03*
Y92126D03*
X158858Y73622D03*
X162402Y83268D03*
X156693Y85827D03*
X175984Y50787D03*
X172835Y61811D03*
X167717D03*
X155906Y98819D03*
X167520Y156299D03*
Y153937D03*
X167913Y144882D03*
X168307Y107677D03*
Y110433D03*
Y102559D03*
Y99803D03*
Y97047D03*
Y94291D03*
X167520Y151575D03*
X165354Y155118D03*
Y152756D03*
X163189Y151575D03*
Y153937D03*
Y156299D03*
X158071Y139764D03*
X165945Y142126D03*
X162402Y113976D03*
X208661Y204134D03*
X212205Y189370D03*
X208858Y211417D03*
X207480Y209055D03*
X210236D03*
X211614Y211417D03*
X220472Y204331D03*
X214764Y187008D03*
X220079Y194488D03*
Y191929D03*
X226378Y216339D03*
X224409Y204134D03*
X226181Y187008D03*
Y184449D03*
Y181890D03*
Y179331D03*
Y176772D03*
Y174213D03*
X228346Y204134D03*
X228740Y217717D03*
Y220472D03*
Y228740D03*
X226378Y230118D03*
Y227362D03*
X228740Y225984D03*
X226378Y224606D03*
X228740Y223228D03*
X226378Y221850D03*
Y219094D03*
X237402Y240354D03*
Y245866D03*
Y243110D03*
Y248622D03*
X235039Y238976D03*
Y247244D03*
Y244488D03*
Y241732D03*
X241142Y206299D03*
X241535Y170276D03*
Y167520D03*
X239370Y204528D03*
X237598Y202756D03*
X235827Y200984D03*
X235039Y194882D03*
Y192126D03*
X236024Y131299D03*
Y136811D03*
X235630Y66142D03*
X239173Y76575D03*
X240748Y85630D03*
X235630Y84449D03*
Y87008D03*
Y77756D03*
Y75197D03*
X240748Y90354D03*
X226181Y156299D03*
X217323Y165354D03*
X226181Y153740D03*
Y151181D03*
Y148622D03*
Y146063D03*
Y143504D03*
X217323Y131890D03*
X222244Y131299D03*
X218110Y64764D03*
Y61220D03*
X227756Y70472D03*
Y67717D03*
X223425Y66535D03*
X227559Y89961D03*
X225197Y92520D03*
X229921Y81102D03*
X227559Y266339D03*
Y263780D03*
X225000Y266339D03*
Y263780D03*
X232283Y266535D03*
X222441Y266339D03*
Y263780D03*
X219882Y266339D03*
Y263780D03*
X217323Y266339D03*
Y263780D03*
Y290354D03*
X212598Y275591D03*
X232283D03*
X204724D03*
G54D50*X192126Y283268D03*
G54D49*X196850Y275591D03*
X167126Y283268D03*
X177165Y275787D03*
X166142D03*
X179724Y301969D03*
Y304528D03*
X196850Y266535D03*
X181890Y266339D03*
Y263780D03*
X184449Y266339D03*
Y263780D03*
X177165Y266535D03*
X166142Y261417D03*
X204724Y266535D03*
X206102Y304528D03*
Y301772D03*
X203346Y264173D03*
X187008Y266339D03*
Y263780D03*
X189567D03*
X192126D03*
X189567Y266339D03*
X192126D03*
X199606Y259055D03*
X196850D03*
X194094D03*
X198228Y261417D03*
X195472D03*
X209843Y259055D03*
X212598D03*
X215354D03*
X213976Y261417D03*
X212598Y266535D03*
X206102Y264173D03*
X211220Y261417D03*
X134252Y264370D03*
Y266929D03*
Y261811D03*
X149213Y264370D03*
Y266929D03*
Y261811D03*
X117323Y261417D03*
X118898Y241929D03*
X116339Y283268D03*
Y312205D03*
X113583Y306496D03*
X235039Y255512D03*
Y252756D03*
X237402Y251378D03*
X235039Y250000D03*
X237402Y254134D03*
X164567Y241929D03*
Y245472D03*
X172047Y246850D03*
Y249606D03*
Y241339D03*
Y244094D03*
Y252362D03*
X174409Y256496D03*
X172047Y255118D03*
X174409Y253740D03*
Y250984D03*
Y248228D03*
Y245472D03*
Y242717D03*
G54D51*G54D52*G54D53*G54D20*G54D53*G54D22*G54D54*G54D22*G54D20*G54D52*G54D24*G54D50*G54D24*G54D20*G54D55*M02*
